<svg id="그룹_12762" data-name="그룹 12762" xmlns="http://www.w3.org/2000/svg" width="34.018" height="38.147" viewBox="0 0 34.018 38.147">
  <path id="패스_283" data-name="패스 283" d="M34.693,26.99,20.036,40.3V52.087c4.718,4.73,9.41,3.708,12.073,2.452a51.758,51.758,0,0,1-6.057-5.16,6.957,6.957,0,0,1-1.713-7.564A5.407,5.407,0,0,1,29.3,38.366h.024a7,7,0,0,1,5.095,2.5c.265-.28.527-.53.786-.756a13.044,13.044,0,0,1,4.356-2.678,10.519,10.519,0,0,1,6.275-.321Z" transform="translate(-17.669 -23.802)" fill="#fca500"/>
  <path id="패스_284" data-name="패스 284" d="M88.4,144.86a3.094,3.094,0,0,0-2.811-1.987h-.012a4.417,4.417,0,0,0-2.817,1.254c-.032.032-.053.053-.065.068l-.006-.009a9.834,9.834,0,0,0-1.269,1.41l-.936,1.251-.945-1.242c-1.316-1.736-2.8-2.69-4.167-2.69h-.006a3.092,3.092,0,0,0-2.808,2.01,4.518,4.518,0,0,0,1.233,5.012,34.633,34.633,0,0,0,6.728,5.454,34.571,34.571,0,0,0,6.687-5.51A4.525,4.525,0,0,0,88.4,144.86" transform="translate(-63.724 -126)" fill="#dd488e"/>
  <path id="패스_285" data-name="패스 285" d="M21.877,13.618A13.086,13.086,0,0,0,17.521,16.3c-.259.227-.521.477-.789.756a6.993,6.993,0,0,0-5.092-2.5h-.024A5.41,5.41,0,0,0,6.655,18a6.956,6.956,0,0,0,1.713,7.564,52.056,52.056,0,0,0,6.057,5.16c-2.664,1.257-7.355,2.278-12.076-2.449V16.491L17.009,3.179,28.152,13.3a10.518,10.518,0,0,0-6.275.318m1.6,10.254h0a34.566,34.566,0,0,1-6.684,5.51,34.652,34.652,0,0,1-6.731-5.454,4.523,4.523,0,0,1-1.236-5.009,3.092,3.092,0,0,1,2.808-2.013h.012c1.369,0,2.849.957,4.165,2.69l.945,1.242.936-1.251a9.685,9.685,0,0,1,1.269-1.41l.006.006c.012-.009.032-.035.065-.065a4.422,4.422,0,0,1,2.817-1.257h.012a3.1,3.1,0,0,1,2.811,1.99,4.525,4.525,0,0,1-1.192,5.021M17.009,0,0,15.449v22.7H2.349V31.413A12.166,12.166,0,0,0,9.9,34.133a12.125,12.125,0,0,0,2.761-.324,14.251,14.251,0,0,0,3.944-1.592A33.247,33.247,0,0,0,25.174,25.5a6.954,6.954,0,0,0,1.651-7.576,5.744,5.744,0,0,0-2.113-2.558,9.382,9.382,0,0,1,6.914,2.346l.041-.053v12.7h2.352v-14.9Z" transform="translate(0 0)" fill="#1a1311"/>
</svg>
