<svg xmlns="http://www.w3.org/2000/svg" xmlns:xlink="http://www.w3.org/1999/xlink" width="984" height="160" viewBox="0 0 984 160">
  <defs>
    <clipPath id="clip-path">
      <rect id="사각형_4950" data-name="사각형 4950" width="84.52" height="81.844" fill="none"/>
    </clipPath>
    <clipPath id="clip-path-2">
      <rect id="사각형_4949" data-name="사각형 4949" width="84.52" height="81.843" fill="none"/>
    </clipPath>
    <clipPath id="clip-path-3">
      <rect id="사각형_4947" data-name="사각형 4947" width="54.445" height="54.449" fill="none"/>
    </clipPath>
    <clipPath id="clip-path-4">
      <rect id="사각형_4948" data-name="사각형 4948" width="17.371" height="17.371" fill="#dd488e"/>
    </clipPath>
    <clipPath id="clip-path-5">
      <rect id="사각형_4945" data-name="사각형 4945" width="82" height="64.657" fill="none"/>
    </clipPath>
    <clipPath id="clip-path-6">
      <rect id="사각형_4953" data-name="사각형 4953" width="92" height="76" transform="translate(-0.227 0)" fill="none"/>
    </clipPath>
    <clipPath id="clip-path-8">
      <path id="패스_4913" data-name="패스 4913" d="M123.776,133.109a8.5,8.5,0,1,0,8.5-8.5,8.5,8.5,0,0,0-8.5,8.5" transform="translate(-123.776 -124.608)" fill="none"/>
    </clipPath>
    <clipPath id="clip-path-9">
      <rect id="사각형_4956" data-name="사각형 4956" width="69.21" height="69.757" fill="none"/>
    </clipPath>
    <clipPath id="clip-path-10">
      <path id="패스_4923" data-name="패스 4923" d="M81.574,86.026a3.089,3.089,0,1,0,3.089-3.091,3.088,3.088,0,0,0-3.089,3.091" transform="translate(-81.574 -82.935)" fill="none"/>
    </clipPath>
  </defs>
  <g id="그룹_12894" data-name="그룹 12894" transform="translate(-509 -1587.5)">
    <text id="_24시간_항시돌봄" data-name="24시간 항시돌봄" transform="translate(574 1721)" fill="#336" font-size="19" font-family="SourceHanSansKR-Bold, Source Han Sans KR" font-weight="700" letter-spacing="-0.02em"><tspan x="-64" y="0">24시간 항시돌봄</tspan></text>
    <text id="_119_응급호출" data-name="119 응급호출" transform="translate(859 1721)" fill="#336" font-size="19" font-family="SourceHanSansKR-Bold, Source Han Sans KR" font-weight="700" letter-spacing="-0.02em"><tspan x="-52" y="0">119 응급호출</tspan></text>
    <text id="_365_활동량_분석" data-name="365 활동량 분석" transform="translate(1143 1721)" fill="#336" font-size="19" font-family="SourceHanSansKR-Bold, Source Han Sans KR" font-weight="700" letter-spacing="-0.02em"><tspan x="-63" y="0">365 활동량 분석</tspan></text>
    <text id="_24시간_비상호출" data-name="24시간 비상호출" transform="translate(1428 1721)" fill="#336" font-size="19" font-family="SourceHanSansKR-Bold, Source Han Sans KR" font-weight="700" letter-spacing="-0.02em"><tspan x="-64" y="0">24시간 비상호출</tspan></text>
    <g id="그룹_12825" data-name="그룹 12825" transform="translate(1100 1609)">
      <g id="그룹_12824" data-name="그룹 12824" clip-path="url(#clip-path)">
        <path id="패스_4864" data-name="패스 4864" d="M28.956,39.181,17.639,50.5,5.132,40.449" transform="translate(-1.547 -11.81)" fill="#fff"/>
        <g id="그룹_12823" data-name="그룹 12823" transform="translate(0 0)">
          <g id="그룹_12822" data-name="그룹 12822" clip-path="url(#clip-path-2)">
            <path id="패스_4865" data-name="패스 4865" d="M17.262,50.995a.87.87,0,0,1-.546-.192L4.208,40.753A.873.873,0,1,1,5.3,39.391L17.2,48.95,27.961,38.187A.873.873,0,0,1,29.2,39.422L17.879,50.739a.872.872,0,0,1-.618.256" transform="translate(-1.17 -11.433)" fill="#336"/>
            <path id="패스_4866" data-name="패스 4866" d="M39.236,39.181,53.5,55.047,67.76,45.067l22.627,9.211" transform="translate(-11.826 -11.81)" fill="#fff"/>
            <path id="패스_4867" data-name="패스 4867" d="M53.121,55.543a.872.872,0,0,1-.65-.29L38.209,39.388a.873.873,0,1,1,1.3-1.167l13.745,15.29,13.629-9.536a.872.872,0,0,1,.83-.093l22.627,9.21a.873.873,0,0,1-.659,1.618L67.495,45.679,53.622,55.385a.869.869,0,0,1-.5.158" transform="translate(-11.449 -11.433)" fill="#336"/>
            <path id="패스_4868" data-name="패스 4868" d="M41.274,37.634a3.585,3.585,0,1,1-3.585-3.585,3.585,3.585,0,0,1,3.585,3.585" transform="translate(-10.279 -10.263)" fill="#dd488e"/>
            <path id="패스_4869" data-name="패스 4869" d="M7.17,39.449a3.585,3.585,0,1,1-3.585-3.585A3.585,3.585,0,0,1,7.17,39.449" transform="translate(0 -10.81)" fill="#dd488e"/>
            <path id="패스_4870" data-name="패스 4870" d="M61.69,60.345A3.585,3.585,0,1,1,58.1,56.76a3.585,3.585,0,0,1,3.585,3.585" transform="translate(-16.433 -17.108)" fill="#dd488e"/>
            <path id="패스_4871" data-name="패스 4871" d="M82.107,46.06a3.585,3.585,0,1,1-3.585-3.585,3.585,3.585,0,0,1,3.585,3.585" transform="translate(-22.587 -12.803)" fill="#dd488e"/>
            <path id="패스_4872" data-name="패스 4872" d="M114.5,59.245a3.585,3.585,0,1,1-3.585-3.585,3.585,3.585,0,0,1,3.585,3.585" transform="translate(-32.35 -16.777)" fill="#dd488e"/>
            <rect id="사각형_4946" data-name="사각형 4946" width="5.583" height="24.115" transform="translate(57.215 54.293) rotate(-45)" fill="#fff"/>
            <path id="패스_4873" data-name="패스 4873" d="M98.577,93.568a.873.873,0,0,1-.618-.256L80.908,76.261a.871.871,0,0,1,0-1.235l3.948-3.948a.9.9,0,0,1,1.234,0L103.141,88.13a.873.873,0,0,1,0,1.234l-3.948,3.948a.868.868,0,0,1-.617.256M82.76,75.643,98.577,91.46l2.712-2.713L85.472,72.93Z" transform="translate(-24.31 -21.35)" fill="#336"/>
            <path id="패스_4874" data-name="패스 4874" d="M24.279,11.232a.873.873,0,0,1-.618-1.491c.507-.507,1.036-1,1.571-1.475a.873.873,0,0,1,1.154,1.311c-.508.447-1.009.918-1.49,1.4a.871.871,0,0,1-.618.256M34,4.531a.873.873,0,0,1-.356-1.671,33.492,33.492,0,0,1,25.151-.784.873.873,0,1,1-.608,1.637,31.751,31.751,0,0,0-23.832.742A.866.866,0,0,1,34,4.531" transform="translate(-7.055 0)" fill="#336"/>
            <path id="패스_4875" data-name="패스 4875" d="M65.212,15.507a28.186,28.186,0,1,0,8.25,20.671v-.056a28.126,28.126,0,0,0-8.25-20.615m1.4,15.921A21.718,21.718,0,0,1,41.257,56.787H41.25A21.72,21.72,0,1,1,66.616,31.421Z" transform="translate(-5.148 -2.185)" fill="#fff"/>
            <path id="패스_4876" data-name="패스 4876" d="M65.212,15.507a28.186,28.186,0,1,0,8.25,20.671v-.056A28.126,28.126,0,0,0,65.212,15.507Zm1.4,15.921A21.718,21.718,0,0,1,41.257,56.787H41.25A21.72,21.72,0,1,1,66.616,31.421Z" transform="translate(-5.148 -2.185)" fill="none" stroke="#336" stroke-linecap="round" stroke-linejoin="round" stroke-width="2.5"/>
            <g id="그룹_12818" data-name="그룹 12818" transform="translate(13.869 7.003)" style="mix-blend-mode: darken;isolation: isolate">
              <g id="그룹_12817" data-name="그룹 12817">
                <g id="그룹_12816" data-name="그룹 12816" clip-path="url(#clip-path-3)">
                  <path id="패스_4877" data-name="패스 4877" d="M66.327,18A27.227,27.227,0,1,0,74.3,37.015v-.056A27.145,27.145,0,0,0,66.327,18M42.093,57.623h-.007A21.72,21.72,0,1,1,67.451,32.257v.007A20.971,20.971,0,0,1,42.093,57.623" transform="translate(-19.854 -10.025)" fill="#f3b7d3"/>
                </g>
              </g>
            </g>
            <line id="선_50" data-name="선 50" x1="0.375" y1="0.375" transform="translate(63.54 68.214)" fill="#fff"/>
            <path id="패스_4878" data-name="패스 4878" d="M90.953,98.517a.871.871,0,0,1-.618-.256l-.375-.376a.873.873,0,0,1,1.234-1.234l.376.375a.873.873,0,0,1-.618,1.491" transform="translate(-27.038 -29.055)" fill="#336"/>
            <path id="패스_4879" data-name="패스 4879" d="M108.443,111.753a8.11,8.11,0,0,1-5.772-2.391l-7.235-7.235" transform="translate(-28.766 -30.783)" fill="#fff"/>
            <path id="패스_4880" data-name="패스 4880" d="M108.066,112.249a8.973,8.973,0,0,1-6.389-2.647l-7.235-7.235a.873.873,0,0,1,1.235-1.235l7.235,7.235a7.241,7.241,0,0,0,5.155,2.135.873.873,0,1,1,0,1.746" transform="translate(-28.389 -30.406)" fill="#336"/>
            <path id="패스_4881" data-name="패스 4881" d="M97.108,81.658l12.955,12.955a3.971,3.971,0,0,1-5.617,5.616L91.491,87.275Z" transform="translate(-27.577 -24.613)" fill="#fff"/>
            <path id="패스_4882" data-name="패스 4882" d="M106.877,101.89a4.829,4.829,0,0,1-3.425-1.417L90.5,87.52a.872.872,0,0,1,0-1.235l5.616-5.617a.9.9,0,0,1,1.235,0L110.3,93.623a4.842,4.842,0,0,1-3.426,8.268M92.349,86.9l12.337,12.337a3.1,3.1,0,0,0,4.382-4.382L96.731,82.521Z" transform="translate(-27.2 -24.24)" fill="#336"/>
            <g id="그룹_12821" data-name="그룹 12821" transform="translate(66.291 58.525)" style="mix-blend-mode: darken;isolation: isolate">
              <g id="그룹_12820" data-name="그룹 12820">
                <g id="그룹_12819" data-name="그룹 12819" clip-path="url(#clip-path-4)">
                  <path id="패스_4883" data-name="패스 4883" d="M99.045,83.777l11.971,11.971c1.433,1.433,1.665,3.525.519,4.671s-3.238.914-4.671-.519L94.893,87.929Z" transform="translate(-94.893 -83.777)" fill="#dd488e"/>
                </g>
              </g>
            </g>
          </g>
        </g>
      </g>
    </g>
    <g id="그룹_12841" data-name="그룹 12841" transform="translate(7 11.906)">
      <path id="패스_4884" data-name="패스 4884" d="M-7656.75-11211.5v10.5s2.25,3.5,5.5,3.5,3-3.5,3-3.5,3.5-7.25,10.75-4.75c.75.5,5.25,3.75,5.5,8.25-.25-.25,29.5,0,29.5,0s1.5-10,9.25-9.25c.5.5,8.5,1.75,8,9.25.25.5,5.25,0,5.25,0s2.75-.75,3-5.75c-.25-.25,0-9.5,0-9.5Z" transform="translate(8475 12856)" fill="#f3b7d3"/>
      <g id="그룹_12815" data-name="그룹 12815" transform="translate(29.807 -191.906)">
        <path id="패스_4863" data-name="패스 4863" d="M-7640.083-11058.856l-2.917,6.341h10.4l-2.791-6.341Z" transform="translate(8469.971 12855.759)" fill="#dd488e"/>
        <g id="그룹_12814" data-name="그룹 12814" transform="translate(787.192 1795)">
          <path id="패스_4859" data-name="패스 4859" d="M270.006,229.675h6.441v-6.44h6.44v-6.441h-6.44v-6.44h-6.441v6.44h-6.44v6.441h6.44Z" transform="translate(-246.504 -196.737)" fill="#dd488e"/>
          <g id="그룹_12813" data-name="그룹 12813">
            <g id="그룹_12812" data-name="그룹 12812" clip-path="url(#clip-path-5)">
              <path id="패스_4860" data-name="패스 4860" d="M217.737,798.832A3.172,3.172,0,1,0,220.909,802a3.172,3.172,0,0,0-3.172-3.172" transform="translate(-200.676 -747.122)" fill="#dd488e"/>
              <path id="패스_4861" data-name="패스 4861" d="M948.187,798.832A3.172,3.172,0,1,0,951.359,802a3.172,3.172,0,0,0-3.172-3.172" transform="translate(-883.842 -747.122)" fill="#dd488e"/>
              <path id="패스_4862" data-name="패스 4862" d="M81.325,27.495,73.217,14.016,70.108,8.847q-.016-.027-.034-.054a4.088,4.088,0,0,0-3.4-1.813H51L48.8.858A1.3,1.3,0,0,0,47.586,0h-5a1.3,1.3,0,0,0-1.219.858L39.173,6.98H7.4a4.078,4.078,0,0,0-4.042,3.442L.052,30.926A4.1,4.1,0,0,0,0,31.579v20.5a4.1,4.1,0,0,0,4.095,4.095H7.373a9.775,9.775,0,0,0,19.377,0H54.656a9.775,9.775,0,0,0,19.377,0h3.872A4.1,4.1,0,0,0,82,52.082V29.747a4.08,4.08,0,0,0-.675-2.252m-2.17,1.413a1.5,1.5,0,0,1,.255.839V31H57.766V15.978h13.61l7.746,12.876.034.054M43.5,2.589h3.178L48.248,6.98H41.924ZM2.609,31.339l3.309-20.5A1.5,1.5,0,0,1,7.4,9.57h59.27a1.5,1.5,0,0,1,1.235.644l1.91,3.175H57.6a2.43,2.43,0,0,0-2.427,2.427V31.158A2.43,2.43,0,0,0,57.6,33.585H79.411v5.438H2.589V31.579a1.507,1.507,0,0,1,.019-.24M17.061,62.068a7.185,7.185,0,1,1,7.185-7.185,7.193,7.193,0,0,1-7.185,7.185m47.284,0a7.185,7.185,0,1,1,7.185-7.185,7.193,7.193,0,0,1-7.185,7.185m13.56-8.48H74.034a9.775,9.775,0,0,0-19.377,0H26.75a9.775,9.775,0,0,0-19.377,0H4.095a1.507,1.507,0,0,1-1.505-1.505V41.612H79.411v10.47a1.507,1.507,0,0,1-1.506,1.505" fill="#336"/>
            </g>
          </g>
        </g>
      </g>
      <rect id="사각형_4951" data-name="사각형 4951" width="23" height="2" rx="1" transform="translate(804 1630)" fill="#336"/>
      <rect id="사각형_4952" data-name="사각형 4952" width="15" height="2" rx="1" transform="translate(812 1635)" fill="#336"/>
    </g>
    <g id="그룹_12831" data-name="그룹 12831" transform="translate(528.228 1609)">
      <g id="그룹_12828" data-name="그룹 12828">
        <g id="그룹_12827" data-name="그룹 12827" clip-path="url(#clip-path-6)">
          <path id="패스_4885" data-name="패스 4885" d="M77.867,52.89,73.986,51H50.1l-2.926,1.89A16.089,16.089,0,0,0,31,68.888v12.34H94.045V68.888a16.089,16.089,0,0,0-16.179-16" transform="translate(-4.227 -6.955)" fill="#e87daf"/>
          <path id="패스_4886" data-name="패스 4886" d="M69.324,51H49.892L47,52.89a16,16,0,0,0-16,16v12.34H89.727V68.888c.263-7.527-4.858-12.22-15.545-14.109V51.945A29.855,29.855,0,0,0,69.324,51" transform="translate(-4.227 -6.955)" fill="#f3b7d3"/>
          <path id="패스_4887" data-name="패스 4887" d="M59,49.5V44H73.682v5.741a7.433,7.433,0,0,1-9.074,7.447A7.745,7.745,0,0,1,59,49.5" transform="translate(-8.045 -6)" fill="#ff9f91"/>
          <path id="패스_4888" data-name="패스 4888" d="M59,51.567V45H70.227v6.7a5.663,5.663,0,0,1-6.3,5.7A5.794,5.794,0,0,1,59,51.567" transform="translate(-8.045 -6.136)" fill="#ffbfb4"/>
          <path id="패스_4889" data-name="패스 4889" d="M52,28V14H77.909V28.352a13.126,13.126,0,0,1-14.422,13.31C56.874,40.911,52,34.877,52,28" transform="translate(-7.091 -1.909)" fill="#ff9f91"/>
          <path id="패스_4890" data-name="패스 4890" d="M49.455,29.909h.864V23h-.864a3.455,3.455,0,1,0,0,6.909" transform="translate(-6.273 -3.136)" fill="#ffbfb4"/>
          <path id="패스_4891" data-name="패스 4891" d="M83.432,30.773H83V23h.432a3.886,3.886,0,0,1,0,7.773" transform="translate(-11.318 -3.136)" fill="#ffbfb4"/>
          <path id="패스_4892" data-name="패스 4892" d="M52,29.981V14H74.455V30.266A11.308,11.308,0,0,1,60.433,41.4C55.421,40.166,52,35.33,52,29.981" transform="translate(-7.091 -1.909)" fill="#ffbfb4"/>
          <path id="패스_4893" data-name="패스 4893" d="M77.89,16.5C77.89,7.182,72.265,2,64.936,2S50.885,7.368,51.981,16.682l5.182-3.455a9.155,9.155,0,0,0,15.545,0Z" transform="translate(-7.072 -0.273)" fill="#21214b"/>
          <path id="패스_4894" data-name="패스 4894" d="M62.822,2.337c-6.521.952-11.552,6.94-11.552,14.2l6.236-2.87a8.047,8.047,0,0,0,7.349,3.92c5.43,0,6.907-3.92,6.907-3.92l1.729.8C73.01,8.22,68.541,3.2,62.822,2.337" transform="translate(-6.991 -0.319)" fill="#336"/>
          <path id="패스_4895" data-name="패스 4895" d="M65.513,60.3,53.2,64.5l.377,1.105A1.754,1.754,0,0,0,55.8,66.7l9.63-3.284,9.63,3.284A1.755,1.755,0,0,0,77.291,65.6l.377-1.105Z" transform="translate(-7.255 -8.222)" fill="#e87daf"/>
          <path id="패스_4896" data-name="패스 4896" d="M10.783,40.307a.972.972,0,0,1-.725-.3.992.992,0,0,1-.288-.716.966.966,0,0,1,.279-.716l5.646-6.6a7.4,7.4,0,0,0,.924-1.312,2.5,2.5,0,0,0,.329-1.173,3.534,3.534,0,0,0-.3-1.511,2.251,2.251,0,0,0-.855-.985,2.651,2.651,0,0,0-2.694.04,2.751,2.751,0,0,0-.955,1.034,2.949,2.949,0,0,0-.348,1.422,1.013,1.013,0,0,1-1.73.7.954.954,0,0,1-.3-.7,4.73,4.73,0,0,1,.617-2.416,4.537,4.537,0,0,1,1.68-1.68,4.7,4.7,0,0,1,2.4-.617,4.594,4.594,0,0,1,2.346.577,3.931,3.931,0,0,1,1.541,1.63,5.379,5.379,0,0,1,.548,2.506,3.4,3.4,0,0,1-.269,1.292,6.777,6.777,0,0,1-.675,1.252,11.5,11.5,0,0,1-.826,1.074l-4.553,5.169H18.14a1.013,1.013,0,0,1,.736,1.731,1,1,0,0,1-.736.3Z" transform="translate(-1.332 -3.379)" fill="#dd488e" stroke="#dd488e" stroke-width="0.5"/>
          <path id="패스_4897" data-name="패스 4897" d="M30.4,40.307a.89.89,0,0,1-.676-.3,1.013,1.013,0,0,1-.279-.716v-2.5H22.824a.931.931,0,0,1-.716-.279,1.052,1.052,0,0,1-.288-.646.959.959,0,0,1,.189-.667l7.616-9.982a1.257,1.257,0,0,1,.368-.317.924.924,0,0,1,.467-.119.848.848,0,0,1,.675.3,1.081,1.081,0,0,1,.259.735v9.147h1.193a1.266,1.266,0,0,1,.716.2.8.8,0,0,1,.3.716.838.838,0,0,1-.3.646,1.037,1.037,0,0,1-.716.269H31.395v2.5a1.016,1.016,0,0,1-.278.716.938.938,0,0,1-.716.3m-6.383-4.791-.536-.557h5.964V26.766l.618.8Z" transform="translate(-2.975 -3.379)" fill="#dd488e" stroke="#dd488e" stroke-width="0.5"/>
        </g>
      </g>
      <g id="그룹_12830" data-name="그룹 12830">
        <g id="그룹_12829" data-name="그룹 12829" clip-path="url(#clip-path-6)">
          <path id="패스_4898" data-name="패스 4898" d="M74.591,26.3A1.3,1.3,0,1,1,73.3,25a1.3,1.3,0,0,1,1.3,1.3" transform="translate(-9.818 -3.409)" fill="#336"/>
          <path id="패스_4899" data-name="패스 4899" d="M59,26.3A1.3,1.3,0,1,0,60.3,25,1.3,1.3,0,0,0,59,26.3" transform="translate(-8.045 -3.409)" fill="#336"/>
          <path id="패스_4900" data-name="패스 4900" d="M66.441,39.737a5.042,5.042,0,0,1-4.936-2.957.864.864,0,0,1,1.629-.575,3.931,3.931,0,0,0,6.613,0,.864.864,0,0,1,1.63.575,5.042,5.042,0,0,1-4.936,2.957" transform="translate(-8.38 -4.859)" fill="#336"/>
          <path id="패스_4901" data-name="패스 4901" d="M53.6,63.724a.865.865,0,0,1-.863-.826l-.521-11.846a.864.864,0,0,1,1.726-.076l.47,10.687,10.927-3.8A.863.863,0,0,1,65.9,59.5l-12.022,4.18a.864.864,0,0,1-.283.048" transform="translate(-7.12 -6.839)" fill="#336"/>
          <path id="패스_4902" data-name="패스 4902" d="M94.2,82.64H30.3a1.3,1.3,0,0,1-1.3-1.3V68.691A17.843,17.843,0,0,1,44.178,51.1l4.227-.905.423-.426a1.3,1.3,0,0,1,.663-.356l3.474-.7a1.3,1.3,0,1,1,.51,2.54l-3.088.619-.417.418a1.3,1.3,0,0,1-.646.352l-4.645,1-.088.016a15.237,15.237,0,0,0-13,15.029V80.049H92.909V68.691a15.237,15.237,0,0,0-13-15.029l-.088-.016-4.645-1a1.3,1.3,0,0,1-.646-.352l-.417-.418-3.088-.619a1.3,1.3,0,1,1,.51-2.54l3.474.7a1.3,1.3,0,0,1,.663.356l.423.426,4.227.905A17.843,17.843,0,0,1,95.5,68.691V81.345a1.3,1.3,0,0,1-1.3,1.3" transform="translate(-3.955 -6.64)" fill="#336"/>
          <path id="패스_4903" data-name="패스 4903" d="M78.816,63.724a.864.864,0,0,1-.283-.048L66.51,59.5a.863.863,0,0,1,.567-1.631L78,61.663l.469-10.687a.877.877,0,0,1,.9-.825.864.864,0,0,1,.825.9L79.679,62.9a.864.864,0,0,1-.863.826" transform="translate(-8.99 -6.839)" fill="#336"/>
          <path id="패스_4904" data-name="패스 4904" d="M65.05,20.437a8.766,8.766,0,0,1-7.694-4.558L52.744,18.9a.863.863,0,0,1-.947-1.444l5.437-3.564a.864.864,0,0,1,1.273.395,7.051,7.051,0,0,0,13.085,0,.867.867,0,0,1,.543-.5.858.858,0,0,1,.73.1L78.3,17.458a.863.863,0,1,1-.947,1.444l-4.612-3.023a8.765,8.765,0,0,1-7.693,4.558" transform="translate(-7.01 -1.875)" fill="#336"/>
          <path id="패스_4905" data-name="패스 4905" d="M83.369,31.168a.864.864,0,0,1,0-1.727,2.963,2.963,0,1,0,0-5.926.864.864,0,0,1,0-1.727,4.69,4.69,0,1,1,0,9.381" transform="translate(-11.251 -2.971)" fill="#336"/>
          <path id="패스_4906" data-name="패스 4906" d="M49.529,31.168a4.69,4.69,0,1,1,0-9.381.864.864,0,0,1,0,1.727,2.963,2.963,0,1,0,0,5.926.864.864,0,0,1,0,1.727" transform="translate(-6.114 -2.971)" fill="#336"/>
          <path id="패스_4907" data-name="패스 4907" d="M49.864,84.773A.863.863,0,0,1,49,83.909V77.864a.864.864,0,1,1,1.727,0v6.045a.863.863,0,0,1-.864.864" transform="translate(-6.682 -10.5)" fill="#336"/>
          <path id="패스_4908" data-name="패스 4908" d="M84.864,84.773A.863.863,0,0,1,84,83.909V77.864a.864.864,0,1,1,1.727,0v6.045a.863.863,0,0,1-.864.864" transform="translate(-11.455 -10.5)" fill="#336"/>
          <path id="패스_4909" data-name="패스 4909" d="M66.068,58.545A9.078,9.078,0,0,1,57,49.477V44.3a1.3,1.3,0,0,1,2.591,0v5.182a6.477,6.477,0,1,0,12.955,0V44.3a1.3,1.3,0,0,1,2.591,0v5.182a9.078,9.078,0,0,1-9.068,9.068" transform="translate(-7.773 -5.864)" fill="#336"/>
          <path id="패스_4910" data-name="패스 4910" d="M64.682,41.455A14.7,14.7,0,0,1,50,26.773V13.918A13.933,13.933,0,0,1,63.918,0h1.527A13.934,13.934,0,0,1,79.364,13.918V26.773A14.7,14.7,0,0,1,64.682,41.455M63.918,2.591A11.34,11.34,0,0,0,52.591,13.918V26.773a12.091,12.091,0,1,0,24.182,0V13.918A11.34,11.34,0,0,0,65.445,2.591Z" transform="translate(-6.818)" fill="#336"/>
          <path id="패스_4911" data-name="패스 4911" d="M19.432,49.864a19.432,19.432,0,1,1,13.74-33.172.9.9,0,1,1-1.278,1.278,17.624,17.624,0,1,0,5.162,12.462.9.9,0,1,1,1.808,0A19.453,19.453,0,0,1,19.432,49.864" transform="translate(0 -1.5)" fill="#336" stroke="#336" stroke-width="0.2"/>
          <path id="패스_4912" data-name="패스 4912" d="M38.911,20.466a.946.946,0,0,1-.177-.017l-4.519-.9a.9.9,0,1,1,.355-1.772l3.189.638-.638-3.19a.9.9,0,0,1,1.773-.355l.9,4.519a.9.9,0,0,1-.886,1.081" transform="translate(-4.566 -1.928)" fill="#336" stroke="#336" stroke-width="0.2"/>
        </g>
      </g>
    </g>
    <g id="그룹_12840" data-name="그룹 12840" transform="translate(1391 1612)">
      <g id="그룹_12833" data-name="그룹 12833" transform="translate(49.71 50.044)">
        <g id="그룹_12832" data-name="그룹 12832" clip-path="url(#clip-path-8)">
          <rect id="사각형_4955" data-name="사각형 4955" width="24.038" height="24.038" transform="translate(-8.492 8.123) rotate(-43.727)" fill="#f3b7d3"/>
        </g>
      </g>
      <g id="그룹_12835" data-name="그룹 12835">
        <g id="그룹_12834" data-name="그룹 12834" clip-path="url(#clip-path-9)">
          <path id="패스_4914" data-name="패스 4914" d="M39.56,74.28a33.372,33.372,0,0,1-29.629-48.7,1.606,1.606,0,1,1,2.851,1.48A29.815,29.815,0,0,0,9.413,40.92,30.147,30.147,0,1,0,39.56,10.773a1.606,1.606,0,1,1,0-3.213,33.36,33.36,0,0,1,0,66.72" transform="translate(-3.71 -4.524)" fill="#336"/>
          <path id="패스_4915" data-name="패스 4915" d="M1.608,56.826A1.607,1.607,0,0,1,.692,53.9l6.175-4.278A1.607,1.607,0,0,1,8.7,52.262L2.522,56.54a1.6,1.6,0,0,1-.914.286" transform="translate(0 -29.521)" fill="#336"/>
          <path id="패스_4916" data-name="패스 4916" d="M18.9,59.81a1.607,1.607,0,0,1-1.552-1.2l-1.924-7.261a1.607,1.607,0,1,1,3.106-.822l1.923,7.261a1.607,1.607,0,0,1-1.141,1.964,1.625,1.625,0,0,1-.412.054" transform="translate(-9.2 -29.521)" fill="#336"/>
          <path id="패스_4917" data-name="패스 4917" d="M86.872,34.977a1.606,1.606,0,0,1-1.606-1.606V28.86a1.606,1.606,0,1,1,3.213,0v4.51a1.607,1.607,0,0,1-1.606,1.606" transform="translate(-51.022 -16.309)" fill="#336"/>
          <path id="패스_4918" data-name="패스 4918" d="M86.872,142.493a1.606,1.606,0,0,1-1.606-1.606v-4.51a1.606,1.606,0,0,1,3.213,0v4.51a1.607,1.607,0,0,1-1.606,1.606" transform="translate(-51.022 -80.645)" fill="#336"/>
          <path id="패스_4919" data-name="패스 4919" d="M139.524,89.84h-4.51a1.606,1.606,0,1,1,0-3.213h4.51a1.606,1.606,0,0,1,0,3.213" transform="translate(-79.83 -51.837)" fill="#336"/>
          <path id="패스_4920" data-name="패스 4920" d="M32.009,89.84H27.5a1.606,1.606,0,1,1,0-3.213h4.51a1.606,1.606,0,1,1,0,3.213" transform="translate(-15.494 -51.837)" fill="#336"/>
          <path id="패스_4921" data-name="패스 4921" d="M86.87,63.707a1.606,1.606,0,0,1-1.356-2.466L96.62,43.7a1.606,1.606,0,0,1,2.714,1.718L88.229,62.96a1.605,1.605,0,0,1-1.359.747" transform="translate(-51.022 -25.704)" fill="#dd488e"/>
          <path id="패스_4922" data-name="패스 4922" d="M97.976,99.723a1.6,1.6,0,0,1-1.067-.406L85.8,89.434a1.606,1.606,0,1,1,2.136-2.4l11.105,9.883a1.607,1.607,0,0,1-1.069,2.806" transform="translate(-51.022 -51.837)" fill="#dd488e"/>
        </g>
      </g>
      <g id="그룹_12837" data-name="그룹 12837" transform="translate(32.761 33.307)">
        <g id="그룹_12836" data-name="그룹 12836" clip-path="url(#clip-path-10)">
          <rect id="사각형_4957" data-name="사각형 4957" width="6.178" height="6.178" transform="translate(0 0)" fill="#dd488e"/>
        </g>
      </g>
      <g id="그룹_12839" data-name="그룹 12839">
        <g id="그룹_12838" data-name="그룹 12838" clip-path="url(#clip-path-9)">
          <path id="패스_4924" data-name="패스 4924" d="M82.27,88.327a4.7,4.7,0,1,1,4.695-4.694,4.7,4.7,0,0,1-4.695,4.694m0-6.178a1.483,1.483,0,1,0,1.482,1.484,1.485,1.485,0,0,0-1.482-1.484" transform="translate(-46.42 -47.235)" fill="#dd488e"/>
          <path id="패스_4925" data-name="패스 4925" d="M26.977,16.484H19.258a1.606,1.606,0,0,1-1.2-2.679c.558-.622,1.222-1.271,1.925-1.957,2.114-2.065,4.746-4.634,4.7-6.9A1.545,1.545,0,0,0,23.363,3.4,2.372,2.372,0,0,0,20.7,4.724a1.607,1.607,0,1,1-2.883-1.418A5.61,5.61,0,0,1,24.056.264,4.73,4.73,0,0,1,27.9,4.874c.071,3.247-2.423,6.059-4.772,8.4h3.854a1.606,1.606,0,0,1,0,3.213" transform="translate(-10.562 -0.079)" fill="#dd488e"/>
          <path id="패스_4926" data-name="패스 4926" d="M52.663,16.4A1.607,1.607,0,0,1,51.057,14.8V12.686H45.924a1.607,1.607,0,0,1-1.309-2.538L51.354.675a1.606,1.606,0,0,1,2.915.931V9.473h1.6a1.606,1.606,0,0,1,0,3.213h-1.6V14.8A1.607,1.607,0,0,1,52.663,16.4M49.038,9.473h2.018V6.636Z" transform="translate(-26.519 0)" fill="#dd488e"/>
        </g>
      </g>
    </g>
    <line id="선_51" data-name="선 51" y2="160" transform="translate(715.5 1587.5)" fill="none" stroke="#8a8a8a" stroke-width="1" stroke-dasharray="2 4"/>
    <line id="선_52" data-name="선 52" y2="160" transform="translate(1002.5 1587.5)" fill="none" stroke="#8a8a8a" stroke-width="1" stroke-dasharray="2 4"/>
    <line id="선_53" data-name="선 53" y2="160" transform="translate(1286.5 1587.5)" fill="none" stroke="#8a8a8a" stroke-width="1" stroke-dasharray="2 4"/>
  </g>
</svg>
