<svg xmlns="http://www.w3.org/2000/svg" xmlns:xlink="http://www.w3.org/1999/xlink" width="304" height="208" viewBox="0 0 304 208">
  <defs>
    <clipPath id="clip-path">
      <rect id="사각형_4837" data-name="사각형 4837" width="304" height="208" rx="60" transform="translate(472 1653.805)" fill="#fff" stroke="#707070" stroke-width="1"/>
    </clipPath>
    <clipPath id="clip-path-2">
      <rect id="사각형_4836" data-name="사각형 4836" width="155.457" height="231.303" fill="none"/>
    </clipPath>
    <clipPath id="clip-path-3">
      <rect id="사각형_4817" data-name="사각형 4817" width="158.27" height="151.01" transform="translate(0 0)" fill="none"/>
    </clipPath>
  </defs>
  <g id="마스크_그룹_31" data-name="마스크 그룹 31" transform="translate(-472 -1653.805)" clip-path="url(#clip-path)">
    <rect id="사각형_4818" data-name="사각형 4818" width="340" height="252" transform="translate(460 1644.805)" fill="#f9f1f4"/>
    <g id="그룹_12767" data-name="그룹 12767" transform="translate(494.396 1670.669)">
      <rect id="사각형_4819" data-name="사각형 4819" width="94.807" height="29.353" transform="translate(18.265 1.056)" fill="#f9e4eb"/>
      <path id="패스_4765" data-name="패스 4765" d="M25.3,2.111H118V29.353H25.3ZM23.19,31.464h96.918V0H23.19Z" transform="translate(-5.981)" fill="#ebb7c8"/>
      <path id="패스_4795" data-name="패스 4795" d="M0,0H129.226V199.8H0Z" transform="translate(1.056 30.448)" fill="#f9e4eb"/>
      <path id="패스_4766" data-name="패스 4766" d="M2.111,41.717H129.226V239.406H2.111ZM0,241.517H131.337V39.6H0Z" transform="translate(0 -10.214)" fill="#ebb7c8"/>
      <rect id="사각형_4821" data-name="사각형 4821" width="94.807" height="29.353" transform="translate(42.387 1.056)" fill="#fff"/>
      <path id="패스_4767" data-name="패스 4767" d="M57.806,2.111h92.7V29.353h-92.7ZM55.695,31.464h96.917V0H55.695Z" transform="translate(-14.364)" fill="#ebb7c8"/>
      <rect id="사각형_4822" data-name="사각형 4822" width="129.226" height="199.8" transform="translate(25.176 30.448)" fill="#fff"/>
      <path id="패스_4768" data-name="패스 4768" d="M34.614,41.717H161.73V239.406H34.614ZM32.5,241.517H163.84V39.6H32.5Z" transform="translate(-8.383 -10.214)" fill="#ebb7c8"/>
      <rect id="사각형_4823" data-name="사각형 4823" width="108.26" height="8.022" transform="translate(36.146 59.158)" fill="#f9e4eb"/>
      <rect id="사각형_4824" data-name="사각형 4824" width="108.26" height="8.022" transform="translate(36.146 75.118)" fill="#f9e4eb"/>
      <rect id="사각형_4825" data-name="사각형 4825" width="108.26" height="8.022" transform="translate(36.146 91.076)" fill="#f9e4eb"/>
      <rect id="사각형_4826" data-name="사각형 4826" width="108.26" height="8.022" transform="translate(36.146 107.036)" fill="#f9e4eb"/>
      <rect id="사각형_4827" data-name="사각형 4827" width="108.26" height="8.022" transform="translate(36.146 122.995)" fill="#f9e4eb"/>
      <rect id="사각형_4828" data-name="사각형 4828" width="108.26" height="8.022" transform="translate(36.146 138.954)" fill="#f9e4eb"/>
      <rect id="사각형_4829" data-name="사각형 4829" width="108.26" height="8.022" transform="translate(36.146 154.913)" fill="#f9e4eb"/>
      <rect id="사각형_4830" data-name="사각형 4830" width="108.26" height="8.022" transform="translate(36.146 170.873)" fill="#f9e4eb"/>
      <rect id="사각형_4831" data-name="사각형 4831" width="108.26" height="8.022" transform="translate(36.146 186.832)" fill="#f9e4eb"/>
      <rect id="사각형_4832" data-name="사각형 4832" width="108.26" height="8.022" transform="translate(36.146 202.791)" fill="#f9e4eb"/>
      <rect id="사각형_4833" data-name="사각형 4833" width="7.12" height="173.474" transform="translate(86.371 41.353)" fill="#fff"/>
      <rect id="사각형_4834" data-name="사각형 4834" width="1.424" height="173.474" transform="translate(60.988 40.269)" fill="#fff"/>
      <rect id="사각형_4835" data-name="사각형 4835" width="1.424" height="173.474" transform="translate(118.965 40.395)" fill="#fff"/>
      <g id="그룹_12766" data-name="그룹 12766">
        <g id="그룹_12765" data-name="그룹 12765" clip-path="url(#clip-path-2)">
          <path id="패스_4769" data-name="패스 4769" d="M123.1,9.9a.274.274,0,0,0-.086-.045c-.124-.024-.249.067-.438.218l-.151.11c-.514.276-.908,1.569-.992,2.09a.552.552,0,0,0-.059.03,2.236,2.236,0,0,0-1.5-1.13c.239.912,1.046,3.679,2.122,3.446a5.789,5.789,0,0,0,1.691-3.682v-.049c0-.675-.32-.906-.588-.98" transform="translate(-30.916 -2.54)" fill="#ebb7c8"/>
          <path id="패스_4770" data-name="패스 4770" d="M132.708,28.895a8.794,8.794,0,0,0-3.109.418,1.085,1.085,0,0,0-.494.341c.022.286-.151.724.11.824.018,0,.016.043.027.07.08.073.157.085.228.183.053.07.1,0,.151.024.022.023.033.07.057.07.131.059.253.041.38.1a.323.323,0,0,0,.2.053c.039-.016.088.072.1.1a1.685,1.685,0,0,0,.715,0c.752-.013.61-.084,1.357-.1.624,0,1.238.088,1.869.08.333-.012.71,0,1.046-.027.606-.036,1.206.062,1.808.067.3,0,.651.11.955.137a5.051,5.051,0,0,1,.971-.022.887.887,0,0,1,.318.043.743.743,0,0,0,.29.108,2.076,2.076,0,0,0,.833-.2,2.4,2.4,0,0,0,.489-.179.438.438,0,0,0,.17-.276,1.139,1.139,0,0,0,.063-.735c-.018,0-.057.017-.07,0s-.022-.149-.063-.154a2.759,2.759,0,0,0-.355-.082c-.165-.036-.321-.11-.486-.142a41.061,41.061,0,0,0-7.558-.715" transform="translate(-33.287 -7.45)" fill="#ebb7c8"/>
          <path id="패스_4771" data-name="패스 4771" d="M108.9,29.378c.129.031.281.027.359.118s-.075.186-.063.281c0,.215.082.423.079.641a.141.141,0,0,1-.057.114.633.633,0,0,1-.167.157c-.186.12-.425.073-.649.136a5.011,5.011,0,0,1-.869.151,13.445,13.445,0,0,1-1.546-.078,1.484,1.484,0,0,0-.588.078,2.4,2.4,0,0,1-.725.045c-1.259-.045-2.495-.067-3.751-.061-.22.01-.461.037-.677.042-1.008.059-2.02.039-3.026.067-.349.011-.7.022-1.055.011-.2,0-.392.01-.574.016-.747.031-1.51.072-2.26.041h-.88a23.174,23.174,0,0,1-2.526.137,4.284,4.284,0,0,1-1.765-.469,2.348,2.348,0,0,1-.9-.806,1.014,1.014,0,0,1,.6-.315,16.475,16.475,0,0,1,1.651-.347c.479-.081.918-.116,1.373-.161a113.5,113.5,0,0,1,15.451-.161,16.885,16.885,0,0,1,2.571.367" transform="translate(-22.503 -7.434)" fill="#ebb7c8"/>
          <path id="패스_4772" data-name="패스 4772" d="M130.441,21.1v.065c.045.134.157.173.263.277h.351c0-.065.085,0,.085-.065a.3.3,0,0,0,.255-.148h.061a.3.3,0,0,1,.259-.174c.145-.165.289-.337.427-.51a.2.2,0,0,1,.087-.177,6.256,6.256,0,0,1,.29-.963,1.526,1.526,0,0,0,.031-.349c.026,0,.051,0,.051-.033a.305.305,0,0,1,.116-.277c.059,0,.117,0,.147-.066V18.6a.61.61,0,0,1,.42.24h.2c0,.073.033.073.073.108a2.028,2.028,0,0,1,.635.031c0,.1.149.067.2.179a1.2,1.2,0,0,0,.114.312.119.119,0,0,1-.038.1c.077.1.148.275.038.382.041.135,0,.312.076.445-.076.068-.036.18-.036.245a2.192,2.192,0,0,1,.11.487c.151.166.116.38.234.555v.2c.074,0,0,.108.074.108a4.366,4.366,0,0,1-.074.652.678.678,0,0,0-.118.108V22.8c-.033,0-.076,0-.076-.035-.08.108-.2.178-.266.276-.081-.029-.116.038-.154.038-.074,0,0,.1-.074.1a.309.309,0,0,0-.2.07c-.07.031-.335-.035-.406.031l-.042-.031a.2.2,0,0,1-.147.069c0-.036,0-.069-.043-.069a.262.262,0,0,1-.3.136c-.033-.067-.016-.116-.108-.151a1.486,1.486,0,0,0-.143-.588c.03,0,.03-.024.03-.062a1.027,1.027,0,0,1-.088-.283c-.086-.124-.114-.31-.228-.4.032-.027-.062-.061-.029-.1l-.148-.151c-.055,0-.055.024-.08.061-.031.16-.174.281-.208.436l-.027-.031c-.024.092-.114.159-.114.253-.055.029-.088.122-.143.151v.065c-.2.187-.316.491-.555.622-.059.131-.208.155-.271.3a1.125,1.125,0,0,0-.345.081c-.076-.043-.2-.114-.263-.043,0-.038-.039-.038-.075-.038l-.035.038c-.079-.069-.2,0-.3-.038a4.274,4.274,0,0,0-.751-.392c-.076,0,0-.116-.076-.116a.186.186,0,0,1-.114-.026c0-.114.039-.186-.072-.26l.037-.037c0-.038-.037-.038-.076-.038-.036-.217-.153-.392-.185-.614a.513.513,0,0,1-.076-.068.59.59,0,0,0-.076-.291c-.033-.151.092-.266.02-.41a.12.12,0,0,1,.033-.1.954.954,0,0,1,.037-.447c-.037,0-.037-.031-.037-.073a.853.853,0,0,0,.07-.412c.035-.108.111-.209.147-.312l-.036-.039c.073-.065.036-.168.145-.233,0-.039,0-.075-.039-.075,0-.071.073-.1.106-.137a1.287,1.287,0,0,1,.26-.392l-.027-.043a.5.5,0,0,1,.351-.136.773.773,0,0,1,.334.11c.039.081,0,.145.055.253h.053v.067c0,.031.03.031.059.031a.706.706,0,0,1,.051.318c0,.03.024.03.055.03-.031.065.055.14.055.2-.055.073,0,.179-.03.286.079.167.057.377.131.549a.893.893,0,0,0,.114.383" transform="translate(-33.148 -4.796)" fill="#ebb7c8"/>
          <path id="패스_4773" data-name="패스 4773" d="M121.692,28.256h.024c-.014-.009-.024-.019-.024,0" transform="translate(-31.384 -7.285)" fill="#79c4e7"/>
          <path id="패스_4774" data-name="패스 4774" d="M122.138,22.314l.045-.062-.055-.042.043-.049c-.045,0-.055-.049-.059-.1l.091-.108c.022-.251-.151-.47-.079-.732l-.106-.08c.033-.11-.023-.243.061-.355-.183-.322-.128-.773-.392-1.034a1.417,1.417,0,0,0-.02-.145c-.186-.369-.461-.678-.688-1.041-.091.053-.112-.085-.163-.131a.163.163,0,0,1-.149-.024l-.039.049-.053-.039c0,.047-.045.053-.1.065a.213.213,0,0,0-.2-.073c-.047,0-.05-.049-.056-.094-.145.019-.206-.073-.353-.053-.043,0-.051-.041-.055-.088l-.534.065c0,.047.067.137-.025.2-.112-.085-.2-.022-.3-.012-.036.147-.171.223-.11.361,0,.045-.048.051-.1.059.069.2,0,.392.11.572.075.289.143,1.018.229.938a3.9,3.9,0,0,0,.161.635c0,.043.124.094.08.143a.7.7,0,0,1,0,.079c-.115.027-.165.153-.243.168,0-.031-.045-.027-.088-.016-.03.047-.106.059-.125.135-.118.033-.153.143-.222.224l-.041-.024c-.136.122-.335.114-.438.269a6.444,6.444,0,0,1-.649.223c-.039.01-.072.014-.08-.027-.031.073-.2.014-.228.085a4.051,4.051,0,0,0-.67.043c0-.061-.124.013-.126-.055-.2.076-.392-.027-.588-.027-.042-.039-.12-.039-.155-.1a.454.454,0,0,1-.438-.114c-.117,0-.2-.105-.315-.135v-.073a.977.977,0,0,1-.082-.074c0-.1.117-.1.2-.137.086-.106.3-.079.375-.2,0-.031.106-.1.106-.139.039-.067.068-.134.105-.134.122-.073.044-.151.2-.2,0-.033.119-.12.084-.155.155-.11.148-.168.2-.383.078-.105.2-.217.2-.358.037-.037,0-.2.073-.229.037-.237-.063-.377-.063-.62a.491.491,0,0,1-.08-.072c0-.108-.085-.175-.045-.281-.118-.106-.086-.137-.208-.243l-.065-.073h-.081c-.041-.07-.154-.108-.154-.18a2.155,2.155,0,0,1-.477-.21l-.037.042-.041-.042a.964.964,0,0,1-.087.079c0-.114-.111,0-.153-.079-.082,0-.161-.035-.233.042-.241-.075-.5.049-.735-.059,0,.073-.163-.031-.163.073-.076.036-.2.031-.233.067h-.114a.633.633,0,0,1-.461.232c-.074,0,0,.1-.074.1h-.08a4.177,4.177,0,0,1-.588.528c0,.036-.081.07-.042.143,0,.036-.039.036-.082.036a.157.157,0,0,1-.08.135c0,.037,0,.073.041.073,0,.036-.062.125-.1.125-.043.137-.043.286-.159.353,0,.281-.082.418-.106.724a3.113,3.113,0,0,1,.042.557c.123.078-.03.074.053.182.043,0,.022.061.022.1.042.073.171.125.13.2,0,.031.072.067.11.067.039.073-.063.153.022.2,0,.043.131.01.088.081l.074.163a.968.968,0,0,1,.18.159.406.406,0,0,0,.161.174.8.8,0,0,1,.143.07l.049.094.119.114c.122.031.143-.038.24.088.041,0,.084,0,.084.037l.042-.037c.041.08.123.114.16.151a.458.458,0,0,1,.316.116c.041,0,.047.086.047.049.13.03.212.118.3.039.042,0,.082,0,.082.043l.042-.043c.084-.031.1.067.2.03.043,0,.043.037.043.072h.079c.084.07.433-.023.522.057a5.929,5.929,0,0,0,1.23-.057c0-.072.117,0,.123-.059l.039.033c.155.045.322-.135.475-.053a.7.7,0,0,1,.084-.071c.079-.029.2.11.279.014,0,.031.039.035.08.035v-.048c.122-.063.267-.047.359-.145.043,0,.117.016.157.02l.088-.063c.208-.053.393-.216.62-.263.036-.043.112-.045.149-.124a.9.9,0,0,1,.118-.01c.035-.035.074-.076.105-.114.126.025.234-.148.352-.161,0-.03-.018-.071.025-.073l.041.022c.076-.041.076-.041.106-.122h.024a.51.51,0,0,1,.067.279c.05,0,.1-.01.1.041l-.084.1c.049,0,.051.039.061.088-.045,0-.042.05-.037.1.045,0,.05.037.053.086-.037.051-.037.051-.079.1,0,.051.051.045.092.045.053.076-.114.151-.019.186-.022.237.07.491-.063.688-.088-.039.018.269.014.171,0,.1-.061.407-.147.459v.092c.045,0-.049.092-.049.043l.041.049c-.041.14.018.118-.117.216V25.1c-.087.049,0,.206-.048.255l-.045-.043c-.045,0-.035.043-.035.087.049,0,.061.023.065.07-.1.094.147.094.043.18h-.122a.061.061,0,0,0,.042.013c-.033.045.022.2-.088.145,0,.092-.163.226-.222.32.1-.043.079-.03.087,0,.039.055-.079.094-.067.094s-.088.056-.125.088c-.167.321-.087.122-.2.3-.041-.013-.094.149-.092.1.045,0-.037.033-.025-.01a.8.8,0,0,0-.106.087c.037.09.125.142-.022.233-.045,0-.037-.051-.033-.1-.1.042-.1.137-.157.179a.4.4,0,0,0,0,.094,1.908,1.908,0,0,1-.269.284.687.687,0,0,1-.1,0,.2.2,0,0,0-.057.139c0,.044-.053.044-.1.038s-.082.05-.082,0c-.043,0-.03.08-.122.123l.035.065c-.1.044-.07.059-.16.057-.012.088-.206.088-.218.179.038.1.126.1.169.2l.174.013c.039.1-.137.024-.053.122.049,0,.121.014.119.061l-.057.042c.051,0-.045.056,0,.1.043,0,.147.1.186.145l.051-.043c.041.049.094.037.088.086.1,0,.247.065.341-.022.045,0,.168-.082.165-.036.084.051.049-.094.151-.131s.185-.088.283-.129c.353-.393.869-.555,1.22-.961.068-.016.076-.014.105-.051v-.053c0-.049.055-.049.093-.049a.269.269,0,0,1,.11-.175c-.038-.01.154-.1.1-.153a1.67,1.67,0,0,1,.2-.226c.049,0,.049-.05.049-.1a.24.24,0,0,0,.136-.145.417.417,0,0,0,.086,0l-.047-.044c-.045-.088.092-.056.092-.142s.2-.143.151-.23c.088-.143.2-.2.291-.339-.05-.184.1-.292.237-.393,0-.045,0-.094-.045-.086.045-.094.08-.239.127-.337l-.049-.051c.092-.045.045-.137.045-.183.088-.1.129-.2.217-.288a.163.163,0,0,0-.049-.14,1.221,1.221,0,0,0,.091-.106.624.624,0,0,1,.229-.367l-.051-.045c.1-.1,0-.2-.056-.29,0-.049,0-.1.041-.1l.053.045.047-.051-.051-.047c.1-.151.016-.361.149-.475a.169.169,0,0,0-.062-.139c.131-.11-.026-.241.062-.353,0-.045-.012-.1-.061-.086m-7.359-2.354c-.08.039,0,.11-.08.147l.039.036a1.467,1.467,0,0,1-.637,1.01c-.044,0-.082,0-.082-.049s-.085-.18-.039-.253c0-.031-.045-.031-.079-.031.079-.079-.055-.153-.016-.259-.039,0-.039-.049-.039-.079.119-.079.025-.266.143-.339l-.048-.037a1.6,1.6,0,0,1,.183-.267v-.074a1.687,1.687,0,0,1,.575-.286c.039,0,.08,0,.08.036.118.151.037.3,0,.447" transform="translate(-28.802 -4.666)" fill="#ebb7c8"/>
          <path id="패스_4775" data-name="패스 4775" d="M106.212,12.94v0Z" transform="translate(-27.392 -3.337)" fill="#79c4e7"/>
          <path id="패스_4776" data-name="패스 4776" d="M107.6,13.165c0-.057-.088-.018-.067-.051l-.018-.035c-.037-.024,0-.079.026-.114-.016-.1-.114.016-.165-.059l.088-.125c-.039-.079-.209-.116-.277-.167-.049.067-.039.039-.122.082l-.027-.067c-.079.051-.125,0-.147.027.037.024-.024.02-.039.045s-.045.065-.082.042a.185.185,0,0,0-.122-.03.351.351,0,0,1-.049.061,1.73,1.73,0,0,1-.773-.022.523.523,0,0,0-.114.036c.033.016-.025.056,0,.025.036.012-.1-.016-.123.012-.177,0-.571.041-.494,0-.092,0-.266.043-.338,0-.023.114-.129-.033-.178,0h-.045v.043c-.11.03-.117-.07-.232-.031-.035-.012-.055-.03-.029-.069-.042-.013-.067-.037-.088,0l.022.051c-.059.016-.145-.1-.222-.043-.039-.014-.076-.031-.114-.045a.953.953,0,0,1-.393.085l-.018-.036c-.013.018-.065.047-.053.019a.132.132,0,0,1-.08-.016.735.735,0,0,1-.426.045c.082.02-.16-.14-.143-.059-.2.079-.427-.037-.641-.037,0-.081-.1.05-.163,0,.013-.032.027-.073-.018-.079-.051.03-.092.019-.137.051-.042,0-.085-.016-.073-.049-.039,0-.08-.01-.088.027-.045,0-.084-.012-.071-.051l-.159.106c-.037,0-.033-.038-.016-.079-.174.029-.273-.128-.457-.07.012-.036-.027-.038-.07-.044-.151.1-.367,0-.508.063-.023-.071-.117-.037-.2-.037-.047.037-.08-.063-.117-.063a4.31,4.31,0,0,0-.551-.08c.076-.075-.565-.079-.814-.122-.151-.094-.343,0-.5-.053,0,.043-.022.084-.062.084-.118-.05-.2.079-.324.116-.018.08-.106.118-.081.18-.062.082-.068.1-.111.1-.037.159-.067.14-.108.295.047,0,.091,0,.081.05-.033.116.037.161.01.283.039,0,.08,0,.074.043a.171.171,0,0,0,.042.167.065.065,0,0,1-.063.072l.027.045-.047.036a.116.116,0,0,1,0,.122c.036.041.157.049.1.129a8.309,8.309,0,0,0,.851.52H98.7c.2.2.61.145.879.281.105-.081.223-.027.324-.065.027.043.027.043.056.085.235-.07.361.051.588.036a.761.761,0,0,1,.11-.073c.043,0,.085.012.073.051l.053-.036.026.039.061-.027c-.014.031.029.043.068.045.11-.067.174.022.3-.079a.148.148,0,0,0,.114.056c.124-.108.165,0,.322-.045l.025.049.053-.027-.025-.051a.042.042,0,0,1,.045-.03,3.065,3.065,0,0,0,.2.661c.033,0,.076.076.094.123s0,.039-.012.079c.049.086.094.171.147.261-.035,0-.047.029-.055.065.039.123.039.259.081.382.049.043-.016.069.049.124,0,0-.038.072-.03.084a.2.2,0,0,0,.016.137c.02.13.014.024.1.124-.084.1.061.266-.027.369.049.053.053-.012.067.022a.124.124,0,0,1-.033.055c-.013.027.018.039.047.055.031.073-.022.117.019.2.027,0,0,.1.031.1.012.072.1.092.012.139-.029,0-.012.131-.043.224a.6.6,0,0,1,0,.223c.03.012.051-.03.039,0a.227.227,0,0,1-.024.057c.036,0,.031.066.02.094,0,.1-.063.149-.1.237-.037.2.069.359-.067.432.053.037,0,.092-.023.123-.044.02-.032.118-.073.137-.053.125-.075.116-.125.234-.082.05-.088.1-.173.151a.227.227,0,0,0-.024.057c-.013.027-.041.022-.068.013-.055.059-.235.145-.263.2l.019.031a1.694,1.694,0,0,0-.263.123,2.392,2.392,0,0,1-.335.137c-.11-.029-.2.055-.312.024-.045.025-.085.041-.125.063-.053-.016-.14.029-.183-.016-.055-.013-.043.088-.1.073a.214.214,0,0,0-.047-.019l-.018-.032c-.082.039-.147,0-.237.032v-.032c-.085.039-.155,0-.208.047a.679.679,0,0,0-.344-.043c.014-.032-.011-.039-.043-.039l-.041.027c.013-.03-.234-.014-.261-.02H99l-.016-.033-.043.025c-.044-.043-.341-.073-.41-.149-.056.051-.11.027-.172,0a2.635,2.635,0,0,1-.62-.131l-.02-.039a.243.243,0,0,1-.284-.08.574.574,0,0,1-.112-.016c-.031-.082-.245-.067-.266-.14a.84.84,0,0,1-.151-.129c-.068.041-.239-.165-.27-.181h-.114l-.041-.129L96.32,19.1c-.057-.114-.122-.018-.143-.118s-.134-.1-.178-.1-.136.1-.179.016a.735.735,0,0,1-.168.2.262.262,0,0,1-.155.043c-.027.122-.041.13.067.406.045.01.1.275.145.291-.023-.1.14.226.2.269l.068.013c.03,0,.014.042,0,.07l.143.1c.014.042.045.049.012.108a.917.917,0,0,1,.277.116c.027.016,0,.043-.012.065.035.013.067.025.082,0,.085,0,.024.084.035.123l.05-.013c.013.039.074.066.074.066.1.14.568.326.689.461l.043-.027c.041.076.247.094.247.2l.041-.03c.026.036.338.1.426.147.043-.023-.016-.072.027-.094.049.039.155.143.208.183a1.748,1.748,0,0,1,.233.036c.118.129.367.05.518.116a.1.1,0,0,0,.076.05l.049-.022.02.032c.1-.044.139,0,.206-.049l.018.035.045-.024c.019.038.019.038.037.079.134.03.243.092.393.016.013.043.049.045.078.051l.094-.043c.1.022.119.059.226.049l.022.041a.481.481,0,0,1,.363-.022c.027-.059.1.027.13-.031l.013.031c.106-.078.271-.031.378-.043l.02.043c.049-.029.027,0,.027,0,.1-.043.325-.045.392-.094a.484.484,0,0,0,.295.033c.037,0,.108.03.143.032a.346.346,0,0,1,.392-.024,2.135,2.135,0,0,0,.492-.2l.106.031c.051-.022.088-.01.125-.073a1.608,1.608,0,0,0,.422-.2c0,.041.1-.037.115,0a.206.206,0,0,0,.044-.057c.068.024.123-.068.2-.041a.5.5,0,0,0,.036-.061c.111-.031.062-.061.168-.1.09-.067.223-.284.431-.37-.012-.067.131-.1.159-.163s.055-.022.093-.013l-.024-.043c.047-.026.035-.122.086-.079.012-.03.071-.11.045-.116.1-.079.1-.341.247-.376a.253.253,0,0,1,.027-.059c.057-.078.036-.223.068-.245s0-.049.03-.045c.036-.122.063-.3.1-.461-.031,0-.016-.039,0-.07.03,0,.045-.022.057-.051-.03-.01-.016-.035,0-.072l.049-.024c-.067,0,0-.1-.057-.106l.038-.023c-.053-.148.023-.3-.027-.442l.045-.024a.2.2,0,0,1,0-.259.087.087,0,0,1,0-.1c-.086-.051.02-.108-.039-.151.039-.088-.071-.18,0-.269-.041-.074-.053-.11-.093-.186.01-.033.016-.063.025-.094-.027,0-.065-.01-.055-.045.055-.059,0-.1.012-.166-.055,0-.027-.065-.043-.1a.918.918,0,0,0-.171-.439c.041-.065-.043-.315-.039-.393l-.057-.031a.3.3,0,0,0-.122-.159.481.481,0,0,0,0-.08c-.025,0-.059,0-.053-.039a.464.464,0,0,0,0-.079l-.031.039a.219.219,0,0,1-.082-.2c-.114-.163-.157-.281-.324-.506-.063.036,0-.13-.077-.086a.894.894,0,0,0-.276-.375.591.591,0,0,0,.01-.073.208.208,0,0,1-.074,0l-.014-.01a1.061,1.061,0,0,1,.241-.076c.053.073.171-.065.24-.027s.068-.065.117,0l.012.049a.513.513,0,0,0,.043-.065.179.179,0,0,0,.171-.03c.031.016.07.037.088.01a1.341,1.341,0,0,1,.269-.061c0,.051.088-.022.07,0a.335.335,0,0,1,.179.02c.023-.022.047-.057.078-.038l.045.032a.245.245,0,0,0,.087-.051c.461-.043.718-.266,1.176-.266.088-.036.165-.075.249-.114s.149.067.161-.016c-.027-.022.1-.051.125-.086.11-.014.186-.208.227-.273-.035-.016,0-.049-.013-.105h.059a1.205,1.205,0,0,1,0-.31" transform="translate(-24.624 -3.161)" fill="#ebb7c8"/>
          <path id="패스_4777" data-name="패스 4777" d="M46.884,60.9A3.042,3.042,0,0,0,47.952,58.3v-.689h-.863c-.176,0-.251-.157-.251-.339s.079-.327.251-.327h2.436c.163,0,.252.148.252.327s-.083.339-.252.339h-.859v.675a2.869,2.869,0,0,0,1.082,2.539.39.39,0,0,1,.033.509.3.3,0,0,1-.412.091l-.024-.017a2.7,2.7,0,0,1-1.034-1.493,2.707,2.707,0,0,1-1.02,1.577.312.312,0,0,1-.435-.08l-.007-.011a.4.4,0,0,1,.033-.494M50.259,56.7c0-.177.142-.281.348-.281s.34.1.34.281v5.946c0,.214-.138.312-.34.312s-.348-.1-.348-.312V59.327H49.5c-.165,0-.258-.142-.258-.348,0-.225.094-.356.258-.356h.762Zm1.313-.126a.3.3,0,0,1,.309-.293l.031,0c.21,0,.352.111.352.29V62.8c0,.214-.135.312-.352.312s-.341-.1-.341-.312Z" transform="translate(-12.065 -14.514)" fill="#ebb7c8"/>
          <path id="패스_4778" data-name="패스 4778" d="M58.43,63.049c0,.222-.164.326-.373.326s-.375-.1-.375-.326V60.9H55.364c-.15,0-.24-.142-.24-.341s.09-.333.24-.333h5.373c.163,0,.244.141.244.333s-.078.341-.244.341H58.431Zm-2.312-3.4a.322.322,0,0,1-.4-.209l0-.016a.357.357,0,0,1,.177-.468c.932-.186,1.7-.689,1.748-1.592H56.015c-.177,0-.245-.163-.245-.339s.082-.335.245-.335H60.1c.165,0,.253.148.253.335s-.078.339-.253.339H58.48c.055.911.887,1.413,1.769,1.585a.327.327,0,0,1,.189.423.244.244,0,0,1-.013.029.321.321,0,0,1-.388.235l-.019-.005a2.645,2.645,0,0,1-1.951-1.295,2.568,2.568,0,0,1-1.947,1.311" transform="translate(-14.217 -14.62)" fill="#ebb7c8"/>
          <path id="패스_4779" data-name="패스 4779" d="M65.97,56.844v.894a3.015,3.015,0,0,0,1.381,2.791.363.363,0,0,1,.078.5.3.3,0,0,1-.387.162.3.3,0,0,1-.081-.05,3.149,3.149,0,0,1-1.342-1.725,3.178,3.178,0,0,1-1.345,1.829.319.319,0,0,1-.444-.079.3.3,0,0,1-.02-.033.347.347,0,0,1,.05-.487l.013-.01a3.1,3.1,0,0,0,1.354-2.873v-.917c0-.193.157-.288.375-.288s.376.095.376.288m2.87-.267v6.212c0,.214-.143.326-.361.326a.312.312,0,0,1-.35-.269.241.241,0,0,1,0-.056V56.575c0-.186.142-.3.352-.3s.361.112.361.3" transform="translate(-16.436 -14.514)" fill="#ebb7c8"/>
          <path id="패스_4780" data-name="패스 4780" d="M72.055,59.538a1.981,1.981,0,0,0,1.272-2.007V57.4H72.2c-.17,0-.244-.163-.244-.34s.078-.333.244-.333h3.02c.17,0,.251.156.251.333s-.078.34-.251.34H74.063v.126A1.89,1.89,0,0,0,75.408,59.4a.364.364,0,0,1-.312.647,2.293,2.293,0,0,1-1.368-1.267,2.341,2.341,0,0,1-1.357,1.386.322.322,0,0,1-.432-.145c0-.008-.007-.016-.01-.024a.33.33,0,0,1,.1-.456l.02-.012m2.769,3.691c-1.368,0-2.093-.495-2.093-1.361s.726-1.376,2.093-1.376,2.1.5,2.1,1.376-.727,1.361-2.1,1.361m0-2.114c-.885,0-1.347.279-1.347.753s.462.748,1.347.748,1.361-.288,1.361-.748-.468-.753-1.361-.753m1.305-4.539a.312.312,0,0,1,.324-.3l.031,0c.2,0,.361.112.361.3v1.437h.793c.171,0,.247.132.247.331s-.078.34-.247.34h-.793v1.468c0,.223-.145.319-.361.319s-.355-.1-.355-.319Z" transform="translate(-18.537 -14.512)" fill="#ebb7c8"/>
          <path id="패스_4781" data-name="패스 4781" d="M81.763,61.414c-1.072,0-1.386-1.1-1.386-2.318s.312-2.318,1.386-2.318,1.39,1.089,1.39,2.318-.312,2.318-1.39,2.318m0-3.961c-.557,0-.7.739-.7,1.643s.142,1.644.7,1.644.7-.742.7-1.644-.15-1.643-.7-1.643m3.307-.882c0-.179.144-.29.348-.29s.354.111.354.29V62.8c0,.214-.142.312-.354.312s-.348-.1-.348-.312V59.442h-.725v3.2c0,.214-.138.312-.347.312s-.347-.1-.347-.312V56.7c0-.177.142-.281.347-.281s.347.1.347.281v2.056h.725Z" transform="translate(-20.73 -14.515)" fill="#ebb7c8"/>
          <path id="패스_4782" data-name="패스 4782" d="M90.642,56.7a1.658,1.658,0,1,1,.008,3.316h-.008a1.658,1.658,0,0,1-.009-3.316Zm0,2.672a1.015,1.015,0,1,0-.978-1.05c0,.011,0,.023,0,.035a.937.937,0,0,0,.854,1.013,1.165,1.165,0,0,0,.125,0m-.706,1.607c0-.192.163-.3.367-.3s.376.1.376.3v1.333c0,.124.02.148.142.148h3.115c.171,0,.252.133.252.333s-.078.334-.252.334H90.669c-.51,0-.735-.068-.735-.594Zm3.328-4.4a.366.366,0,0,1,.72,0v4.375c0,.222-.148.324-.36.324s-.359-.1-.359-.324Z" transform="translate(-22.948 -14.515)" fill="#ebb7c8"/>
          <path id="패스_4783" data-name="패스 4783" d="M97.771,61.325a.312.312,0,0,1-.439-.05.3.3,0,0,1-.038-.062.354.354,0,0,1,.078-.494l0,0A2.78,2.78,0,0,0,98.7,58.132v-.555H97.537c-.177,0-.252-.16-.252-.346s.088-.334.252-.334H100.6c.163,0,.251.162.251.334s-.073.346-.251.346H99.441v.564a2.562,2.562,0,0,0,1.368,2.467.356.356,0,0,1,.079.488.3.3,0,0,1-.38.183.29.29,0,0,1-.089-.049,2.917,2.917,0,0,1-1.334-1.6,2.978,2.978,0,0,1-1.311,1.7m4.549-4.746v6.212a.358.358,0,0,1-.713,0V56.58c0-.186.143-.3.354-.3s.359.112.359.3" transform="translate(-25.075 -14.515)" fill="#ebb7c8"/>
          <path id="패스_4784" data-name="패스 4784" d="M110.034,56.578c0-.186.157-.3.362-.3a.325.325,0,0,1,.353.294v3.41c0,.223-.144.319-.354.319-.226,0-.362-.1-.362-.319v-.651h-1.468a1.6,1.6,0,0,1-1.305.592,1.658,1.658,0,0,1,0-3.316,1.6,1.6,0,0,1,1.305.59h1.468Zm-2.773,2.711a1.026,1.026,0,1,0-.943-1.1c0,.026,0,.052,0,.078a.937.937,0,0,0,.845,1.02.913.913,0,0,0,.1,0m3.489,3.731c0,.187-.171.289-.369.289s-.373-.1-.373-.289V61.48c0-.119-.014-.133-.129-.133h-3.1c-.177,0-.258-.134-.258-.335s.078-.332.258-.332H110.2c.4,0,.553.111.553.572Zm-1.892-4.338h1.175v-.838h-1.178a2.34,2.34,0,0,1,.049.431,1.929,1.929,0,0,1-.049.407" transform="translate(-27.236 -14.514)" fill="#ebb7c8"/>
          <path id="패스_4785" data-name="패스 4785" d="M115.92,56.841v.909a2.986,2.986,0,0,0,1.359,2.782.364.364,0,0,1,.079.5.3.3,0,0,1-.39.163.3.3,0,0,1-.079-.047,3.123,3.123,0,0,1-1.332-1.731,3.047,3.047,0,0,1-1.327,1.83.316.316,0,0,1-.442-.071.33.33,0,0,1-.022-.034.353.353,0,0,1,.057-.5l.01-.008a3.08,3.08,0,0,0,1.328-2.864v-.937c0-.193.165-.288.373-.288.234,0,.383.095.383.288m2.74-.267v2.125h.816c.177,0,.245.142.245.341s-.069.339-.245.339h-.816v3.407a.317.317,0,0,1-.361.326.313.313,0,0,1-.351-.268.3.3,0,0,1,0-.058V56.565c0-.186.144-.3.354-.3s.361.112.361.3" transform="translate(-29.321 -14.511)" fill="#ebb7c8"/>
          <path id="패스_4786" data-name="패스 4786" d="M122.457,61.99c-.157,0-.265-.12-.265-.332a.285.285,0,0,1,.247-.318l.018,0h1.436V60.71c-.748-.089-1.15-.469-1.15-1.051,0-.675.531-1.081,1.51-1.081s1.5.406,1.5,1.081c0,.592-.408.97-1.15,1.056v.609a8.416,8.416,0,0,0,1.442-.171.3.3,0,0,1,.068-.006c.143,0,.246.12.246.341a.26.26,0,0,1-.177.28,8.917,8.917,0,0,1-2.056.223Zm.124-3.731c-.177,0-.244-.134-.244-.318s.078-.32.244-.32h3.339c.171,0,.253.14.253.32s-.078.318-.253.318Zm.919-1.141c-.177,0-.253-.14-.253-.327s.1-.312.253-.312h1.488c.163,0,.244.134.244.312s-.078.327-.244.327Zm.754,3.086c.538,0,.823-.208.823-.546s-.285-.555-.823-.555-.83.213-.83.555.286.546.83.546m2.448-3.627c0-.186.151-.3.355-.3s.359.112.359.3v6.206c0,.22-.141.324-.359.324s-.355-.1-.355-.324Z" transform="translate(-31.513 -14.515)" fill="#ebb7c8"/>
          <path id="패스_4787" data-name="패스 4787" d="M131.312,57.132c0-.434.127-.6.571-.6h3.357c.17,0,.259.111.259.312s-.089.319-.259.319h-3.068c-.116,0-.128.016-.128.147v.4h3.1c.17,0,.252.1.252.3s-.082.3-.252.3h-3.1V58.7c0,.132.013.157.128.157h3.1c.171,0,.258.111.258.312s-.088.318-.267.318h-1.523v.54h2.321c.156,0,.234.156.234.318s-.078.317-.234.317h-5.394c-.156,0-.234-.146-.234-.317s.073-.318.234-.318H133v-.542H131.88c-.4,0-.571-.125-.571-.6Zm2.061,3.857c1.43,0,2.149.407,2.149,1.177s-.719,1.171-2.149,1.171-2.156-.406-2.156-1.171.718-1.177,2.156-1.177m0,1.732c.972,0,1.394-.194,1.394-.555s-.422-.561-1.394-.561-1.4.2-1.4.561.427.555,1.4.555" transform="translate(-33.639 -14.58)" fill="#ebb7c8"/>
          <path id="패스_4788" data-name="패스 4788" d="M139.01,58.073c-.177,0-.245-.132-.245-.3s.078-.3.245-.3h3.305c.171,0,.252.126.252.3s-.078.3-.252.3Zm1.693.26c.966,0,1.491.4,1.491,1.029s-.525,1.028-1.491,1.028-1.5-.408-1.5-1.028.518-1.029,1.5-1.029m-.8-1.327c-.169,0-.235-.125-.235-.3s.074-.3.235-.3h1.561c.162,0,.244.126.244.3s-.078.3-.244.3Zm-.109,3.975c0-.177.161-.274.361-.274s.352.1.352.274v.458h2.565v-.458c0-.177.156-.274.347-.274s.361.1.361.274v1.748c0,.422-.157.554-.578.554H140.36c-.422,0-.571-.14-.571-.562Zm.911-1.118c.531,0,.81-.2.81-.5s-.28-.5-.81-.5-.816.2-.816.5.278.5.816.5m-.2,2.162v.5c0,.149.013.16.137.16h2.286c.123,0,.142-.011.142-.16v-.5Zm2.557-5.457c0-.186.156-.29.355-.29s.36.105.36.29V58.3h.8c.177,0,.245.133.245.333s-.068.332-.245.332h-.8V60.1c0,.213-.142.319-.361.319s-.355-.106-.355-.319Z" transform="translate(-35.788 -14.514)" fill="#ebb7c8"/>
          <path id="패스_4789" data-name="패스 4789" d="M149.738,58.737h-1.1c-.406,0-.577-.095-.577-.583v-1.1c0-.444.128-.583.571-.583h3.334c.169,0,.25.117.25.324s-.078.318-.25.318h-3.016c-.131,0-.145.023-.145.157v.66c0,.133.021.161.145.161h3.032c.177,0,.258.119.258.321s-.088.322-.258.322h-1.491v.6H152.8c.156,0,.234.157.234.317s-.078.326-.234.326h-5.386c-.163,0-.234-.157-.234-.326s.068-.317.234-.317h2.326Zm2.45,3.955c.163,0,.245.126.245.312s-.082.332-.245.332H148.67c-.421,0-.645-.1-.645-.546V62.08c0-.333.1-.5.462-.5H151.3c.108,0,.122-.007.122-.1v-.3c0-.095-.014-.111-.122-.111h-3.066c-.163,0-.246-.125-.246-.312s.082-.319.246-.319h3.435c.39,0,.5.186.5.54V61.6c0,.386-.136.547-.5.547H148.9c-.108,0-.122.013-.122.111v.319c0,.1.014.118.122.118Z" transform="translate(-37.958 -14.565)" fill="#ebb7c8"/>
          <path id="패스_4790" data-name="패스 4790" d="M158.1,59.135h-.979c-.625,0-.7-.134-.7-.7V56.674c0-.177.169-.272.361-.272.212,0,.375.1.375.272v.512h2.631v-.512c0-.177.177-.272.362-.272.217,0,.373.1.373.272v1.762c0,.631-.157.7-.7.7h-.972v.6h2.32c.157,0,.235.164.235.336s-.078.323-.235.323h-5.386c-.165,0-.234-.157-.234-.323s.068-.336.234-.336h2.317Zm-1.714,2.385c0-.452.142-.6.564-.6h2.9c.483,0,.729.052.729.606v1.118c0,.469-.143.615-.571.615h-3.055c-.422,0-.565-.148-.565-.615Zm.892.036c-.122,0-.151.029-.151.157v.75c0,.135.029.157.151.157h2.414c.115,0,.142-.021.142-.157v-.75c0-.125-.027-.157-.142-.157Zm-.122-3.221c0,.148.019.163.142.163h2.342c.136,0,.15-.015.15-.172v-.509h-2.631Z" transform="translate(-40.115 -14.546)" fill="#ebb7c8"/>
          <path id="패스_4791" data-name="패스 4791" d="M164.719,61.325a.313.313,0,0,1-.439-.051.321.321,0,0,1-.038-.061.351.351,0,0,1,.074-.491l.008-.006a2.779,2.779,0,0,0,1.319-2.583v-.555h-1.155c-.179,0-.252-.16-.252-.346s.088-.334.252-.334h3.067c.163,0,.25.162.25.334s-.073.346-.25.346h-1.164v.564a2.563,2.563,0,0,0,1.367,2.467.353.353,0,0,1,.078.488.3.3,0,0,1-.376.186.311.311,0,0,1-.092-.051,2.905,2.905,0,0,1-1.334-1.6,2.979,2.979,0,0,1-1.312,1.7m4.551-4.746v6.212c0,.214-.142.326-.361.326a.313.313,0,0,1-.352-.267.259.259,0,0,1,0-.059V56.58c0-.186.143-.3.354-.3s.361.112.361.3" transform="translate(-42.34 -14.515)" fill="#ebb7c8"/>
          <path id="패스_4792" data-name="패스 4792" d="M174.065,61.1V60.095H172.6c-.149,0-.251-.129-.251-.341s.1-.334.251-.334h1.809a7.467,7.467,0,0,0,1.722-.186c.142-.037.272.061.3.253s-.02.339-.169.384a6.038,6.038,0,0,1-1.483.208v1.043c0,.194-.148.29-.358.29a.442.442,0,0,1-.252-.066v.977c0,.133.019.148.136.148h3.285c.172,0,.26.133.26.334s-.088.331-.26.331h-3.6c-.4,0-.565-.118-.565-.591V61.316c0-.194.169-.3.375-.3a.455.455,0,0,1,.271.083m.339-2.066c-.957,0-1.561-.482-1.561-1.288s.6-1.282,1.561-1.282,1.561.481,1.561,1.282-.6,1.288-1.561,1.288m0-1.962c-.546,0-.859.252-.859.682s.307.673.859.673.859-.251.859-.673-.3-.682-.859-.682m3.261-.5V61.44c0,.217-.145.312-.355.312s-.359-.095-.359-.312v-.405h-1.092c-.157,0-.246-.149-.246-.341s.089-.335.246-.335h1.092V56.577c0-.186.149-.3.359-.3s.355.112.355.3" transform="translate(-44.45 -14.514)" fill="#ebb7c8"/>
          <path id="패스_4793" data-name="패스 4793" d="M182.56,57v.593a2.1,2.1,0,0,0,1.033,2.034.288.288,0,0,1,.122.259.361.361,0,0,1-.306.4.214.214,0,0,1-.068-.016,2.137,2.137,0,0,1-1.136-1.219,2.317,2.317,0,0,1-.95,1.288.594.594,0,0,1-.288.1.362.362,0,0,1-.312-.39.289.289,0,0,1,.124-.251,2.344,2.344,0,0,0,1.067-2.3v-.511c0-.191.136-.282.36-.282s.354.091.354.282m.09,4.012v1.3c0,.125.019.148.135.148h3.278c.171,0,.259.133.259.333s-.088.334-.259.334h-3.44c-.592,0-.721-.105-.721-.721V61.006c0-.191.163-.3.375-.3s.375.106.375.3m2.185-4.315v4.235c0,.206-.145.3-.348.3-.225,0-.347-.118-.347-.3V58.662h-.7c-.169,0-.258-.125-.258-.331,0-.239.09-.34.258-.34h.695v-1.3c0-.177.142-.281.347-.281s.348.1.348.281m1.327-.126v4.508c0,.215-.142.312-.354.312s-.345-.095-.345-.312V56.568c0-.179.142-.29.345-.29s.354.111.354.29" transform="translate(-46.591 -14.514)" fill="#ebb7c8"/>
          <path id="패스_4794" data-name="패스 4794" d="M189.491,57.436c0-.444.13-.614.6-.614h2.135c.172,0,.26.149.26.347s-.088.333-.26.333h-1.837c-.142,0-.168.03-.168.172v.991h1.768c.171,0,.252.141.252.334s-.082.333-.252.333H190.22v1.093c0,.156.02.179.162.179a8.077,8.077,0,0,0,2.17-.179c.131-.037.267.051.3.245s-.04.355-.168.4a8.924,8.924,0,0,1-2.6.216c-.422-.015-.592-.179-.592-.659Zm4.28-.859a.312.312,0,0,1,.319-.305l.036,0c.211,0,.358.116.358.3v6.212a.358.358,0,0,1-.713,0V59.206H192.8c-.168,0-.259-.134-.259-.342s.09-.341.259-.341h.967Z" transform="translate(-48.87 -14.513)" fill="#ebb7c8"/>
        </g>
      </g>
    </g>
    <g id="그룹_12764" data-name="그룹 12764" transform="translate(599.095 1710.816)">
      <g id="그룹_12763" data-name="그룹 12763" transform="translate(0 0)" clip-path="url(#clip-path-3)">
        <path id="패스_4677" data-name="패스 4677" d="M387.154,213.111a12.347,12.347,0,0,0-.576-20.974c-1.413-.824-3.064-1.43-3.976-2.788-1.179-1.754-.695-4.145.235-6.043,1.4-2.853,3.687-5.272,4.615-8.311a10.089,10.089,0,0,0-13.933-12.08c-.088,1.217-.324,2.328-.412,3.544,2.985,1.46,3.887,5.736,3.158,8.977s-2.7,6.036-4.243,8.98-2.679,6.415-1.592,9.555c.706,2.04,2.261,3.663,3.265,5.574a11.453,11.453,0,0,1-.911,11.862,96.113,96.113,0,0,0,14.371,1.7" transform="translate(-327.706 -143.483)" fill="#411d16"/>
        <path id="패스_4678" data-name="패스 4678" d="M396.348,159.27c4.233-1.992,9.641-1.709,13,1.806a9.037,9.037,0,0,1,2.557,5.7,9.87,9.87,0,0,1-1.945,6.009,30.251,30.251,0,0,1-5.193,5.415c-.34.3.157.791.5.5,3.41-2.983,7.383-6.676,7.353-11.584-.029-4.737-3.871-8.691-8.39-9.572a13.385,13.385,0,0,0-8.226,1.121c-.408.192-.052.8.353.6" transform="translate(-350.569 -139.335)" fill="#411d16"/>
        <path id="패스_4679" data-name="패스 4679" d="M364.071,414.349c-.544,2.089.5,4,1.533,5.75a11.462,11.462,0,0,1,1.782,5.158,10.8,10.8,0,0,1-3.924,9.088c-.352.281.146.774.5.5a11.213,11.213,0,0,0,3.949-6.721,11.377,11.377,0,0,0-1.392-7.851c-1-1.737-2.316-3.628-1.768-5.733a.35.35,0,0,0-.675-.186" transform="translate(-321.808 -366.765)" fill="#411d16"/>
        <path id="패스_4680" data-name="패스 4680" d="M238.591,491.529l-.8,9.243h15.423l-.611-7.02a26.061,26.061,0,0,1-14.007-2.223" transform="translate(-210.605 -435.343)" fill="#fab8a3"/>
        <path id="패스_4681" data-name="패스 4681" d="M258.836,424.8l-.969-11.121H245.6l-.775,8.9a26.059,26.059,0,0,0,14.007,2.223" transform="translate(-216.843 -366.393)" fill="#ff9173"/>
        <path id="패스_4682" data-name="패스 4682" d="M152.906,133.075a15.588,15.588,0,0,0-9.865,5.7,15.268,15.268,0,0,0-3.235,11.142,6.224,6.224,0,0,0,3.272,5.047c.407.187.763-.416.354-.6-3.631-1.671-3.379-6.756-2.468-9.985a14.778,14.778,0,0,1,6.441-8.554,15.119,15.119,0,0,1,5.687-2.069c.444-.067.255-.742-.186-.675" transform="translate(-123.728 -117.859)" fill="#411d16"/>
        <path id="패스_4683" data-name="패스 4683" d="M192.837,171.26l-.665-.171a14.71,14.71,0,0,0-7.311,0l-.665.171a14.323,14.323,0,0,0-9.441,7.768,13.81,13.81,0,0,0-1.089,8.284l.777,4.35a22.163,22.163,0,0,0,6.728,12.3l.127.119a10.631,10.631,0,0,0,14.437,0l.127-.119a22.164,22.164,0,0,0,6.728-12.3l.777-4.35a13.81,13.81,0,0,0-1.089-8.284h0a14.323,14.323,0,0,0-9.441-7.768" transform="translate(-153.624 -151.123)" fill="#fab8a3"/>
        <path id="패스_4684" data-name="패스 4684" d="M187.718,151.885a18.372,18.372,0,0,1-13.465-11.117,49.293,49.293,0,0,0-16.453,11.4,14.064,14.064,0,0,1,9.646-21.353,8.621,8.621,0,0,1,6.112.99,18.37,18.37,0,0,1,5.926-.912,9.543,9.543,0,0,1,5.6,2.072,11.309,11.309,0,0,1,3.352,6.081,21.374,21.374,0,0,1-.721,12.837" transform="translate(-137.887 -115.725)" fill="#411d16"/>
        <path id="패스_4685" data-name="패스 4685" d="M151.306,311.74a1.694,1.694,0,0,0-2.23-.817,3.124,3.124,0,0,0-1.606,2.019,5.553,5.553,0,0,0,5.261,7.216c-.475-2.946-.738-5.322-1.213-8.268-.011.169-.2-.32-.212-.151" transform="translate(-130.394 -275.261)" fill="#fab8a3"/>
        <path id="패스_4686" data-name="패스 4686" d="M416.52,311.74a1.694,1.694,0,0,1,2.23-.817,3.124,3.124,0,0,1,1.606,2.019,5.553,5.553,0,0,1-5.261,7.216c.475-2.946.738-5.322,1.213-8.268.011.169.2-.32.212-.151" transform="translate(-367.646 -275.261)" fill="#fab8a3"/>
        <path id="패스_4687" data-name="패스 4687" d="M282.74,286.084a6.694,6.694,0,0,1,.36,9.194.365.365,0,0,0-.055.424l1.307,2.577c.2.4.808.048.6-.353l-1.307-2.577-.055.424a7.408,7.408,0,0,0-.36-10.185c-.322-.316-.818.179-.5.5" transform="translate(-250.328 -252.853)" fill="#f15d49"/>
        <path id="패스_4688" data-name="패스 4688" d="M156.733,322.218c.246-.925,1.371-.71,1.845-.118a3.5,3.5,0,0,1,.467,2.468l.6-.248c-.56-.573-1.323-.1-1.449.588a2.861,2.861,0,0,0,1.064,2.364c.317.321.812-.174.5-.5a3.685,3.685,0,0,1-.681-.868,1.792,1.792,0,0,1-.182-.5c-.011-.06,0-.851.258-.591a.354.354,0,0,0,.6-.248c.075-1.25-.03-2.778-1.264-3.464a1.654,1.654,0,0,0-2.424.928.35.35,0,0,0,.675.186" transform="translate(-138.207 -284.203)" fill="#f15d49"/>
        <path id="패스_4689" data-name="패스 4689" d="M423.791,321.664a1.626,1.626,0,0,0-2.107-1.386c-1.2.441-1.453,2.172-1.6,3.258a.354.354,0,0,0,.585.341c.48-.4.4.57.342.78a2.626,2.626,0,0,1-.228.553,2.828,2.828,0,0,1-.927.993c-.373.249-.023.855.353.6a3.4,3.4,0,0,0,1.585-2.58.973.973,0,0,0-1.621-.846l.585.341a5.954,5.954,0,0,1,.639-2.3.9.9,0,0,1,.935-.509.919.919,0,0,1,.759.755c.053.442.754.447.7,0" transform="translate(-371.72 -283.586)" fill="#f15d49"/>
        <path id="패스_4690" data-name="패스 4690" d="M241.511,312.907c0,1.171-.57,2.12-1.274,2.12s-1.274-.949-1.274-2.12.57-2.12,1.274-2.12,1.274.949,1.274,2.12" transform="translate(-211.648 -275.261)" fill="#411d16"/>
        <path id="패스_4691" data-name="패스 4691" d="M351.8,312.907c0,1.171-.57,2.12-1.274,2.12s-1.274-.949-1.274-2.12.57-2.12,1.274-2.12,1.274.949,1.274,2.12" transform="translate(-309.325 -275.261)" fill="#411d16"/>
        <path id="패스_4692" data-name="패스 4692" d="M201.326,272.585a10.783,10.783,0,0,1,3.69-.55,6.215,6.215,0,0,1,3.423.713c.385.236.738-.369.354-.6a6.69,6.69,0,0,0-3.588-.81,11.59,11.59,0,0,0-4.065.578c-.418.158-.237.835.186.675" transform="translate(-177.938 -240.316)" fill="#411d16"/>
        <path id="패스_4693" data-name="패스 4693" d="M325.522,272.493a14.9,14.9,0,0,1,6.692-.995.35.35,0,0,0,0-.7,15.619,15.619,0,0,0-7.046,1.09c-.409.189-.053.793.353.6" transform="translate(-287.839 -239.832)" fill="#411d16"/>
        <path id="패스_4694" data-name="패스 4694" d="M314.514,204.995a10.81,10.81,0,0,0,13.074,11.387c.441-.091.254-.766-.186-.675a10.112,10.112,0,0,1-12.187-10.712c.031-.45-.669-.448-.7,0" transform="translate(-278.54 -181.264)" fill="#411d16"/>
        <path id="패스_4695" data-name="패스 4695" d="M272.83,414.637a6.638,6.638,0,0,0,6.644-.092.35.35,0,0,0-.353-.6,5.924,5.924,0,0,1-5.937.092.35.35,0,0,0-.353.6" transform="translate(-241.491 -366.577)" fill="#f15d49"/>
        <path id="패스_4696" data-name="패스 4696" d="M72.967,1101.128c.2-1.414.355-2.467.421-2.8.209-1.041,2.135-11.171,3.079-11.171h41.646c2.558,8.934,5.1,15.047,5.1,26.738H71.364c-.1-.007.967-8.24,1.6-12.77" transform="translate(-63.201 -962.888)" fill="#411d16"/>
        <path id="패스_4697" data-name="패스 4697" d="M214.865,533.8h21.055l-2.258-8.181H217.124Z" transform="translate(-190.305 -465.537)" fill="#f15d49"/>
        <path id="패스_4698" data-name="패스 4698" d="M61.826,545.56h0a15.822,15.822,0,0,1,5.124-1.96l4.727-.914L83,540.494v-.013l.034.007.034-.007v.013l11.765,2.276,4.285.829a15.822,15.822,0,0,1,5.124,1.96c5.219,3.126,4.9,8.967,4.346,15.025l-.119,1.291a15.821,15.821,0,0,1-1.138,4.6l-7.19,20.985,3.448,15.507H61.05L65.8,591.443l-10.34-24.964a15.826,15.826,0,0,1-1.138-4.6l-.119-1.291a15.822,15.822,0,0,1,7.626-15.025" transform="translate(-47.945 -478.699)" fill="#f15d49"/>
        <path id="패스_4699" data-name="패스 4699" d="M233.025,555.083c-3.193,5.581-7.017,11.012-8.538,17.355a27.286,27.286,0,0,0-.726,5.522l.652-.177c-2.611-3.45-5.459-6.755-7.581-10.545-1.964-3.509-3.764-7.922-2.431-11.953.142-.429-.534-.613-.675-.186-1.037,3.137-.228,6.516,1.018,9.468a41.17,41.17,0,0,0,5.369,8.79c1.219,1.6,2.48,3.174,3.7,4.78a.353.353,0,0,0,.652-.177,27.438,27.438,0,0,1,1.971-9.307,60.036,60.036,0,0,1,4.3-8.3c.968-1.636,1.949-3.264,2.893-4.914a.35.35,0,0,0-.6-.353" transform="translate(-188.875 -491.431)" fill="#411d16"/>
        <rect id="사각형_4802" data-name="사각형 4802" width="11.086" height="3.267" transform="matrix(0.988, -0.152, 0.152, 0.988, 29.923, 86.902)" fill="#e0e0f1"/>
        <path id="패스_4700" data-name="패스 4700" d="M280.045,806l.9,5.822-10.957,1.69-1.3-8.418Z" transform="translate(-237.974 -713.061)" fill="#cac3e1"/>
        <path id="패스_4701" data-name="패스 4701" d="M266.126,775.388l10.957-1.69.693,4.494-11.357-.906Z" transform="translate(-235.706 -685.258)" fill="#fff"/>
        <path id="패스_4702" data-name="패스 4702" d="M207.926,810.721a34.5,34.5,0,0,1-2.17-22.383l24.068,5.869a1.375,1.375,0,0,1,1.01,1.662l-7.408,30.381a1.369,1.369,0,0,1-.211.463,34.5,34.5,0,0,1-15.289-15.992" transform="translate(-181.394 -698.223)" fill="#e0e0f1"/>
        <path id="패스_4703" data-name="패스 4703" d="M124.082,817.133l7.408-30.381a1.375,1.375,0,0,1,1.662-1.01l1.073.262a34.107,34.107,0,0,0,17.459,38.375,1.375,1.375,0,0,1-1.451.547L125.093,818.8a1.375,1.375,0,0,1-1.01-1.662" transform="translate(-109.864 -695.89)" fill="#cac3e1"/>
        <path id="패스_4705" data-name="패스 4705" d="M311.079,998.714c1.678.554,3.318,1.165,5.187,1.769a4.585,4.585,0,0,1,2.259,1.254,1.775,1.775,0,0,1-.118,2.471,1.867,1.867,0,0,1,.2,1.751,1.662,1.662,0,0,1-1.242,1.1,1.963,1.963,0,0,1,.594,2,1.722,1.722,0,0,1-1.613,1.154,1.324,1.324,0,0,1-.378,1.818,2.309,2.309,0,0,1-1.94.222,19.665,19.665,0,0,1-6.7-3.551l2.282-10.478,1.471.486" transform="translate(-272.196 -884.122)" fill="#fab8a3"/>
        <path id="패스_4706" data-name="패스 4706" d="M292.577,995.36l.992.328-2.282,10.478c-.719-.537-1.408-1.079-2.07-1.592a19.545,19.545,0,0,1,3.36-9.213" transform="translate(-256.157 -881.582)" fill="#ff9173"/>
        <path id="패스_4707" data-name="패스 4707" d="M17.046,572.235l-5.326,1.053a11.006,11.006,0,0,0-8.795,9.495L.15,609.591a8.091,8.091,0,0,0,4.621,8.923l28.472,12.559,3.975-10.55L14.784,607.5Z" transform="translate(0 -506.823)" fill="#f15d49"/>
        <path id="패스_4708" data-name="패스 4708" d="M379.227,1037.187a18.988,18.988,0,0,0-2.841-1.062.351.351,0,0,0-.186.675,17.8,17.8,0,0,1,2.674.991c.406.189.762-.414.353-.6" transform="translate(-332.978 -917.674)" fill="#f15d49"/>
        <path id="패스_4709" data-name="패스 4709" d="M379.113,1066.186a14.668,14.668,0,0,0-2.045-.76.35.35,0,0,0-.186.675,13.465,13.465,0,0,1,1.878.689c.407.186.763-.418.354-.6" transform="translate(-333.583 -943.626)" fill="#f15d49"/>
        <path id="패스_4710" data-name="패스 4710" d="M368.021,1091.308l-1.875-.9c-.4-.194-.76.41-.353.6l1.875.9c.4.194.76-.41.353-.6" transform="translate(-323.82 -965.732)" fill="#f15d49"/>
        <path id="패스_4711" data-name="패스 4711" d="M91.7,678.224a24.427,24.427,0,0,0-1.912,10.533,19.718,19.718,0,0,0,3.456,9.722c.251.372.858.022.6-.353a19,19,0,0,1-3.371-9.55,24.074,24.074,0,0,1,1.9-10.166c.166-.419-.511-.6-.675-.186" transform="translate(-79.487 -600.489)" fill="#411d16"/>
        <path id="패스_4712" data-name="패스 4712" d="M119.917,853.077l.121,2.77c.02.449.72.451.7,0l-.121-2.77c-.02-.449-.72-.451-.7,0" transform="translate(-106.209 -755.264)" fill="#411d16"/>
        <path id="패스_4713" data-name="패스 4713" d="M106.306,868.633c-3.418-1.666-6.721-3.6-10.036-5.461a.35.35,0,0,0-.353.6c3.315,1.862,6.618,3.794,10.036,5.461.4.2.759-.407.353-.6" transform="translate(-84.8 -764.462)" fill="#411d16"/>
        <path id="패스_4714" data-name="패스 4714" d="M411.829,1072.552a61.931,61.931,0,0,0-5.471,6.256,5.842,5.842,0,0,0-1.226,2.534,2.277,2.277,0,0,0,1.12,2.4,2.908,2.908,0,0,0,1.056,2.1,2.733,2.733,0,0,0,2.165.7c-.134.248.212.592.417.785a1.677,1.677,0,0,0,.758.353,8.072,8.072,0,0,0,5.915-.8,2.494,2.494,0,0,0,.912-.776,1.07,1.07,0,0,0,.049-1.142,1.1,1.1,0,0,0-.987-.416,3.244,3.244,0,0,0-1.068.323,15.9,15.9,0,0,0-3.64-12.323" transform="translate(-358.8 -949.95)" fill="#fab8a3"/>
        <path id="패스_4715" data-name="패스 4715" d="M446.373,1176.6a5.468,5.468,0,0,0-2.212,1.411.429.429,0,0,0,.606.606,5.029,5.029,0,0,1,.429-.405.947.947,0,0,1,.118-.1c-.029.017-.045.034-.007.005l.054-.04q.122-.09.25-.172a4.936,4.936,0,0,1,.5-.282l.137-.065.062-.027c.048-.022-.07.028.006,0q.141-.057.285-.106a.429.429,0,1,0-.228-.827" transform="translate(-393.281 -1042.084)" fill="#f15d49"/>
        <path id="패스_4716" data-name="패스 4716" d="M420.4,1150.41a7.9,7.9,0,0,0-1.783,1.967.432.432,0,0,0,.154.586.438.438,0,0,0,.587-.154c.114-.177.235-.349.362-.517.037-.049-.064.08,0,0l.04-.051q.051-.063.1-.125.1-.124.214-.243a7.583,7.583,0,0,1,.928-.855.427.427,0,0,0,.126-.3.436.436,0,0,0-.126-.3.431.431,0,0,0-.3-.125.5.5,0,0,0-.3.125" transform="translate(-370.717 -1018.797)" fill="#f15d49"/>
        <path id="패스_4717" data-name="패스 4717" d="M457.344,572.814l3.145,1.278a21.133,21.133,0,0,1,12.566,14.541l3.252,10.781,2.357,7.816c.9,2.983,2.22,5.869,1.3,9.033-.874,3.02-16.167,21.451-18.723,24.869L456.66,630.1l9.763-17.691L458.241,595.2Z" transform="translate(-404.46 -507.336)" fill="#f15d49"/>
        <path id="패스_4718" data-name="패스 4718" d="M455.131,739.575l5.444,11.656c.19.408.794.053.6-.353l-5.444-11.656c-.191-.408-.794-.053-.6.353" transform="translate(-403.073 -654.562)" fill="#411d16"/>
        <path id="패스_4719" data-name="패스 4719" d="M567.024,471.006l-3.565,1.617a15.645,15.645,0,0,0-9.024,12.028l-5.376,36.368a41.124,41.124,0,0,0-.425,7.2l.745,25.847,13.448-.894-.708-27.721,8.211-31.734Z" transform="translate(-485.906 -417.166)" fill="#411d16"/>
        <path id="패스_4720" data-name="패스 4720" d="M450.61,900.681l-8.573,26.072a1.2,1.2,0,0,1-1.518.767l-33.791-11.111a1.2,1.2,0,0,1-.767-1.518l8.573-26.072a1.2,1.2,0,0,1,1.518-.767l33.791,11.111a1.2,1.2,0,0,1,.767,1.518" transform="translate(-359.503 -786.487)" fill="#543b2b"/>
        <rect id="사각형_4803" data-name="사각형 4803" width="25.746" height="33.892" transform="translate(48.663 128.235) rotate(-71.799)" fill="#fff"/>
        <path id="패스_4721" data-name="패스 4721" d="M434.173,955.544l-4.487,13.647-1.034-.34a3.078,3.078,0,0,1-1.963-3.886l2.564-7.8a3.078,3.078,0,0,1,3.886-1.963Z" transform="translate(-377.778 -845.879)" fill="#df935a"/>
        <path id="패스_4722" data-name="패스 4722" d="M425.176,987.763l-1.418,4.313-1.063-.35a1.43,1.43,0,0,1-.912-1.805l.524-1.6a1.43,1.43,0,0,1,1.806-.912Z" transform="translate(-373.505 -874.48)" fill="#df935a"/>
        <rect id="사각형_4804" data-name="사각형 4804" width="20.398" height="0.746" transform="translate(54.041 127.504) rotate(-71.799)" fill="#ededee"/>
        <rect id="사각형_4805" data-name="사각형 4805" width="20.398" height="0.746" transform="translate(56.049 128.164) rotate(-71.799)" fill="#ededee"/>
        <rect id="사각형_4806" data-name="사각형 4806" width="20.398" height="0.746" transform="translate(58.058 128.825) rotate(-71.799)" fill="#ededee"/>
        <rect id="사각형_4807" data-name="사각형 4807" width="20.398" height="0.746" transform="translate(60.066 129.485) rotate(-71.799)" fill="#ededee"/>
        <rect id="사각형_4808" data-name="사각형 4808" width="20.398" height="0.746" transform="translate(67.156 131.816) rotate(-71.799)" fill="#ededee"/>
        <rect id="사각형_4809" data-name="사각형 4809" width="20.398" height="0.746" transform="translate(69.164 132.476) rotate(-71.799)" fill="#ededee"/>
        <rect id="사각형_4810" data-name="사각형 4810" width="20.398" height="0.746" transform="translate(71.173 133.137) rotate(-71.799)" fill="#ededee"/>
        <rect id="사각형_4811" data-name="사각형 4811" width="20.398" height="0.746" transform="translate(73.181 133.797) rotate(-71.799)" fill="#ededee"/>
        <path id="패스_4723" data-name="패스 4723" d="M741.367,195.876a1.788,1.788,0,0,0-2.354-.862,3.3,3.3,0,0,0-1.7,2.132,5.862,5.862,0,0,0,5.553,7.617c-.5-3.11-.779-5.618-1.28-8.728-.012.179-.212-.338-.224-.159" transform="translate(-652.806 -172.593)" fill="#ff9173"/>
        <path id="패스_4724" data-name="패스 4724" d="M822.261,385.652l-.85,9.757h16.28l-.645-7.41a27.508,27.508,0,0,1-14.785-2.346" transform="translate(-727.517 -341.568)" fill="#fab8a3"/>
        <path id="패스_4725" data-name="패스 4725" d="M843.629,315.219l-1.022-11.739H829.662l-.818,9.393a27.506,27.506,0,0,0,14.785,2.346" transform="translate(-734.1 -268.789)" fill="#ff9173"/>
        <path id="패스_4726" data-name="패스 4726" d="M720.455,26a16.655,16.655,0,0,1,2.8-4.908c2.049-2.77,4.233-5.548,7.16-7.367s6.774-2.522,9.837-.942c2.339-1.54,5.462-.957,7.994.238a20.2,20.2,0,0,1,6.375,5.375c2.142,2.482,4.175,5.23,4.826,8.443a8.789,8.789,0,0,1-1.191,6.6,2.286,2.286,0,0,1-.689.707,3.488,3.488,0,0,1-1.676.214c-2.23.075-4.486.491-6.707.718q-6.984.714-13.992,1.166-3.5.226-7.014.386a11.358,11.358,0,0,1-2.9.011,3.127,3.127,0,0,1-1.446-.934,11.348,11.348,0,0,1-3.107-4.186,8.645,8.645,0,0,1-.352-5.212q.04-.155.086-.308" transform="translate(-637.803 -10.496)" fill="#411d16"/>
        <path id="패스_4727" data-name="패스 4727" d="M773.966,47.591l-.7-.18a15.527,15.527,0,0,0-7.718,0l-.7.18a15.119,15.119,0,0,0-9.965,8.2,14.577,14.577,0,0,0-1.149,8.744l.82,4.591a23.4,23.4,0,0,0,7.1,12.988l.134.125a11.221,11.221,0,0,0,15.24,0l.134-.125a23.4,23.4,0,0,0,7.1-12.988l.82-4.591a14.577,14.577,0,0,0-1.149-8.744,15.119,15.119,0,0,0-9.965-8.2" transform="translate(-667.371 -41.559)" fill="#fab8a3"/>
        <path id="패스_4728" data-name="패스 4728" d="M1010.075,195.876a1.788,1.788,0,0,1,2.354-.862,3.3,3.3,0,0,1,1.7,2.132,5.862,5.862,0,0,1-5.553,7.617c.5-3.11.779-5.618,1.28-8.728.011.179.212-.338.224-.159" transform="translate(-893.283 -172.593)" fill="#fab8a3"/>
        <path id="패스_4729" data-name="패스 4729" d="M864.632,168.8a7.065,7.065,0,0,1,.38,9.705.385.385,0,0,0-.058.448l1.38,2.72c.215.424.853.051.638-.373l-1.38-2.72-.058.448a7.819,7.819,0,0,0-.38-10.751c-.34-.333-.863.189-.523.523" transform="translate(-765.699 -148.943)" fill="#f15d49"/>
        <path id="패스_4730" data-name="패스 4730" d="M1017.745,206.367a1.717,1.717,0,0,0-2.228-1.462c-1.268.459-1.531,2.3-1.687,3.438a.373.373,0,0,0,.618.36c.448-.372.454.418.408.636a2.829,2.829,0,0,1-.255.711,2.951,2.951,0,0,1-1.011,1.108c-.395.262-.025.9.373.638a3.6,3.6,0,0,0,1.671-2.684,1.03,1.03,0,0,0-1.708-.933l.618.36a5.994,5.994,0,0,1,.717-2.5.944.944,0,0,1,1.747.325c.054.467.794.473.739,0" transform="translate(-897.579 -181.399)" fill="#f15d49"/>
        <path id="패스_4731" data-name="패스 4731" d="M823.515,197.107c0,1.236-.6,2.238-1.345,2.238s-1.345-1-1.345-2.238.6-2.238,1.345-2.238,1.345,1,1.345,2.238" transform="translate(-726.998 -172.593)" fill="#411d16"/>
        <path id="패스_4732" data-name="패스 4732" d="M935.122,197.107c0,1.236-.6,2.238-1.345,2.238s-1.345-1-1.345-2.238.6-2.238,1.345-2.238,1.345,1,1.345,2.238" transform="translate(-825.847 -172.593)" fill="#411d16"/>
        <path id="패스_4733" data-name="패스 4733" d="M768.586,60.6c-3.3.76-7.242-1.014-8.521-4.15-.884-2.168-.742-4.807-2.274-6.579-.8-.921-1.99-2-3.208-2.018a1.792,1.792,0,0,0-2.311-1.345,3.262,3.262,0,0,0-1.958,2.21,24.854,24.854,0,0,0-.564,3.014,9.285,9.285,0,0,1-3.676,5.836,7.5,7.5,0,0,1-6.732.978A4.738,4.738,0,0,1,736.56,60.6a4.3,4.3,0,0,1-3.274-.3,16.75,16.75,0,0,1,3.863-11.376A16.179,16.179,0,0,1,747.5,43.25a32.046,32.046,0,0,1,6.95.151c4.286.405,8.87,1.523,11.572,4.876A14.392,14.392,0,0,1,768.586,60.6" transform="translate(-649.441 -38.185)" fill="#411d16"/>
        <path id="패스_4734" data-name="패스 4734" d="M928.921,80.5c1.67.819,1.44,2.94,1.428,4.49a10.175,10.175,0,0,0,.856,4.367c1.148,2.479,3.962,4.287,6.71,3.349.448-.153.255-.867-.2-.713a4.447,4.447,0,0,1-3.95-.641,6.237,6.237,0,0,1-2.378-3.669,25.617,25.617,0,0,1-.3-4.639,3.66,3.66,0,0,0-1.794-3.183c-.426-.209-.8.429-.373.638" transform="translate(-822.57 -70.694)" fill="#411d16"/>
        <path id="패스_4735" data-name="패스 4735" d="M720.736,24.034c-3.086,1.7-5.534,4.293-8.014,6.749a22.217,22.217,0,0,0-3.507,3.761,4.688,4.688,0,0,0-.345,4.307,4.045,4.045,0,0,0,3.7,2.384.37.37,0,0,0,0-.739,3.364,3.364,0,0,1-3.331-3.389c-.022-2.093,1.636-3.449,3-4.8,2.757-2.731,5.441-5.74,8.876-7.635.417-.23.044-.869-.373-.638" transform="translate(-627.512 -21.243)" fill="#411d16"/>
        <path id="패스_4736" data-name="패스 4736" d="M892.464,3.191a4.716,4.716,0,0,1,7.355-1.2c2.058,1.814,2.194,4.892,4.013,6.9.32.353.842-.171.523-.523A14.533,14.533,0,0,1,902.2,4.237,7.173,7.173,0,0,0,899.415.786a5.4,5.4,0,0,0-7.59,2.032c-.215.423.423.8.638.373" transform="translate(-789.844 0.004)" fill="#411d16"/>
        <path id="패스_4737" data-name="패스 4737" d="M822.119,165.881a23.557,23.557,0,0,0-4.057-.19c-.474.019-.477.758,0,.739a23.56,23.56,0,0,1,4.057.19c.47.063.465-.677,0-.739" transform="translate(-724.236 -146.735)" fill="#411d16"/>
        <path id="패스_4738" data-name="패스 4738" d="M914.649,157.533a11.526,11.526,0,0,1,6.9-.428.37.37,0,0,0,.2-.713,12.221,12.221,0,0,0-7.3.428c-.44.167-.249.882.2.713" transform="translate(-809.702 -138.191)" fill="#411d16"/>
        <path id="패스_4739" data-name="패스 4739" d="M857.645,294.087c.625,1.3,2.354,1.772,3.688,1.644a3.551,3.551,0,0,0,3.307-2.742c.072-.465-.641-.666-.713-.2A2.833,2.833,0,0,1,861.208,295a2.988,2.988,0,0,1-2.925-1.288c-.207-.428-.844-.054-.638.373" transform="translate(-759.573 -259.087)" fill="#f15d49"/>
        <path id="패스_4740" data-name="패스 4740" d="M902.6,195.14a5.6,5.6,0,0,1-4.287-9.2.3.3,0,1,1,.462.388,4.995,4.995,0,1,0,7.5-.17.3.3,0,0,1,.444-.409,5.6,5.6,0,0,1-4.119,9.389" transform="translate(-794.47 -164.431)" fill="#411d16"/>
        <path id="패스_4741" data-name="패스 4741" d="M780.555,195.14a5.6,5.6,0,0,1-4.287-9.2.3.3,0,0,1,.462.388,4.995,4.995,0,1,0,7.5-.17.3.3,0,0,1,.444-.409,5.6,5.6,0,0,1-4.119,9.389" transform="translate(-686.373 -164.431)" fill="#411d16"/>
        <rect id="사각형_4812" data-name="사각형 4812" width="3.159" height="0.603" transform="translate(99.677 24.212)" fill="#411d16"/>
        <rect id="사각형_4813" data-name="사각형 4813" width="5.459" height="0.603" transform="translate(113.306 24.239) rotate(-24.205)" fill="#411d16"/>
        <rect id="사각형_4814" data-name="사각형 4814" width="0.603" height="3.058" transform="matrix(0.435, -0.901, 0.901, 0.435, 86, 24.053)" fill="#411d16"/>
        <path id="패스_4742" data-name="패스 4742" d="M740,1117.971H694.073l-2.112,23.216h48.834Z" transform="translate(-612.864 -990.177)" fill="#7c99c4"/>
        <path id="패스_4743" data-name="패스 4743" d="M995.486,453.953l13.513.405a8.418,8.418,0,0,1,7.276,3.005l22.647,36.022-2.3,8.09-11.061-.942-18.523-21.315Z" transform="translate(-881.694 -402.062)" fill="#411d16"/>
        <path id="패스_4744" data-name="패스 4744" d="M685.825,472.961l-.082-1.1a13.185,13.185,0,0,0-4.643-9.23l-2.053-1.685a11.046,11.046,0,0,0-5.493-2.435l-7.471-1.034a16.851,16.851,0,0,1-29.733.523l-3.691.511a11.046,11.046,0,0,0-5.492,2.435l-2.053,1.685a13.185,13.185,0,0,0-4.643,9.23l-.082,1.1a14.049,14.049,0,0,0,.506,4.922l7.023,24.7.557,35.364H677.74l3.878-35.459,3.7-24.608a14.049,14.049,0,0,0,.506-4.922" transform="translate(-549.44 -405.18)" fill="#411d16"/>
        <path id="패스_4745" data-name="패스 4745" d="M776.04,452.714a16.916,16.916,0,0,0,14.241-9.5l-.446-.062-12.754-1.394L764.55,443.5l-4.225.585c3.084,5.48,9.437,9.178,15.715,8.632" transform="translate(-673.414 -391.265)" fill="#fab8a3"/>
        <path id="패스_4746" data-name="패스 4746" d="M806.976,455a47.291,47.291,0,0,0,.8,4.779c.5,2.527,1.041,5.045,1.594,7.56q1.726,7.844,3.627,15.65a39.747,39.747,0,0,0,1.083,4.141c.162.443.876.252.713-.2a33.2,33.2,0,0,1-.9-3.387c-.567-2.29-1.112-4.585-1.649-6.882-1.251-5.352-2.473-10.714-3.562-16.1a52.8,52.8,0,0,1-.974-5.563c-.043-.47-.783-.474-.739,0" transform="translate(-714.73 -402.674)" fill="#fff"/>
        <path id="패스_4747" data-name="패스 4747" d="M881.022,448.086c-.4,1.274-.892,2.524-1.348,3.777q-1.376,3.786-2.769,7.566-3.109,8.462-6.236,16.917-.84,2.275-1.682,4.549c-.165.447.549.639.713.2q2.095-5.659,4.182-11.322,3.12-8.457,6.218-16.923c.552-1.515,1.155-3.025,1.635-4.565.142-.455-.571-.65-.713-.2" transform="translate(-769.633 -396.637)" fill="#fff"/>
        <rect id="사각형_4815" data-name="사각형 4815" width="3.448" height="11.702" transform="translate(93.821 86.575) rotate(-83.347)" fill="#e0e0f1"/>
        <rect id="사각형_4816" data-name="사각형 4816" width="11.018" height="11.702" transform="matrix(0.116, -0.993, 0.993, 0.116, 92.545, 97.519)" fill="#fff"/>
        <path id="패스_4748" data-name="패스 4748" d="M839.607,1151.854l.877,18.595c.022.474.762.476.739,0q-.439-9.3-.877-18.595c-.022-.474-.762-.476-.739,0" transform="translate(-743.633 -1019.872)" fill="#411d16"/>
        <path id="패스_4749" data-name="패스 4749" d="M864.545,1151.854l.877,18.595c.022.474.762.476.739,0l-.877-18.595c-.022-.474-.762-.476-.739,0" transform="translate(-765.72 -1019.872)" fill="#411d16"/>
        <path id="패스_4750" data-name="패스 4750" d="M1041.255,1127.227a18.374,18.374,0,0,0,5.243,11.7c.335.339.857-.184.523-.523a17.586,17.586,0,0,1-5.026-11.179c-.03-.472-.77-.476-.739,0" transform="translate(-922.23 -998.061)" fill="#411d16"/>
        <path id="패스_4751" data-name="패스 4751" d="M1085.874,1227.534q.277,4.988.553,9.977c.026.473.766.476.739,0q-.277-4.989-.554-9.977c-.026-.473-.766-.476-.739,0" transform="translate(-961.749 -1086.901)" fill="#411d16"/>
        <path id="패스_4752" data-name="패스 4752" d="M1021.713,1142.094a21.922,21.922,0,0,0,7.292,12.139c.362.3.887-.216.523-.523a21.27,21.27,0,0,1-7.1-11.813c-.1-.465-.812-.268-.713.2" transform="translate(-904.914 -1011.133)" fill="#411d16"/>
        <path id="패스_4753" data-name="패스 4753" d="M773.527,930.634a100.223,100.223,0,0,0,20.02,13.833q3.116,1.631,6.341,3.038c.378.165.707-.392.326-.558a99.82,99.82,0,0,1-20.879-12.337q-2.754-2.12-5.351-4.432c-.31-.276-.769.18-.457.457" transform="translate(-685.014 -823.774)" fill="#fff"/>
        <path id="패스_4754" data-name="패스 4754" d="M651.175,624.4c1,7.4,1.688,14.838,2.65,22.243.258,1.985.534,3.967.847,5.944.065.41.688.236.624-.172-1.165-7.376-1.876-14.815-2.749-22.228-.234-1.988-.48-3.975-.748-5.958-.056-.411-.679-.236-.624.172" transform="translate(-576.737 -552.664)" fill="#fff"/>
        <path id="패스_4755" data-name="패스 4755" d="M534.581,1142.545c.294-1.489.051-3.03-1.2-2.923a1.7,1.7,0,0,0-1.327,1.323,5.007,5.007,0,0,0,.173-1.71,1.509,1.509,0,0,0-2.722-.879,5.011,5.011,0,0,0-.983,1.794,4.954,4.954,0,0,0,.335-2.025,1.5,1.5,0,0,0-2.784-.8,4.43,4.43,0,0,0-.9,1.456,4.465,4.465,0,0,0,.375-2.429,1.54,1.54,0,0,0-1.818-1.248c-.656.234-.933.993-1.124,1.662q-.6,2.086-1.141,4.185a2.012,2.012,0,0,0,.942,2.029,2.151,2.151,0,0,0,2.029-.135,1.9,1.9,0,0,0,2.624,1,2.615,2.615,0,0,0,3.539.285l-.124.224a2.008,2.008,0,0,0,2.633.783,3.668,3.668,0,0,0,1.469-2.589" transform="translate(-461.827 -1005.294)" fill="#fab8a3"/>
        <path id="패스_4756" data-name="패스 4756" d="M545.482,1160.514a38,38,0,0,0-1.059,3.96c-.1.464.615.663.713.2a38.007,38.007,0,0,1,1.059-3.96c.148-.453-.566-.648-.713-.2" transform="translate(-482.183 -1027.63)" fill="#f15d49"/>
        <path id="패스_4757" data-name="패스 4757" d="M574.615,1174.447l-.894,3.693c-.112.462.6.66.713.2l.894-3.693c.112-.462-.6-.659-.713-.2" transform="translate(-508.129 -1039.964)" fill="#f15d49"/>
        <path id="패스_4758" data-name="패스 4758" d="M605.218,1182.014l-1.027,3.212c-.145.454.568.649.713.2l1.027-3.212c.145-.454-.568-.649-.713-.2" transform="translate(-535.11 -1046.672)" fill="#f15d49"/>
        <path id="패스_4759" data-name="패스 4759" d="M1053.314,1069.327c1.457,3.979,3.169,8.182,2.126,12.289a6.493,6.493,0,0,0-.3,2.529,2.211,2.211,0,0,0,1.509,1.885c.832.2,2.245-.1,2.093-.945a.962.962,0,0,0,.63,1.4,1.539,1.539,0,0,0,1.54-.76,4.173,4.173,0,0,0,.507-1.741c.583-4.518,1.243-8.925.178-13.355a109.172,109.172,0,0,0-4.1-13.266,43.2,43.2,0,0,0-5.088,5.532,14.013,14.013,0,0,0-2.8,6.76,1.98,1.98,0,0,0,.625,1.956,1.462,1.462,0,0,0,1.753-.4,6.062,6.062,0,0,0,1.327-1.883" transform="translate(-929.611 -936.5)" fill="#fab8a3"/>
        <path id="패스_4760" data-name="패스 4760" d="M1127.112,1173.414a29.166,29.166,0,0,1-.185,14.23.37.37,0,0,0,.713.2,29.983,29.983,0,0,0,.185-14.624c-.11-.463-.823-.267-.713.2" transform="translate(-998.098 -1038.875)" fill="#f15d49"/>
        <path id="패스_4761" data-name="패스 4761" d="M1092.688,755.736h0c3.934,2.752,5.09,7.888,2.583,11.472l-24.089,33.9-11.755-8.223,21.6-35.647c2.507-3.584,7.728-4.258,11.662-1.506" transform="translate(-938.327 -667.849)" fill="#411d16"/>
        <path id="패스_4762" data-name="패스 4762" d="M1066.14,949.137l-8.32,14.2-1.2,2.042a.324.324,0,0,0,.559.327l8.32-14.2,1.2-2.042a.324.324,0,0,0-.559-.327" transform="translate(-935.801 -840.504)" fill="#fff"/>
        <path id="패스_4763" data-name="패스 4763" d="M1056.6,1091.7c.4.342.857.61,1.258.952.315.269.775-.187.457-.457-.4-.342-.857-.61-1.258-.952-.315-.269-.775.187-.457.457" transform="translate(-935.727 -966.43)" fill="#fff"/>
        <path id="패스_4764" data-name="패스 4764" d="M1129.646,543.032a47.334,47.334,0,0,0-.35,20.062c.081.408.7.235.624-.172a46.544,46.544,0,0,1,.35-19.718c.1-.4-.528-.578-.624-.172" transform="translate(-999.404 -480.753)" fill="#fff"/>
      </g>
    </g>
  </g>
</svg>
