<svg xmlns="http://www.w3.org/2000/svg" xmlns:xlink="http://www.w3.org/1999/xlink" width="305" height="200.5" viewBox="0 0 305 200.5">
  <defs>
    <clipPath id="clip-path">
      <rect id="사각형_4945" data-name="사각형 4945" width="55.95" height="44.116" fill="none"/>
    </clipPath>
    <clipPath id="clip-path-2">
      <rect id="사각형_4953" data-name="사각형 4953" width="63" height="52" transform="translate(-0.075 0)" fill="none"/>
    </clipPath>
    <clipPath id="clip-path-4">
      <rect id="사각형_4950" data-name="사각형 4950" width="57.669" height="55.843" fill="none"/>
    </clipPath>
    <clipPath id="clip-path-6">
      <rect id="사각형_4947" data-name="사각형 4947" width="37.149" height="37.151" fill="none"/>
    </clipPath>
    <clipPath id="clip-path-7">
      <rect id="사각형_4948" data-name="사각형 4948" width="11.853" height="11.852" fill="#dd488e"/>
    </clipPath>
    <clipPath id="clip-path-8">
      <path id="패스_4913" data-name="패스 4913" d="M123.776,130.409a5.8,5.8,0,1,0,5.8-5.8,5.8,5.8,0,0,0-5.8,5.8" transform="translate(-123.776 -124.608)" fill="none"/>
    </clipPath>
    <clipPath id="clip-path-9">
      <rect id="사각형_4956" data-name="사각형 4956" width="47.223" height="47.596" fill="none"/>
    </clipPath>
    <clipPath id="clip-path-10">
      <path id="패스_4923" data-name="패스 4923" d="M81.574,85.044a2.108,2.108,0,1,0,2.108-2.109,2.107,2.107,0,0,0-2.108,2.109" transform="translate(-81.574 -82.935)" fill="none"/>
    </clipPath>
  </defs>
  <g id="그룹_12890" data-name="그룹 12890" transform="translate(-35.5 -1495.5)">
    <g id="그룹_12841" data-name="그룹 12841" transform="translate(237.102 1502.094)">
      <path id="패스_4884" data-name="패스 4884" d="M-7656.75-11211.9v7.165s1.535,2.388,3.752,2.388,2.047-2.388,2.047-2.388,2.388-4.947,7.334-3.241c.512.341,3.583,2.559,3.753,5.629-.17-.171,20.128,0,20.128,0s1.023-6.823,6.312-6.312c.341.342,5.8,1.194,5.458,6.312.17.341,3.582,0,3.582,0s1.876-.512,2.047-3.923c-.17-.171,0-6.482,0-6.482Z" transform="translate(7666.473 11240.149)" fill="#f3b7d3"/>
      <g id="그룹_12815" data-name="그룹 12815" transform="translate(8.869 0)">
        <path id="패스_4863" data-name="패스 4863" d="M-7641.009-11058.856l-1.99,4.326h7.1l-1.9-4.326Z" transform="translate(7670.141 11060.154)" fill="#dd488e"/>
        <g id="그룹_12814" data-name="그룹 12814">
          <path id="패스_4859" data-name="패스 4859" d="M267.96,223.537h4.394v-4.394h4.394v-4.394h-4.394v-4.394H267.96v4.394h-4.394v4.394h4.394Z" transform="translate(-251.924 -201.063)" fill="#dd488e"/>
          <g id="그룹_12813" data-name="그룹 12813">
            <g id="그룹_12812" data-name="그룹 12812" clip-path="url(#clip-path)">
              <path id="패스_4860" data-name="패스 4860" d="M216.729,798.832A2.164,2.164,0,1,0,218.893,801a2.164,2.164,0,0,0-2.164-2.164" transform="translate(-205.088 -763.549)" fill="#dd488e"/>
              <path id="패스_4861" data-name="패스 4861" d="M947.179,798.832A2.164,2.164,0,1,0,949.343,801a2.164,2.164,0,0,0-2.164-2.164" transform="translate(-903.276 -763.549)" fill="#dd488e"/>
              <path id="패스_4862" data-name="패스 4862" d="M55.489,18.76l-5.532-9.2L47.836,6.037,47.812,6a2.789,2.789,0,0,0-2.32-1.237H34.8L33.3.585A.883.883,0,0,0,32.469,0H29.057a.883.883,0,0,0-.832.585l-1.5,4.177H5.052A2.783,2.783,0,0,0,2.293,7.111L.036,21.1A2.8,2.8,0,0,0,0,21.547v13.99A2.8,2.8,0,0,0,2.794,38.33H5.03a6.67,6.67,0,0,0,13.222,0H37.293a6.67,6.67,0,0,0,13.222,0h2.642a2.8,2.8,0,0,0,2.794-2.794V20.3a2.784,2.784,0,0,0-.461-1.537m-1.48.964a1.023,1.023,0,0,1,.174.572v.852H39.415V10.9H48.7l5.285,8.786.023.037M29.678,1.767h2.168l1.073,3H28.605ZM1.78,21.383,4.038,7.393a1.023,1.023,0,0,1,1.014-.864H45.492a1.025,1.025,0,0,1,.843.44l1.3,2.166H39.3a1.658,1.658,0,0,0-1.656,1.656V21.26A1.658,1.658,0,0,0,39.3,22.916H54.183v3.71H1.767V21.547a1.028,1.028,0,0,1,.013-.164M11.641,42.35a4.9,4.9,0,1,1,4.9-4.9,4.908,4.908,0,0,1-4.9,4.9m32.263,0a4.9,4.9,0,1,1,4.9-4.9,4.908,4.908,0,0,1-4.9,4.9m9.252-5.786H50.514a6.67,6.67,0,0,0-13.222,0H18.252a6.67,6.67,0,0,0-13.222,0H2.794a1.028,1.028,0,0,1-1.027-1.027V28.393H54.183v7.144a1.028,1.028,0,0,1-1.027,1.027" fill="#336"/>
            </g>
          </g>
        </g>
      </g>
      <rect id="사각형_4951" data-name="사각형 4951" width="15.693" height="1.365" rx="0.682" transform="translate(0 18.359)" fill="#336"/>
      <rect id="사각형_4952" data-name="사각형 4952" width="10.235" height="1.365" rx="0.682" transform="translate(5.459 21.77)" fill="#336"/>
    </g>
    <g id="그룹_12831" data-name="그룹 12831" transform="translate(68.075 1498)">
      <g id="그룹_12828" data-name="그룹 12828" transform="translate(0 0)">
        <g id="그룹_12827" data-name="그룹 12827" clip-path="url(#clip-path-2)">
          <path id="패스_4885" data-name="패스 4885" d="M62.978,52.289,60.33,51H44.035l-2,1.289A10.978,10.978,0,0,0,31,63.205v8.42H74.017v-8.42A10.978,10.978,0,0,0,62.978,52.289" transform="translate(-12.577 -20.947)" fill="#e87daf"/>
          <path id="패스_4886" data-name="패스 4886" d="M57.149,51H43.89l-1.974,1.289A10.916,10.916,0,0,0,31,63.205v8.42H71.071v-8.42c.179-5.136-3.315-8.338-10.607-9.627V51.645A20.371,20.371,0,0,0,57.149,51" transform="translate(-12.577 -20.947)" fill="#f3b7d3"/>
          <path id="패스_4887" data-name="패스 4887" d="M59,47.755V44H69.018v3.917A5.072,5.072,0,0,1,62.826,53,5.284,5.284,0,0,1,59,47.755" transform="translate(-24.078 -18.072)" fill="#ff9f91"/>
          <path id="패스_4888" data-name="패스 4888" d="M59,49.481V45h7.661v4.57a3.864,3.864,0,0,1-4.3,3.889A3.953,3.953,0,0,1,59,49.481" transform="translate(-24.078 -18.483)" fill="#ffbfb4"/>
          <path id="패스_4889" data-name="패스 4889" d="M52,23.553V14H69.678v9.793a8.956,8.956,0,0,1-9.84,9.082A9.2,9.2,0,0,1,52,23.553" transform="translate(-21.203 -5.75)" fill="#ff9f91"/>
          <path id="패스_4890" data-name="패스 4890" d="M48.357,27.714h.589V23h-.589a2.357,2.357,0,1,0,0,4.714" transform="translate(-18.738 -9.447)" fill="#ffbfb4"/>
          <path id="패스_4891" data-name="패스 4891" d="M83.295,28.3H83V23h.295a2.652,2.652,0,0,1,0,5.3" transform="translate(-33.935 -9.447)" fill="#ffbfb4"/>
          <path id="패스_4892" data-name="패스 4892" d="M52,24.9V14H67.321V25.1a7.716,7.716,0,0,1-9.567,7.6A7.907,7.907,0,0,1,52,24.9" transform="translate(-21.203 -5.75)" fill="#ffbfb4"/>
          <path id="패스_4893" data-name="패스 4893" d="M69.622,11.89c0-6.355-3.839-9.89-8.839-9.89S51.2,5.662,51.944,12.018L55.48,9.661a6.246,6.246,0,0,0,10.607,0Z" transform="translate(-21.147 -0.821)" fill="#21214b"/>
          <path id="패스_4894" data-name="패스 4894" d="M59.152,2.337a9.582,9.582,0,0,0-7.882,9.692l4.255-1.958a5.49,5.49,0,0,0,5.014,2.675c3.7,0,4.713-2.675,4.713-2.675l1.18.543a8.881,8.881,0,0,0-7.28-8.276" transform="translate(-20.903 -0.96)" fill="#336"/>
          <path id="패스_4895" data-name="패스 4895" d="M61.6,60.3l-8.4,2.864.258.754a1.2,1.2,0,0,0,1.519.747l6.57-2.24,6.57,2.24a1.2,1.2,0,0,0,1.52-.747l.257-.754Z" transform="translate(-21.696 -24.766)" fill="#e87daf"/>
          <path id="패스_4896" data-name="패스 4896" d="M10.461,35.374a.663.663,0,0,1-.495-.2.677.677,0,0,1-.2-.489.659.659,0,0,1,.19-.489l3.853-4.5a5.048,5.048,0,0,0,.631-.9,1.7,1.7,0,0,0,.225-.8,2.411,2.411,0,0,0-.2-1.031,1.536,1.536,0,0,0-.583-.672,1.809,1.809,0,0,0-1.838.027,1.877,1.877,0,0,0-.652.705,2.012,2.012,0,0,0-.237.971.691.691,0,0,1-1.18.474.651.651,0,0,1-.2-.474,3.227,3.227,0,0,1,.421-1.649A3.1,3.1,0,0,1,11.336,25.2a3.2,3.2,0,0,1,1.635-.421,3.135,3.135,0,0,1,1.6.394,2.682,2.682,0,0,1,1.051,1.112A3.67,3.67,0,0,1,16,27.994a2.32,2.32,0,0,1-.183.882,4.624,4.624,0,0,1-.461.854,7.847,7.847,0,0,1-.563.733L11.682,33.99h3.8a.691.691,0,0,1,.5,1.181.684.684,0,0,1-.5.2Z" transform="translate(-3.857 -10.177)" fill="#dd488e" stroke="#dd488e" stroke-width="0.5"/>
          <path id="패스_4897" data-name="패스 4897" d="M27.674,35.374a.607.607,0,0,1-.461-.2.691.691,0,0,1-.19-.489V32.973H22.5a.635.635,0,0,1-.489-.19.718.718,0,0,1-.2-.441.654.654,0,0,1,.129-.455l5.2-6.811a.858.858,0,0,1,.251-.216.63.63,0,0,1,.319-.081.579.579,0,0,1,.461.2.738.738,0,0,1,.177.5v6.241h.814a.864.864,0,0,1,.489.136.545.545,0,0,1,.2.489.572.572,0,0,1-.2.441.707.707,0,0,1-.489.184h-.814v1.709a.693.693,0,0,1-.19.489.64.64,0,0,1-.489.2M23.318,32.1l-.366-.38h4.07v-5.59l.421.543Z" transform="translate(-8.806 -10.177)" fill="#dd488e" stroke="#dd488e" stroke-width="0.5"/>
        </g>
      </g>
      <g id="그룹_12830" data-name="그룹 12830" transform="translate(0 0)">
        <g id="그룹_12829" data-name="그룹 12829" clip-path="url(#clip-path-2)">
          <path id="패스_4898" data-name="패스 4898" d="M73.768,25.884A.884.884,0,1,1,72.884,25a.884.884,0,0,1,.884.884" transform="translate(-29.417 -10.268)" fill="#336"/>
          <path id="패스_4899" data-name="패스 4899" d="M59,25.884A.884.884,0,1,0,59.884,25a.884.884,0,0,0-.884.884" transform="translate(-24.078 -10.268)" fill="#336"/>
          <path id="패스_4900" data-name="패스 4900" d="M64.857,38.432a3.44,3.44,0,0,1-3.368-2.018.589.589,0,0,1,1.111-.392,2.682,2.682,0,0,0,4.512,0,.59.59,0,0,1,1.112.392,3.44,3.44,0,0,1-3.368,2.018" transform="translate(-25.086 -14.634)" fill="#336"/>
          <path id="패스_4901" data-name="패스 4901" d="M53.158,59.412a.59.59,0,0,1-.589-.563l-.355-8.082a.589.589,0,0,1,1.177-.052l.321,7.292,7.455-2.592a.589.589,0,0,1,.387,1.113l-8.2,2.852a.589.589,0,0,1-.193.033" transform="translate(-21.29 -20.598)" fill="#336"/>
          <path id="패스_4902" data-name="패스 4902" d="M73.49,71.856H29.884A.884.884,0,0,1,29,70.972V62.338a12.174,12.174,0,0,1,10.356-12l2.884-.618.289-.291a.885.885,0,0,1,.453-.243l2.37-.475a.884.884,0,1,1,.348,1.733l-2.107.423-.285.285a.884.884,0,0,1-.441.24l-3.169.68-.06.011a10.4,10.4,0,0,0-8.87,10.255v7.75H72.606v-7.75a10.4,10.4,0,0,0-8.87-10.255l-.06-.011-3.169-.68a.884.884,0,0,1-.441-.24l-.285-.285-2.107-.423a.884.884,0,1,1,.348-1.733l2.37.475a.887.887,0,0,1,.453.243l.289.291,2.884.618a12.174,12.174,0,0,1,10.356,12v8.634a.884.884,0,0,1-.884.884" transform="translate(-11.756 -20)" fill="#336"/>
          <path id="패스_4903" data-name="패스 4903" d="M74.723,59.412a.59.59,0,0,1-.193-.033l-8.2-2.852a.589.589,0,0,1,.387-1.113l7.456,2.592.32-7.292a.6.6,0,0,1,.615-.563.59.59,0,0,1,.563.615l-.355,8.082a.589.589,0,0,1-.589.563" transform="translate(-26.924 -20.598)" fill="#336"/>
          <path id="패스_4904" data-name="패스 4904" d="M60.716,18.313a5.981,5.981,0,0,1-5.25-3.11l-3.147,2.062a.589.589,0,1,1-.646-.985l3.709-2.432a.589.589,0,0,1,.869.269,4.811,4.811,0,0,0,8.928,0,.592.592,0,0,1,.371-.339.585.585,0,0,1,.5.07l3.709,2.432a.589.589,0,0,1-.646.985L65.965,15.2a5.981,5.981,0,0,1-5.249,3.11" transform="translate(-20.959 -5.648)" fill="#336"/>
          <path id="패스_4905" data-name="패스 4905" d="M83.094,28.188a.589.589,0,0,1,0-1.179,2.022,2.022,0,1,0,0-4.044.589.589,0,0,1,0-1.179,3.2,3.2,0,1,1,0,6.4" transform="translate(-33.732 -8.948)" fill="#336"/>
          <path id="패스_4906" data-name="패스 4906" d="M48.039,28.188a3.2,3.2,0,1,1,0-6.4.589.589,0,0,1,0,1.179,2.022,2.022,0,1,0,0,4.044.589.589,0,0,1,0,1.179" transform="translate(-18.261 -8.948)" fill="#336"/>
          <path id="패스_4907" data-name="패스 4907" d="M49.589,82.3A.589.589,0,0,1,49,81.714V77.589a.589.589,0,1,1,1.179,0v4.125a.589.589,0,0,1-.589.589" transform="translate(-19.971 -31.626)" fill="#336"/>
          <path id="패스_4908" data-name="패스 4908" d="M84.589,82.3A.589.589,0,0,1,84,81.714V77.589a.589.589,0,1,1,1.179,0v4.125a.589.589,0,0,1-.589.589" transform="translate(-34.346 -31.626)" fill="#336"/>
          <path id="패스_4909" data-name="패스 4909" d="M63.187,53.607A6.194,6.194,0,0,1,57,47.42V43.884a.884.884,0,0,1,1.768,0V47.42a4.42,4.42,0,1,0,8.839,0V43.884a.884.884,0,0,1,1.768,0V47.42a6.194,6.194,0,0,1-6.187,6.187" transform="translate(-23.256 -17.661)" fill="#336"/>
          <path id="패스_4910" data-name="패스 4910" d="M60.018,28.285A10.029,10.029,0,0,1,50,18.267V9.5A9.507,9.507,0,0,1,59.5,0h1.042a9.507,9.507,0,0,1,9.5,9.5v8.771A10.029,10.029,0,0,1,60.018,28.285M59.5,1.768A7.738,7.738,0,0,0,51.768,9.5v8.771a8.25,8.25,0,0,0,16.5,0V9.5a7.738,7.738,0,0,0-7.729-7.729Z" transform="translate(-20.381 0)" fill="#336"/>
          <path id="패스_4911" data-name="패스 4911" d="M13.259,37.517a13.259,13.259,0,1,1,9.375-22.634.617.617,0,0,1-.872.872,12.025,12.025,0,1,0,3.522,8.5.617.617,0,1,1,1.233,0A13.273,13.273,0,0,1,13.259,37.517" transform="translate(0.155 -4.518)" fill="#336" stroke="#336" stroke-width="0.2"/>
          <path id="패스_4912" data-name="패스 4912" d="M37.188,18.456a.646.646,0,0,1-.121-.012l-3.084-.617a.617.617,0,1,1,.242-1.209l2.176.435-.435-2.177a.617.617,0,0,1,1.21-.242l.616,3.084a.617.617,0,0,1-.6.738" transform="translate(-13.599 -5.807)" fill="#336" stroke="#336" stroke-width="0.2"/>
        </g>
      </g>
    </g>
    <g id="그룹_12825" data-name="그룹 12825" transform="translate(74.291 1610.5)">
      <g id="그룹_12824" data-name="그룹 12824" clip-path="url(#clip-path-4)">
        <path id="패스_4864" data-name="패스 4864" d="M21.387,39.181,13.666,46.9,5.132,40.046" transform="translate(-2.686 -20.505)" fill="#fff"/>
        <g id="그룹_12823" data-name="그룹 12823" transform="translate(0 0)">
          <g id="그룹_12822" data-name="그룹 12822" clip-path="url(#clip-path-4)">
            <path id="패스_4865" data-name="패스 4865" d="M13.011,46.844a.594.594,0,0,1-.373-.131L4.1,39.856a.6.6,0,1,1,.746-.929l8.117,6.522,7.344-7.344a.6.6,0,1,1,.843.843L13.432,46.67a.6.6,0,0,1-.421.174" transform="translate(-2.031 -19.851)" fill="#336"/>
            <path id="패스_4866" data-name="패스 4866" d="M39.236,39.181l9.731,10.825L58.7,43.2l15.439,6.285" transform="translate(-20.534 -20.505)" fill="#fff"/>
            <path id="패스_4867" data-name="패스 4867" d="M48.313,49.948a.6.6,0,0,1-.443-.2L38.138,38.925a.6.6,0,1,1,.886-.8L48.4,48.561l9.3-6.506a.6.6,0,0,1,.566-.063l15.439,6.284a.6.6,0,0,1-.449,1.1L58.12,43.217,48.654,49.84a.593.593,0,0,1-.341.108" transform="translate(-19.879 -19.851)" fill="#336"/>
            <path id="패스_4868" data-name="패스 4868" d="M39,36.5a2.446,2.446,0,1,1-2.446-2.446A2.446,2.446,0,0,1,39,36.5" transform="translate(-17.848 -17.819)" fill="#dd488e"/>
            <path id="패스_4869" data-name="패스 4869" d="M4.892,38.31a2.446,2.446,0,1,1-2.446-2.446A2.446,2.446,0,0,1,4.892,38.31" transform="translate(0 -18.769)" fill="#dd488e"/>
            <path id="패스_4870" data-name="패스 4870" d="M59.412,59.206a2.446,2.446,0,1,1-2.446-2.446,2.446,2.446,0,0,1,2.446,2.446" transform="translate(-28.533 -29.705)" fill="#dd488e"/>
            <path id="패스_4871" data-name="패스 4871" d="M79.829,44.921a2.446,2.446,0,1,1-2.446-2.446,2.446,2.446,0,0,1,2.446,2.446" transform="translate(-39.218 -22.229)" fill="#dd488e"/>
            <path id="패스_4872" data-name="패스 4872" d="M112.218,58.106a2.446,2.446,0,1,1-2.446-2.446,2.446,2.446,0,0,1,2.446,2.446" transform="translate(-56.168 -29.129)" fill="#dd488e"/>
            <rect id="사각형_4946" data-name="사각형 4946" width="3.809" height="16.454" transform="translate(39.039 37.045) rotate(-45)" fill="#fff"/>
            <path id="패스_4873" data-name="패스 4873" d="M92.882,86.345a.6.6,0,0,1-.422-.174L80.827,74.536a.594.594,0,0,1,0-.843L83.52,71a.613.613,0,0,1,.842,0L96,82.635a.6.6,0,0,1,0,.842L93.3,86.17a.592.592,0,0,1-.421.174M82.09,74.115,92.882,84.907l1.85-1.851L83.941,72.264Z" transform="translate(-42.208 -37.07)" fill="#336"/>
            <path id="패스_4874" data-name="패스 4874" d="M24,7.664a.6.6,0,0,1-.421-1.017c.346-.346.707-.684,1.072-1.006a.6.6,0,1,1,.787.894c-.347.305-.688.626-1.017.955A.594.594,0,0,1,24,7.664m6.632-4.572a.6.6,0,0,1-.243-1.14,22.852,22.852,0,0,1,17.161-.535.6.6,0,1,1-.415,1.117,21.664,21.664,0,0,0-16.261.506.591.591,0,0,1-.242.052" transform="translate(-12.249 0)" fill="#336"/>
            <path id="패스_4875" data-name="패스 4875" d="M49.921,12.884a19.232,19.232,0,1,0,5.629,14.1V26.95a19.191,19.191,0,0,0-5.629-14.066m.958,10.863a14.819,14.819,0,0,1-17.3,17.3h0A14.82,14.82,0,1,1,50.879,23.742Z" transform="translate(-8.938 -3.794)" fill="#fff"/>
            <path id="패스_4876" data-name="패스 4876" d="M49.921,12.884a19.232,19.232,0,1,0,5.629,14.1V26.95A19.191,19.191,0,0,0,49.921,12.884Zm.958,10.863a14.819,14.819,0,0,1-17.3,17.3h0A14.82,14.82,0,1,1,50.879,23.742Z" transform="translate(-8.938 -3.794)" fill="none" stroke="#336" stroke-linecap="round" stroke-linejoin="round" stroke-width="2.5"/>
            <g id="그룹_12818" data-name="그룹 12818" transform="translate(9.463 4.778)" style="mix-blend-mode: darken;isolation: isolate">
              <g id="그룹_12817" data-name="그룹 12817">
                <g id="그룹_12816" data-name="그룹 12816" clip-path="url(#clip-path-6)">
                  <path id="패스_4877" data-name="패스 4877" d="M51.563,15.466A18.577,18.577,0,1,0,57,28.441V28.4a18.521,18.521,0,0,0-5.439-12.936M35.028,42.5h0A14.82,14.82,0,1,1,52.33,25.195v0a14.309,14.309,0,0,1-17.3,17.3" transform="translate(-19.854 -10.025)" fill="#f3b7d3"/>
                </g>
              </g>
            </g>
            <line id="선_50" data-name="선 50" x1="0.256" y1="0.256" transform="translate(43.354 46.543)" fill="#fff"/>
            <path id="패스_4878" data-name="패스 4878" d="M90.556,97.843a.594.594,0,0,1-.421-.174l-.256-.256a.6.6,0,0,1,.842-.842l.256.256a.6.6,0,0,1-.421,1.017" transform="translate(-46.946 -50.448)" fill="#336"/>
            <path id="패스_4879" data-name="패스 4879" d="M104.311,108.695a5.534,5.534,0,0,1-3.939-1.631l-4.936-4.937" transform="translate(-49.946 -53.448)" fill="#fff"/>
            <path id="패스_4880" data-name="패스 4880" d="M103.657,108.636A6.122,6.122,0,0,1,99.3,106.83l-4.937-4.936a.6.6,0,0,1,.843-.843l4.936,4.937a4.941,4.941,0,0,0,3.517,1.457.6.6,0,1,1,0,1.192" transform="translate(-49.292 -52.793)" fill="#336"/>
            <path id="패스_4881" data-name="패스 4881" d="M95.323,81.658l8.839,8.839a2.71,2.71,0,1,1-3.832,3.832L91.491,85.49Z" transform="translate(-47.881 -42.735)" fill="#fff"/>
            <path id="패스_4882" data-name="패스 4882" d="M101.592,95.07a3.3,3.3,0,0,1-2.337-.967l-8.839-8.839a.6.6,0,0,1,0-.843l3.832-3.832a.613.613,0,0,1,.843,0l8.839,8.839a3.3,3.3,0,0,1-2.338,5.641M91.68,84.844l8.418,8.418a2.114,2.114,0,0,0,2.99-2.99l-8.418-8.417Z" transform="translate(-47.227 -42.089)" fill="#336"/>
            <g id="그룹_12821" data-name="그룹 12821" transform="translate(45.231 39.933)" style="mix-blend-mode: darken;isolation: isolate">
              <g id="그룹_12820" data-name="그룹 12820">
                <g id="그룹_12819" data-name="그룹 12819" clip-path="url(#clip-path-7)">
                  <path id="패스_4883" data-name="패스 4883" d="M97.726,83.777l8.168,8.168a2.053,2.053,0,1,1-2.833,2.833L94.893,86.61Z" transform="translate(-94.893 -83.777)" fill="#dd488e"/>
                </g>
              </g>
            </g>
          </g>
        </g>
      </g>
    </g>
    <g id="그룹_12840" data-name="그룹 12840" transform="translate(242.845 1614.623)">
      <g id="그룹_12833" data-name="그룹 12833" transform="translate(33.918 34.146)">
        <g id="그룹_12832" data-name="그룹 12832" clip-path="url(#clip-path-8)">
          <rect id="사각형_4955" data-name="사각형 4955" width="16.402" height="16.402" transform="translate(-5.795 5.543) rotate(-43.727)" fill="#f3b7d3"/>
        </g>
      </g>
      <g id="그룹_12835" data-name="그룹 12835">
        <g id="그룹_12834" data-name="그룹 12834" clip-path="url(#clip-path-9)">
          <path id="패스_4914" data-name="패스 4914" d="M28.962,53.084A22.77,22.77,0,0,1,8.746,19.852a1.1,1.1,0,1,1,1.946,1.01,20.343,20.343,0,0,0-2.3,9.46,20.57,20.57,0,1,0,20.57-20.57,1.1,1.1,0,1,1,0-2.192,22.762,22.762,0,0,1,0,45.524" transform="translate(-4.501 -5.488)" fill="#336"/>
          <path id="패스_4915" data-name="패스 4915" d="M1.1,54.446a1.1,1.1,0,0,1-.625-2L4.685,49.53a1.1,1.1,0,0,1,1.249,1.8L1.721,54.251a1.092,1.092,0,0,1-.623.2" transform="translate(0 -35.816)" fill="#336"/>
          <path id="패스_4916" data-name="패스 4916" d="M17.782,56.482a1.1,1.1,0,0,1-1.059-.816l-1.313-4.955a1.1,1.1,0,1,1,2.119-.561L18.842,55.1a1.1,1.1,0,0,1-.779,1.34,1.109,1.109,0,0,1-.281.037" transform="translate(-11.161 -35.816)" fill="#336"/>
          <path id="패스_4917" data-name="패스 4917" d="M86.362,32.523a1.1,1.1,0,0,1-1.1-1.1V28.35a1.1,1.1,0,0,1,2.192,0v3.077a1.1,1.1,0,0,1-1.1,1.1" transform="translate(-61.901 -19.786)" fill="#336"/>
          <path id="패스_4918" data-name="패스 4918" d="M86.362,140.039a1.1,1.1,0,0,1-1.1-1.1v-3.077a1.1,1.1,0,0,1,2.192,0v3.077a1.1,1.1,0,0,1-1.1,1.1" transform="translate(-61.901 -97.84)" fill="#336"/>
          <path id="패스_4919" data-name="패스 4919" d="M137.581,88.819H134.5a1.1,1.1,0,1,1,0-2.192h3.078a1.1,1.1,0,0,1,0,2.192" transform="translate(-96.85 -62.889)" fill="#336"/>
          <path id="패스_4920" data-name="패스 4920" d="M30.066,88.819H26.988a1.1,1.1,0,0,1,0-2.192h3.078a1.1,1.1,0,1,1,0,2.192" transform="translate(-18.797 -62.889)" fill="#336"/>
          <path id="패스_4921" data-name="패스 4921" d="M86.36,57.114a1.1,1.1,0,0,1-.925-1.683l7.577-11.967a1.1,1.1,0,0,1,1.852,1.173L87.287,56.6a1.1,1.1,0,0,1-.927.51" transform="translate(-61.9 -31.184)" fill="#dd488e"/>
          <path id="패스_4922" data-name="패스 4922" d="M93.938,95.563a1.092,1.092,0,0,1-.728-.277l-7.577-6.743A1.1,1.1,0,1,1,87.09,86.9l7.577,6.743a1.1,1.1,0,0,1-.729,1.915" transform="translate(-61.901 -62.889)" fill="#dd488e"/>
        </g>
      </g>
      <g id="그룹_12837" data-name="그룹 12837" transform="translate(22.353 22.726)">
        <g id="그룹_12836" data-name="그룹 12836" clip-path="url(#clip-path-10)">
          <rect id="사각형_4957" data-name="사각형 4957" width="4.215" height="4.216" transform="translate(0 0)" fill="#dd488e"/>
        </g>
      </g>
      <g id="그룹_12839" data-name="그룹 12839">
        <g id="그룹_12838" data-name="그룹 12838" clip-path="url(#clip-path-9)">
          <path id="패스_4924" data-name="패스 4924" d="M80.779,85.344a3.2,3.2,0,1,1,3.2-3.2,3.206,3.206,0,0,1-3.2,3.2m0-4.215a1.012,1.012,0,1,0,1.011,1.013,1.013,1.013,0,0,0-1.011-1.013" transform="translate(-56.318 -57.306)" fill="#dd488e"/>
          <path id="패스_4925" data-name="패스 4925" d="M24.015,11.289H18.748a1.1,1.1,0,0,1-.816-1.828c.381-.424.834-.867,1.313-1.335,1.443-1.409,3.238-3.162,3.2-4.709a1.054,1.054,0,0,0-.9-1.054,1.619,1.619,0,0,0-1.817.9A1.1,1.1,0,1,1,17.764,2.3,3.828,3.828,0,0,1,22.022.222a3.228,3.228,0,0,1,2.619,3.146C24.69,5.583,22.988,7.5,21.385,9.1h2.63a1.1,1.1,0,0,1,0,2.192" transform="translate(-12.814 -0.096)" fill="#dd488e"/>
          <path id="패스_4926" data-name="패스 4926" d="M50.012,11.192a1.1,1.1,0,0,1-1.1-1.1V8.656h-3.5a1.1,1.1,0,0,1-.893-1.732L49.119.46a1.1,1.1,0,0,1,1.989.635V6.463H52.2a1.1,1.1,0,1,1,0,2.192H51.108V10.1a1.1,1.1,0,0,1-1.1,1.1M47.539,6.463h1.377V4.527Z" transform="translate(-32.174 0)" fill="#dd488e"/>
        </g>
      </g>
    </g>
    <line id="선_51" data-name="선 51" y1="200" transform="translate(187.5 1495.5)" fill="none" stroke="#8a8a8a" stroke-width="1" stroke-dasharray="2 4"/>
    <text id="_24시간_항시돌봄" data-name="24시간 항시돌봄" transform="translate(101 1580)" fill="#336" font-size="17" font-family="SourceHanSansKR-Bold, Source Han Sans KR" font-weight="700" letter-spacing="-0.02em"><tspan x="-57" y="0">24시간 항시돌봄</tspan></text>
    <text id="_365_활동량_분석" data-name="365 활동량 분석" transform="translate(101 1691)" fill="#336" font-size="17" font-family="SourceHanSansKR-Bold, Source Han Sans KR" font-weight="700" letter-spacing="-0.02em"><tspan x="-56" y="0">365 활동량 분석</tspan></text>
    <text id="_119_응급호출" data-name="119 응급호출" transform="translate(273 1580)" fill="#336" font-size="17" font-family="SourceHanSansKR-Bold, Source Han Sans KR" font-weight="700" letter-spacing="-0.02em"><tspan x="-47" y="0">119 응급호출</tspan></text>
    <text id="_24시간_비상호출" data-name="24시간 비상호출" transform="translate(273 1691)" fill="#336" font-size="17" font-family="SourceHanSansKR-Bold, Source Han Sans KR" font-weight="700" letter-spacing="-0.02em"><tspan x="-57" y="0">24시간 비상호출</tspan></text>
    <line id="선_60" data-name="선 60" x2="305" transform="translate(35.5 1595.5)" fill="none" stroke="#8a8a8a" stroke-width="1" stroke-dasharray="2 4"/>
  </g>
</svg>
