<svg id="그룹_583" data-name="그룹 583" xmlns="http://www.w3.org/2000/svg" xmlns:xlink="http://www.w3.org/1999/xlink" width="121" height="38.417" viewBox="0 0 121 38.417">
  <defs>
    <clipPath id="clip-path">
      <rect id="사각형_285" data-name="사각형 285" width="121" height="38.417" fill="none"/>
    </clipPath>
  </defs>
  <g id="그룹_582" data-name="그룹 582" clip-path="url(#clip-path)">
    <path id="패스_282" data-name="패스 282" d="M394.986,132.241h4.844v1.165h-4.844Zm-.146,6.474h5.121v1.88H394.84Zm-1.322,2.938h7.768v-4h-7.768Zm.16-11.807v4.644h3.081V135.6h-4.221v1.087h9.74V135.6h-4.221v-1.112h3.084v-4.644h-1.311v1.325h-4.844v-1.325Zm-10.995,6.936v1.02h6.44v.938h-6.429v3.017h8.073V140.7h-6.748v-.992h6.415v-2.925Zm-.941-1.961V135.9h9.74v-1.076h-4.208v-1.031h3.241v-1.048h-6.353v-1.706h6.353v-1.073h-7.661v3.826h3.109v1.031Zm-3.586,5.838h-4.79v-1.1h4.79Zm1.3,1.059v-4.381h-1.3v1.191h-4.79v-1.191h-1.294v4.381ZM371.382,135c0,1.02.86,1.812,2.448,1.812h.569c1.6,0,2.46-.793,2.46-1.812s-.86-1.826-2.46-1.826h-.569c-1.6,0-2.448.793-2.448,1.826m-.529-2.384h6.4v-1.02h-6.4Zm1.6-1.826h3.373v-1.031h-3.373Zm.238,4.21c0-.49.384-.927,1.177-.927h.487c.81,0,1.207.437,1.207.927,0,.462-.4.9-1.207.9h-.487c-.793,0-1.177-.44-1.177-.9m5.462-5.241V136.7h1.3v-2.4h1.588v-1.084h-1.588v-3.468Zm-12.779,9.014c1.628,0,2.367.291,2.367.992s-.739,1.006-2.367,1.006h-.639c-1.625,0-2.367-.305-2.367-1.006s.728-.992,2.367-.992Zm-.65-1.048c-2.555,0-3.692.742-3.692,2.039,0,1.272,1.126,2.039,3.692,2.039h.661c2.541,0,3.678-.767,3.678-2.039,0-1.3-1.123-2.039-3.678-2.039Zm-3.479-7.7v4.964h3.177v.992h-4.235v1.048h9.737v-1.048h-4.207v-.992H369v-.992h-6.457v-.966h6.18v-.995h-6.18v-.992h6.376v-1.02Zm-10.056.941h3.375v-1.073h-3.375Zm.213,4.723a1.113,1.113,0,0,1,1.23-1.123h.49a1.13,1.13,0,1,1,0,2.249h-.49a1.114,1.114,0,0,1-1.23-1.126m-1.8-2.765h6.538v-1.059H349.6Zm7.437,8.79h1.311V129.74H357.04Zm-6.905-6.025a2.12,2.12,0,0,0,2.115,2.121v1.177c-.846.028-1.773.039-2.843.028v1.126a38.949,38.949,0,0,0,7.065-.476l-.12-1.036a18.089,18.089,0,0,1-2.79.305V137.8a2.128,2.128,0,0,0,2.076-2.121,2.209,2.209,0,0,0-2.487-2.115h-.544a2.186,2.186,0,0,0-2.471,2.115m-9.065-2.4a6.172,6.172,0,0,1-2.751,5.334c.224.345.462.689.7,1.036a6.8,6.8,0,0,0,2.74-3.577,6.539,6.539,0,0,0,2.818,3.375l.661-1.084a5.657,5.657,0,0,1-2.818-5.084v-3.1h-1.35Zm4.737-3.532v11.953h1.3v-6.488h1.588v-1.1H347.1v-4.367Zm-10.359,2.555V134H333.7a2.81,2.81,0,0,0,.067-.583v-.476a3.466,3.466,0,0,0-.067-.633Zm-4.605-1.073a1.572,1.572,0,0,1,1.642,1.706v.451a1.574,1.574,0,0,1-1.642,1.709,1.6,1.6,0,0,1-1.642-1.709v-.451a1.579,1.579,0,0,1,1.642-1.706m-1.748,6.037v1.073h6.353v3.521h1.319v-4.594Zm1.748-7.163a2.786,2.786,0,0,0-2.924,2.832v.476a2.774,2.774,0,0,0,2.924,2.782,2.885,2.885,0,0,0,2.381-1.112h2.224v1.535h1.319v-6.869h-1.319v1.471H333.21a2.875,2.875,0,0,0-2.367-1.115m-6.152,11.6H326V129.74h-1.308Zm-4.328-5.6a6.485,6.485,0,0,0,2.793,3.376l.686-1.048a5.763,5.763,0,0,1-2.818-5.068v-1.787h2.448v-1.14h-6.258v1.14h2.474v1.773a6.051,6.051,0,0,1-2.79,5.294l.74.966a6.5,6.5,0,0,0,2.726-3.507" transform="translate(-281.277 -115.157)" fill="#1a1311"/>
    <path id="패스_283" data-name="패스 283" d="M33.986,26.99,20.036,39.66V50.876c4.49,4.5,8.956,3.529,11.491,2.333A49.261,49.261,0,0,1,25.762,48.3a6.621,6.621,0,0,1-1.63-7.2,5.146,5.146,0,0,1,4.723-3.283h.022A6.659,6.659,0,0,1,33.726,40.2c.252-.266.5-.5.748-.72a12.414,12.414,0,0,1,4.146-2.549,10.011,10.011,0,0,1,5.972-.305Z" transform="translate(-17.784 -23.956)" fill="#fca500"/>
    <path id="패스_284" data-name="패스 284" d="M87.625,144.764a2.944,2.944,0,0,0-2.675-1.891h-.011a4.2,4.2,0,0,0-2.681,1.193c-.031.031-.05.05-.062.064l-.006-.008a9.361,9.361,0,0,0-1.207,1.342l-.891,1.19-.9-1.182c-1.252-1.653-2.661-2.56-3.966-2.56h-.006a2.943,2.943,0,0,0-2.672,1.913,4.3,4.3,0,0,0,1.174,4.771,32.961,32.961,0,0,0,6.4,5.191,32.9,32.9,0,0,0,6.364-5.244,4.307,4.307,0,0,0,1.134-4.779" transform="translate(-64.136 -126.813)" fill="#dd488e"/>
    <path id="패스_285" data-name="패스 285" d="M20.822,12.961a12.455,12.455,0,0,0-4.146,2.552c-.247.216-.5.454-.751.72a6.655,6.655,0,0,0-4.846-2.384h-.022a5.149,5.149,0,0,0-4.723,3.286,6.621,6.621,0,0,0,1.63,7.2,49.545,49.545,0,0,0,5.765,4.911c-2.535,1.2-7,2.168-11.493-2.331V15.7L16.188,3.025l10.605,9.634a10.011,10.011,0,0,0-5.972.3m1.518,9.76h0a32.9,32.9,0,0,1-6.362,5.244,32.98,32.98,0,0,1-6.406-5.191A4.305,4.305,0,0,1,8.4,18.006a2.943,2.943,0,0,1,2.672-1.916h.011c1.3,0,2.712.91,3.964,2.56l.9,1.182.891-1.19A9.218,9.218,0,0,1,18.04,17.3l.006.006c.011-.008.031-.034.062-.062a4.209,4.209,0,0,1,2.681-1.2H20.8a2.947,2.947,0,0,1,2.675,1.894,4.306,4.306,0,0,1-1.135,4.779M16.188,0,0,14.7v21.6H2.235V29.9a11.579,11.579,0,0,0,7.191,2.588,11.54,11.54,0,0,0,2.628-.308,13.564,13.564,0,0,0,3.754-1.516,31.643,31.643,0,0,0,8.152-6.4,6.618,6.618,0,0,0,1.572-7.211,5.467,5.467,0,0,0-2.011-2.434,8.93,8.93,0,0,1,6.58,2.233l.039-.05V28.889h2.238V14.7Z" fill="#1a1311"/>
    <path id="패스_286" data-name="패스 286" d="M220.923,294.781a.082.082,0,0,0-.027-.014c-.039-.008-.078.021-.137.068l-.047.035c-.161.087-.285.491-.311.656a.178.178,0,0,0-.019.009.7.7,0,0,0-.47-.354c.075.286.328,1.154.666,1.081a1.816,1.816,0,0,0,.53-1.155v-.015c0-.212-.1-.284-.185-.31" transform="translate(-195.193 -261.633)" fill="#ed6b00"/>
    <path id="패스_287" data-name="패스 287" d="M240.085,334.2a2.757,2.757,0,0,0-.975.131.341.341,0,0,0-.155.107c.007.09-.047.227.034.258.005,0,0,.013.009.022.025.023.049.026.071.057s.03,0,.047.008.011.022.018.022c.041.019.079.013.119.032a.1.1,0,0,0,.061.017c.012-.005.028.023.032.031a.531.531,0,0,0,.225,0c.236,0,.192-.026.426-.031.2,0,.388.028.586.025.1,0,.223,0,.328-.009.19-.011.378.019.567.021.095,0,.2.035.3.043a1.6,1.6,0,0,1,.3-.007.283.283,0,0,1,.1.013.233.233,0,0,0,.091.034.651.651,0,0,0,.262-.06.754.754,0,0,0,.153-.056.138.138,0,0,0,.054-.087.358.358,0,0,0,.02-.231c-.005,0-.018.006-.022,0s-.007-.046-.02-.048a.884.884,0,0,0-.111-.026c-.052-.011-.1-.035-.153-.044a12.883,12.883,0,0,0-2.371-.225" transform="translate(-212.085 -296.632)" fill="#00905f"/>
    <path id="패스_288" data-name="패스 288" d="M159.125,334.232c.04.01.088.008.112.037s-.023.058-.019.088c0,.068.026.133.025.2a.044.044,0,0,1-.018.035.2.2,0,0,1-.052.049c-.058.037-.134.023-.2.042a1.554,1.554,0,0,1-.272.047,4.228,4.228,0,0,1-.485-.024.467.467,0,0,0-.186.024.763.763,0,0,1-.228.014c-.4-.014-.783-.021-1.177-.019-.069,0-.145.012-.212.013-.317.019-.634.013-.949.021-.11,0-.221.007-.331,0l-.18.005c-.235.01-.474.023-.709.013-.09,0-.186,0-.276,0a7.284,7.284,0,0,1-.793.043,1.345,1.345,0,0,1-.553-.147.74.74,0,0,1-.284-.253.319.319,0,0,1,.188-.1c.177-.048.342-.079.518-.109.15-.025.288-.036.432-.051a35.591,35.591,0,0,1,4.847-.051,5.3,5.3,0,0,1,.806.115" transform="translate(-135.211 -296.508)" fill="#0061b1"/>
    <path id="패스_289" data-name="패스 289" d="M238.414,313.686v.02c.014.042.049.054.083.087h.11c0-.02.026,0,.026-.02a.093.093,0,0,0,.08-.046h.019a.1.1,0,0,1,.081-.055c.046-.052.091-.106.134-.16a.06.06,0,0,1,.027-.055,1.967,1.967,0,0,1,.091-.3.493.493,0,0,0,.01-.11c.008,0,.016,0,.016-.01a.1.1,0,0,1,.036-.087c.019,0,.037,0,.046-.021V312.9a.191.191,0,0,1,.132.075h.06c0,.023.011.023.023.034a.633.633,0,0,1,.2.01c0,.031.047.021.06.056a.375.375,0,0,0,.036.1.037.037,0,0,1-.011.03c.024.033.046.086.011.12.013.042,0,.1.024.139-.024.022-.011.057-.011.077a.7.7,0,0,1,.035.153c.047.052.036.119.073.174v.064c.023,0,0,.034.023.034a1.361,1.361,0,0,1-.023.2.216.216,0,0,0-.037.034v.02c-.011,0-.024,0-.024-.011-.025.034-.06.056-.084.087-.025-.009-.036.012-.048.012s0,.032-.024.032a.1.1,0,0,0-.059.022c-.022.01-.105-.011-.127.01l-.013-.01a.065.065,0,0,1-.046.021c0-.011,0-.021-.014-.021a.082.082,0,0,1-.094.042c-.011-.021-.005-.036-.034-.047a.469.469,0,0,0-.045-.186c.009,0,.009-.008.009-.019a.326.326,0,0,1-.028-.089c-.027-.039-.036-.1-.071-.127.01-.008-.019-.019-.009-.03l-.046-.047c-.017,0-.017.007-.025.019-.01.05-.055.088-.065.137l-.008-.01c-.008.029-.036.05-.036.079-.017.009-.027.038-.045.047v.02c-.064.058-.1.154-.174.2-.018.041-.065.049-.085.093a.352.352,0,0,0-.108.025c-.024-.014-.059-.035-.082-.014,0-.012-.012-.012-.024-.012l-.011.012c-.025-.022-.06,0-.1-.012a1.354,1.354,0,0,0-.235-.123c-.024,0,0-.036-.024-.036a.058.058,0,0,1-.036-.008c0-.036.012-.058-.023-.082l.011-.012c0-.012-.011-.012-.024-.012-.011-.069-.048-.124-.058-.193a.144.144,0,0,1-.024-.022.186.186,0,0,0-.024-.091c-.011-.047.029-.084.006-.129a.038.038,0,0,1,.011-.032.3.3,0,0,1,.012-.14c-.012,0-.012-.01-.012-.023a.265.265,0,0,0,.022-.129c.011-.034.035-.066.046-.1l-.011-.012c.023-.02.011-.053.046-.074,0-.012,0-.023-.012-.023,0-.022.023-.03.033-.043a.4.4,0,0,1,.082-.122l-.009-.014a.155.155,0,0,1,.11-.042.24.24,0,0,1,.1.035c.012.025,0,.046.017.079h.016v.021c0,.01.009.01.018.01a.22.22,0,0,1,.016.1c0,.009.008.009.017.009-.01.02.017.044.017.064-.017.023,0,.056-.009.09.024.052.018.118.041.172a.278.278,0,0,0,.036.12" transform="translate(-211.081 -277.732)" fill="#1a1311"/>
    <path id="패스_290" data-name="패스 290" d="M223.668,332.864h.008s-.008-.006-.008,0" transform="translate(-198.527 -295.445)" fill="#1a1311"/>
    <path id="패스_291" data-name="패스 291" d="M206.155,313.207l.014-.019-.017-.013.013-.015c-.014,0-.017-.015-.018-.03l.028-.034c.007-.078-.047-.148-.025-.23l-.033-.025c.01-.035-.007-.076.019-.111-.057-.1-.04-.242-.125-.324,0-.014,0-.029-.006-.046-.058-.116-.144-.213-.216-.327-.028.017-.035-.026-.051-.041a.051.051,0,0,1-.047-.008l-.013.015-.017-.013c0,.015-.014.017-.03.02a.067.067,0,0,0-.063-.023c-.015,0-.016-.015-.018-.03-.046.006-.065-.023-.111-.017-.014,0-.016-.013-.017-.028l-.168.02c0,.014.021.043-.008.062-.035-.026-.062-.007-.093,0-.011.046-.054.07-.035.113,0,.014-.015.016-.03.018.021.058,0,.122.035.18.024.09.045.319.072.294a1.208,1.208,0,0,0,.05.2c0,.014.039.03.025.045a.224.224,0,0,1,0,.024v0c-.036.008-.052.048-.076.053,0-.01-.014-.008-.028-.005s-.033.018-.039.042c-.037.01-.048.045-.07.07l-.013-.008c-.043.038-.105.036-.137.085a2.051,2.051,0,0,1-.2.07c-.012,0-.023,0-.025-.008-.01.023-.062,0-.071.027a1.276,1.276,0,0,0-.21.013c0-.019-.039,0-.04-.018-.061.024-.123-.009-.186-.009-.013-.013-.038-.013-.049-.032a.142.142,0,0,1-.137-.035c-.037,0-.064-.033-.1-.042v-.023l-.026-.023c0-.032.037-.032.061-.043.027-.033.094-.025.118-.059,0-.01.033-.033.033-.044s.022-.042.033-.042c.038-.023.013-.047.064-.059,0-.01.038-.037.027-.048.049-.035.046-.053.06-.12.025-.033.061-.068.061-.112.012-.012,0-.06.023-.072.012-.074-.02-.118-.02-.194a.161.161,0,0,1-.025-.023c0-.034-.026-.055-.014-.088-.037-.033-.027-.043-.065-.076l-.02-.023h-.025c-.013-.022-.049-.034-.049-.057a.678.678,0,0,1-.149-.066l-.011.013-.013-.013a.259.259,0,0,1-.027.025c0-.035-.035,0-.048-.025-.026,0-.05-.011-.073.013-.076-.024-.156.015-.231-.019,0,.023-.051-.01-.051.023-.024.011-.06.01-.073.021h-.036a.2.2,0,0,1-.144.073c-.024,0,0,.032-.024.032h-.025a1.311,1.311,0,0,1-.187.165c0,.011-.025.022-.013.045s-.012.011-.026.011a.049.049,0,0,1-.025.042c0,.012,0,.023.013.023s-.019.04-.03.04c-.013.043-.013.09-.05.111,0,.088-.026.131-.033.227a.984.984,0,0,1,.013.175c.039.025-.009.024.016.057.014,0,.007.019.007.032s.053.04.041.063.023.021.034.021c.013.023-.02.048.007.059,0,.014.042,0,.028.025l.024.051a.308.308,0,0,1,.057.05.127.127,0,0,0,.051.055.244.244,0,0,1,.045.022l.016.03.038.036c.038.01.045-.012.075.028.013,0,.026,0,.026.012l.013-.012c.013.025.039.036.051.047a.142.142,0,0,1,.1.036c.013,0,.015.027.015.015.041.009.067.037.093.013.013,0,.026,0,.026.013l.013-.013c.027-.01.032.021.059.009s.013.012.013.023h.025c.027.022.136-.008.163.018a1.87,1.87,0,0,0,.386-.018c0-.023.037,0,.039-.019l.012.01c.049.014.1-.042.149-.017a.2.2,0,0,1,.026-.022c.025-.009.06.035.087,0,0,.01.012.011.025.011V313.5c.038-.02.084-.015.113-.046l.049.006.027-.019c.065-.017.121-.068.194-.083.011-.013.035-.014.047-.039a.251.251,0,0,1,.037,0c.011-.011.023-.024.033-.036.04.008.073-.046.11-.051,0-.009-.005-.022.008-.023l.013.007c.024-.013.024-.013.033-.038h.007a.158.158,0,0,1,.021.087c.016,0,.03,0,.031.013l-.027.032c.015,0,.016.012.019.028-.014,0-.013.016-.012.03.014,0,.016.012.017.027l-.025.032c0,.016.016.014.029.014.017.024-.036.047-.006.058-.007.074.022.154-.019.216-.028-.013.006.084,0,.053,0,.031-.019.127-.046.144v.029c.014,0-.016.029-.016.013l.013.015c-.013.044.005.037-.037.067,0,.017,0,.031,0,.047-.027.015,0,.065-.015.08l-.014-.013c-.014,0-.011.013-.011.027.015,0,.019.008.02.022-.03.029.046.029.013.057h-.038a.019.019,0,0,0,.013,0c-.01.014.007.06-.028.046,0,.029-.051.071-.069.1.03-.013.025-.009.027,0s-.024.03-.021.03-.028.018-.04.028c-.052.1-.027.038-.062.094-.013,0-.029.047-.029.033s-.011.01-.008,0a.265.265,0,0,0-.033.027c.012.029.039.045-.007.073-.014,0-.012-.016-.01-.031-.031.013-.033.043-.049.056a.118.118,0,0,0,0,.03.6.6,0,0,1-.085.089h-.03a.062.062,0,0,0-.018.044c0,.013-.017.013-.03.012s-.026.016-.026,0-.009.025-.038.039l.011.02c-.03.013-.022.019-.05.018,0,.028-.065.028-.068.056.012.03.039.03.053.06l.055,0c.012.031-.043.008-.017.038.015,0,.038,0,.038.019l-.018.013c.016,0-.014.018,0,.032s.046.031.058.046l.016-.013c.013.015.029.012.027.027.03,0,.077.02.107-.007.014,0,.053-.026.052-.011.027.016.016-.029.047-.041s.058-.028.089-.04c.111-.126.273-.174.383-.3.022-.005.024,0,.033-.016v-.017c0-.015.017-.015.029-.015a.085.085,0,0,1,.035-.055c-.012,0,.049-.033.032-.048a.518.518,0,0,1,.064-.071c.015,0,.015-.016.015-.03a.075.075,0,0,0,.043-.046.11.11,0,0,0,.027,0l-.015-.014c-.014-.028.029-.018.029-.045s.062-.045.047-.072c.028-.045.064-.061.091-.106-.016-.058.032-.092.075-.123,0-.014,0-.03-.014-.027.014-.03.025-.075.04-.106l-.016-.016c.029-.014.014-.043.014-.057.027-.031.041-.062.068-.09a.052.052,0,0,0-.016-.044l.028-.033a.2.2,0,0,1,.072-.115l-.016-.014c.03-.033,0-.063-.018-.091,0-.015,0-.031.013-.031l.017.014.015-.016-.016-.015c.03-.047,0-.113.047-.149a.053.053,0,0,0-.019-.044c.041-.035-.008-.076.019-.111,0-.014,0-.031-.019-.027m-2.309-.741c-.025.012,0,.035-.025.046l.012.011a.459.459,0,0,1-.2.317c-.013,0-.026,0-.026-.015s-.026-.056-.012-.079-.014-.01-.025-.01c.025-.024-.017-.048,0-.081-.013,0-.013-.015-.013-.024.038-.025.008-.084.045-.106l-.015-.012a.5.5,0,0,1,.057-.084V312.4a.525.525,0,0,1,.18-.09c.012,0,.025,0,.025.011.037.048.011.095,0,.14" transform="translate(-180.063 -276.831)" fill="#1a1311"/>
    <path id="패스_292" data-name="패스 292" d="M191.609,301.161l0,0s0,0,0,0" transform="translate(-170.071 -267.309)" fill="#1a1311"/>
    <path id="패스_293" data-name="패스 293" d="M173.065,300.013c0-.018-.027-.006-.021-.016l-.006-.011c-.012-.007,0-.024.008-.035,0-.031-.036.005-.051-.019l.028-.04c-.012-.024-.065-.036-.087-.052-.016.021-.012.012-.038.026l-.009-.021c-.025.016-.04,0-.046.008.011.008-.007.006-.013.014s-.014.02-.026.013a.058.058,0,0,0-.038-.009.124.124,0,0,1-.015.019.542.542,0,0,1-.242-.007.163.163,0,0,0-.036.011c.011.005-.008.018,0,.008s-.031-.005-.039,0c-.056,0-.179.013-.155,0-.029,0-.084.013-.106,0-.007.036-.041-.011-.056,0s-.022,0-.014,0l0,.013c-.035.009-.037-.022-.073-.01-.011,0-.017-.009-.009-.021-.013,0-.021-.012-.027,0l.007.016c-.019.005-.046-.03-.07-.014l-.036-.014a.3.3,0,0,1-.126.026l-.006-.011c0,.006-.02.015-.016.006a.043.043,0,0,1-.025-.005.231.231,0,0,1-.133.014c.026.006-.051-.044-.045-.019-.062.025-.134-.012-.2-.012,0-.025-.032.016-.051,0,0-.01.009-.023-.005-.025s-.029.006-.043.016-.027-.005-.023-.015c-.012,0-.025,0-.028.009s-.027,0-.022-.016l-.05.033c-.012,0-.01-.012-.005-.024-.055.009-.085-.04-.144-.022,0-.011-.009-.012-.022-.013-.048.031-.115,0-.16.019-.008-.022-.037-.012-.063-.012s-.025-.02-.037-.02a1.345,1.345,0,0,0-.173-.025c.024-.024-.177-.024-.255-.038-.048-.03-.108,0-.157-.017,0,.013-.007.026-.019.026-.037-.016-.06.025-.1.036-.006.025-.033.037-.025.057-.019.026-.022.031-.035.031-.012.05-.021.044-.034.092.015,0,.028,0,.025.016-.01.036.012.051,0,.089.012,0,.025,0,.023.014a.053.053,0,0,0,.013.052c0,.011-.006.023-.019.023l.009.014-.015.011a.037.037,0,0,1,0,.038c.011.013.049.015.032.04a2.583,2.583,0,0,0,.267.163l.039,0c.064.064.191.046.276.088.033-.026.07-.009.1-.02l.018.026c.074-.022.113.016.184.011a.244.244,0,0,1,.034-.023c.013,0,.027,0,.023.016l.017-.011.008.012.019-.009c0,.01.009.013.022.014.034-.021.055.007.094-.024a.047.047,0,0,0,.036.018c.039-.034.051,0,.1-.014l.008.015.017-.009-.008-.016a.013.013,0,0,1,.014-.009.962.962,0,0,0,.059.207c.01,0,.024.024.03.039s0,.012,0,.025l.046.082c-.011,0-.015.009-.017.02.013.039.013.081.025.12.015.013,0,.022.015.039,0,0-.012.023-.009.026a.065.065,0,0,0,.005.043c.006.04,0,.008.033.039-.026.031.019.084-.009.116.016.017.017,0,.021.007a.038.038,0,0,1-.011.017c0,.008.006.013.015.017.01.023-.007.037.006.06.009,0,0,.03.01.032,0,.023.03.029,0,.044-.009,0,0,.042-.013.07a.184.184,0,0,1,0,.07c.009,0,.016-.009.012,0a.067.067,0,0,1-.008.018c.011,0,.01.021.006.03,0,.033-.02.047-.03.074-.012.064.021.112-.021.135.016.012,0,.029-.007.039s-.01.037-.023.043c-.017.04-.023.036-.04.073-.026.016-.028.03-.054.047a.069.069,0,0,0-.008.018c0,.008-.013.007-.021,0-.017.019-.074.046-.082.063l.006.01a.522.522,0,0,0-.082.039.734.734,0,0,1-.105.043c-.034-.009-.064.017-.1.008l-.039.019c-.016-.005-.044.009-.057-.005s-.013.028-.031.023l-.015-.006-.006-.01c-.026.013-.046,0-.075.01l0-.01c-.026.013-.049,0-.065.015a.215.215,0,0,0-.108-.013c0-.01,0-.013-.014-.013l-.013.009c0-.009-.073,0-.082-.006l-.019,0-.005-.01-.014.008c-.013-.013-.107-.023-.128-.046-.018.016-.034.008-.054,0a.829.829,0,0,1-.195-.041l-.006-.013a.076.076,0,0,1-.089-.026.169.169,0,0,1-.035,0c-.01-.026-.077-.021-.084-.044a.265.265,0,0,1-.047-.041c-.022.013-.075-.051-.085-.057h-.036l-.013-.04-.049-.036c-.018-.035-.038-.006-.045-.037s-.042-.031-.056-.031-.043.031-.056.005a.232.232,0,0,1-.053.059.082.082,0,0,1-.049.013c-.008.038-.013.041.021.128.014,0,.03.086.046.091-.007-.031.044.071.06.084l.022,0c.009,0,0,.013,0,.022l.045.031c0,.013.014.015,0,.034a.283.283,0,0,1,.087.036c.009.005,0,.014,0,.02.011,0,.021.008.026,0,.026,0,.008.027.011.039l.015,0c0,.013.023.021.023.021.031.044.178.1.216.144l.013-.008c.013.024.078.029.078.06l.013-.009c.008.011.106.031.133.046.013-.008-.005-.023.009-.03.016.013.049.045.065.057a.538.538,0,0,1,.073.011c.037.04.115.016.163.036.006.013.015.013.024.016l.015-.007.006.01c.03-.013.044,0,.065-.015l.006.011.014-.008.011.025c.042.009.076.029.121.005,0,.013.016.014.024.016l.03-.013c.03.007.038.019.071.015l.007.013a.15.15,0,0,1,.114-.007c.008-.019.03.008.041-.01l0,.01c.033-.025.085-.01.119-.013l.006.013c.015-.009.009,0,.009,0,.03-.013.1-.014.121-.03a.152.152,0,0,0,.092.01c.012,0,.034.009.045.01a.109.109,0,0,1,.122-.008.672.672,0,0,0,.155-.062l.033.01c.016-.007.028,0,.039-.023a.5.5,0,0,0,.132-.064c0,.013.032-.012.036,0a.066.066,0,0,0,.013-.018c.022.007.039-.021.06-.013a.165.165,0,0,0,.011-.019c.035-.01.02-.019.053-.03s.07-.089.136-.116c0-.021.041-.032.05-.051s.017-.007.029,0l-.007-.013c.015-.008.011-.038.027-.025,0-.009.022-.035.014-.036.03-.025.03-.107.078-.118a.074.074,0,0,1,.008-.018c.018-.025.011-.07.022-.077s0-.015.009-.014c.011-.038.019-.094.031-.144-.01,0-.005-.012,0-.022s.014-.007.018-.016-.005-.011,0-.023l.016-.008c-.021,0,0-.03-.018-.033l.012-.008c-.017-.046.008-.093-.008-.138l.014-.008a.058.058,0,0,1,0-.081.027.027,0,0,1,0-.031c-.027-.016.006-.034-.012-.047.012-.028-.022-.057,0-.085-.013-.023-.017-.034-.03-.058,0-.01.005-.019.008-.03s-.02,0-.017-.014,0-.032,0-.052c-.017,0-.009-.02-.014-.032a.288.288,0,0,0-.054-.138c.013-.02-.013-.1-.012-.123l-.018-.01a.094.094,0,0,0-.038-.05.173.173,0,0,0,0-.025c-.008,0-.019,0-.016-.013a.16.16,0,0,0,0-.024l-.01.013a.069.069,0,0,1-.026-.064c-.036-.051-.049-.088-.1-.159-.02.011,0-.04-.024-.027a.283.283,0,0,0-.087-.117.179.179,0,0,0,0-.023.065.065,0,0,1-.023,0s0,0,0,0a.332.332,0,0,1,.076-.024c.017.023.053-.02.075-.008s.021-.02.037,0l0,.015a.141.141,0,0,0,.014-.02.056.056,0,0,0,.053-.009c.01.005.022.012.028,0a.411.411,0,0,1,.084-.019c0,.016.028-.007.022,0a.1.1,0,0,1,.056.006c.007-.007.015-.018.025-.012l.014.01a.074.074,0,0,0,.027-.016c.145-.014.225-.084.369-.084.028-.011.051-.023.078-.035s.047.021.051-.005c-.008-.007.032-.016.039-.027.035,0,.058-.065.071-.085-.011-.005,0-.015,0-.033h.019a.37.37,0,0,1,0-.1" transform="translate(-150.223 -266.036)" fill="#1a1311"/>
    <path id="패스_294" data-name="패스 294" d="M293.786,295.557a2.4,2.4,0,0,0,.842-2.055v-.543h-.682c-.139,0-.2-.121-.2-.267s.064-.258.2-.258h1.92c.128,0,.2.117.2.258s-.065.267-.2.267h-.676v.532a2.261,2.261,0,0,0,.853,2,.31.31,0,0,1,.027.4.235.235,0,0,1-.343.058,2.129,2.129,0,0,1-.815-1.177,2.135,2.135,0,0,1-.8,1.243.246.246,0,0,1-.348-.072.312.312,0,0,1,.027-.389m2.659-3.315c0-.14.112-.222.274-.222s.268.082.268.222v4.686c0,.169-.109.246-.268.246s-.274-.077-.274-.246v-2.613h-.6c-.13,0-.2-.112-.2-.274,0-.177.074-.28.2-.28h.6Zm1.035-.1a.237.237,0,0,1,.268-.229c.165,0,.278.088.278.229v4.909c0,.169-.106.244-.278.244s-.268-.075-.268-.244Z" transform="translate(-260.691 -259.101)" fill="#1a1311"/>
    <path id="패스_295" data-name="패스 295" d="M339.724,299.067c0,.175-.129.257-.293.257s-.3-.082-.3-.257v-1.692h-1.828c-.118,0-.189-.111-.189-.268s.071-.263.189-.263h4.235c.128,0,.193.112.193.263s-.065.268-.193.268h-1.818Zm-1.822-2.683a.254.254,0,0,1-.322-.177c-.048-.15,0-.331.139-.366.735-.147,1.34-.543,1.378-1.255h-1.276c-.14,0-.193-.128-.193-.268s.065-.264.193-.264h3.221c.13,0,.2.117.2.264s-.06.268-.2.268h-1.281c.043.718.7,1.114,1.394,1.249a.258.258,0,0,1,.139.356.253.253,0,0,1-.32.181,2.087,2.087,0,0,1-1.539-1.021,2.023,2.023,0,0,1-1.534,1.033" transform="translate(-299.224 -261.002)" fill="#1a1311"/>
    <path id="패스_296" data-name="패스 296" d="M383.654,292.358v.705a2.378,2.378,0,0,0,1.088,2.2.285.285,0,0,1,.059.392.234.234,0,0,1-.37.088,2.481,2.481,0,0,1-1.058-1.359,2.5,2.5,0,0,1-1.061,1.441.251.251,0,0,1-.365-.088.272.272,0,0,1,.049-.391,2.443,2.443,0,0,0,1.067-2.265v-.723c0-.152.124-.227.3-.227s.3.075.3.227m2.262-.21v4.9c0,.169-.113.257-.285.257a.246.246,0,0,1-.278-.257v-4.9c0-.147.112-.235.278-.235s.285.088.285.235" transform="translate(-338.961 -259.101)" fill="#1a1311"/>
    <path id="패스_297" data-name="패스 297" d="M424.513,294.483a1.562,1.562,0,0,0,1-1.583v-.1h-.89c-.134,0-.193-.128-.193-.268s.064-.263.193-.263h2.381c.134,0,.2.123.2.263s-.059.268-.2.268H426.1v.1a1.491,1.491,0,0,0,1.061,1.476.287.287,0,0,1-.247.51,1.811,1.811,0,0,1-1.078-1,1.845,1.845,0,0,1-1.067,1.1.254.254,0,0,1-.349-.134.261.261,0,0,1,.1-.367m2.183,2.91c-1.078,0-1.65-.39-1.65-1.073s.572-1.084,1.65-1.084,1.657.4,1.657,1.084-.573,1.073-1.657,1.073m0-1.667c-.7,0-1.062.22-1.062.594s.365.589,1.062.589,1.072-.226,1.072-.589-.37-.594-1.072-.594m1.029-3.578a.248.248,0,0,1,.279-.235c.161,0,.285.088.285.235v1.132h.626c.135,0,.194.1.194.261s-.059.269-.194.269h-.626v1.157c0,.176-.114.252-.285.252s-.279-.076-.279-.252Z" transform="translate(-376.679 -259.101)" fill="#1a1311"/>
    <path id="패스_298" data-name="패스 298" d="M469.627,295.959c-.846,0-1.092-.865-1.092-1.827s.246-1.827,1.092-1.827,1.095.858,1.095,1.827-.247,1.827-1.095,1.827m0-3.122c-.439,0-.552.582-.552,1.3s.113,1.3.552,1.3.554-.585.554-1.3-.118-1.3-.554-1.3m2.606-.7c0-.141.113-.229.274-.229s.279.088.279.229v4.909c0,.169-.111.244-.279.244s-.274-.075-.274-.244v-2.645h-.572v2.521c0,.169-.109.246-.274.246s-.274-.077-.274-.246v-4.686c0-.14.112-.222.274-.222s.274.082.274.222v1.62h.572Z" transform="translate(-415.87 -259.101)" fill="#1a1311"/>
    <path id="패스_299" data-name="패스 299" d="M514.542,292.242a1.307,1.307,0,1,1,0,2.614,1.307,1.307,0,1,1,0-2.614m0,2.106a.8.8,0,1,0-.771-.8.737.737,0,0,0,.771.8m-.557,1.267c0-.152.128-.234.289-.234s.3.082.3.234v1.05c0,.1.016.117.112.117h2.455c.135,0,.2.1.2.263s-.064.263-.2.263h-2.573c-.4,0-.579-.054-.579-.468Zm2.623-3.466a.289.289,0,0,1,.567,0V295.6c0,.175-.117.256-.284.256s-.283-.081-.283-.256Z" transform="translate(-455.536 -259.101)" fill="#1a1311"/>
    <path id="패스_300" data-name="패스 300" d="M556.63,295.889a.247.247,0,0,1-.376-.089.279.279,0,0,1,.065-.392,2.191,2.191,0,0,0,1.04-2.036v-.437h-.911c-.139,0-.2-.127-.2-.273s.07-.264.2-.264h2.417c.129,0,.2.128.2.264s-.058.273-.2.273h-.917v.444a2.018,2.018,0,0,0,1.079,1.944.281.281,0,0,1,.059.385.235.235,0,0,1-.371.106,2.3,2.3,0,0,1-1.051-1.262,2.347,2.347,0,0,1-1.034,1.337m3.586-3.741v4.9c0,.169-.112.257-.283.257a.247.247,0,0,1-.279-.257v-4.9c0-.147.113-.235.279-.235s.283.088.283.235" transform="translate(-493.682 -259.101)" fill="#1a1311"/>
    <path id="패스_301" data-name="패스 301" d="M603.317,292.148c0-.147.124-.235.285-.235a.256.256,0,0,1,.279.235v2.683c0,.176-.113.252-.279.252s-.285-.081-.285-.252v-.512H602.16a1.262,1.262,0,0,1-1.029.466,1.307,1.307,0,0,1,0-2.614,1.259,1.259,0,0,1,1.029.465h1.157Zm-2.186,2.137a.809.809,0,1,0-.746-.807.739.739,0,0,0,.746.807m2.75,2.94c0,.147-.134.227-.291.227s-.294-.08-.294-.227v-1.213c0-.094-.011-.1-.1-.1h-2.44c-.139,0-.2-.106-.2-.264s.064-.262.2-.262h2.692c.316,0,.435.088.435.451Zm-1.491-3.419h.927v-.66h-.927a1.8,1.8,0,0,1,.039.339,1.514,1.514,0,0,1-.039.321" transform="translate(-532.408 -259.101)" fill="#1a1311"/>
    <path id="패스_302" data-name="패스 302" d="M643.661,292.358v.719a2.352,2.352,0,0,0,1.071,2.193.287.287,0,0,1,.063.392.236.236,0,0,1-.369.092,2.461,2.461,0,0,1-1.05-1.364,2.4,2.4,0,0,1-1.045,1.442.249.249,0,0,1-.365-.083.278.278,0,0,1,.053-.4,2.428,2.428,0,0,0,1.046-2.258v-.736c0-.152.13-.227.294-.227.182,0,.3.075.3.227m2.16-.21v1.675h.644c.139,0,.193.112.193.269s-.054.268-.193.268h-.644v2.685c0,.169-.114.257-.285.257a.247.247,0,0,1-.279-.257v-4.9c0-.147.113-.235.279-.235s.285.088.285.235" transform="translate(-569.754 -259.101)" fill="#1a1311"/>
    <path id="패스_303" data-name="패스 303" d="M686.327,296.414c-.123,0-.208-.095-.208-.262a.225.225,0,0,1,.208-.253h1.132v-.5c-.59-.07-.906-.367-.906-.828,0-.532.419-.852,1.191-.852s1.185.32,1.185.852c0,.467-.322.765-.906.833v.48a6.624,6.624,0,0,0,1.136-.135.268.268,0,0,1,.054,0c.113,0,.193.095.193.269a.205.205,0,0,1-.139.221,7.011,7.011,0,0,1-1.621.175Zm.1-2.94c-.14,0-.193-.106-.193-.251s.059-.252.193-.252h2.631c.135,0,.2.11.2.252s-.059.251-.2.251Zm.724-.9c-.14,0-.2-.111-.2-.257s.075-.246.2-.246h1.174c.128,0,.193.106.193.246s-.064.257-.193.257Zm.594,2.433c.424,0,.649-.164.649-.432s-.225-.437-.649-.437-.654.168-.654.437.226.432.654.432m1.93-2.859c0-.147.119-.235.28-.235s.283.088.283.235v4.891c0,.174-.111.256-.283.256s-.28-.082-.28-.256Z" transform="translate(-608.996 -259.101)" fill="#1a1311"/>
    <path id="패스_304" data-name="패스 304" d="M729.735,293.694c0-.343.1-.473.45-.473h2.649c.134,0,.2.088.2.245s-.07.252-.2.252h-2.418c-.091,0-.1.012-.1.116v.315h2.444c.134,0,.2.076.2.235s-.065.238-.2.238h-2.444v.3c0,.1.01.122.1.122h2.445c.134,0,.2.088.2.245s-.069.251-.211.251h-1.2v.426h1.828c.124,0,.184.122.184.251s-.06.25-.184.25H729.23c-.124,0-.182-.115-.182-.25s.058-.251.182-.251h1.834v-.426h-.88c-.317,0-.45-.1-.45-.472Zm1.624,3.04c1.127,0,1.694.321,1.694.928s-.567.922-1.694.922-1.7-.32-1.7-.922.567-.928,1.7-.928m0,1.365c.766,0,1.1-.153,1.1-.437s-.332-.443-1.1-.443-1.1.157-1.1.443.337.438,1.1.438" transform="translate(-647.1 -260.262)" fill="#1a1311"/>
    <path id="패스_305" data-name="패스 305" d="M772.55,293.327c-.139,0-.193-.1-.193-.239s.064-.239.193-.239h2.606c.134,0,.2.1.2.239s-.059.239-.2.239Zm1.335.205c.762,0,1.175.315,1.175.811s-.414.811-1.175.811-1.18-.322-1.18-.811.408-.811,1.18-.811m-.632-1.045c-.134,0-.187-.1-.187-.239s.058-.233.188-.233h1.233c.128,0,.192.1.192.233s-.059.239-.192.239Zm-.086,3.134c0-.14.127-.216.285-.216s.278.076.278.216v.36h2.022v-.36c0-.14.123-.216.273-.216s.284.076.284.216V297c0,.333-.124.437-.455.437h-2.236c-.333,0-.45-.111-.45-.443Zm.718-.881c.419,0,.639-.157.639-.4s-.22-.4-.639-.4-.643.154-.643.4.219.4.643.4m-.155,1.7v.392c0,.117.01.127.108.127h1.8c.1,0,.112-.009.112-.127v-.392Zm2.016-4.3c0-.146.124-.229.28-.229s.284.083.284.229v1.366h.627c.14,0,.193.1.193.263s-.054.262-.193.262h-.627v.894c0,.168-.112.252-.284.252s-.28-.084-.28-.252Z" transform="translate(-685.541 -259.101)" fill="#1a1311"/>
    <path id="패스_306" data-name="패스 306" d="M818.154,294.7h-.87c-.32,0-.454-.075-.454-.459v-.865c0-.35.1-.46.45-.46h2.628c.134,0,.2.093.2.256s-.063.251-.2.251h-2.38c-.1,0-.114.018-.114.122v.52c0,.1.017.127.114.127h2.39c.14,0,.2.094.2.252s-.07.254-.2.254h-1.175v.474h1.824c.124,0,.183.122.183.25s-.059.257-.183.257H816.32c-.128,0-.182-.122-.182-.257s.054-.25.182-.25h1.834Zm1.93,3.117c.128,0,.193.1.193.246s-.065.262-.193.262h-2.773c-.332,0-.508-.082-.508-.432v-.56c0-.263.08-.4.364-.4h2.219c.086,0,.1-.006.1-.082v-.235c0-.075-.011-.088-.1-.088H816.97c-.129,0-.194-.1-.194-.243s.065-.252.194-.252h2.707c.306,0,.4.146.4.426v.491c0,.3-.107.432-.4.432H817.49c-.085,0-.1.011-.1.088v.252c0,.081.011.093.1.093Z" transform="translate(-724.401 -259.995)" fill="#1a1311"/>
    <path id="패스_307" data-name="패스 307" d="M861.7,294.706h-.771c-.493,0-.552-.106-.552-.555v-1.384c0-.139.133-.214.285-.214.167,0,.3.075.3.214v.4h2.074v-.4c0-.139.14-.214.285-.214.172,0,.294.075.294.214v1.389c0,.5-.122.55-.553.55h-.766v.471h1.828c.124,0,.183.129.183.265s-.059.254-.183.254h-4.245c-.13,0-.184-.122-.184-.254s.054-.265.184-.265H861.7Zm-1.35,1.879c0-.356.113-.474.445-.474h2.284c.381,0,.574.041.574.478v.882c0,.368-.113.485-.45.485h-2.408c-.332,0-.445-.117-.445-.485Zm.7.029c-.1,0-.12.023-.12.121v.591c0,.106.023.122.12.122h1.9c.091,0,.113-.016.113-.122v-.591c0-.1-.021-.121-.113-.121Zm-.1-2.538c0,.116.015.128.112.128h1.844c.107,0,.118-.012.118-.135v-.4h-2.074Z" transform="translate(-763.055 -259.669)" fill="#1a1311"/>
    <path id="패스_308" data-name="패스 308" d="M905.007,295.889a.247.247,0,0,1-.375-.089.277.277,0,0,1,.065-.392,2.19,2.19,0,0,0,1.039-2.036v-.437h-.91c-.141,0-.2-.127-.2-.273s.07-.264.2-.264h2.417c.128,0,.2.128.2.264s-.058.273-.2.273h-.917v.444a2.019,2.019,0,0,0,1.077,1.944.279.279,0,0,1,.059.385.234.234,0,0,1-.369.106,2.29,2.29,0,0,1-1.051-1.262,2.349,2.349,0,0,1-1.034,1.337m3.587-3.741v4.9c0,.169-.112.257-.284.257a.247.247,0,0,1-.279-.257v-4.9c0-.147.113-.235.279-.235s.284.088.284.235" transform="translate(-802.9 -259.101)" fill="#1a1311"/>
    <path id="패스_309" data-name="패스 309" d="M948.47,295.714v-.793h-1.153c-.117,0-.2-.1-.2-.269s.081-.263.2-.263h1.426a5.869,5.869,0,0,0,1.357-.147c.112-.029.214.048.236.2s-.016.267-.133.3a4.725,4.725,0,0,1-1.171.164v.822c0,.153-.116.229-.282.229a.348.348,0,0,1-.2-.052v.77c0,.1.015.116.107.116h2.589c.136,0,.205.1.205.263s-.07.261-.205.261h-2.84c-.316,0-.446-.093-.446-.466v-.968c0-.153.133-.234.3-.234a.357.357,0,0,1,.214.065m.268-1.628c-.754,0-1.228-.38-1.228-1.015s.473-1.011,1.228-1.011,1.229.379,1.229,1.011-.472,1.015-1.229,1.015m0-1.547c-.434,0-.675.2-.675.538s.242.53.675.53.676-.2.676-.53-.24-.538-.676-.538m2.57-.391v3.833c0,.171-.114.247-.28.247s-.283-.075-.283-.247v-.319h-.864c-.123,0-.193-.117-.193-.269s.07-.264.193-.264h.864v-2.981c0-.147.117-.235.283-.235s.28.088.28.235" transform="translate(-840.659 -259.101)" fill="#1a1311"/>
    <path id="패스_310" data-name="패스 310" d="M991.828,292.481v.468a1.656,1.656,0,0,0,.814,1.6.227.227,0,0,1,.1.2.285.285,0,0,1-.241.317.187.187,0,0,1-.054-.013,1.684,1.684,0,0,1-.9-.961,1.822,1.822,0,0,1-.749,1.014.465.465,0,0,1-.227.082.285.285,0,0,1-.247-.3.227.227,0,0,1,.1-.2,1.847,1.847,0,0,0,.841-1.809v-.4c0-.151.107-.223.284-.223s.279.072.279.223m.071,3.162v1.022c0,.1.015.117.106.117h2.584c.135,0,.2.1.2.263s-.069.264-.2.264h-2.712c-.466,0-.569-.083-.569-.569v-1.1c0-.15.129-.234.3-.234s.3.084.3.234m1.721-3.4v3.338c0,.163-.115.239-.274.239-.177,0-.274-.093-.274-.239v-1.787h-.547c-.133,0-.2-.1-.2-.261,0-.188.07-.268.2-.268h.547v-1.022c0-.14.113-.222.274-.222s.274.082.274.222m1.044-.1V295.7c0,.17-.113.245-.279.245s-.272-.075-.272-.245v-3.553c0-.141.112-.229.272-.229s.279.088.279.229" transform="translate(-879.009 -259.101)" fill="#1a1311"/>
    <path id="패스_311" data-name="패스 311" d="M1036.309,292.8c0-.35.1-.484.472-.484h1.683c.135,0,.205.117.205.273s-.07.262-.205.262h-1.448c-.112,0-.133.024-.133.135v.781h1.393c.134,0,.2.112.2.264s-.065.263-.2.263h-1.393v.863c0,.124.016.141.127.141a6.363,6.363,0,0,0,1.711-.141c.1-.029.21.041.236.193s-.031.279-.133.314a7.027,7.027,0,0,1-2.048.17c-.332-.012-.467-.141-.467-.519Zm3.373-.677a.248.248,0,0,1,.279-.238c.166,0,.283.091.283.238v4.9a.282.282,0,0,1-.563,0v-2.824h-.762c-.133,0-.2-.106-.2-.269s.071-.269.2-.269h.762Z" transform="translate(-919.823 -259.075)" fill="#1a1311"/>
  </g>
</svg>
