<svg xmlns="http://www.w3.org/2000/svg" width="56.191" height="63.012" viewBox="0 0 56.191 63.012">
  <g id="그룹_8237" data-name="그룹 8237" transform="translate(-1548 -1465.78)">
    <path id="패스_283" data-name="패스 283" d="M44.247,26.99,20.036,48.979V68.445c7.793,7.813,15.543,6.126,19.943,4.05a85.491,85.491,0,0,1-10.005-8.522c-3.476-3.588-4.56-8.372-2.829-12.495a8.931,8.931,0,0,1,8.2-5.7h.039c2.144,0,5.212.768,8.415,4.132.438-.462.87-.875,1.3-1.249a21.545,21.545,0,0,1,7.2-4.424,17.375,17.375,0,0,1,10.365-.53Z" transform="translate(1531.873 1444.055)" fill="#fca500"/>
    <path id="패스_284" data-name="패스 284" d="M98.927,146.155a5.11,5.11,0,0,0-4.643-3.282h-.02a7.3,7.3,0,0,0-4.652,2.071c-.053.053-.088.087-.107.112l-.01-.015a16.244,16.244,0,0,0-2.1,2.329l-1.546,2.066-1.561-2.051c-2.173-2.868-4.618-4.444-6.884-4.444H77.4a5.107,5.107,0,0,0-4.638,3.32c-.428,1.011-1.536,4.6,2.037,8.279a57.205,57.205,0,0,0,11.114,9.009,57.1,57.1,0,0,0,11.046-9.1c3.539-3.714,2.4-7.288,1.969-8.294" transform="translate(1489.838 1350.779)" fill="#dd488e"/>
    <path id="패스_285" data-name="패스 285" d="M36.137,22.495a21.615,21.615,0,0,0-7.2,4.429c-.428.374-.86.788-1.3,1.249-3.2-3.364-6.267-4.137-8.411-4.137h-.039a8.936,8.936,0,0,0-8.2,5.7c-1.731,4.123-.647,8.907,2.829,12.494a85.986,85.986,0,0,0,10.005,8.523c-4.4,2.076-12.149,3.763-19.947-4.045V27.24L28.1,5.251,46.5,21.97a17.374,17.374,0,0,0-10.365.525m2.635,16.938h0a57.1,57.1,0,0,1-11.041,9.1,57.238,57.238,0,0,1-11.118-9.009c-3.573-3.685-2.465-7.268-2.042-8.275a5.108,5.108,0,0,1,4.638-3.325h.02c2.261,0,4.706,1.58,6.88,4.444l1.56,2.051,1.546-2.066a16,16,0,0,1,2.1-2.329l.01.01c.019-.015.053-.059.107-.107a7.3,7.3,0,0,1,4.652-2.076h.02a5.115,5.115,0,0,1,4.643,3.287c.433,1.006,1.57,4.584-1.969,8.294M28.1,0,0,25.519V63.012H3.88V51.888a20.1,20.1,0,0,0,12.48,4.492,20.029,20.029,0,0,0,4.56-.535,23.54,23.54,0,0,0,6.515-2.63,54.918,54.918,0,0,0,14.148-11.1c3.447-3.617,4.492-8.411,2.727-12.514a9.489,9.489,0,0,0-3.491-4.225c3.277-.326,7.195.5,11.42,3.875l.068-.088V50.138h3.884V25.519Z" transform="translate(1548 1465.78)" fill="#1a1311"/>
  </g>
</svg>
