<svg xmlns="http://www.w3.org/2000/svg" xmlns:xlink="http://www.w3.org/1999/xlink" width="348.734" height="181.333" viewBox="0 0 348.734 181.333">
  <defs>
    <clipPath id="clip-path">
      <path id="패스_9451" data-name="패스 9451" d="M173.7,16.017c39.873,21.012,55.307,67.6,48.016,112.331-2.726,16.721-9.688,33.522-23.936,42.605-13.954,8.893-31.182,10.036-47.109,10.256-20.492.284-41.068.082-61.554-.514C61.4,179.889,25.673,174.168,9.5,149.33A52.8,52.8,0,0,1,1.69,128.445,145.063,145.063,0,0,1,0,106.107v-.236A160.432,160.432,0,0,1,2.372,78.464c5.3-30.154,22.273-58.535,50.9-68.871A159.807,159.807,0,0,1,107.422,0,141.76,141.76,0,0,1,173.7,16.017" transform="translate(0 -0.003)" fill="none"/>
    </clipPath>
    <clipPath id="clip-path-2">
      <path id="패스_9452" data-name="패스 9452" d="M1026.078,879.226c0,18.075-15.948,32.727-35.618,32.727s-35.618-14.652-35.618-32.727S970.791,846.5,990.46,846.5s35.618,14.652,35.618,32.725" transform="translate(-954.842 -846.501)" fill="none"/>
    </clipPath>
    <linearGradient id="linear-gradient" x1="-1.728" y1="-0.715" x2="-1.726" y2="-0.715" gradientUnits="objectBoundingBox">
      <stop offset="0" stop-color="#d8d6d7"/>
      <stop offset="1" stop-color="#fff"/>
    </linearGradient>
    <clipPath id="clip-path-4">
      <rect id="사각형_5587" data-name="사각형 5587" width="184.171" height="181.333" fill="none"/>
    </clipPath>
  </defs>
  <g id="그룹_13265" data-name="그룹 13265" transform="translate(-1251.266 -638.667)">
    <g id="그룹_13233" data-name="그룹 13233" transform="translate(1251.266 638.664)">
      <g id="그룹_13228" data-name="그룹 13228" transform="translate(0 0.003)">
        <g id="그룹_13227" data-name="그룹 13227" transform="translate(0 0)" clip-path="url(#clip-path)">
          <path id="패스_9443" data-name="패스 9443" d="M9.5,149.33C25.673,174.168,61.4,179.889,89.121,180.7c20.486.6,41.062.8,61.554.514,15.927-.221,33.155-1.363,47.109-10.256,14.248-9.083,21.211-25.884,23.936-42.605,7.291-44.727-8.143-91.319-48.016-112.331C136.54-3.572,92.435-4.549,53.273,9.593,24.645,19.93,7.668,48.311,2.372,78.464a156.346,156.346,0,0,0-.682,49.981A52.8,52.8,0,0,0,9.5,149.33" transform="translate(0 -0.003)" fill="#dce2e6"/>
          <path id="패스_9444" data-name="패스 9444" d="M996.133,387.356c.718-.023.371.026.475-.83.242-1.951.569-4.173.955-6.082.93-4.6,2.509-8.9,3.662-13.423a107.032,107.032,0,0,0,2.386-13.069c1.591-12.53.054-28.075-11.619-36.193-3.784-2.633-7.882-4.8-12.732-4.675a21.027,21.027,0,0,0-15.759,8.6c-.109.155-3.059,5.142-3.5,5.932a42.691,42.691,0,0,0-5.306,14.377c-.8,5.852.7,12.141,1.646,17.895.737,4.481,1.054,9.313,3.608,13.271,1.965,3.051,5.516,4.975,8.753,6.635a64.034,64.034,0,0,0,18.092,5.984c2.287.4,4.633.251,6.9.652.871.155,1.559.959,2.44.931" transform="translate(-899.07 -276.281)" fill="#feede5" fill-rule="evenodd"/>
          <path id="패스_9445" data-name="패스 9445" d="M1122.04,910.465c4.647-2.263,7.694-6.045,7.694-10.329,0-6.926-7.961-12.542-17.785-12.542s-17.783,5.616-17.783,12.542c0,3.482,2.014,6.633,5.266,8.907,3.212,2.246,22.609,1.421,22.609,1.421" transform="translate(-1041.998 -783.273)" fill="#d8d6d7" fill-rule="evenodd"/>
          <path id="패스_9446" data-name="패스 9446" d="M1130.237,647.7a4.752,4.752,0,0,0-2.682-5.254c-1.151-.586-2.844-.91-3.838.127a6.138,6.138,0,0,0-1.539,2.835c-.183.846,8.06,2.293,8.06,2.293" transform="translate(-1046.045 -566.451)" fill="#ffc8bb" fill-rule="evenodd"/>
          <path id="패스_9447" data-name="패스 9447" d="M1092.849,696.449a79.33,79.33,0,0,1,16.565,4.929s-.829-14.312-.814-15.182c.069-4.1-4.311-7.655-12.329-8.467s-13.625,1.841-14.657,5.684c-.114.427-4.962,12.807-4.962,12.807a64.083,64.083,0,0,1,16.2.23" transform="translate(-1019.506 -597.944)" fill="#d26d8e" fill-rule="evenodd"/>
          <path id="패스_9448" data-name="패스 9448" d="M1144.831,910.276c0-.7,5.578-18.145,5.38-18.795-.638-2.059-8.184-5.221-12.824-5.221-4.712,0-11.389,1.658-12.027,2.912-.28.556-.495,19.991-.495,20.629,0,4.741.817-6.185,10.485-5.592,9.07.558,9.481,10.809,9.481,6.068" transform="translate(-1066.289 -782.095)" fill="#d8d6d7" fill-rule="evenodd"/>
          <path id="패스_9449" data-name="패스 9449" d="M406.173,927.591c-7.117-1.927-10.777-9.568-14.358-14.954a13.186,13.186,0,0,1-2.14-5.411c-.04-.263-.509-3.011-.873-2.781-.465.3-.871-.216-1.01.246a42.518,42.518,0,0,0-1.143,9.2c0,9.261.421,18.336,1.339,28.408.161,1.752,1.032,10.457,1.581,15.909H305.842A138.073,138.073,0,0,0,307.185,943c.01-.767.428-2.011.079-2.781-.29-.643-1.381-.12-1.9-.075a7.249,7.249,0,0,1-3.967-.825c-3.861-2.091-9.062-8.328-11.154-12.01-2.373-4.171-3-6.34-4.313-10.912-1.123-3.911-.475-8.68-.475-12.7,0-9.175.715-18.274.715-27.43,0-9.023.794-23.042,6.961-30.753,1.8-2.249,3.267-2.589,6.286-3.815,3.059-1.243,6.8-2.042,10.97-3.224,3.209-.91,5.3-.523,8.493-1.409.5-.141,2.729-.675,3.14-.026.337.53-1.257,1.671-1.586,1.878-2.784,1.758-6.006,2.626-8.726,4.584a41.771,41.771,0,0,0-13.086,16.607c-3.972,8.975-1.374,17.653,3.172,25.853,1.928,3.479,4.113,7.2,7.535,9.542,5.345,3.67,12.849,4.976,19.273,5.712a43.589,43.589,0,0,0,18.719-2.406,48.991,48.991,0,0,0,13.8-7.512,37.56,37.56,0,0,0,5.316-5.187c5.132-6.281,6.358-12.912,5.79-20.441a21.5,21.5,0,0,0-2.539-9.468,45.572,45.572,0,0,0-4.759-7.365c-.933-1.081-3.081-2.033-3.489-3.381-.042-.138.4-.49.475-.6.106-.167.245-.98.478-1.053.059-.019,9,3.515,10.482,3.6s-.1-1.076-.252-1.794c-.322-1.521.876-5.278,2.7-5.074,10.675,1.21,17.065,6.317,21.178,12.854,2.479,3.939,3.85,8.7,5.291,13.067,1.962,5.951,3.271,9.3,5.167,15.247.911,2.856,2.724,6.237,3.737,9.07,1.4,3.911,3.541,7.486,5.236,11.273a47.718,47.718,0,0,0,4.7,5.562,15.391,15.391,0,0,1,7.416,3.038c6.831,2.309,14.756,7.129,20.021,10.384,1.126.2,6.506,2.774,6.09,3.651-1.44,3.037-7.669-7.924-7.558-5.483.2,4.338,1.841,4.954,1.371,5.2-1.96,1.055-7.142,1.7-10.136,1.984-4.187.4-8.7,1.116-11.906,1.238-5.961.232-13.923,1.55-19.75-.028" transform="translate(-266.095 -738.379)" fill="#ffdfac" fill-rule="evenodd"/>
          <path id="패스_9450" data-name="패스 9450" d="M975.958,829.125c22.047,0,39.926,15.573,39.926,34.767S998,898.64,975.958,898.64s-39.927-15.553-39.927-34.749,17.88-34.767,39.927-34.767" transform="translate(-908.532 -731.675)" fill="#f897b6" fill-rule="evenodd"/>
        </g>
      </g>
      <g id="그룹_13230" data-name="그룹 13230" transform="translate(28.266 99.495)">
        <g id="그룹_13229" data-name="그룹 13229" clip-path="url(#clip-path-2)">
          <rect id="사각형_5588" data-name="사각형 5588" width="66.371" height="72.08" transform="translate(0.012 66.376) rotate(-90.744)" fill="url(#linear-gradient)"/>
        </g>
      </g>
      <g id="그룹_13232" data-name="그룹 13232" transform="translate(0 0.003)">
        <g id="그룹_13231" data-name="그룹 13231" transform="translate(0 0)" clip-path="url(#clip-path)">
          <path id="패스_9453" data-name="패스 9453" d="M1144.591,912.92c0-.7,5.86-20.79,5.662-21.44-.638-2.059-8.184-5.222-12.824-5.222-4.712,0-11.389,1.658-12.027,2.912-.28.556-.535,23.112-.535,23.749,0,4.741,4.415,8.584,9.862,8.584s9.862-3.843,9.862-8.584" transform="translate(-1066.331 -782.094)" fill="#fff" fill-rule="evenodd"/>
          <path id="패스_9454" data-name="패스 9454" d="M907.927,232.614c-2.507-.624-4.38-.183-6.944-.452a30.116,30.116,0,0,0-6.3.558,25.856,25.856,0,0,0-7.884,2.427c-2.433,1.254-5.066,2.832-6.516,5.123-2.42,3.822-3.487,8.457-5.442,12.528-2.064,4.3-4.925,8.527-5.2,13.449-.247,4.455,1,8.356,2.044,12.638a15.128,15.128,0,0,1,.4,6.185c-1.156,5.111-5.1,10.842-.069,15.1a12.48,12.48,0,0,0,3.1,1.909,19.612,19.612,0,0,0,5.158,1.1c1.554.133,1.846-3.552,2.3-4.514,1.143-2.408,1.244-3.67,2.388-6.075.752-1.583,2.252-4.633,2.559-5.257s-.6-1.784-.816-2.373c-.332-.886-.782-3.791-1.794-3.878-1.368-.117-3.323-2.417-3.593-5.505-.334-3.8,3.982-6.408,5.714-9.487a66.152,66.152,0,0,0,3.48-6.8c1.272-3.01,2.41-6.2,4.573-8.765,1.124-1.332,3.385-2.556,4.494-3.873a7.278,7.278,0,0,1,6.551-2c9.233,1.381,11.638,11.25,12.3,18.765a17.48,17.48,0,0,0,2.252,7.589c.861,1.433,2.232,3.367,1.995,5.144-.509,3.782-2.041,7.742-4.628,12.579-.7,1.311-.218,3.055-.435,4.485-.443,2.95-1.232,5.585-1.477,8.089a7.5,7.5,0,0,0,1.19,5.536c2.43,4.448,5.172,6.178,9.05,7.048,1.131.255,3.788.891,4.788.155.361-.265-.512-1.268-.564-1.58-.194-1.193-.505-.978.126-3.078.765-2.539,4.908-4.146,5.937-6.678.985-2.434-.425-4.98-.713-7.428a31.3,31.3,0,0,1-.054-5.723c.336-4.286,3.083-8.514,3.454-12.743.292-3.29-.547-5.327-1.381-8.485-1.817-6.886-5.217-11.13-7.815-18.91-1.2-3.59-4.549-9.032-7.7-11.519-2.574-2.031-5.365-4.2-8.761-4.847-1.675-.317-4.16-.037-5.769-.436" transform="translate(-823.804 -204.843)" fill="#f3877d" fill-rule="evenodd"/>
          <path id="패스_9455" data-name="패스 9455" d="M998.525,623.844a.554.554,0,0,0,.381-.148,32.718,32.718,0,0,0,9.413-17.421.516.516,0,0,0-.425-.6.541.541,0,0,0-.633.4,31.732,31.732,0,0,1-9.115,16.9.49.49,0,0,0,0,.722.537.537,0,0,0,.381.152" transform="translate(-908.663 -534.476)" fill="#463b39"/>
          <path id="패스_9456" data-name="패스 9456" d="M1284.931,600.349a.581.581,0,0,0,.314-.1.5.5,0,0,0,.124-.715c-1.955-2.6-2.769-9.158-2.672-12.105a.526.526,0,0,0-.525-.528h-.018a.527.527,0,0,0-.539.5c-.094,2.889.676,9.815,2.875,12.732a.549.549,0,0,0,.441.216" transform="translate(-1220.987 -517.924)" fill="#463b39"/>
          <path id="패스_9457" data-name="패스 9457" d="M1132.459,548.675a.542.542,0,0,0,.487-.291,3.336,3.336,0,0,1,.579-.656c.552-.542,1.237-1.212,1.106-2.1a1.772,1.772,0,0,0-.73-.987,1.981,1.981,0,0,1-.4-.4,3.759,3.759,0,0,1,.116-3.388.5.5,0,0,0-.252-.685.557.557,0,0,0-.723.239,4.712,4.712,0,0,0-.1,4.307,2.6,2.6,0,0,0,.641.687,1.964,1.964,0,0,1,.381.38c.057.384-.386.816-.814,1.236a3.858,3.858,0,0,0-.777.926.5.5,0,0,0,.255.685.576.576,0,0,0,.233.049" transform="translate(-1051.595 -476.634)" fill="#463b39"/>
          <path id="패스_9458" data-name="패스 9458" d="M988.837,356.1a.53.53,0,0,0,.537-.46.523.523,0,0,0-.485-.563c-3.363-.314-5.081-2.727-6.9-5.28l-.049-.068a42.037,42.037,0,0,1-2.549-4.265c-1.624-2.964-3.3-6.03-6.152-8.091a13.947,13.947,0,0,0-9.4-2.108,5.56,5.56,0,0,0-3.866,2.328.494.494,0,0,0,.178.7.556.556,0,0,0,.743-.169,4.464,4.464,0,0,1,3.145-1.857,12.891,12.891,0,0,1,8.54,1.916c2.663,1.923,4.281,4.886,5.85,7.752a43.771,43.771,0,0,0,2.613,4.366l.049.068c1.881,2.638,3.826,5.362,7.691,5.726a.444.444,0,0,0,.054,0" transform="translate(-884.984 -295.726)" fill="#463b39"/>
          <path id="패스_9459" data-name="패스 9459" d="M988.14,525a.55.55,0,0,0,.359-.129.491.491,0,0,0,.042-.722c-.475-.509-.99-1-1.49-1.465-.438-.415-.852-.807-1.24-1.21a12.216,12.216,0,0,1-2.938-7.029.526.526,0,0,0-.534-.516.511.511,0,0,0-.547.509,13.2,13.2,0,0,0,3.222,7.728c.4.42.846.837,1.275,1.243.485.46.99.935,1.445,1.423a.563.563,0,0,0,.406.169" transform="translate(-887.004 -453.527)" fill="#463b39"/>
          <path id="패스_9460" data-name="패스 9460" d="M1168.53,272.3a.527.527,0,0,0,.54-.509,13.55,13.55,0,0,1,4.269-9.761.5.5,0,0,0,.008-.724.565.565,0,0,0-.767,0,14.543,14.543,0,0,0-4.588,10.483.524.524,0,0,0,.535.516Z" transform="translate(-1094.923 -230.46)" fill="#463b39"/>
          <path id="패스_9461" data-name="패스 9461" d="M1214.361,408.829a.545.545,0,0,0,.446-.223.5.5,0,0,0-.138-.713c-2.317-1.5-2.8-3.681-1.49-6.661.9-2.035,2.541-3.545,4.286-5.147a24.187,24.187,0,0,0,3.544-3.749,36.384,36.384,0,0,0,4.086-8.612c.458-1.233.928-2.511,1.45-3.733.815-1.9,2.2-4.375,4.18-5.327a.5.5,0,0,0,.237-.689.556.556,0,0,0-.728-.225c-2.281,1.1-3.811,3.789-4.692,5.857-.529,1.245-1.007,2.532-1.47,3.78a35.724,35.724,0,0,1-3.959,8.38,23.62,23.62,0,0,1-3.4,3.583,17.313,17.313,0,0,0-4.534,5.489c-1.515,3.449-.886,6.108,1.876,7.9a.586.586,0,0,0,.307.089" transform="translate(-1157.824 -329.773)" fill="#463b39"/>
          <path id="패스_9462" data-name="패스 9462" d="M1060.339,478.633a.539.539,0,0,0,.46-.249.5.5,0,0,0-.18-.7,8.834,8.834,0,0,0-7.316-.054.5.5,0,0,0-.245.687.553.553,0,0,0,.722.232,7.711,7.711,0,0,1,6.276.012.556.556,0,0,0,.282.075" transform="translate(-968.038 -420.813)" fill="#463b39"/>
          <path id="패스_9463" data-name="패스 9463" d="M1188.139,468.342a.561.561,0,0,0,.406-.171.494.494,0,0,0-.044-.722c-1.814-1.524-6.033-1.236-7.543-.506a.5.5,0,0,0-.235.689.557.557,0,0,0,.727.225c1.2-.584,4.969-.788,6.333.356a.55.55,0,0,0,.356.129" transform="translate(-1111.676 -411.537)" fill="#463b39"/>
          <path id="패스_9464" data-name="패스 9464" d="M1080.493,529.835c.077-.9-.393-1.672-1.052-1.721s-1.255.636-1.331,1.534.391,1.672,1.049,1.721,1.257-.633,1.334-1.534" transform="translate(-990.773 -466.041)" fill="#463b39" fill-rule="evenodd"/>
          <path id="패스_9465" data-name="패스 9465" d="M1212.972,521.138c.079-.9-.391-1.67-1.05-1.721s-1.257.638-1.336,1.536.393,1.67,1.051,1.721,1.255-.635,1.334-1.536" transform="translate(-1139.685 -458.365)" fill="#463b39" fill-rule="evenodd"/>
          <path id="패스_9466" data-name="패스 9466" d="M1309.3,596.567a.531.531,0,0,0,.54-.488.525.525,0,0,0-.512-.537,2.256,2.256,0,0,1-1.6-.9,7.179,7.179,0,0,1-1.428-4.91.516.516,0,0,0-.448-.589.533.533,0,0,0-.618.424,8.1,8.1,0,0,0,1.653,5.719,3.354,3.354,0,0,0,2.385,1.28l.027,0" transform="translate(-1248.286 -519.891)" fill="#463b39"/>
          <path id="패스_9467" data-name="패스 9467" d="M972.126,895.317c22.314,0,40.469-15.819,40.469-35.262s-18.154-35.278-40.469-35.278S931.66,840.6,931.66,860.055s18.152,35.262,40.466,35.262m0-69.515c21.718,0,39.387,15.365,39.387,34.253s-17.669,34.237-39.387,34.237-39.387-15.358-39.387-34.237S950.408,825.8,972.126,825.8" transform="translate(-904.7 -727.838)" fill="#463b39"/>
          <path id="패스_9468" data-name="패스 9468" d="M988.63,908.625c21.025,0,38.132-14.91,38.132-33.239s-17.107-33.236-38.132-33.236a40.894,40.894,0,0,0-26.947,9.719c-7.213,6.279-11.188,14.631-11.188,23.517,0,18.329,17.107,33.239,38.135,33.239m0-65.45c20.431,0,37.051,14.45,37.051,32.211S1009.061,907.6,988.63,907.6s-37.051-14.451-37.051-32.214c0-8.6,3.846-16.68,10.834-22.762a39.79,39.79,0,0,1,26.217-9.449" transform="translate(-921.204 -743.17)" fill="#463b39"/>
          <path id="패스_9469" data-name="패스 9469" d="M1118.213,907.139a.542.542,0,0,0,.247-.057c5-2.436,7.988-6.466,7.988-10.783,0-7.2-8.221-13.053-18.327-13.053S1089.8,889.1,1089.8,896.3c0,3.536,1.948,6.847,5.484,9.318a.561.561,0,0,0,.757-.108.5.5,0,0,0-.114-.715c-3.254-2.275-5.046-5.292-5.046-8.5,0-6.633,7.733-12.028,17.241-12.028s17.243,5.4,17.243,12.028c0,3.925-2.764,7.616-7.4,9.871a.5.5,0,0,0-.233.689.54.54,0,0,0,.48.279" transform="translate(-1038.171 -779.435)" fill="#463b39"/>
          <path id="패스_9470" data-name="패스 9470" d="M1176.6,1053.89c5.734,0,10.4-4.082,10.4-9.1s-4.667-9.1-10.4-9.1-10.4,4.082-10.4,9.1,4.668,9.1,10.4,9.1m0-17.17c5.14,0,9.319,3.622,9.319,8.073s-4.18,8.073-9.319,8.073-9.32-3.62-9.32-8.073,4.18-8.073,9.32-8.073" transform="translate(-1108.203 -913.966)" fill="#463b39"/>
          <path id="패스_9471" data-name="패스 9471" d="M1122.34,954.331a.531.531,0,0,0,.522-.382l5.5-19.847a.506.506,0,0,0-.384-.626.548.548,0,0,0-.661.366l-5.5,19.848a.511.511,0,0,0,.384.626.588.588,0,0,0,.138.016" transform="translate(-1044.07 -823.746)" fill="#463b39"/>
          <path id="패스_9472" data-name="패스 9472" d="M1321.826,940.238a.527.527,0,0,0,.539-.5l.47-21.118a.525.525,0,0,0-.529-.52.547.547,0,0,0-.552.5l-.468,21.119a.524.524,0,0,0,.529.523Z" transform="translate(-1263.274 -810.19)" fill="#463b39"/>
          <path id="패스_9473" data-name="패스 9473" d="M1105.594,698.081a.125.125,0,0,0,.03,0,.52.52,0,0,0,.51-.539c-.285-4.943-.824-14.471-.814-15.147.081-4.661-4.949-8.188-12.814-8.983-7.8-.79-14.063,1.7-15.236,6.066-.119.394-3.021,7.845-4.942,12.755a.5.5,0,0,0,.319.657.55.55,0,0,0,.7-.3c.809-2.073,4.86-12.427,4.974-12.858,1.04-3.855,6.825-6.035,14.076-5.3,7.268.736,11.918,3.857,11.849,7.951-.015.877.782,14.633.814,15.217a.53.53,0,0,0,.539.485" transform="translate(-1015.685 -594.134)" fill="#463b39"/>
          <path id="패스_9474" data-name="패스 9474" d="M603.4,933.417a.55.55,0,0,0,.386-.155.491.491,0,0,0-.007-.722c-3.757-3.5-5.915-8.31-8-12.954l-.369-.818c-2.556-5.66-8.506-23.205-9.371-25.885l-.092-.279c-1.977-6.117-3.846-11.895-8.176-16.976a23.892,23.892,0,0,0-11.168-7.6,57.21,57.21,0,0,0-6.968-1.381l-.99-.155a.536.536,0,0,0-.624.422.514.514,0,0,0,.446.589l.995.157a55.078,55.078,0,0,1,6.825,1.348,22.784,22.784,0,0,1,10.643,7.259c4.2,4.926,6.038,10.614,7.983,16.633l.092.279c.869,2.687,6.84,20.291,9.411,25.989l.369.816c2.128,4.739,4.331,9.639,8.241,13.283a.553.553,0,0,0,.379.148" transform="translate(-449.69 -764.647)" fill="#463b39"/>
          <path id="패스_9475" data-name="패스 9475" d="M243.9,1445.158a40.556,40.556,0,0,0,7.487,2.263.541.541,0,0,0,.633-.408.517.517,0,0,0-.43-.6c-5.494-.992-12.165-4.21-17.965-7.224-2.068-1.077-4.148-2.2-6.159-3.283a156.858,156.858,0,0,0-19.083-9.19.55.55,0,0,0-.7.286.5.5,0,0,0,.3.666,156.785,156.785,0,0,1,18.949,9.129c2.013,1.085,4.1,2.209,6.175,3.289a117.631,117.631,0,0,0,10.794,5.071" transform="translate(-54.326 -1258.997)" fill="#463b39"/>
          <path id="패스_9476" data-name="패스 9476" d="M219.476,1425.71c1.891,0,3.8-.1,5.677-.2.633-.033,1.262-.066,1.878-.094a179.922,179.922,0,0,0,23.324-2.549c1.683-.3,3.677-.741,5.793-1.21,5.209-1.156,11.114-2.464,15.276-2.316a.53.53,0,0,0,.559-.492.524.524,0,0,0-.52-.532c-4.31-.15-10.287,1.172-15.561,2.345-2.1.464-4.088.905-5.746,1.2a178.382,178.382,0,0,1-23.178,2.53c-.619.028-1.25.063-1.886.1-4.454.234-9.062.479-13.153-.661-2.888-.809-12.064-6.87-16.192-23.557a.544.544,0,0,0-.648-.382.514.514,0,0,0-.4.617c4.244,17.161,13.893,23.454,16.939,24.3a29.087,29.087,0,0,0,7.84.905" transform="translate(-72.667 -1235.34)" fill="#463b39"/>
          <path id="패스_9477" data-name="패스 9477" d="M803.574,1135.981c-.356,2.181-.727,4.439-1.027,6.661-.646,4.783.822,35.215,2.68,48.071h-1.089c-1.853-13.06-3.311-43.407-2.662-48.2.3-2.234.673-4.5,1.029-6.687a117.338,117.338,0,0,0,1.712-13.993,62.885,62.885,0,0,0-.53-10.741c-.094-.711-.2-1.414-.307-2.115a27.435,27.435,0,0,1-.4-8.342.533.533,0,0,1,.614-.434.516.516,0,0,1,.458.579,26.326,26.326,0,0,0,.4,8.051c.109.706.217,1.416.312,2.134a64.078,64.078,0,0,1,.535,10.907,117.5,117.5,0,0,1-1.722,14.11" transform="translate(-681.279 -970.883)" fill="#463b39"/>
          <path id="패스_9478" data-name="패스 9478" d="M1359.658,929.047a.556.556,0,0,0,.381-.15.491.491,0,0,0,0-.725c-5.42-5.137-9.691-15.053-9.933-23.062-.1-3.494.282-11.367.624-18.315.258-5.238.48-9.761.441-11.388-.176-7.118-.708-28.778,7.439-35.859,2.316-2.012,5.118-2.886,8.087-3.812.725-.225,1.455-.453,2.183-.7,2.4-.813,14.61-3.221,17.2-3.571a.515.515,0,0,0,.458-.579.535.535,0,0,0-.609-.436c-2.678.363-14.893,2.769-17.411,3.62-.718.244-1.435.469-2.153.692-2.947.919-5.994,1.869-8.481,4.03-8.508,7.4-7.968,29.4-7.79,36.638.037,1.592-.183,6.1-.438,11.315-.344,6.966-.733,14.861-.624,18.392.253,8.38,4.563,18.371,10.247,23.759a.569.569,0,0,0,.384.15" transform="translate(-1330.415 -732.841)" fill="#463b39"/>
          <path id="패스_9479" data-name="패스 9479" d="M1411.722,1407.5a.528.528,0,0,0,.542-.513c0-2.657,2.227-5.231,4.019-7.3l.374-.429c1.591-1.852,3.343-3.606,5.041-5.3l1.045-1.048c.554-.558,3.4-3.095,5.7-5.132,1.717-1.529,3.2-2.851,3.618-3.245a.492.492,0,0,0,0-.722.561.561,0,0,0-.765,0c-.4.382-1.952,1.761-3.6,3.224-2.42,2.153-5.162,4.6-5.741,5.177l-1.045,1.046c-1.708,1.712-3.474,3.48-5.093,5.36l-.369.427c-1.9,2.194-4.268,4.929-4.268,7.951a.528.528,0,0,0,.542.513" transform="translate(-1383.804 -1221.027)" fill="#463b39"/>
          <path id="패스_9480" data-name="패스 9480" d="M1246.543,1454.621a17.8,17.8,0,0,0,10.968-4.539c9.587-8.23,16.59-22.734,19.226-28.195.393-.813.7-1.44.9-1.831a.5.5,0,0,0-.242-.687.554.554,0,0,0-.725.23c-.21.4-.517,1.034-.918,1.864-2.611,5.407-9.547,19.773-18.971,27.86-4.521,3.881-10.379,5.372-13.62,3.475-.748-.438-4.732-3.015-5.618-4.692a.56.56,0,0,0-.728-.23.5.5,0,0,0-.24.687c1.136,2.157,5.967,5.079,6.016,5.107a7.793,7.793,0,0,0,3.95.952" transform="translate(-1207.62 -1252.497)" fill="#463b39"/>
          <path id="패스_9481" data-name="패스 9481" d="M916.148,259.131a.549.549,0,0,0,.458-.242.5.5,0,0,0-.17-.706c-2.735-1.618-3.593-3.8-4.682-6.567l-.369-.929c-.74-1.84-1.5-3.744-2.354-5.561-2.2-4.7-7.145-12.861-15.459-14.713-2.1-.466-4.5-.9-6.6-.105a.5.5,0,0,0-.3.666.551.551,0,0,0,.7.286c1.807-.682,4.019-.281,5.952.15,8.154,1.817,13.01,10.49,14.719,14.134.839,1.789,1.6,3.681,2.329,5.51l.366.919c1.114,2.832,2.079,5.278,5.123,7.081a.574.574,0,0,0,.287.077" transform="translate(-803.208 -202.851)" fill="#463b39"/>
          <path id="패스_9482" data-name="패스 9482" d="M869.093,504.674a.533.533,0,0,0,.53-.42.513.513,0,0,0-.436-.6,3.936,3.936,0,0,1-2.875-1.639c-1.106-1.768-.322-4.633.49-6.931.24-.687.515-1.369.777-2.026a22.84,22.84,0,0,0,1.512-4.762c.73-4.342-.732-8.68-2.022-12.509-.6-1.791-1.841-4.9-3.346-5.615a.551.551,0,0,0-.723.23.5.5,0,0,0,.24.687c.8.38,1.9,2.347,2.8,5.013,1.252,3.716,2.672,7.932,1.985,12.035a21.977,21.977,0,0,1-1.455,4.556c-.267.671-.544,1.36-.794,2.068-.881,2.5-1.722,5.651-.393,7.777a5.01,5.01,0,0,0,3.613,2.124.681.681,0,0,0,.1.007" transform="translate(-753.213 -414.867)" fill="#463b39"/>
          <path id="패스_9483" data-name="패스 9483" d="M887.754,776.528a.532.532,0,0,0,.535-.448.518.518,0,0,0-.47-.572,2.406,2.406,0,0,1-1.851-.987,3.869,3.869,0,0,1,.025-3.393,5.7,5.7,0,0,1,2.578-2.72,8.9,8.9,0,0,0,2.43-2.094c2.232-3.025,1.284-7.541-.646-10.673a.562.562,0,0,0-.74-.185.5.5,0,0,0-.193.7c1.757,2.851,2.651,6.917.693,9.571a7.937,7.937,0,0,1-2.163,1.841,6.629,6.629,0,0,0-2.98,3.212,4.738,4.738,0,0,0,.074,4.274,3.468,3.468,0,0,0,2.638,1.468.349.349,0,0,0,.069,0" transform="translate(-778.55 -666.604)" fill="#463b39"/>
          <path id="패스_9484" data-name="패스 9484" d="M1022.822,740.526a.564.564,0,0,0,.346-.12.492.492,0,0,0,.069-.72c-1.824-2.07-3.8-4.532-4.153-7.573a25.179,25.179,0,0,1,.651-6.678,35.743,35.743,0,0,0,.8-7.048.525.525,0,0,0-.539-.5h-.015a.526.526,0,0,0-.525.525,35.35,35.35,0,0,1-.787,6.851,25.763,25.763,0,0,0-.661,6.961c.389,3.322,2.472,5.932,4.4,8.115a.55.55,0,0,0,.416.185" transform="translate(-926.172 -633.512)" fill="#463b39"/>
          <path id="패스_9485" data-name="패스 9485" d="M1156.287,245.142a.672.672,0,0,0,.116-.012c3.479-.734,4.851-3.348,6.172-5.873a15.188,15.188,0,0,1,2.774-4.134c5.387-5.1,14.457-6.176,21.117-6.176a.513.513,0,1,0,0-1.025c-6.865,0-16.231,1.123-21.881,6.476a16.035,16.035,0,0,0-2.977,4.4c-1.267,2.42-2.462,4.7-5.437,5.329a.514.514,0,0,0-.411.612.534.534,0,0,0,.527.4" transform="translate(-1106.909 -201.135)" fill="#463b39"/>
          <path id="패스_9486" data-name="패스 9486" d="M1376.951,427.1a.559.559,0,0,0,.223-.045l.109-.045a18.993,18.993,0,0,0,2.811-1.287c1.371-1.039,1.213-3.027,1.136-3.981a44.916,44.916,0,0,0-1.185-6.6,38.286,38.286,0,0,1-1.217-7.423c-.228-7.205,2.672-12.214,6.2-17.555a.5.5,0,0,0-.173-.706.559.559,0,0,0-.745.164c-3.618,5.484-6.6,10.635-6.358,18.124a39.023,39.023,0,0,0,1.24,7.615,44.064,44.064,0,0,1,1.165,6.453c.094,1.189.079,2.485-.735,3.1-.047.031-.416.23-2.581,1.151l-.109.047a.5.5,0,0,0-.267.678.538.538,0,0,0,.49.3" transform="translate(-1332.381 -343.623)" fill="#463b39"/>
          <path id="패스_9487" data-name="패스 9487" d="M1409.055,723.97a.546.546,0,0,0,.483-.284.5.5,0,0,0-.24-.687c-3.2-1.517-3.566-4.865-1.087-9.956a.5.5,0,0,0-.262-.68.551.551,0,0,0-.717.251c-2.772,5.688-2.24,9.489,1.583,11.3a.582.582,0,0,0,.24.054" transform="translate(-1360.478 -628.595)" fill="#463b39"/>
          <path id="패스_9488" data-name="패스 9488" d="M285.438,264.937c0-11.332-16.207-20.516-36.2-20.516s-36.2,9.184-36.2,20.516c0,6.056,4.633,11.5,12,15.257,1.814.924-7.2,7.815-7.2,7.815s18.753-3.756,21.857-3.278a62.416,62.416,0,0,0,9.547.722c19.993,0,36.2-9.186,36.2-20.516" transform="translate(-88.398 -215.694)" fill="#fff" fill-rule="evenodd"/>
          <path id="패스_9489" data-name="패스 9489" d="M214.026,284.664a.6.6,0,0,0,.112-.012c5.189-1.039,19.193-3.65,21.656-3.271a63.289,63.289,0,0,0,9.637.727c20.258,0,36.739-9.433,36.739-21.027s-16.481-21.03-36.739-21.03-36.739,9.433-36.739,21.03c0,5.993,4.459,11.709,12.24,15.686-.025.811-3.292,3.967-7.244,6.987a.5.5,0,0,0-.151.619.55.55,0,0,0,.49.291m21.168-4.34c-3.668,0-14.511,2.014-19.156,2.91,2.467-2,6.1-5.2,5.969-6.6a.911.911,0,0,0-.522-.741c-7.444-3.8-11.715-9.194-11.715-14.806,0-11.03,16-20.005,35.66-20.005s35.66,8.975,35.66,20.005-16,20-35.66,20a61.928,61.928,0,0,1-9.463-.715,5.721,5.721,0,0,0-.772-.045" transform="translate(-84.589 -211.838)" fill="#463b39"/>
          <path id="패스_9490" data-name="패스 9490" d="M1126.148,643.911a.533.533,0,0,0,.532-.422,4.269,4.269,0,0,0-.414-2.708,5.909,5.909,0,0,0-2.593-2.61c-1.321-.675-3.294-1.017-4.494.235a6.635,6.635,0,0,0-1.668,3.074.515.515,0,0,0,.421.6.54.54,0,0,0,.639-.4,5.7,5.7,0,0,1,1.408-2.593c.78-.814,2.2-.518,3.185-.021a4.875,4.875,0,0,1,2.123,2.141,3.31,3.31,0,0,1,.329,2.094.517.517,0,0,0,.435.6.73.73,0,0,0,.1.009" transform="translate(-1041.91 -562.63)" fill="#463b39"/>
          <path id="패스_9491" data-name="패스 9491" d="M1465.378,1361.888a.528.528,0,0,0,.542-.514c0-1.522.062-3.065.121-4.556s.124-3.034.124-4.556a.542.542,0,0,0-1.083,0c0,1.5-.06,3.037-.119,4.516-.062,1.5-.124,3.053-.124,4.6a.528.528,0,0,0,.539.514" transform="translate(-1424.412 -1192.874)" fill="#463b39"/>
          <path id="패스_9492" data-name="패스 9492" d="M906.389,1353.186a.539.539,0,0,0,.509-.337.508.508,0,0,0-.326-.657l-5.14-1.745a.549.549,0,0,0-.691.31.5.5,0,0,0,.327.654l5.138,1.747a.642.642,0,0,0,.183.028" transform="translate(-795.196 -1191.698)" fill="#463b39"/>
          <path id="패스_9493" data-name="패스 9493" d="M921.488,1393.265a.567.567,0,0,0,.331-.11.492.492,0,0,0,.089-.72l-10.085-12.129a.56.56,0,0,0-.76-.085.5.5,0,0,0-.089.72l10.087,12.126a.544.544,0,0,0,.426.2" transform="translate(-811.551 -1217.901)" fill="#463b39"/>
          <path id="패스_9494" data-name="패스 9494" d="M1028.861,1410.513a.4.4,0,0,0,.074,0,.514.514,0,0,0,.461-.577l-.968-6.708a.546.546,0,0,0-.609-.439.521.521,0,0,0-.463.577l.97,6.708a.53.53,0,0,0,.534.443" transform="translate(-933.377 -1237.907)" fill="#463b39"/>
          <path id="패스_9495" data-name="패스 9495" d="M1612,838.347a.558.558,0,0,0,.312-.094.5.5,0,0,0,.129-.715l-3.3-4.41a.56.56,0,0,0-.755-.122.5.5,0,0,0-.129.715l3.3,4.41a.556.556,0,0,0,.443.216" transform="translate(-1588.564 -735.016)" fill="#463b39"/>
          <path id="패스_9496" data-name="패스 9496" d="M1658.352,843.995a.547.547,0,0,0,.438-.213.494.494,0,0,0-.124-.715l-11.344-7.719a.561.561,0,0,0-.755.117.5.5,0,0,0,.123.717l11.347,7.716a.55.55,0,0,0,.314.1" transform="translate(-1639.67 -737.081)" fill="#463b39"/>
          <path id="패스_9497" data-name="패스 9497" d="M1668.937,931.562a.539.539,0,0,0,.525-.389.516.516,0,0,0-.4-.621l-6.305-1.47a.545.545,0,0,0-.653.375.509.509,0,0,0,.4.619l6.3,1.472a.609.609,0,0,0,.131.014" transform="translate(-1652.192 -819.871)" fill="#463b39"/>
        </g>
      </g>
    </g>
    <g id="그룹_13225" data-name="그룹 13225" transform="translate(1415.829 638.667)" clip-path="url(#clip-path-4)">
      <path id="패스_9406" data-name="패스 9406" d="M558.676,11.939c-2.446-2.521-5.661-5.834-10.752-7.034a20.163,20.163,0,0,0-6.82-.335c-3.923.458-4.84,1.743-7.919,1.654a17,17,0,0,0-4.549.48,8.439,8.439,0,0,0-.916.282,12.871,12.871,0,0,0-4.269,2.672A51.463,51.463,0,0,0,511.479,25.58c-4.585,8.788-7.9,27-8.279,39.23-.255,9.807-5.143,21.029-4.251,25.742.637,3.439,7.181,1.77,7.181,1.77l87.289,4.953c.493-9.063-2.264-13.705-4.083-15.934a47.7,47.7,0,0,0-7.786-7.239c-2.1-1.516-3.961-2.565-5.93-5.076a13.861,13.861,0,0,1-2.6-4.906,12.812,12.812,0,0,1-.115-5.807c.662-3.672-.193-8.3-1.94-17.577C569.6,33.5,568.367,26.973,564.3,19.571a34.2,34.2,0,0,0-5.62-7.631" transform="translate(-434.706 -3.854)" fill="#d2926a" fill-rule="evenodd"/>
      <path id="패스_9407" data-name="패스 9407" d="M548.907,166.557a6.824,6.824,0,0,0,2.158-.9,6.92,6.92,0,0,0,2.338-2.518,19.037,19.037,0,0,1-6.114-3.3c-4.064-3.3-5.837-7.658-7.013-10.55-.658-1.618-.42-1.373-1.139-3.237-2.2-5.705-3.79-9.828-7.613-11.689a11.348,11.348,0,0,0-8.572-.18,10.926,10.926,0,0,0-4.2,3.177c-2.5,2.916-2.461,5.494-4.076,10.07a40.765,40.765,0,0,1-3.776,7.853,5.6,5.6,0,0,0-5.755.959c-2.275,2.24-.935,6.078-.06,7.433a6.543,6.543,0,0,0,1.827,1.853,5.846,5.846,0,0,0,.99.545,6.033,6.033,0,0,0,2.518.48,23.866,23.866,0,0,0,3.446,9.769c1.2,1.874,3.948,5.477,3.948,5.477s1.4,10.7-1.528,13.5c-3.057,3.057-10.19,5.732-15.539,7.9-6.75,2.8-11.591,4.585-11.591,4.585a330.16,330.16,0,0,0,35.574,2.582,330.369,330.369,0,0,0,47.726-2.582c-4.527-2.247-8.375-3.574-10.953-4.585-6.5-2.547-13.5-5.222-16.3-7.77-2.929-2.675-2.42-5.732-2.548-8.152a37.733,37.733,0,0,1,.255-6.241,23.88,23.88,0,0,0,6-14.482" transform="translate(-426.27 -116.263)" fill="#ffddc0" fill-rule="evenodd"/>
      <path id="패스_9408" data-name="패스 9408" d="M90.326,617.719l-7.092,1.987-6.971,1.488-6.136,1.88-2.208,1.153-15.636-5.775a13.578,13.578,0,0,0-2.889,1.49,14.325,14.325,0,0,0-3.042,2.837c-2.542,3-5.658,5.464-8.465,8.219L17.531,650.085a46.518,46.518,0,0,0-7.088,7.63c-2.317,3.14-4.479,6.132-5.515,10.61-.581,2.512-1.478,6.39.537,9.931a10.664,10.664,0,0,0,4.1,3.924c8.375,4.91,25.111-2.2,26.349-2.734l17.935-7.419,19.383-10.262.6,11.718a27.564,27.564,0,0,0,1.673,11.544c2.305,6.439,3.592,10.288,3.592,10.288s.26,1.041.757,3.155c.988,4.207,1.64,6.92,2.173,9.588.449,2.248,1,5.349,1.442,9.138L157,717.13a69.32,69.32,0,0,1-3.3-18.414,154.525,154.525,0,0,1,.9-19.366,106.846,106.846,0,0,1,9.221,37.852l23.468-.27a140.281,140.281,0,0,0-17.215-70.409,60.177,60.177,0,0,0-3.845-9.666c-2.832-5.633-6.387-12.7-13.847-16.484a22.989,22.989,0,0,0-5.571-1.966q-7.781-.683-16.068-1.81-3.874-.534-7.613-1.139a23.862,23.862,0,0,1-5.635,7.553c-1.883,1.679-6.546,5.838-12.659,5.624-6-.21-11.562-4.575-14.517-10.913" transform="translate(-3.677 -536.329)" fill="#ffd2d2"/>
      <path id="패스_9409" data-name="패스 9409" d="M359.887,306.066c5.214-4.038,7.382-8.055,8.409-10.872,2-5.488-.865-9.434,2.09-15.859,2.806-6.1,5.035-12.094,5.035-12.094.945-2.554,2.366-4,3.351-3.789.192.042.664.212,1.077,1.193.46-1.747.936-3.188,1.319-4.256.973-2.716,1.507-3.477,2.2-3.576a2.418,2.418,0,0,1,1.288.314,2.53,2.53,0,0,1,.951.924c-.032-.233-.343-2.832,1.439-4.2.246-.188,1.119-.857,1.858-.6,1.019.355,1.532,2.381,1.019,5.1a2.482,2.482,0,0,1,2.817-2.038c1.232.393,1.57,2.474,1.019,3.3-.156.233-.714.859-.714.859q.223,4.408.445,8.817l-1.592,9.945s1.1-2.823,2.358-2.039,1.728,4.041,2.885,6.3-.841,4.4-1.6,7.3a25.179,25.179,0,0,1-.693,2.868c-1.435,3.681-4.441,5.828-7.006,7.62a116.534,116.534,0,0,0-11.227,8.982l-5.1,5.995q-1.516-1.145-3.057-2.4a106.557,106.557,0,0,1-8.572-7.792" transform="translate(-313.617 -220.645)" fill="#ffddc0" fill-rule="evenodd"/>
      <path id="패스_9410" data-name="패스 9410" d="M799.419,411.007c-.081,0-.157,0-.228-.006a.588.588,0,1,1,.062-1.175c2.075.109,9.59-1.719,14.133-8.281,1.851-2.729,3.451-7.032,4.75-12.786a.588.588,0,1,1,1.147.259c-1.332,5.9-2.989,10.337-4.927,13.192-4.739,6.846-12.348,8.8-14.937,8.8" transform="translate(-695.956 -338.377)" fill="#56302a"/>
      <path id="패스_9411" data-name="패스 9411" d="M790.188,329.713a.587.587,0,0,1-.423-.18c-1.18-1.223-1.671-2.064-1.643-2.811a2.255,2.255,0,0,1,.988-1.584,2.907,2.907,0,0,0,1.137-1.723,9.886,9.886,0,0,0-.6-4.635.588.588,0,0,1,1.085-.456,10.953,10.953,0,0,1,.676,5.283,4.036,4.036,0,0,1-1.514,2.408c-.375.334-.587.534-.6.75-.01.258.211.806,1.314,1.951a.588.588,0,0,1-.423,1" transform="translate(-686.794 -277.085)" fill="#56302a"/>
      <path id="패스_9412" data-name="패스 9412" d="M760.555,437.714c3.439,0,6.623-.127,6.623-.127s-1.529,6.878-6.878,7.005-6.623-7.133-6.623-7.133,3.439.255,6.878.255" transform="translate(-656.779 -381.216)" fill="#fff" fill-rule="evenodd"/>
      <path id="패스_9413" data-name="패스 9413" d="M756.173,441.2c-5.661,0-7.05-7.544-7.063-7.621a.588.588,0,0,1,.143-.5.6.6,0,0,1,.48-.192c.034,0,3.458.253,6.835.253s6.568-.126,6.6-.127a.588.588,0,0,1,.6.716c-.066.3-1.695,7.329-7.438,7.465l-.153,0m-5.728-7.084c.476,1.734,2.009,5.907,5.733,5.907h.12c3.829-.091,5.547-4.1,6.1-5.8-1.17.038-3.452.1-5.834.1-2.437,0-4.9-.129-6.122-.2" transform="translate(-652.791 -377.232)" fill="#56302a"/>
      <path id="패스_9414" data-name="패스 9414" d="M851.546,249.79a.586.586,0,0,1-.295-.079,7.56,7.56,0,0,0-6.231-.22.588.588,0,0,1-.45-1.087,8.61,8.61,0,0,1,7.272.29.588.588,0,0,1-.3,1.1" transform="translate(-735.67 -215.885)" fill="#56302a"/>
      <path id="패스_9415" data-name="패스 9415" d="M512.867,533.628a.588.588,0,0,1-.217-1.135q.359-.142.72-.275a70.346,70.346,0,0,1,10.5-2.712c6.387-1.3,11.905-2.424,13.146-6.605a48.39,48.39,0,0,0,.24-10.121.588.588,0,1,1,1.172-.106c.09,1,.426,7.172-.265,10.49,0,.015-.007.03-.011.045-1.427,4.881-7.275,6.072-14.047,7.45a69.478,69.478,0,0,0-10.321,2.663c-.232.086-.465.174-.7.266a.582.582,0,0,1-.217.041m24.716-10.585h0Z" transform="translate(-446.416 -446.294)" fill="#56302a"/>
      <path id="패스_9416" data-name="패스 9416" d="M867.21,315.66a1.8,1.8,0,1,0-1.783,2.038,2.059,2.059,0,0,0,1.783-2.038" transform="translate(-752.608 -273.301)" fill="#56302a" fill-rule="evenodd"/>
      <path id="패스_9417" data-name="패스 9417" d="M669.912,411.01c-2.589,0-10.2-1.951-14.934-8.792-1.94-2.859-3.6-7.3-4.93-13.2a.588.588,0,1,1,1.147-.259c1.3,5.755,2.9,10.058,4.753,12.791,4.54,6.559,12.048,8.387,14.13,8.277A.588.588,0,0,1,670.14,411c-.071,0-.147.006-.228.006" transform="translate(-566.461 -338.38)" fill="#56302a"/>
      <path id="패스_9418" data-name="패스 9418" d="M723.558,315.66a1.8,1.8,0,1,0-1.783,2.038,2.178,2.178,0,0,0,1.783-2.038" transform="translate(-627.425 -273.301)" fill="#56302a" fill-rule="evenodd"/>
      <path id="패스_9419" data-name="패스 9419" d="M704.922,247.807a.585.585,0,0,1-.295-.079,7.553,7.553,0,0,0-6.23-.22.588.588,0,1,1-.449-1.087,8.607,8.607,0,0,1,7.272.29.588.588,0,0,1-.3,1.1" transform="translate(-607.898 -214.158)" fill="#56302a"/>
      <path id="패스_9420" data-name="패스 9420" d="M607.512,308.745a.588.588,0,0,1-.122-.013c-3.5-.737-5.668-2.727-6.437-5.914-.808-3.052.274-5.86,2.635-6.818a6.181,6.181,0,0,1,4.934.414.588.588,0,1,1-.493,1.068,5.055,5.055,0,0,0-4-.392c-1.8.728-2.592,2.964-1.937,5.439.666,2.759,2.477,4.407,5.539,5.052a.588.588,0,0,1-.12,1.164" transform="translate(-523.459 -257.646)" fill="#56302a"/>
      <path id="패스_9421" data-name="패스 9421" d="M629.507,335.656a.589.589,0,0,1-.5-.276,6.1,6.1,0,0,0-1.372-1.489.588.588,0,0,1,.684-.957,7.254,7.254,0,0,1,1.685,1.823.588.588,0,0,1-.5.9" transform="translate(-546.728 -290.034)" fill="#56302a"/>
      <path id="패스_9422" data-name="패스 9422" d="M946.979,367.769a.588.588,0,0,1-.122-1.164,6.584,6.584,0,0,0,4.474-2.808.588.588,0,0,1,.979.652,7.876,7.876,0,0,1-5.206,3.306.6.6,0,0,1-.124.013" transform="translate(-824.717 -316.797)" fill="#56302a"/>
      <path id="패스_9423" data-name="패스 9423" d="M655.717,152.458a.588.588,0,0,1-.179-1.149c.013-.006,2.969-1.258,5.725-11.565.688-2.755,3.065-7.062,6.537-7.062.056,0,.112,0,.169,0a.588.588,0,1,1-.047,1.176c-2.683-.113-4.881,3.623-5.52,6.178-2.931,10.958-6.148,12.276-6.505,12.39a.591.591,0,0,1-.179.028" transform="translate(-570.901 -115.624)" fill="#56302a"/>
      <path id="패스_9424" data-name="패스 9424" d="M819.478,161.293c-11.169,0-16.165-14.16-18.335-20.31l-.221-.625c-2.159-6.259-4.993-9.213-8.416-8.784a.588.588,0,1,1-.146-1.167c4.059-.507,7.31,2.71,9.672,9.563l.22.622c2.146,6.08,7.16,20.317,18.158,19.49a.588.588,0,1,1,.088,1.173c-.345.026-.686.039-1.02.039" transform="translate(-690.04 -113.596)" fill="#56302a"/>
      <path id="패스_9425" data-name="패스 9425" d="M830.937,94.008a.588.588,0,0,1-.588-.588c0-13.873-6.414-18.741-12.073-23.036-4.448-3.376-8.649-6.565-8.474-13.519.319-12.636-1.61-20-2.538-23.546-.2-.768-.36-1.375-.445-1.838-.821-4.435-4.424-19.535-16.3-27.636C784.34-.366,776.04,1.17,772.26,3.127a.588.588,0,1,1-.541-1.045c4.022-2.082,12.861-3.708,19.457.791,12.257,8.357,15.957,23.846,16.8,28.394.078.421.232,1.009.427,1.754.941,3.593,2.9,11.071,2.576,23.873-.16,6.351,3.625,9.225,8.009,12.552,5.877,4.461,12.538,9.517,12.538,23.973a.588.588,0,0,1-.588.588" transform="translate(-672.225 0)" fill="#56302a"/>
      <path id="패스_9426" data-name="패스 9426" d="M555.514,49.525a.589.589,0,0,1-.57-.734c2.154-8.409,6.083-20.55,15.3-28.86.341-.308.694-.626,1.021-.963,2.566-2.644,7.54-4.273,10.433-3.416a.588.588,0,0,1-.334,1.128c-2.494-.739-6.99.772-9.255,3.107-.354.365-.722.7-1.078,1.017-8.984,8.1-12.836,20.017-14.951,28.278a.589.589,0,0,1-.57.443" transform="translate(-483.58 -13.352)" fill="#56302a"/>
      <path id="패스_9427" data-name="패스 9427" d="M759.755,60.188a.588.588,0,0,1-.572-.452c-.661-2.774.3-7.217,1.71-7.923a.588.588,0,0,1,.526,1.052c-.613.306-1.725,3.94-1.092,6.6a.589.589,0,0,1-.573.725" transform="translate(-661.392 -45.098)" fill="#56302a"/>
      <path id="패스_9428" data-name="패스 9428" d="M967.787,620.311a.588.588,0,0,1-.587-.572c-.309-11.008-1.121-25.632-3.23-32.793-1.639-5.562-4.595-13.13-7.724-21.142-2.611-6.685-5.312-13.6-7.716-20.473-6.459-18.469-17.052-22.348-17.158-22.384-4.288-1.518-10.261-1.974-15.531-2.377-7.365-.562-13.725-1.048-14.921-4.152-1.145-3.121-1.133-9.752-.876-11.9a.588.588,0,1,1,1.168.14c-.24,2-.252,8.449.809,11.342.925,2.4,7.232,2.883,13.909,3.393,5.343.408,11.4.871,15.83,2.439.45.155,11.215,4.049,17.88,23.106,2.4,6.854,5.093,13.757,7.7,20.433,3.139,8.037,6.1,15.628,7.757,21.238,2.145,7.282,2.966,22.015,3.278,33.092a.588.588,0,0,1-.571.6h-.017" transform="translate(-784.205 -439.205)" fill="#56302a"/>
      <path id="패스_9429" data-name="패스 9429" d="M449.961,475.1a.588.588,0,0,1-.447-.969,84.882,84.882,0,0,1,8-8.231c1.548-1.288,3.087-2.449,4.444-3.474a45.648,45.648,0,0,0,3.9-3.142c.445-.427,1.088-.944,1.832-1.542a18.25,18.25,0,0,0,3.8-3.616,24.165,24.165,0,0,0,2.07-5.856c.09-.343.179-.687.272-1.029.1-.306.21-.592.329-.9a5.241,5.241,0,0,0,.523-1.995,10.4,10.4,0,0,0-.837-2.4c-.1-.221-.193-.441-.284-.658a13.031,13.031,0,0,1-.44-1.657,6.637,6.637,0,0,0-.967-2.677.539.539,0,0,0-.42-.184c-.1.02-.472.168-.96,1.215a6.569,6.569,0,0,0-.58,2.9c.023.238.073.544.127.868a7.391,7.391,0,0,1,.129,2.472c-.381,2.43-1.394,4.753-2.407,5.5a.729.729,0,0,1-.918.065c-.561-.411-.321-1.191.686-4.1.2-.568.395-1.143.564-1.668.219-.679.665-2.453.669-2.471a.615.615,0,0,1,.037-.1c-.024-.165-.045-.325-.059-.48a7.831,7.831,0,0,1,.687-3.476c.524-1.122,1.111-1.734,1.8-1.871a1.645,1.645,0,0,1,1.468.49.66.66,0,0,1,.047.048,7.337,7.337,0,0,1,1.252,3.224,12.358,12.358,0,0,0,.386,1.482c.078.186.172.4.266.614a11.159,11.159,0,0,1,.926,2.732,5.913,5.913,0,0,1-.595,2.568c-.112.285-.218.555-.3.8-.083.312-.172.652-.261.993a25.435,25.435,0,0,1-2.182,6.133c-.682,1.219-2.492,2.675-4.09,3.959-.692.557-1.346,1.082-1.751,1.471a46.4,46.4,0,0,1-4.011,3.235c-1.347,1.017-2.875,2.169-4.4,3.44a85.762,85.762,0,0,0-7.861,8.09.586.586,0,0,1-.448.207" transform="translate(-391.599 -379.586)" fill="#56302a"/>
      <path id="패스_9430" data-name="패스 9430" d="M523.868,272.629a.629.629,0,0,1-.422-.164c-.406-.3-.375-.485,1.064-6.907.923-4.119,2.072-9.244,2.2-11.165.011-.247.032-.521.053-.8.088-1.151.187-2.456-.346-3.241-.27-.4-.492-.4-.566-.407a1.517,1.517,0,0,0-1.026.661,11.839,11.839,0,0,0-1.72,4.675c-.1.454-.2.893-.3,1.3-.23.9-.456,1.876-.7,2.907-.26,1.123-.53,2.284-.81,3.364-.125.482-.272,1.173-.442,1.972-.706,3.323-1.367,6.157-2.308,7.178a.588.588,0,1,1-.865-.8c.8-.867,1.565-4.471,2.022-6.625.173-.813.322-1.515.453-2.022.276-1.066.544-2.219.8-3.335.24-1.037.468-2.017.7-2.932.1-.4.195-.822.292-1.263a12.655,12.655,0,0,1,1.947-5.153,2.567,2.567,0,0,1,1.991-1.106,1.869,1.869,0,0,1,1.495.921,5.018,5.018,0,0,1,.606,3.1,2.064,2.064,0,0,1,.824-.682,1.83,1.83,0,0,1,1.707.08,2.949,2.949,0,0,1,1.035,2.491c.023.223.043.451.059.657a.588.588,0,0,1-1.173.087c-.015-.2-.034-.415-.058-.658-.056-1.183-.367-1.5-.5-1.587a.725.725,0,0,0-.632.021c-.505.2-1.231,1.97-1.365,2.879,0,.016-.005.032-.009.048-.164.7-.284,1.478-.4,2.228-.12.771-.243,1.568-.417,2.315-.118.56-.231,1.112-.341,1.646-.328,1.593-.638,3.1-1.01,4.555l-.08.429c-.936,4.946-1.107,5.183-1.617,5.308a.639.639,0,0,1-.152.018" transform="translate(-450.994 -216.783)" fill="#56302a"/>
      <path id="패스_9431" data-name="패스 9431" d="M603.842,384.559a.588.588,0,0,1-.587-.567,22.862,22.862,0,0,1,.425-3.635c.231-1.439.518-3.23.706-5.171l.192-1.633a.588.588,0,0,1,1.169.137l-.19,1.621c-.191,1.966-.481,3.778-.715,5.233a22.726,22.726,0,0,0-.411,3.406.588.588,0,0,1-.566.609h-.022" transform="translate(-525.694 -325.073)" fill="#56302a"/>
      <path id="패스_9432" data-name="패스 9432" d="M471.21,300.067a.588.588,0,0,1-.366-1.049,8.237,8.237,0,0,0,2.365-4.013c.111-.585.5-1.885.992-3.531.355-1.189.759-2.537,1.1-3.768l.347-1.267a49.085,49.085,0,0,1,1.605-5.179,6.686,6.686,0,0,1,2.054-3.568,1.825,1.825,0,0,1,1.76-.242,2.143,2.143,0,0,1,1.314,1.559.588.588,0,0,1-1.151.242.97.97,0,0,0-.58-.7.658.658,0,0,0-.653.095,5.835,5.835,0,0,0-1.636,3.009,48.453,48.453,0,0,0-1.578,5.1c-.109.4-.224.821-.348,1.271-.345,1.244-.75,2.6-1.107,3.792-.463,1.549-.863,2.887-.964,3.414a9.376,9.376,0,0,1-2.79,4.714.585.585,0,0,1-.365.127" transform="translate(-410.115 -241.67)" fill="#56302a"/>
      <path id="패스_9433" data-name="패스 9433" d="M360.863,371.606a.588.588,0,0,1-.37-1.046c2.86-2.31,4.865-4.078,6.594-7.465,1.044-2.043,1.142-5.513,1.229-8.574a36.842,36.842,0,0,1,.381-5.277,30.129,30.129,0,0,1,3.013-7.732c.553-1.1,1.124-2.245,1.612-3.382.32-.768.616-1.583.9-2.372a21.922,21.922,0,0,1,2.845-5.916l.07-.1a3.146,3.146,0,0,1,1.4-1.3,1.594,1.594,0,0,1,1.436.15,1.913,1.913,0,0,1,.749,1.489.588.588,0,1,1-1.173.08.836.836,0,0,0-.237-.6.55.55,0,0,0-.436,0,2.754,2.754,0,0,0-.785.861l-.08.111a21.032,21.032,0,0,0-2.682,5.614c-.291.8-.591,1.631-.925,2.431-.5,1.174-1.083,2.331-1.643,3.449a29.222,29.222,0,0,0-2.909,7.423,36.206,36.206,0,0,0-.362,5.093c-.095,3.341-.193,6.8-1.358,9.076-1.835,3.594-3.925,5.44-6.9,7.845a.586.586,0,0,1-.369.131" transform="translate(-313.955 -286.133)" fill="#56302a"/>
      <path id="패스_9434" data-name="패스 9434" d="M482.812,544.49a.588.588,0,0,1-.473-.937c1.939-2.637,4.143-3.082,6.088-3.475a6.2,6.2,0,0,0,3.79-1.707.588.588,0,0,1,.874.788,7.3,7.3,0,0,1-4.431,2.072c-1.821.368-3.7.749-5.374,3.019a.587.587,0,0,1-.474.24" transform="translate(-420.226 -468.986)" fill="#56302a"/>
      <path id="패스_9435" data-name="패스 9435" d="M12.894,708.761a16.419,16.419,0,0,1-6.507-1.135,10.018,10.018,0,0,1-6.158-7.491c-1.273-6.56,2.807-15.393,10.912-23.63,7.341-7.459,34.2-32.459,34.471-32.711a.588.588,0,0,1,.8.861c-.27.252-27.111,25.234-34.434,32.675-7.834,7.96-11.8,16.4-10.6,22.581a8.886,8.886,0,0,0,5.472,6.636,15.238,15.238,0,0,0,6.031,1.046c18.443,0,54.245-20.342,54.65-20.574a.588.588,0,1,1,.584,1.021c-1.662.951-36.467,20.72-55.227,20.721" transform="translate(0 -560.886)" fill="#56302a"/>
      <path id="패스_9436" data-name="패스 9436" d="M175.23,792.8a.588.588,0,0,1-.322-1.081,50.074,50.074,0,0,0,11.855-11.861c5.426-7.676,27.279-33.174,27.5-33.43a.588.588,0,0,1,.893.766c-.22.256-22.036,25.712-27.432,33.344A50.287,50.287,0,0,1,175.551,792.7a.586.586,0,0,1-.321.1" transform="translate(-152.188 -650.284)" fill="#56302a"/>
      <path id="패스_9437" data-name="패스 9437" d="M526.117,957.173a.588.588,0,0,1-.583-.516c-1.32-10.692-3.451-20.275-5.847-26.289-3.664-9.2-3.7-13.125-3.775-22.613l0-.257a40.046,40.046,0,0,0-3.566-16.337.588.588,0,0,1,1.046-.538,40.548,40.548,0,0,1,3.7,16.866l0,.258c.08,9.6.109,13.195,3.692,22.187,2.432,6.1,4.59,15.792,5.921,26.58a.588.588,0,0,1-.512.656.61.61,0,0,1-.073,0" transform="translate(-446.417 -775.84)" fill="#56302a"/>
      <path id="패스_9438" data-name="패스 9438" d="M368.865,652.111c-2.679,0-7.431-3.516-9.021-4.756-1.428-1.113-8.484-6.8-7.17-9.523.422-.874,1.592-1.273,3.557-1.235a.589.589,0,0,1,.576.6.6.6,0,0,1-.6.576c-2.025-.043-2.4.426-2.473.571-.465.963,2.015,4.328,6.833,8.083,4.486,3.5,8.042,5,8.766,4.4.434-.363.706-2.445-.168-4.622a.588.588,0,1,1,1.091-.438c.948,2.362.871,5.093-.168,5.962a1.852,1.852,0,0,1-1.223.383" transform="translate(-307.191 -554.75)" fill="#56302a"/>
      <path id="패스_9439" data-name="패스 9439" d="M1165.109,1146.359a.588.588,0,0,1-.572-.453c-2.066-8.76-3.171-14.711-3.286-17.688a150.669,150.669,0,0,1,1-19.856.588.588,0,0,1,1.168.142,149.322,149.322,0,0,0-.992,19.669c.111,2.861,1.236,8.9,3.256,17.462a.589.589,0,0,1-.437.708.6.6,0,0,1-.136.016" transform="translate(-1011.904 -965.413)" fill="#56302a"/>
      <path id="패스_9440" data-name="패스 9440" d="M1126.177,1020.014a.588.588,0,0,1-.586-.54c-1.72-20.871-4.286-26.844-11.9-44.573-1.427-3.322-3.045-7.088-4.86-11.428a.588.588,0,0,1,1.085-.454c1.812,4.334,3.429,8.1,4.855,11.417,7.673,17.862,10.258,23.879,11.994,44.941a.589.589,0,0,1-.538.635l-.049,0" transform="translate(-966.231 -838.891)" fill="#56302a"/>
      <path id="패스_9441" data-name="패스 9441" d="M1045.98,720.584a.588.588,0,0,1-.586-.548c-1.069-15.49,3.4-23.712,3.592-24.054a.588.588,0,0,1,1.028.572c-.045.081-4.489,8.292-3.446,23.4a.588.588,0,0,1-.546.627h-.041" transform="translate(-910.847 -606.239)" fill="#56302a"/>
      <path id="패스_9442" data-name="패스 9442" d="M690.312,625.292a13.216,13.216,0,0,1-4.75-.852c-4.4-1.688-6.962-5.6-8.334-8.58a.588.588,0,1,1,1.069-.492c1.28,2.784,3.652,6.427,7.686,7.973,6.645,2.548,17.148-1.438,23.216-12.522a.588.588,0,0,1,1.032.564,28.423,28.423,0,0,1-11.683,11.785,18.316,18.316,0,0,1-8.235,2.124" transform="translate(-590.112 -532.021)" fill="#56302a"/>
    </g>
  </g>
</svg>
