<svg xmlns="http://www.w3.org/2000/svg" xmlns:xlink="http://www.w3.org/1999/xlink" width="98.663" height="85.092" viewBox="0 0 98.663 85.092">
  <defs>
    <clipPath id="clip-path">
      <rect id="사각형_5154" data-name="사각형 5154" width="98.663" height="85.092" fill="none"/>
    </clipPath>
  </defs>
  <g id="그룹_12908" data-name="그룹 12908" transform="translate(13.322)">
    <g id="그룹_12907" data-name="그룹 12907" transform="translate(-13.322)" clip-path="url(#clip-path)">
      <path id="패스_5254" data-name="패스 5254" d="M90.155,579.638H8.5c-4.7,0-8.5,4.318-8.5,9.639s3.807,9.631,8.5,9.633H90.155c4.7,0,8.507-4.311,8.509-9.633s-3.805-9.637-8.5-9.639Z" transform="translate(0 -514.078)" fill="#e6f6f7"/>
      <path id="패스_5255" data-name="패스 5255" d="M313.718,79.605a2.778,2.778,0,1,1-2.777-2.777,2.777,2.777,0,0,1,2.777,2.777" transform="translate(-265.083 -68.244)" fill="#b8e3e6"/>
      <path id="패스_5256" data-name="패스 5256" d="M306.5,78.5a3.336,3.336,0,1,1,3.336-3.335A3.34,3.34,0,0,1,306.5,78.5m0-5.554a2.218,2.218,0,1,0,2.219,2.218,2.221,2.221,0,0,0-2.219-2.218" transform="translate(-260.641 -63.802)" fill="#4a4a4a"/>
      <line id="선_186" data-name="선 186" y2="10.802" transform="translate(48.635 0.559)" fill="#4a4a4a"/>
      <path id="패스_5257" data-name="패스 5257" d="M353.444,11.922a.559.559,0,0,1-.559-.559V.561a.559.559,0,0,1,1.117,0v10.8a.559.559,0,0,1-.559.559" transform="translate(-304.809 -0.002)" fill="#4a4a4a"/>
      <path id="패스_5258" data-name="패스 5258" d="M397.961,104.459a2.777,2.777,0,1,1-2.777-2.777,2.777,2.777,0,0,1,2.777,2.777" transform="translate(-339.914 -90.321)" fill="#b8e3e6"/>
      <path id="패스_5259" data-name="패스 5259" d="M390.742,103.354a3.335,3.335,0,1,1,3.336-3.335,3.34,3.34,0,0,1-3.336,3.335m0-5.554a2.218,2.218,0,1,0,2.219,2.218,2.221,2.221,0,0,0-2.219-2.218" transform="translate(-335.473 -85.88)" fill="#4a4a4a"/>
      <line id="선_187" data-name="선 187" y2="10.802" transform="translate(58.047 3.336)" fill="#4a4a4a"/>
      <path id="패스_5260" data-name="패스 5260" d="M437.68,36.776a.559.559,0,0,1-.559-.559v-10.8a.559.559,0,1,1,1.117,0v10.8a.559.559,0,0,1-.559.559" transform="translate(-379.633 -22.08)" fill="#4a4a4a"/>
      <line id="선_188" data-name="선 188" x2="9.257" y2="2.665" transform="translate(48.635 0.559)" fill="#4a4a4a"/>
      <path id="패스_5261" data-name="패스 5261" d="M362.7,3.782a.555.555,0,0,1-.155-.022L353.288,1.1A.559.559,0,1,1,353.6.022l9.258,2.665a.559.559,0,0,1-.154,1.1" transform="translate(-304.807 0)" fill="#4a4a4a"/>
      <line id="선_189" data-name="선 189" x2="9.175" y2="2.66" transform="translate(48.635 4.462)" fill="#4a4a4a"/>
      <path id="패스_5262" data-name="패스 5262" d="M362.618,38.709a.558.558,0,0,1-.156-.022l-9.175-2.66a.559.559,0,1,1,.311-1.073l9.176,2.66a.559.559,0,0,1-.155,1.1" transform="translate(-304.807 -31.029)" fill="#4a4a4a"/>
      <path id="패스_5263" data-name="패스 5263" d="M102.521,224.868a3.115,3.115,0,1,1-3.114-3.116,3.114,3.114,0,0,1,3.114,3.116" transform="translate(-76.886 -196.975)" fill="#b8e3e6"/>
      <path id="패스_5264" data-name="패스 5264" d="M94.966,224.1a3.673,3.673,0,1,1,3.673-3.672,3.677,3.677,0,0,1-3.673,3.672m0-6.229a2.556,2.556,0,1,0,2.555,2.557,2.56,2.56,0,0,0-2.555-2.557" transform="translate(-72.444 -192.534)" fill="#4a4a4a"/>
      <line id="선_190" data-name="선 190" y2="12.112" transform="translate(25.636 15.78)" fill="#4a4a4a"/>
      <path id="패스_5265" data-name="패스 5265" d="M147.6,149.462a.559.559,0,0,1-.559-.559V136.791a.559.559,0,1,1,1.117,0V148.9a.559.559,0,0,1-.559.559" transform="translate(-121.968 -121.01)" fill="#4a4a4a"/>
      <line id="선_191" data-name="선 191" x2="6.28" y2="4.672" transform="translate(25.636 15.78)" fill="#4a4a4a"/>
      <path id="패스_5266" data-name="패스 5266" d="M153.883,142.021a.556.556,0,0,1-.333-.111l-6.28-4.672a.559.559,0,0,1,.667-.9l6.28,4.672a.559.559,0,0,1-.334,1.007" transform="translate(-121.967 -121.01)" fill="#4a4a4a"/>
      <line id="선_192" data-name="선 192" x2="6.085" y2="4.419" transform="translate(25.776 21.5)" fill="#4a4a4a"/>
      <path id="패스_5267" data-name="패스 5267" d="M154.939,192.956a.556.556,0,0,1-.328-.107l-6.085-4.419a.559.559,0,1,1,.656-.9l6.085,4.419a.559.559,0,0,1-.329,1.011" transform="translate(-123.079 -166.479)" fill="#4a4a4a"/>
      <path id="패스_5268" data-name="패스 5268" d="M48.3,355.268q-.111-.3-.232-.6a15.817,15.817,0,0,0-11.946-9.2,25.931,25.931,0,0,0-16.8,2.838c-6.551,3.73-11.542,13.2-5.97,19.8a12.6,12.6,0,0,0,5.178,3.571c2.679,1.01,6.043.992,8.411-.81a20.177,20.177,0,0,1,2.377-1.892,2.3,2.3,0,0,1,2.6,0A2.938,2.938,0,0,1,32.594,370c.46,1.2.1,2.514.332,3.762.469,2.548,3.435,3.916,5.8,3.665a10.122,10.122,0,0,0,5.848-3.169c4.971-4.939,6.108-12.5,3.726-18.993m-8.248,17.3a3.14,3.14,0,1,1,2.881-3.38,3.14,3.14,0,0,1-2.881,3.38" transform="translate(-1.081 -306.551)" fill="#fff"/>
      <path id="패스_5269" data-name="패스 5269" d="M33.718,373.585c-2.532,0-5.309-1.552-5.788-4.152a8.653,8.653,0,0,1-.092-1.695,5.305,5.305,0,0,0-.213-1.969,2.381,2.381,0,0,0-.543-.833c-.458-.454-1.41-.19-1.939.1a7.775,7.775,0,0,0-1.409,1.085c-.285.255-.58.519-.9.761-2.761,2.1-6.432,1.837-8.946.889a13.1,13.1,0,0,1-5.407-3.734,10.687,10.687,0,0,1-2.345-9.042,17.584,17.584,0,0,1,8.466-11.6,26.538,26.538,0,0,1,17.171-2.9,16.321,16.321,0,0,1,12.366,9.535c.083.2.164.41.24.617,2.573,7.012,1.059,14.7-3.857,19.582a10.5,10.5,0,0,1-6.183,3.329,5.951,5.951,0,0,1-.626.033m-7.35-10.007a2.073,2.073,0,0,1,1.5.566,3.506,3.506,0,0,1,.8,1.226,6.225,6.225,0,0,1,.287,2.382,7.7,7.7,0,0,0,.074,1.479c.4,2.174,3.059,3.436,5.2,3.21a9.428,9.428,0,0,0,5.513-3.01c4.607-4.577,6.018-11.8,3.6-18.4h0c-.071-.193-.146-.387-.224-.576a15.2,15.2,0,0,0-11.525-8.86,25.389,25.389,0,0,0-16.427,2.774A16.659,16.659,0,0,0,7.24,355.19a9.6,9.6,0,0,0,2.1,8.125,11.98,11.98,0,0,0,4.948,3.409,8.4,8.4,0,0,0,7.875-.732c.282-.214.547-.452.828-.7a8.738,8.738,0,0,1,1.62-1.234,3.785,3.785,0,0,1,1.759-.476m8.99,5.124a3.7,3.7,0,1,1,.3-.012c-.1.008-.2.012-.3.012m.252-.569h0Zm-.245-5.712q-.1,0-.209.008a2.574,2.574,0,1,0,.209-.008" transform="translate(3.366 -302.117)" fill="#4a4a4a"/>
      <path id="패스_5270" data-name="패스 5270" d="M54.384,429.183a5.154,5.154,0,0,0-.234,2.054,2.166,2.166,0,0,0,3.689,1.432,2.964,2.964,0,0,1,.638-.458,5.034,5.034,0,0,1,.79-.172,2.76,2.76,0,0,0,1.741-2.2,3.926,3.926,0,0,0,0-2.112,2.816,2.816,0,0,0-2.431-1.891c-1.81-.12-3.727,1.713-4.189,3.344" transform="translate(-39.426 -378.255)" fill="#e8b5ca"/>
      <path id="패스_5271" data-name="패스 5271" d="M205.315,390.837a2,2,0,0,0-2.125-1.554,3.1,3.1,0,0,0-2.5,3.527,1.633,1.633,0,0,0,1.826,1.253c.387-.1.711-.376,1.1-.463.461-.1,1.04.04,1.339-.326a2.635,2.635,0,0,0,.361-2.436" transform="translate(-169.557 -345.772)" fill="#7fd1d3"/>
      <path id="패스_5272" data-name="패스 5272" d="M135.367,394.514c-.3-3.827-5.978-1.653-5.318,1.423.348,1.621,1.673.59,2.6.85a3.815,3.815,0,0,0,.73.226,2.888,2.888,0,0,0,1.727-1.125,2.317,2.317,0,0,0,.259-1.375" transform="translate(-106.824 -348.62)" fill="#e8b5ca"/>
      <path id="패스_5273" data-name="패스 5273" d="M260.319,428.829c-1.008-1.723-2.916-1.132-4,.193a1.519,1.519,0,0,0-.29,1.572,1.978,1.978,0,0,0,1.416.89c1.121.26,2.5.677,3.053-.641a2.3,2.3,0,0,0-.174-2.015" transform="translate(-218.669 -379.969)" fill="#e8b5ca"/>
      <rect id="사각형_5149" data-name="사각형 5149" width="38.165" height="30.113" transform="translate(45.127 24.68)" fill="#fff"/>
      <path id="패스_5274" data-name="패스 5274" d="M360.207,247.116H322.043a.559.559,0,0,1-.559-.559V216.444a.559.559,0,0,1,.559-.559h38.165a.559.559,0,0,1,.559.559v30.113a.559.559,0,0,1-.559.559M322.6,246h37.047V217H322.6Z" transform="translate(-276.916 -191.764)" fill="#4a4a4a"/>
      <rect id="사각형_5150" data-name="사각형 5150" width="11.927" height="2.827" transform="translate(58.245 23.624)" fill="#4a4a4a"/>
      <rect id="사각형_5151" data-name="사각형 5151" width="39.442" height="1.681" transform="translate(44.522 53.561)" fill="#504935"/>
      <rect id="사각형_5152" data-name="사각형 5152" width="4.064" height="4.417" transform="translate(62.177 20.551)" fill="#4a4a4a"/>
      <path id="패스_5275" data-name="패스 5275" d="M366.073,482.806l-4.547,27.18h3.031l4.272-28.02Z" transform="translate(-312.484 -428.115)" fill="#4a4a4a"/>
      <path id="패스_5276" data-name="패스 5276" d="M570.854,482.806l4.547,27.18H572.37l-4.272-28.02Z" transform="translate(-495.976 -428.115)" fill="#4a4a4a"/>
      <rect id="사각형_5153" data-name="사각형 5153" width="22.739" height="1.557" transform="translate(53.105 65.327)" fill="#4a4a4a"/>
      <path id="패스_5277" data-name="패스 5277" d="M376.561,394.967l.877,2.614q3.684-1.29,7.456-2.31a1.563,1.563,0,0,1,.926-.056c.833.3.579,1.538.169,2.323l2.073-1.16c1.363-.763,2.857-1.552,4.4-1.318,1.091.165,3.645,2.724,2.439,3.807a2.022,2.022,0,0,1-1.274.365c-8.916.482-17.9.961-26.744-.253,1.243-1.652,2.821-2.049,4.657-2.691.535-.187,4.869-1.768,5.02-1.32" transform="translate(-317.244 -350.766)" fill="#7fd1d3"/>
      <path id="패스_5278" data-name="패스 5278" d="M553.218,281.206c.653-1.133-1.179-1.34-1.82-.985a1.88,1.88,0,0,0-.582.454.844.844,0,0,0-.186.694c-.041-.178-.878-.023-.989.018a2.239,2.239,0,0,0-.758.513.892.892,0,0,0-.253.637.741.741,0,0,0,.327.592,1.348,1.348,0,0,0,.542.159c-.281-.041-.235.5-.179.628a.918.918,0,0,0,.628.449,2.093,2.093,0,0,0,1.925-.324c.052.229.323.329.558.35.68.059,1.959-.4,2.148-1.159.084-.338-.2-.761-.537-.691.52-.168,1.152-.5,1.088-1.042a.823.823,0,0,0-.833-.634,2.4,2.4,0,0,0-1.079.34" transform="translate(-478.683 -248.771)" fill="#e8b5ca"/>
      <path id="패스_5279" data-name="패스 5279" d="M473.709,315.157a2.169,2.169,0,0,0-3.755.907,1.591,1.591,0,0,0-1.046.443c-.578.643.182,1.661.963,1.5a.7.7,0,0,0-.111.827,1.19,1.19,0,0,0,.69.54,4.215,4.215,0,0,1,3.612.009,1.871,1.871,0,0,0,1.262-1.28,2.055,2.055,0,0,0,1.418.121,1.371,1.371,0,0,0,1.034-.988.842.842,0,0,0-.828-1,1.455,1.455,0,0,0-1-1.958,2.312,2.312,0,0,0-2.239.881" transform="translate(-407.688 -279.116)" fill="#e8b5ca"/>
      <path id="패스_5280" data-name="패스 5280" d="M386.6,273a2.39,2.39,0,0,0,3.693-1.948,2.12,2.12,0,0,0-2.387-2.177c-1.858.021-3.379,2.131-1.9,3.656a2.772,2.772,0,0,0,.6.469" transform="translate(-333.7 -238.829)" fill="#e8b5ca"/>
      <path id="패스_5281" data-name="패스 5281" d="M383.311,261.787a.056.056,0,0,1-.037-.014,2.967,2.967,0,0,1-.6-.718.056.056,0,0,1,.1-.057,2.859,2.859,0,0,0,.578.691.056.056,0,0,1-.037.1" transform="translate(-331.261 -231.811)" fill="#e8b5ca"/>
      <path id="패스_5282" data-name="패스 5282" d="M369.152,280.14a.057.057,0,0,1-.021,0,1.6,1.6,0,0,0-.625-.117.056.056,0,1,1,0-.112,1.722,1.722,0,0,1,.669.125.056.056,0,0,1-.021.108" transform="translate(-318.634 -248.633)" fill="#e8b5ca"/>
      <path id="패스_5283" data-name="패스 5283" d="M370.1,298.68a.056.056,0,0,1-.02-.108l.47-.178a.056.056,0,1,1,.04.1l-.47.178a.054.054,0,0,1-.02,0" transform="translate(-320.053 -265.05)" fill="#e8b5ca"/>
      <path id="패스_5284" data-name="패스 5284" d="M380.016,314.166a.055.055,0,0,1-.029-.008.056.056,0,0,1-.019-.077,1.544,1.544,0,0,1,.376-.42.056.056,0,1,1,.068.089,1.433,1.433,0,0,0-.349.39.056.056,0,0,1-.048.027" transform="translate(-328.859 -278.604)" fill="#e8b5ca"/>
      <path id="패스_5285" data-name="패스 5285" d="M399.55,321.65a.056.056,0,0,1-.056-.055,1.2,1.2,0,0,1,.128-.554.056.056,0,0,1,.1.05,1.092,1.092,0,0,0-.116.5.056.056,0,0,1-.055.057Z" transform="translate(-346.21 -285.142)" fill="#e8b5ca"/>
      <path id="패스_5286" data-name="패스 5286" d="M422.063,317.131a.056.056,0,0,1-.053-.038,3.417,3.417,0,0,0-.357-.75.056.056,0,1,1,.094-.06,3.529,3.529,0,0,1,.369.774.056.056,0,0,1-.053.074" transform="translate(-365.885 -280.921)" fill="#e8b5ca"/>
      <path id="패스_5287" data-name="패스 5287" d="M407.347,255.979h-.01a.056.056,0,0,1-.045-.065l.122-.705a.056.056,0,0,1,.065-.046.056.056,0,0,1,.045.065l-.122.705a.056.056,0,0,1-.055.046" transform="translate(-353.136 -226.652)" fill="#e8b5ca"/>
      <path id="패스_5288" data-name="패스 5288" d="M425.387,262.579a.056.056,0,0,1-.034-.1,1.3,1.3,0,0,0,.344-.392.056.056,0,0,1,.1.055,1.4,1.4,0,0,1-.374.426.055.055,0,0,1-.034.011" transform="translate(-369.161 -232.778)" fill="#e8b5ca"/>
      <path id="패스_5289" data-name="패스 5289" d="M436.439,282.672h-.53a.056.056,0,1,1,0-.112h.53a.056.056,0,0,1,0,.112" transform="translate(-378.507 -250.989)" fill="#e8b5ca"/>
      <path id="패스_5290" data-name="패스 5290" d="M437.961,298.115a.055.055,0,0,1-.038-.015.626.626,0,0,0-.432-.162.055.055,0,0,1-.057-.055.056.056,0,0,1,.055-.057.745.745,0,0,1,.51.191.056.056,0,0,1-.038.1" transform="translate(-379.911 -264.549)" fill="#e8b5ca"/>
      <path id="패스_5291" data-name="패스 5291" d="M434.692,308.634a.056.056,0,0,1-.025-.006l-.353-.177a.056.056,0,0,1,.05-.1l.353.177a.056.056,0,0,1-.025.106" transform="translate(-377.113 -273.893)" fill="#e8b5ca"/>
    </g>
  </g>
</svg>
