<svg id="그룹_12906" data-name="그룹 12906" xmlns="http://www.w3.org/2000/svg" xmlns:xlink="http://www.w3.org/1999/xlink" width="120.297" height="87.545" viewBox="0 0 120.297 87.545">
  <defs>
    <clipPath id="clip-path">
      <rect id="사각형_5148" data-name="사각형 5148" width="120.297" height="87.545" fill="none"/>
    </clipPath>
  </defs>
  <g id="그룹_12905" data-name="그룹 12905" clip-path="url(#clip-path)">
    <path id="패스_5188" data-name="패스 5188" d="M103.483,606.244H12.96c-5.208,0-9.428,4.495-9.426,10.036s4.221,10.027,9.426,10.029h90.522c5.208,0,9.431-4.488,9.433-10.029s-4.219-10.034-9.426-10.036Z" transform="translate(3.392 -539.281)" fill="#e6f6f7"/>
    <path id="패스_5189" data-name="패스 5189" d="M744.18,209.665h-.01a.143.143,0,0,1-.126-.1,28.832,28.832,0,0,1-.822-3.1c-.389-1.767-.6-2.74-1.832-3.175a6.463,6.463,0,0,1-3.551-2.917,9.7,9.7,0,0,1-1.142-4.889c0-3.805,1.081-5.876,3.989-7.639,3-1.816,5.6-1.857,11.9-1.957,1.934-.03,4.127-.065,6.807-.155,2.923-.1,6.235-.21,9.166.928a9.934,9.934,0,0,1,5.972,6.112,7.975,7.975,0,0,1-2.026,8.074,11.072,11.072,0,0,1-8.818,3.115c-2.362-.111-4.962-.073-7.477-.035-1.238.018-2.408.036-3.536.036-5.529,0-7.375,3.658-8.367,5.624a.143.143,0,0,1-.128.079m-3.418-21.7.074.122c-2.807,1.7-3.851,3.707-3.851,7.394,0,3.888,1.557,6.494,4.5,7.536,1.379.488,1.619,1.578,2.016,3.384.167.758.37,1.684.706,2.744,1.006-1.964,3.058-5.472,8.466-5.472,1.126,0,2.295-.017,3.532-.035,2.519-.037,5.124-.076,7.495.036a10.813,10.813,0,0,0,8.609-3.038,7.683,7.683,0,0,0,1.948-7.779,9.645,9.645,0,0,0-5.8-5.93c-2.877-1.116-6.158-1.006-9.053-.908-2.683.09-4.877.125-6.812.155-6.243.1-8.827.139-11.756,1.915Z" transform="translate(-654.87 -165.052)" fill="#4a4a4a"/>
    <path id="패스_5190" data-name="패스 5190" d="M741.959,207.72l-.036,0a.417.417,0,0,1-.363-.286,29,29,0,0,1-.829-3.129c-.38-1.726-.57-2.591-1.654-2.974a6.733,6.733,0,0,1-3.7-3.04,9.967,9.967,0,0,1-1.179-5.027c0-3.919,1.117-6.054,4.123-7.877,3.059-1.855,5.688-1.9,12.039-2,1.933-.03,4.122-.065,6.8-.155,2.949-.1,6.291-.212,9.276.946a10.212,10.212,0,0,1,6.136,6.288,8.258,8.258,0,0,1-2.1,8.359,11.328,11.328,0,0,1-9.021,3.189c-2.353-.111-4.948-.072-7.458-.035-1.246.018-2.414.036-3.542.036-5.359,0-7.154,3.559-8.119,5.471a.419.419,0,0,1-.376.231m-3.2-21.617,0,0c-2.71,1.643-3.718,3.583-3.718,7.157,0,3.76,1.493,6.275,4.317,7.274,1.524.539,1.791,1.751,2.195,3.585.129.587.284,1.288.506,2.073a9.015,9.015,0,0,1,8.395-5.018c1.122,0,2.287-.017,3.52-.035,2.532-.037,5.141-.076,7.52.036a10.557,10.557,0,0,0,8.406-2.964,7.4,7.4,0,0,0,1.872-7.493,9.365,9.365,0,0,0-5.637-5.754c-2.825-1.1-6.075-.986-8.943-.89-2.682.09-4.876.125-6.811.155-6.193.1-8.756.138-11.619,1.873" transform="translate(-652.649 -162.829)" fill="#4a4a4a"/>
    <path id="패스_5191" data-name="패스 5191" d="M953.08,255.489H946.71a.143.143,0,1,1,0-.287h6.369a.143.143,0,1,1,0,.287" transform="translate(-841.429 -226.856)" fill="#4a4a4a"/>
    <path id="패스_5192" data-name="패스 5192" d="M950.857,253.543h-6.369a.421.421,0,0,1,0-.842h6.369a.421.421,0,1,1,0,.842" transform="translate(-839.206 -224.633)" fill="#4a4a4a"/>
    <path id="패스_5193" data-name="패스 5193" d="M901.713,285.246H891.522a.143.143,0,1,1,0-.287h10.191a.143.143,0,1,1,0,.287" transform="translate(-792.371 -253.308)" fill="#4a4a4a"/>
    <path id="패스_5194" data-name="패스 5194" d="M899.491,283.3H889.3a.421.421,0,0,1,0-.842h10.191a.421.421,0,1,1,0,.842" transform="translate(-790.148 -251.085)" fill="#4a4a4a"/>
    <path id="패스_5195" data-name="패스 5195" d="M830.786,255.489H820.344a.143.143,0,1,1,0-.287h10.442a.143.143,0,1,1,0,.287" transform="translate(-729.099 -226.856)" fill="#4a4a4a"/>
    <path id="패스_5196" data-name="패스 5196" d="M828.564,253.543H818.122a.421.421,0,1,1,0-.842h10.442a.421.421,0,1,1,0,.842" transform="translate(-726.876 -224.633)" fill="#4a4a4a"/>
    <path id="패스_5197" data-name="패스 5197" d="M823.664,285.246h-4.331a.143.143,0,1,1,0-.287h4.331a.143.143,0,1,1,0,.287" transform="translate(-728.2 -253.308)" fill="#4a4a4a"/>
    <path id="패스_5198" data-name="패스 5198" d="M821.442,283.3h-4.331a.421.421,0,0,1,0-.842h4.331a.421.421,0,0,1,0,.842" transform="translate(-725.978 -251.085)" fill="#4a4a4a"/>
    <path id="패스_5199" data-name="패스 5199" d="M33.2,26.49a.144.144,0,0,1-.128-.079c-.992-1.965-2.837-5.624-8.367-5.624-1.128,0-2.3-.017-3.536-.036-2.515-.037-5.115-.076-7.477.035a11.071,11.071,0,0,1-8.818-3.115A7.975,7.975,0,0,1,2.853,9.6,9.934,9.934,0,0,1,8.824,3.486c2.931-1.137,6.244-1.026,9.166-.928,2.68.09,4.873.125,6.807.155,6.3.1,8.9.14,11.9,1.957,2.908,1.764,3.989,3.834,3.989,7.639A9.7,9.7,0,0,1,39.545,17.2a6.462,6.462,0,0,1-3.551,2.917c-1.229.435-1.443,1.408-1.832,3.175a28.818,28.818,0,0,1-.821,3.1.143.143,0,0,1-.126.1H33.2M17.34,20.427c1.274,0,2.567.019,3.838.038,1.237.018,2.406.036,3.532.036,5.408,0,7.46,3.508,8.466,5.472.336-1.06.54-1.986.706-2.744.4-1.806.637-2.9,2.016-3.384,2.945-1.042,4.5-3.647,4.5-7.536,0-3.688-1.044-5.692-3.851-7.394C33.62,3.139,31.036,3.1,24.793,3c-1.936-.03-4.129-.065-6.812-.155-2.9-.1-6.176-.208-9.053.908a9.645,9.645,0,0,0-5.8,5.93,7.683,7.683,0,0,0,1.948,7.779A10.813,10.813,0,0,0,13.683,20.5c1.174-.055,2.406-.074,3.657-.074" transform="translate(-2.218 -2.223)" fill="#4a4a4a"/>
    <path id="패스_5200" data-name="패스 5200" d="M30.987,24.546a.419.419,0,0,1-.376-.231c-.965-1.912-2.76-5.471-8.119-5.471-1.131,0-2.3-.017-3.54-.036-2.51-.037-5.106-.075-7.46.035a11.327,11.327,0,0,1-9.021-3.189A8.258,8.258,0,0,1,.37,7.294,10.213,10.213,0,0,1,6.506,1.005C9.49-.152,12.831-.04,15.78.059c2.684.09,4.873.125,6.8.155,6.352.1,8.98.141,12.04,2,3.006,1.823,4.123,3.957,4.123,7.877a9.966,9.966,0,0,1-1.179,5.028,6.732,6.732,0,0,1-3.7,3.04c-1.083.383-1.274,1.249-1.653,2.973a29.116,29.116,0,0,1-.829,3.13.42.42,0,0,1-.369.286ZM15.122,17.927c1.272,0,2.572.019,3.829.038H19c1.225.018,2.382.035,3.5.035a9.015,9.015,0,0,1,8.4,5.018c.223-.785.377-1.485.506-2.072.4-1.835.671-3.047,2.195-3.586,2.824-1,4.317-3.514,4.317-7.274,0-3.573-1.008-5.513-3.717-7.157-2.865-1.737-5.427-1.777-11.616-1.875C20.636,1.026,18.443.991,15.754.9,12.884.8,9.633.7,6.811,1.79A9.365,9.365,0,0,0,1.174,7.544a7.4,7.4,0,0,0,1.872,7.493A10.558,10.558,0,0,0,11.453,18c1.058-.05,2.258-.074,3.669-.074" transform="translate(0 -0.001)" fill="#4a4a4a"/>
    <path id="패스_5201" data-name="패스 5201" d="M190.16,100.866h-8.107a.143.143,0,0,1,0-.287h8.107a.143.143,0,1,1,0,.287" transform="translate(-161.705 -89.407)" fill="#4a4a4a"/>
    <path id="패스_5202" data-name="패스 5202" d="M187.938,98.92h-8.107a.421.421,0,1,1,0-.842h8.107a.421.421,0,1,1,0,.842" transform="translate(-159.482 -87.184)" fill="#4a4a4a"/>
    <path id="패스_5203" data-name="패스 5203" d="M81.792,71.107H66.01a.143.143,0,0,1,0-.287H81.792a.143.143,0,1,1,0,.287" transform="translate(-58.551 -62.954)" fill="#4a4a4a"/>
    <path id="패스_5204" data-name="패스 5204" d="M79.569,69.162H63.788a.421.421,0,0,1,0-.842H79.569a.421.421,0,0,1,0,.842" transform="translate(-56.329 -60.731)" fill="#4a4a4a"/>
    <path id="패스_5205" data-name="패스 5205" d="M75.1,100.866H65a.143.143,0,1,1,0-.287H75.1a.143.143,0,1,1,0,.287" transform="translate(-57.651 -89.407)" fill="#4a4a4a"/>
    <path id="패스_5206" data-name="패스 5206" d="M72.88,98.92h-10.1a.421.421,0,1,1,0-.842h10.1a.421.421,0,1,1,0,.842" transform="translate(-55.428 -87.184)" fill="#4a4a4a"/>
    <path id="패스_5207" data-name="패스 5207" d="M425.754,619.739h24.941c-.923-5.522-1.76-11.024-2.24-16.333-7.526.593-14.91,1.238-21.819-.792.056,5.632-.434,11.375-.882,17.125" transform="translate(-378.464 -535.68)" fill="#b8e3e6"/>
    <path id="패스_5208" data-name="패스 5208" d="M123.093,328.2a1.437,1.437,0,0,1-.447-.071c-.552-.18-.972-1.242-1.553-2.713-.836-2.117-1.982-5.015-3.993-5.857-.687-.288-1.658-.586-2.6-.874-.732-.225-1.423-.437-1.966-.638-.034-.013-3.394-1.271-3.32-2.225a.263.263,0,0,1,.121-.206.576.576,0,0,1,.372-.052c-.1-.063-.188-.127-.275-.193-.678-.514-.95-.849-.908-1.12a.382.382,0,0,1,.287-.3,1.14,1.14,0,0,1,.588.045,5.509,5.509,0,0,1-.893-.782.793.793,0,0,1-.069-.9.517.517,0,0,1,.791-.112l.045.029a17.27,17.27,0,0,0,2.57,1.293,5.535,5.535,0,0,1-2.08-1.648.359.359,0,0,1,0-.336.758.758,0,0,1,.462-.38,1.844,1.844,0,0,1,1.262.4,4.385,4.385,0,0,0,.4.217,25.048,25.048,0,0,0,4.816,1.635.449.449,0,0,0,.331-.066c.012-.012.012-.018.009-.028s-.048-.054-.069-.07c-.112-.088-.227-.175-.342-.262A4.562,4.562,0,0,1,115,311.216a.673.673,0,0,1,.138-.846c.609-.456,1.151-.068,1.972.519a14.159,14.159,0,0,0,1.994,1.242,4.651,4.651,0,0,1,1.875,2.334c.071.147.137.286.2.4.095.179.193.358.294.541a16.913,16.913,0,0,1,1.291,2.8,30.934,30.934,0,0,0,2.673,5.481c.586.873.147,2.441-.617,3.452a2.273,2.273,0,0,1-1.726,1.057m-.358-.344c.859.279,1.584-.527,1.855-.886.789-1.044,1.061-2.444.607-3.119a31.3,31.3,0,0,1-2.705-5.547,16.66,16.66,0,0,0-1.271-2.757c-.1-.185-.2-.365-.3-.545-.064-.122-.132-.263-.2-.413a4.427,4.427,0,0,0-1.745-2.2,14.412,14.412,0,0,1-2.032-1.265c-.849-.607-1.21-.841-1.634-.523-.177.133-.092.4-.047.5a4.349,4.349,0,0,0,1.544,1.653c.116.088.232.176.346.265a.415.415,0,0,1,.172.238.309.309,0,0,1-.085.286.714.714,0,0,1-.588.147,25.359,25.359,0,0,1-4.881-1.655,4.634,4.634,0,0,1-.425-.232c-.354-.208-.756-.444-1.044-.369a.477.477,0,0,0-.287.247c0,.006-.005.031.015.078.261.6,2.546,2.021,4.013,2.363a.143.143,0,0,1-.055.281,13.584,13.584,0,0,1-4.858-1.929l-.057-.037c-.157-.1-.254-.154-.4.045a.514.514,0,0,0,.051.537,6.857,6.857,0,0,0,2.291,1.547q.339.135.724.293c.33.135.648.264.941.379l.407.156a.143.143,0,0,1-.1.268c-.13-.048-.267-.1-.41-.156l-.033-.013c-.553-.21-1.113-.423-1.652-.667a6.387,6.387,0,0,0-1.98-.606c-.035.012-.094.038-.1.072-.008.051.026.262.8.847a7.68,7.68,0,0,0,1.85.959l.427.154a13.174,13.174,0,0,0,1.3.371.143.143,0,0,1-.049.282,7.642,7.642,0,0,1-1.394-.4q-.168-.058-.337-.121l-.11-.04a5.924,5.924,0,0,0-1.8-.5c-.013.453,1.6,1.358,3.134,1.926.535.2,1.222.41,1.95.633.946.29,1.923.591,2.624.884,2.123.889,3.294,3.852,4.149,6.017.489,1.238.951,2.408,1.375,2.546" transform="translate(-96.299 -275.718)" fill="#4a4a4a"/>
    <path id="패스_5209" data-name="패스 5209" d="M120.881,326.22a1.724,1.724,0,0,1-.533-.085c-.676-.22-1.093-1.276-1.725-2.875-.818-2.071-1.939-4.907-3.842-5.7-.675-.282-1.639-.579-2.571-.865l-.014,0c-.73-.224-1.42-.436-1.967-.639-.842-.313-3.584-1.42-3.5-2.507a.544.544,0,0,1,.154-.342c-.56-.444-.906-.835-.841-1.25a.631.631,0,0,1,.376-.479q-.171-.158-.324-.326a1.07,1.07,0,0,1-.085-1.256.782.782,0,0,1,1.166-.176l.034.022.136.081a.937.937,0,0,1-.043-.086.632.632,0,0,1,.014-.585,1.038,1.038,0,0,1,.631-.51,2.057,2.057,0,0,1,1.474.428c.14.082.268.157.37.2a27.371,27.371,0,0,0,4.225,1.5,4.287,4.287,0,0,1-1.483-1.7.945.945,0,0,1,.228-1.175c.772-.579,1.447-.1,2.3.515a13.953,13.953,0,0,0,1.957,1.22,4.87,4.87,0,0,1,2,2.462c.066.137.134.279.194.393.091.173.186.346.283.523l.008.015a17.144,17.144,0,0,1,1.31,2.843,30.6,30.6,0,0,0,2.641,5.417c.68,1.013.185,2.7-.625,3.774a2.546,2.546,0,0,1-1.947,1.168m-12.865-12.208a11.821,11.821,0,0,0,2.506,1.247c.528.2,1.212.406,1.935.628.951.292,1.935.594,2.649.893,2.231.934,3.427,3.961,4.3,6.171.36.91.9,2.286,1.2,2.383h0c.689.224,1.312-.478,1.548-.79.711-.941.985-2.222.6-2.8a31.68,31.68,0,0,1-2.737-5.61,16.434,16.434,0,0,0-1.252-2.714c-.1-.187-.2-.368-.3-.55-.069-.13-.14-.278-.209-.422a4.218,4.218,0,0,0-1.619-2.073,14.653,14.653,0,0,1-2.069-1.288c-.883-.632-1.066-.706-1.305-.527a.493.493,0,0,0,.043.174,4.147,4.147,0,0,0,1.455,1.539c.121.092.237.179.35.268a.686.686,0,0,1,.273.4.587.587,0,0,1-.159.537.985.985,0,0,1-.837.225,25.647,25.647,0,0,1-4.944-1.675,4.847,4.847,0,0,1-.451-.245c-.262-.154-.657-.386-.834-.34a.1.1,0,0,0-.042.022A9.218,9.218,0,0,0,111.9,311.6a.421.421,0,0,1-.159.826,13.84,13.84,0,0,1-4.959-1.965l-.068-.044-.023-.015a.283.283,0,0,0,.029.178,6.516,6.516,0,0,0,2.195,1.478q.337.134.72.291c.329.134.646.263.937.378l.406.155a.421.421,0,0,1-.3.788c-.132-.049-.27-.1-.415-.158l-.023-.009.086-.265-.1.26c-.547-.208-1.113-.423-1.657-.669-.736-.293-1.176-.446-1.441-.523.1.094.242.212.436.359a7.368,7.368,0,0,0,1.78.921l.421.151a12.814,12.814,0,0,0,1.273.362.421.421,0,0,1-.143.829,7.827,7.827,0,0,1-1.455-.413c-.112-.039-.227-.08-.341-.123l-.108-.039c-.231-.084-.628-.228-.977-.339m1.633-2.731.11.042-.1-.056Zm-1.6-1.717h0" transform="translate(-94.087 -273.461)" fill="#4a4a4a"/>
    <path id="패스_5210" data-name="패스 5210" d="M560.9,102.783c-.464,1.336-.713,3.35,0,4.6,1.347,2.376,3.009,2.659,3.53,7.377.584,5.289-3.691,5.784-6.716,6.057a10.226,10.226,0,0,1-2.7-.005,4.779,4.779,0,0,1-3.3-2.229,5.4,5.4,0,0,1-.411-3.806c.652-3.092,2.892-5.866,3.009-9.01.066-1.777-.51-3.744.623-5.208a3.64,3.64,0,0,1,4.055-1c1.385.563,2.3,2.094,1.911,3.223" transform="translate(-489.923 -88.285)" fill="#4a4a4a"/>
    <path id="패스_5211" data-name="패스 5211" d="M553.963,118.934a6.871,6.871,0,0,1-1.21-.1,5.088,5.088,0,0,1-3.492-2.365,5.66,5.66,0,0,1-.441-4,19.51,19.51,0,0,1,1.448-3.93,13.674,13.674,0,0,0,1.555-5.034c.017-.472-.013-.972-.042-1.456-.081-1.359-.166-2.764.722-3.911a3.9,3.9,0,0,1,4.379-1.083c1.544.628,2.511,2.3,2.068,3.571a5.928,5.928,0,0,0-.025,4.371,11.535,11.535,0,0,0,1.224,1.7,9.123,9.123,0,0,1,2.341,5.782,5.438,5.438,0,0,1-.954,4.172c-1.455,1.78-4.2,2.028-6.014,2.192-.544.049-1.058.09-1.56.09m1.518-21.588a3.254,3.254,0,0,0-2.539,1.132c-.76.982-.686,2.224-.607,3.538.03.5.061,1.012.042,1.51a14.288,14.288,0,0,1-1.6,5.242,19.107,19.107,0,0,0-1.41,3.815,5.221,5.221,0,0,0,.381,3.612,4.52,4.52,0,0,0,3.106,2.093,9.93,9.93,0,0,0,2.623,0c1.723-.156,4.326-.391,5.634-1.99a4.849,4.849,0,0,0,.832-3.76,8.656,8.656,0,0,0-2.218-5.49,12,12,0,0,1-1.278-1.78c-.725-1.278-.531-3.345-.016-4.827.338-.974-.514-2.371-1.753-2.875a3.172,3.172,0,0,0-1.192-.224" transform="translate(-487.713 -86.037)" fill="#4a4a4a"/>
    <path id="패스_5212" data-name="패스 5212" d="M584.409,15.179a1.878,1.878,0,0,1-1.431-1.085,6.344,6.344,0,0,1-.994-3.56A4.288,4.288,0,0,1,583.625,7.3a5.346,5.346,0,0,1,3.669-.856,4,4,0,0,1,3,2.7,4.857,4.857,0,0,1-.606,4.059,6.218,6.218,0,0,1-3.347,2.467c-.791.251-1.625.364-1.93-.492" transform="translate(-517.335 -5.675)" fill="#4a4a4a"/>
    <path id="패스_5213" data-name="패스 5213" d="M583.178,13.911A1.215,1.215,0,0,1,582,13.226a2.212,2.212,0,0,1-1.478-1.2A6.582,6.582,0,0,1,579.484,8.3a4.553,4.553,0,0,1,1.755-3.447,5.619,5.619,0,0,1,3.881-.906,4.3,4.3,0,0,1,3.214,2.892,5.116,5.116,0,0,1-.637,4.3,6.464,6.464,0,0,1-3.5,2.581,3.45,3.45,0,0,1-1.022.193m1.212-9.467a5.144,5.144,0,0,0-1.153.141,4.53,4.53,0,0,0-1.67.719,3.993,3.993,0,0,0-1.529,3.027,6.108,6.108,0,0,0,.954,3.4c.383.631.785.951,1.194.951h.2l.066.184c.137.385.425.69,1.585.321a5.906,5.906,0,0,0,3.2-2.354,4.555,4.555,0,0,0,.575-3.823A3.727,3.727,0,0,0,585.023,4.5a3.637,3.637,0,0,0-.633-.053" transform="translate(-515.113 -3.457)" fill="#4a4a4a"/>
    <path id="패스_5214" data-name="패스 5214" d="M436.033,88.432a31.353,31.353,0,0,1,.022,5.232,10.5,10.5,0,0,1-1.68,4.9c-.529.758-1.189,1.419-1.691,2.194a5.823,5.823,0,0,0-.963,3.469,4.717,4.717,0,0,0,1.516,3.229,6.917,6.917,0,0,0,2.685,1.334,9.484,9.484,0,0,0,4.306.4,4.9,4.9,0,0,0,3.5-2.347,7.413,7.413,0,0,0,.669-2.62,29.392,29.392,0,0,0,.018-8.852A13.063,13.063,0,0,0,440.3,87.7a3.335,3.335,0,0,0-2.367-.981c-.874.087-1.939.994-1.9,1.711" transform="translate(-383.761 -77.08)" fill="#4a4a4a"/>
    <path id="패스_5215" data-name="패스 5215" d="M436.8,107.355a11.256,11.256,0,0,1-3.176-.516,7.248,7.248,0,0,1-2.791-1.393,4.976,4.976,0,0,1-1.609-3.421,6.1,6.1,0,0,1,1.007-3.636,13.41,13.41,0,0,1,.932-1.224c.26-.316.529-.642.764-.978a10.151,10.151,0,0,0,1.632-4.775,31.264,31.264,0,0,0-.023-5.186c-.055-.916,1.162-1.906,2.145-2a3.505,3.505,0,0,1,2.574,1.045,13.329,13.329,0,0,1,4.215,7.838,29.8,29.8,0,0,1-.016,8.936,7.636,7.636,0,0,1-.7,2.717,5.155,5.155,0,0,1-3.7,2.49,7.21,7.21,0,0,1-1.257.107m-.889-22.589q-.087,0-.173.009c-.74.074-1.678.882-1.646,1.418a31.672,31.672,0,0,1,.021,5.279,10.7,10.7,0,0,1-1.729,5.033c-.247.355-.524.69-.791,1.014a13,13,0,0,0-.895,1.172,5.546,5.546,0,0,0-.918,3.3,4.416,4.416,0,0,0,1.423,3.038,6.74,6.74,0,0,0,2.579,1.276,9.14,9.14,0,0,0,4.179.4,4.6,4.6,0,0,0,3.305-2.2,7.191,7.191,0,0,0,.638-2.523,29.3,29.3,0,0,0,.021-8.768,12.777,12.777,0,0,0-4.027-7.514,3.2,3.2,0,0,0-1.987-.925" transform="translate(-381.54 -74.857)" fill="#4a4a4a"/>
    <path id="패스_5216" data-name="패스 5216" d="M483.973,235.4c.308,1.676.973,4.307.274,6.241-.564,1.562-4.154,1.772-4.154,1.772s1.295,5.9,5.153,6.724c6.664,1.43,8.446-6.5,8.446-6.5a5.679,5.679,0,0,1-3.25-1.342c-.82-.948-.191-2.948-.091-5.059a.478.478,0,0,0-.05-.3.509.509,0,0,0-.215-.152c-2.275-1.076-3.323-1.078-6.112-1.387" transform="translate(-426.768 -209.257)" fill="#fff"/>
    <path id="패스_5217" data-name="패스 5217" d="M485.641,249.309a7.488,7.488,0,0,1-1.573-.174c-3.9-.837-5.209-6.589-5.262-6.833a.143.143,0,0,1,.132-.174c.035,0,3.5-.222,4.028-1.678.6-1.66.164-3.885-.154-5.51-.045-.231-.088-.451-.126-.656a.143.143,0,0,1,.036-.124.145.145,0,0,1,.121-.045c.322.036.621.067.9.1a13.328,13.328,0,0,1,5.256,1.3.635.635,0,0,1,.272.2.609.609,0,0,1,.075.383c-.029.62-.1,1.222-.174,1.8-.166,1.359-.309,2.532.23,3.155a5.57,5.57,0,0,0,3.154,1.294.143.143,0,0,1,.128.174,11.868,11.868,0,0,1-1.747,3.837,6.41,6.41,0,0,1-5.3,2.945m-6.516-6.908c.243.944,1.634,5.73,5,6.453a5.986,5.986,0,0,0,6.57-2.65,11.865,11.865,0,0,0,1.666-3.585,5.47,5.47,0,0,1-3.179-1.373c-.622-.72-.472-1.951-.3-3.378.07-.576.143-1.173.172-1.782a.371.371,0,0,0-.026-.209.418.418,0,0,0-.157-.1,13.109,13.109,0,0,0-5.163-1.277l-.711-.076c.028.148.059.3.09.463.325,1.658.769,3.928.143,5.663-.523,1.449-3.369,1.789-4.11,1.853" transform="translate(-425.62 -208.111)" fill="#4a4a4a"/>
    <path id="패스_5218" data-name="패스 5218" d="M483.419,247.365a7.8,7.8,0,0,1-1.631-.18c-4.075-.874-5.42-6.793-5.475-7.045a.421.421,0,0,1,.387-.511c.922-.056,3.4-.433,3.783-1.495.574-1.588.146-3.769-.166-5.362-.046-.237-.089-.456-.126-.66a.421.421,0,0,1,.457-.495l.868.093.036,0a13.538,13.538,0,0,1,5.346,1.328.892.892,0,0,1,.383.3.869.869,0,0,1,.123.553c-.03.63-.1,1.237-.175,1.824-.158,1.293-.294,2.409.165,2.94a5.331,5.331,0,0,0,2.969,1.2.421.421,0,0,1,.374.512,12.136,12.136,0,0,1-1.791,3.937,6.7,6.7,0,0,1-5.523,3.062m-6.162-6.943c.4,1.373,1.773,5.309,4.707,5.939a5.727,5.727,0,0,0,6.285-2.539,11.562,11.562,0,0,0,1.538-3.2,5.311,5.311,0,0,1-3.035-1.42c-.7-.813-.546-2.1-.364-3.593.07-.571.142-1.162.17-1.762,0-.013,0-.025,0-.036l-.026-.012a12.892,12.892,0,0,0-5.073-1.251l-.338-.036.018.094c.331,1.689.784,4,.131,5.81-.514,1.424-2.9,1.87-4.017,2" transform="translate(-423.398 -205.889)" fill="#4a4a4a"/>
    <path id="패스_5219" data-name="패스 5219" d="M492.824,96.253a44.85,44.85,0,0,1,.041,4.642c.259-.924,2.708-.642,2.152,1.341a1.838,1.838,0,0,1-2.513,1.388,11.7,11.7,0,0,1-.946,2.724,6.476,6.476,0,0,1-2.194,2.613,5.578,5.578,0,0,1-5.806-.019c-5.489-3.462-2.937-13.1-2.433-14.815a6.306,6.306,0,0,1,7.041-3.58,7.032,7.032,0,0,1,4.658,5.706" transform="translate(-426.768 -80.347)" fill="#fff"/>
    <path id="패스_5220" data-name="패스 5220" d="M485.36,108.784a5.685,5.685,0,0,1-3.019-.848c-5.534-3.49-3.048-13.088-2.494-14.977a.138.138,0,0,1,.009-.023,7.351,7.351,0,0,1,2.586-2.891,6.01,6.01,0,0,1,4.615-.766,7.139,7.139,0,0,1,4.77,5.84c.067,1.49.118,2.848.064,4.2a1.084,1.084,0,0,1,.349-.155,1.6,1.6,0,0,1,1.479.405,1.526,1.526,0,0,1,.3,1.58,1.962,1.962,0,0,1-2.545,1.529,11.669,11.669,0,0,1-.924,2.608,6.58,6.58,0,0,1-2.245,2.67,5.447,5.447,0,0,1-2.941.83m-5.241-15.732c-.551,1.882-2.972,11.268,2.375,14.642a5.417,5.417,0,0,0,5.651.02,6.3,6.3,0,0,0,2.144-2.557,11.476,11.476,0,0,0,.935-2.691.144.144,0,0,1,.069-.093.142.142,0,0,1,.115-.012,1.911,1.911,0,0,0,1.465-.071,1.873,1.873,0,0,0,.866-1.219,1.28,1.28,0,0,0-.224-1.3,1.305,1.305,0,0,0-1.2-.328.588.588,0,0,0-.448.366.143.143,0,0,1-.281-.047,44.324,44.324,0,0,0-.041-4.627h0a6.92,6.92,0,0,0-4.546-5.572,6.12,6.12,0,0,0-6.875,3.493" transform="translate(-425.628 -79.219)" fill="#4a4a4a"/>
    <path id="패스_5221" data-name="패스 5221" d="M483.165,106.836h0a6,6,0,0,1-3.167-.891c-5.7-3.6-3.177-13.368-2.612-15.29a.449.449,0,0,1,.025-.065,7.639,7.639,0,0,1,2.688-3.006,6.282,6.282,0,0,1,4.824-.8,7.46,7.46,0,0,1,4.987,6.1c.06,1.338.108,2.56.078,3.781a1.867,1.867,0,0,1,1.736.483A1.788,1.788,0,0,1,492.087,99a2.41,2.41,0,0,1-1.143,1.564,2.291,2.291,0,0,1-1.463.217,11.768,11.768,0,0,1-.883,2.4,6.848,6.848,0,0,1-2.342,2.779,5.684,5.684,0,0,1-3.091.874m-4.982-15.908c-.546,1.874-2.9,11.049,2.264,14.305a5.131,5.131,0,0,0,5.353.021,6.03,6.03,0,0,0,2.046-2.447,11.206,11.206,0,0,0,.912-2.626.421.421,0,0,1,.541-.31,1.638,1.638,0,0,0,1.247-.051,1.61,1.61,0,0,0,.73-1.05,1.05,1.05,0,0,0-.155-1.034,1.028,1.028,0,0,0-.936-.253c-.065.017-.22.067-.25.172a.421.421,0,0,1-.826-.138,43.9,43.9,0,0,0-.04-4.566h0v-.033a6.7,6.7,0,0,0-4.33-5.312,5.849,5.849,0,0,0-6.555,3.324" transform="translate(-423.433 -76.994)" fill="#4a4a4a"/>
    <path id="패스_5222" data-name="패스 5222" d="M593.517,181.853h-.006a.143.143,0,0,1-.137-.149l.066-1.582a.141.141,0,0,1,.149-.137.143.143,0,0,1,.137.149l-.066,1.582a.144.144,0,0,1-.143.137" transform="translate(-527.466 -159.992)" fill="#4a4a4a"/>
    <path id="패스_5223" data-name="패스 5223" d="M591.294,179.908h-.021a.421.421,0,0,1-.4-.438l.066-1.582a.425.425,0,0,1,.14-.3.413.413,0,0,1,.306-.1.42.42,0,0,1,.4.438l-.066,1.582a.42.42,0,0,1-.421.4m.2-2h0Z" transform="translate(-525.242 -157.77)" fill="#4a4a4a"/>
    <path id="패스_5224" data-name="패스 5224" d="M467.575,46.443a3.127,3.127,0,0,0-1.2-2.319,8.751,8.751,0,0,0-3.609-1.864c-3.935-.8-8.553,1.669-10.107,2.79-.907.654-1.891,2.18-.4,3.38-1.594.853-2.454,3.292-.314,4.577.7.42,2.024.24,2.837.271,2.73.1,3.782-.834,5.537-1.845-.284.609.334,1.289,1.279,1.443.908.147,2.56-2.094,3.272-2.266a3.347,3.347,0,0,0,1.773,3.579,3.952,3.952,0,0,0,4.294-.724c2.638-3.059.9-6.045-.945-6.949a2.551,2.551,0,0,0-2.413-.073" transform="translate(-400.608 -37.426)" fill="#4a4a4a"/>
    <path id="패스_5225" data-name="패스 5225" d="M466.008,52.588a3.968,3.968,0,0,1-1.711-.365,3.631,3.631,0,0,1-1.99-3.309c-.219.176-.477.417-.717.641-.784.731-1.594,1.487-2.262,1.379a1.987,1.987,0,0,1-1.452-.909,1.12,1.12,0,0,1-.107-.293l-.264.159a7.7,7.7,0,0,1-4.959,1.449c-.2-.007-.433,0-.682,0a4.532,4.532,0,0,1-2.288-.314,2.64,2.64,0,0,1-1.41-2.356,3.265,3.265,0,0,1,1.41-2.5,1.96,1.96,0,0,1-.585-1.422,2.977,2.977,0,0,1,1.283-2.14c1.484-1.072,6.233-3.67,10.325-2.837a9.035,9.035,0,0,1,3.745,1.935,3.674,3.674,0,0,1,1.264,2.129,2.791,2.791,0,0,1,2.281.215,4.569,4.569,0,0,1,2.362,3.1,4.89,4.89,0,0,1-1.329,4.28,3.921,3.921,0,0,1-2.913,1.158m-3-4.567-.088.428a3.086,3.086,0,0,0,1.622,3.273,3.651,3.651,0,0,0,3.963-.655,4.357,4.357,0,0,0,1.205-3.806,4,4,0,0,0-2.062-2.712,2.29,2.29,0,0,0-2.182-.067l-.393.168.006-.427a2.805,2.805,0,0,0-1.114-2.113,8.519,8.519,0,0,0-3.474-1.794c-3.9-.793-8.46,1.711-9.889,2.743a2.433,2.433,0,0,0-1.053,1.7A1.526,1.526,0,0,0,450.207,46l.326.263-.37.2a2.756,2.756,0,0,0-1.443,2.229,2.06,2.06,0,0,0,1.141,1.866,4.3,4.3,0,0,0,1.989.235c.258-.006.5-.012.716,0a7.165,7.165,0,0,0,4.65-1.369c.235-.142.478-.29.738-.439l.761-.439-.371.8a.463.463,0,0,0,.021.431,1.455,1.455,0,0,0,1.05.621c.4.065,1.205-.688,1.794-1.237a4.019,4.019,0,0,1,1.368-1.025Z" transform="translate(-398.386 -35.21)" fill="#4a4a4a"/>
    <path id="패스_5226" data-name="패스 5226" d="M453.587,305.349c.277,1.3,5.766,4.959,5.766,4.959a69.333,69.333,0,0,0,5.5-4.643c2.419,6.127,2.344,11.823,1.868,18.394-.367,5.051-2.431,10.079-1.627,15.079.211,1.312.938,5.935.082,6.95-.987,1.17-6.509,2.12-13.952.541-.514-.109-.311-2.614-.736-2.924a2.379,2.379,0,0,1-.74-1.268c-2.169-6.881-.488-14.289.092-21.48.437-5.423-.568-10.444,3.744-15.608" transform="translate(-398.838 -271.433)" fill="#b8e3e6"/>
    <path id="패스_5227" data-name="패스 5227" d="M457.559,346.456a36.447,36.447,0,0,1-7.486-.833c-.376-.08-.446-.8-.527-1.638a3.287,3.287,0,0,0-.264-1.311,2.508,2.508,0,0,1-.793-1.34c-1.7-5.388-1.041-11.161-.406-16.744.179-1.574.364-3.2.492-4.791.093-1.148.121-2.292.148-3.4.1-4.209.2-8.184,3.629-12.289a.143.143,0,0,1,.25.062c.213,1,4.048,3.759,5.62,4.813a67.877,67.877,0,0,0,5.408-4.569.143.143,0,0,1,.235.049c2.51,6.356,2.32,12.357,1.877,18.456a46.925,46.925,0,0,1-.884,5.658c-.612,3.086-1.245,6.278-.745,9.388.638,3.971.655,6.348.05,7.065-.652.772-3.077,1.422-6.606,1.422m-5.14-41.973c-3.212,3.962-3.307,7.832-3.408,11.925-.027,1.11-.055,2.259-.149,3.415-.128,1.593-.314,3.223-.493,4.8-.632,5.553-1.285,11.3.395,16.625a2.271,2.271,0,0,0,.688,1.195c.234.171.3.687.38,1.515.046.471.131,1.349.3,1.385,7.566,1.605,12.934.549,13.813-.493.309-.366.705-1.741-.114-6.835-.508-3.161.13-6.378.746-9.489a46.718,46.718,0,0,0,.879-5.624c.435-6,.625-11.9-1.779-18.128-1.939,1.9-5.328,4.476-5.363,4.5a.143.143,0,0,1-.166.005c-.213-.142-4.953-3.309-5.731-4.8" transform="translate(-397.714 -270.287)" fill="#4a4a4a"/>
    <path id="패스_5228" data-name="패스 5228" d="M455.333,344.508a37.064,37.064,0,0,1-7.543-.839c-.575-.122-.65-.9-.745-1.882a5.934,5.934,0,0,0-.176-1.132,2.774,2.774,0,0,1-.869-1.463c-1.716-5.444-1.056-11.247-.417-16.858.18-1.578.364-3.2.492-4.782.092-1.141.12-2.281.147-3.383.1-4.259.2-8.281,3.693-12.461a.418.418,0,0,1,.423-.139.424.424,0,0,1,.312.322c.144.679,2.8,2.811,5.338,4.528A65.384,65.384,0,0,0,461.21,302a.421.421,0,0,1,.689.143c2.531,6.411,2.341,12.446,1.9,18.578a47.071,47.071,0,0,1-.887,5.687c-.608,3.068-1.236,6.234-.744,9.3.661,4.111.657,6.5-.012,7.288-.78.924-3.456,1.52-6.818,1.52m-7.277-1.643c7.306,1.533,12.637.545,13.451-.42.175-.207.679-1.3-.176-6.611-.516-3.21.127-6.452.748-9.587a46.5,46.5,0,0,0,.875-5.59c.424-5.839.616-11.583-1.613-17.616-1.986,1.875-5.051,4.207-5.084,4.232a.421.421,0,0,1-.488.015c-.476-.317-4.4-2.959-5.6-4.554-2.92,3.786-3.012,7.514-3.108,11.456-.027,1.116-.056,2.267-.149,3.43-.129,1.6-.315,3.232-.494,4.809-.629,5.524-1.279,11.237.384,16.51a2.053,2.053,0,0,0,.587,1.054c.335.245.405.81.493,1.712a7.475,7.475,0,0,0,.174,1.159" transform="translate(-395.489 -268.061)" fill="#4a4a4a"/>
    <path id="패스_5229" data-name="패스 5229" d="M586.827,322.041c-.361-1.263-1.267-1.63-1.215-2.942.1-2.659.092-6.451-.143-10-.074-1.113-.3-3.751-.3-3.751s10.45.553,15,9c.456.846-.113,1.9-.477,2.792a4.922,4.922,0,0,1-1.281,2.032,6.85,6.85,0,0,1-3.09.992,1.12,1.12,0,0,0-.654.3,1.137,1.137,0,0,0-.2.456,18.04,18.04,0,0,0-.595,3.841c-.018.4.113,3.556-.007,3.938a5.377,5.377,0,0,1-1.47,1.844c-.588.223-.629-3.853-1.188-4.142a24.65,24.65,0,0,1-2.652-1.289,5.185,5.185,0,0,1-1.731-3.076" transform="translate(-520.172 -271.434)" fill="#fff"/>
    <path id="패스_5230" data-name="패스 5230" d="M209.063,353.1h9.888c-.183-28.1,1.8-44.713,2.581-50.441-4.207.564-10.816,3.039-13.193,6.533-5.982,8.793-7.932,12.923-7.932,12.923s-7.818-12.755-8.33-12.009a9.851,9.851,0,0,1-5.82,4.206c3.166,7.225,9.955,22.243,15.265,19.36a17.878,17.878,0,0,0,3.36-2.057,28.529,28.529,0,0,0,6.3-8.282c0,14.29-.894,17.369-2.123,29.767" transform="translate(-165.569 -269.042)" fill="#fff"/>
    <path id="패스_5231" data-name="패스 5231" d="M217.8,352.1h-9.888a.143.143,0,0,1-.143-.158c.308-3.108.6-5.649.852-7.891a156.749,156.749,0,0,0,1.27-21.229,29.694,29.694,0,0,1-6.067,7.756,13.991,13.991,0,0,1-2.74,1.731c-.215.114-.431.227-.645.344a3.128,3.128,0,0,1-2.6.18c-4.454-1.527-9.214-11.281-12.863-19.609a.143.143,0,0,1,.093-.2,9.682,9.682,0,0,0,5.739-4.149.207.207,0,0,1,.185-.094c.191,0,.638.016,4.587,6.094,1.631,2.51,3.2,5.045,3.662,5.794a122.261,122.261,0,0,1,7.827-12.708c2.485-3.653,9.269-6.055,13.293-6.594a.14.14,0,0,1,.121.041.144.144,0,0,1,.041.121c-1.037,7.608-2.75,24.275-2.58,50.421a.143.143,0,0,1-.143.144m-9.73-.287h9.585c-.161-25.87,1.52-42.445,2.558-50.13-3.991.579-10.51,2.921-12.907,6.445a112.68,112.68,0,0,0-7.921,12.9.143.143,0,0,1-.252.014c-.018-.03-1.839-3-3.755-5.95-3.338-5.141-4.165-5.914-4.363-6.012a9.924,9.924,0,0,1-5.711,4.176c2.179,4.971,7.771,17.638,12.627,19.3a2.851,2.851,0,0,0,2.371-.161c.215-.117.432-.231.648-.345a13.779,13.779,0,0,0,2.685-1.693,28.51,28.51,0,0,0,6.268-8.232.143.143,0,0,1,.274.059,158.225,158.225,0,0,1-1.272,21.895c-.251,2.2-.534,4.694-.836,7.729" transform="translate(-164.421 -267.893)" fill="#4a4a4a"/>
    <path id="패스_5232" data-name="패스 5232" d="M215.581,350.149h-9.888a.421.421,0,0,1-.419-.463c.308-3.11.6-5.652.853-7.895a154.52,154.52,0,0,0,1.264-20.1,30.986,30.986,0,0,1-5.6,6.87A14.2,14.2,0,0,1,199,330.326l-.021.011c-.207.109-.415.219-.621.331a3.394,3.394,0,0,1-2.824.2c-4.557-1.562-9.356-11.381-13.028-19.76a.421.421,0,0,1,.273-.575,9.422,9.422,0,0,0,5.585-4.038.488.488,0,0,1,.43-.214c.322.008.775.019,4.8,6.22,1.4,2.158,2.764,4.344,3.407,5.381a131,131,0,0,1,7.62-12.3c2.533-3.724,9.411-6.167,13.486-6.713a.418.418,0,0,1,.354.12.422.422,0,0,1,.119.354c-1.035,7.6-2.747,24.253-2.577,50.382a.418.418,0,0,1-.122.3.423.423,0,0,1-.3.124m-9.423-.842h9c-.146-25.382,1.486-41.791,2.513-49.521-3.908.65-10.092,2.946-12.353,6.27a112.432,112.432,0,0,0-7.9,12.866.421.421,0,0,1-.74.041c-.018-.029-1.839-3-3.751-5.944a46.129,46.129,0,0,0-4.075-5.76,10.064,10.064,0,0,1-5.387,3.948c2.017,4.6,7.65,17.258,12.338,18.864a2.583,2.583,0,0,0,2.149-.142c.216-.117.433-.232.65-.346a13.586,13.586,0,0,0,2.634-1.658,28.193,28.193,0,0,0,6.2-8.137.422.422,0,0,1,.459-.242l.061-.121v.137a.424.424,0,0,1,.285.4,158.45,158.45,0,0,1-1.274,21.926c-.242,2.124-.515,4.523-.805,7.42" transform="translate(-162.199 -265.669)" fill="#4a4a4a"/>
    <path id="패스_5233" data-name="패스 5233" d="M593.306,526.423c-.425-5.588-.8-10.865-1.317-14.872-.813-6.316-.671-4.5-1.129-10.063-.1-1.157-1.414-1.7-2.138-2.607a2.95,2.95,0,0,0-3.069-1.135,4.067,4.067,0,0,0-2.2,2.787,31.15,31.15,0,0,0-1.651,10.365c-.059,3.542.013,9.526.114,15.525Z" transform="translate(-517.164 -442.364)" fill="#fff"/>
    <path id="패스_5234" data-name="패스 5234" d="M592.157,525.414H580.771a.143.143,0,0,1-.143-.141c-.128-7.607-.164-12.541-.114-15.529a31.2,31.2,0,0,1,1.658-10.41c.355-1.031.979-2.45,2.287-2.876a3.114,3.114,0,0,1,3.226,1.181,6.22,6.22,0,0,0,.867.829,2.886,2.886,0,0,1,1.3,1.856c.338,4.111.35,4.2.66,6.505.108.805.257,1.909.468,3.551.465,3.615.819,8.287,1.193,13.233l.125,1.646a.143.143,0,0,1-.143.154m-11.245-.287H592l-.113-1.492c-.374-4.943-.727-9.611-1.192-13.219-.211-1.642-.36-2.744-.468-3.549-.311-2.312-.323-2.4-.662-6.52-.057-.7-.613-1.166-1.2-1.66a6.414,6.414,0,0,1-.907-.869,2.825,2.825,0,0,0-2.913-1.088c-.9.294-1.572,1.152-2.1,2.7a30.927,30.927,0,0,0-1.643,10.321c-.05,2.967-.014,7.855.111,15.379" transform="translate(-516.015 -441.212)" fill="#4a4a4a"/>
    <path id="패스_5235" data-name="패스 5235" d="M589.935,523.474H578.548a.423.423,0,0,1-.421-.414c-.128-7.612-.164-12.55-.114-15.539a31.449,31.449,0,0,1,1.674-10.5c.374-1.087,1.037-2.585,2.463-3.05a3.4,3.4,0,0,1,3.529,1.272,6,6,0,0,0,.827.788,3.138,3.138,0,0,1,1.4,2.047c.338,4.1.35,4.194.659,6.491.109.814.257,1.916.468,3.552.466,3.621.82,8.295,1.194,13.242l.125,1.652a.421.421,0,0,1-.42.453m-10.972-.842H589.48l-.091-1.193c-.374-4.939-.727-9.6-1.19-13.2-.213-1.653-.36-2.748-.467-3.548-.312-2.319-.324-2.409-.663-6.534-.048-.583-.537-.994-1.1-1.471a6.608,6.608,0,0,1-.945-.909,2.546,2.546,0,0,0-2.61-1c-.814.265-1.426,1.067-1.928,2.524a30.672,30.672,0,0,0-1.628,10.235c-.049,2.929-.015,7.731.107,15.1" transform="translate(-513.792 -438.994)" fill="#4a4a4a"/>
    <path id="패스_5236" data-name="패스 5236" d="M496.89,421.446l15.157-4.013,5.341,19.757-14.593,4.522Z" transform="translate(-441.699 -371.068)" fill="#f5e1e9"/>
    <path id="패스_5237" data-name="패스 5237" d="M501.647,440.709a.145.145,0,0,1-.068-.017.144.144,0,0,1-.07-.086l-5.9-20.266a.143.143,0,0,1,.1-.179l15.157-4.012a.143.143,0,0,1,.175.1l5.341,19.757a.143.143,0,0,1-.1.174L501.689,440.7a.149.149,0,0,1-.042.006M495.921,420.4l5.823,19.985,14.322-4.438L510.8,416.461Z" transform="translate(-440.551 -369.921)" fill="#4a4a4a"/>
    <path id="패스_5238" data-name="패스 5238" d="M499.426,438.762a.421.421,0,0,1-.4-.3l-5.9-20.267a.421.421,0,0,1,.3-.525l15.157-4.012a.421.421,0,0,1,.514.3l5.341,19.757a.42.42,0,0,1-.282.512l-14.593,4.522a.415.415,0,0,1-.125.019m-5.38-20.391,5.664,19.441,13.8-4.275-5.126-18.96Z" transform="translate(-438.33 -367.696)" fill="#4a4a4a"/>
    <path id="패스_5239" data-name="패스 5239" d="M511.283,522.167a3.942,3.942,0,0,0-1.488.142c-.366.16-.668.444-1.038.6a7.914,7.914,0,0,1-4,.518c-.283-.029-1.112-.5-1.1-.78s.629-.527.923-.522c-.993-.1-1.989-.037-2.022-.842-.013-.31.692-.587,1.1-.589a3.744,3.744,0,0,1-1.491-.151.673.673,0,0,1-.355-.907c.194-.371.979-.481,1.4-.468a6.875,6.875,0,0,1-1.867-.169.713.713,0,0,1-.26-.921c.169-.338,1.326-.563,1.7-.6.625-.056,2.859-.293,3.486-.306-.475-.042-2.607.084-2.489-.375.2-.789,1.949-1.2,2.425-1.185,1.519.058,2.112.626,4.015,1.259l2.337-.1a3.975,3.975,0,0,1,1.724.187,2.925,2.925,0,0,1,1.3,1.219,3.543,3.543,0,0,1,.6,2.058,1.98,1.98,0,0,1-1.1,1.662,4.579,4.579,0,0,1-1.444.327,12.87,12.87,0,0,1-2.354-.055" transform="translate(-445.355 -458.339)" fill="#fff"/>
    <path id="패스_5240" data-name="패스 5240" d="M504.658,522.475a10.4,10.4,0,0,1-1.07-.058c-.282-.029-1.244-.516-1.231-.927a.575.575,0,0,1,.324-.434c-.727-.065-1.394-.2-1.424-.92a.428.428,0,0,1,.137-.316.978.978,0,0,1,.187-.148,1.8,1.8,0,0,1-.643-.155.935.935,0,0,1-.469-.533.729.729,0,0,1,.053-.568.747.747,0,0,1,.3-.292,1.631,1.631,0,0,1-.723-.158.852.852,0,0,1-.31-1.1c.222-.443,1.565-.652,1.82-.675.162-.014.432-.041.754-.073l.585-.057a.72.72,0,0,1-.419-.205.272.272,0,0,1-.049-.239c.226-.874,2.035-1.313,2.569-1.293a6.18,6.18,0,0,1,2.446.645c.437.185.932.394,1.584.612l2.311-.1a4.136,4.136,0,0,1,1.786.2,3.04,3.04,0,0,1,1.365,1.276,3.664,3.664,0,0,1,.622,2.143,2.112,2.112,0,0,1-1.18,1.781,4.752,4.752,0,0,1-1.49.34,10.4,10.4,0,0,1-1.981-.026l-.4-.029h0a3.882,3.882,0,0,0-1.42.13,3.316,3.316,0,0,0-.479.278,3.336,3.336,0,0,1-.563.319,7.7,7.7,0,0,1-3,.586m-1.246-1.36c-.272,0-.763.222-.768.384s.688.6.974.633a7.777,7.777,0,0,0,3.929-.508,3.069,3.069,0,0,0,.514-.293,3.591,3.591,0,0,1,.521-.3,4.074,4.074,0,0,1,1.555-.154l.4.029a10.162,10.162,0,0,0,1.926.027,4.466,4.466,0,0,0,1.4-.313,1.828,1.828,0,0,0,1.018-1.544,3.385,3.385,0,0,0-.581-1.972,2.764,2.764,0,0,0-1.232-1.162,3.857,3.857,0,0,0-1.662-.176l-2.337.1a.138.138,0,0,1-.051-.007c-.675-.224-1.182-.439-1.63-.628a5.954,5.954,0,0,0-2.345-.623c-.478-.019-2.1.4-2.28,1.074a5.185,5.185,0,0,0,1.814.188c.242,0,.433,0,.547.012a.143.143,0,0,1-.01.286c-.459.009-1.82.143-2.72.232-.323.032-.594.059-.756.073-.489.044-1.474.286-1.589.518a.569.569,0,0,0,.21.736,4.054,4.054,0,0,0,1.305.132c.206,0,.385,0,.5.015a.143.143,0,0,1-.019.286c-.423-.015-1.117.1-1.268.391a.448.448,0,0,0-.033.349.648.648,0,0,0,.328.365,3.166,3.166,0,0,0,1.349.138l.075,0h0a.143.143,0,0,1,.006.287l-.066,0a1.516,1.516,0,0,0-.835.331.167.167,0,0,0-.057.105c.022.536.573.6,1.469.671.14.01.282.021.424.035a.143.143,0,0,1-.017.286h-.009" transform="translate(-444.199 -457.192)" fill="#4a4a4a"/>
    <path id="패스_5241" data-name="패스 5241" d="M502.429,520.531a10.6,10.6,0,0,1-1.1-.059c-.314-.033-1.5-.554-1.48-1.213a.644.644,0,0,1,.046-.217c-.524-.1-1.114-.362-1.145-1.116a.644.644,0,0,1,.058-.293,1.333,1.333,0,0,1-.227-.091,1.214,1.214,0,0,1-.606-.7.477.477,0,0,0-.253-.869,1.127,1.127,0,0,1-.406-1.461c.329-.657,2.027-.825,2.044-.827.141-.013.365-.035.635-.061a.553.553,0,0,1-.008-.306c.27-1.046,2.224-1.525,2.849-1.5a6.481,6.481,0,0,1,2.543.667c.421.178.9.379,1.516.588l2.259-.1a4.355,4.355,0,0,1,1.905.219,3.307,3.307,0,0,1,1.494,1.387,3.935,3.935,0,0,1,.663,2.309,2.387,2.387,0,0,1-1.336,2.011,4.95,4.95,0,0,1-1.577.365,10.573,10.573,0,0,1-2.035-.025l-.038,0-.361-.026a3.636,3.636,0,0,0-1.29.108,3.093,3.093,0,0,0-.437.255,3.616,3.616,0,0,1-.611.344,7.952,7.952,0,0,1-3.1.606m-1.647-1.238a1.944,1.944,0,0,0,.635.341,7.514,7.514,0,0,0,3.8-.489,2.873,2.873,0,0,0,.467-.268,3.8,3.8,0,0,1,.562-.323,4.5,4.5,0,0,1,1.686-.176l.4.029a9.954,9.954,0,0,0,1.874.028,4.271,4.271,0,0,0,1.311-.287,1.554,1.554,0,0,0,.862-1.314,3.115,3.115,0,0,0-.54-1.807,2.5,2.5,0,0,0-1.1-1.052,3.644,3.644,0,0,0-1.543-.154l-2.337.1a.42.42,0,0,1-.151-.021c-.688-.229-1.2-.445-1.65-.636a5.659,5.659,0,0,0-2.247-.6,3.709,3.709,0,0,0-1.846.647,11.976,11.976,0,0,0,1.393.06c.252,0,.445,0,.57.013a.421.421,0,0,1-.028.84c-.45.009-1.8.143-2.7.231-.324.032-.6.059-.759.073a3.86,3.86,0,0,0-1.373.381.292.292,0,0,0,.122.364,5.443,5.443,0,0,0,1.156.086c.215,0,.4,0,.523.016a.421.421,0,0,1-.059.839,1.583,1.583,0,0,0-1.01.242.172.172,0,0,0-.014.137.376.376,0,0,0,.191.2,2.809,2.809,0,0,0,1.211.107c.024,0,.055,0,.085,0a.421.421,0,0,1,.018.842l-.062,0a1.378,1.378,0,0,0-.62.219c.055.2.334.269,1.2.334.142.011.286.021.43.035a.421.421,0,0,1-.041.84h-.007l0-.278v.278a1.039,1.039,0,0,0-.4.122m-.959-3.634h0" transform="translate(-441.97 -454.97)" fill="#4a4a4a"/>
    <path id="패스_5242" data-name="패스 5242" d="M609.771,377.993c2.7,4.968,6.695,11.563,6.5,17.213-.121,3.453-4.6,5.067-9.3,5.067a50.931,50.931,0,0,1-11.664-1.158c.895-1.925.878-4.938,0-7.817a30.532,30.532,0,0,1,10.468-.351A24.418,24.418,0,0,0,602.874,384c-1-1.54-.366-3.669-1.918-4.647-.312-.2,5.913-6.71,8.815-1.364" transform="translate(-529.178 -334.139)" fill="#fff"/>
    <path id="패스_5243" data-name="패스 5243" d="M406.341,429.231a.142.142,0,0,1-.1-.037,8.176,8.176,0,0,1-2.465-4.789,12.072,12.072,0,0,1,.474-5.391.143.143,0,0,1,.274.083,11.786,11.786,0,0,0-.465,5.263,7.889,7.889,0,0,0,2.375,4.621.143.143,0,0,1-.1.249" transform="translate(-358.821 -372.383)" fill="#4a4a4a"/>
    <path id="패스_5244" data-name="패스 5244" d="M404.12,427.287a.42.42,0,0,1-.284-.11,8.455,8.455,0,0,1-2.552-4.951,12.348,12.348,0,0,1,.483-5.514.421.421,0,1,1,.806.245,11.513,11.513,0,0,0-.457,5.139,7.611,7.611,0,0,0,2.287,4.459.421.421,0,0,1-.284.732" transform="translate(-356.6 -370.161)" fill="#4a4a4a"/>
    <path id="패스_5245" data-name="패스 5245" d="M313.907,479.253a.143.143,0,0,1-.124-.072l-1.409-2.437a.143.143,0,1,1,.248-.144l1.409,2.438a.143.143,0,0,1-.124.215" transform="translate(-277.66 -423.599)" fill="#4a4a4a"/>
    <path id="패스_5246" data-name="패스 5246" d="M311.686,477.31a.423.423,0,0,1-.365-.21l-1.409-2.438a.421.421,0,0,1,.729-.422l1.409,2.438a.421.421,0,0,1-.364.632" transform="translate(-275.439 -421.379)" fill="#4a4a4a"/>
    <path id="패스_5247" data-name="패스 5247" d="M595.4,336.587a47.237,47.237,0,0,1-10.287-1.187.143.143,0,0,1-.1-.2c.874-1.879.871-4.835-.007-7.715a.143.143,0,0,1,.114-.183,52.209,52.209,0,0,1,10.1-.407c.96.028,1.866.054,2.689.054a.143.143,0,0,1,0,.287c-.827,0-1.736-.026-2.7-.054a52.683,52.683,0,0,0-9.884.377,11.962,11.962,0,0,1,.017,7.6c4.478,1.064,14.689,2.233,18.839-.762a4.06,4.06,0,0,0,1.786-3.059c.39-4.843-2.785-10.513-5.336-15.07-.4-.721-.785-1.4-1.144-2.063-3.078-5.671-7.379-8.438-15.308-9.832.087.841.424,4.356.424,8.3v5.274a.143.143,0,1,1-.287,0v-5.274c0-4.489-.438-8.419-.443-8.459a.143.143,0,0,1,.167-.157,25.5,25.5,0,0,1,10.03,3.547,17.293,17.293,0,0,1,5.669,6.463c.358.659.739,1.34,1.142,2.06,2.57,4.59,5.769,10.3,5.372,15.233a4.335,4.335,0,0,1-1.9,3.269c-2.024,1.461-5.444,1.955-8.955,1.955" transform="translate(-519.025 -270.286)" fill="#4a4a4a"/>
    <path id="패스_5248" data-name="패스 5248" d="M593.174,334.643a47.506,47.506,0,0,1-10.351-1.195.421.421,0,0,1-.282-.587c.846-1.82.838-4.7-.021-7.517a.421.421,0,0,1,.333-.538,52.454,52.454,0,0,1,10.154-.411c.959.028,1.863.054,2.681.054a.421.421,0,1,1,0,.842c-.83,0-1.74-.026-2.7-.054a53.923,53.923,0,0,0-9.525.326,12.328,12.328,0,0,1,.041,7.179c4.487,1.008,14.346,2.064,18.3-.79a3.794,3.794,0,0,0,1.672-2.856c.383-4.758-2.769-10.388-5.3-14.911-.384-.686-.781-1.395-1.146-2.067-2.991-5.51-7.144-8.229-14.751-9.626.126,1.3.389,4.45.389,7.963v5.274a.421.421,0,0,1-.842,0v-5.274c0-4.488-.436-8.388-.441-8.427a.421.421,0,0,1,.49-.462,25.766,25.766,0,0,1,10.136,3.59,17.557,17.557,0,0,1,5.759,6.562c.352.648.726,1.317,1.123,2.025l.018.032c2.589,4.623,5.81,10.376,5.407,15.391a4.6,4.6,0,0,1-2.018,3.471c-1.845,1.332-4.913,2.007-9.118,2.007Z" transform="translate(-516.802 -268.065)" fill="#4a4a4a"/>
    <path id="패스_5249" data-name="패스 5249" d="M668.079,460.108a.143.143,0,0,1-.14-.112,12.867,12.867,0,0,0-1.547-4.172c-.276-.513-.589-1.094-.981-1.9a.143.143,0,1,1,.258-.125c.389.8.7,1.38.975,1.891a13.1,13.1,0,0,1,1.574,4.245.143.143,0,0,1-.109.171.151.151,0,0,1-.031,0" transform="translate(-591.489 -403.321)" fill="#4a4a4a"/>
    <path id="패스_5250" data-name="패스 5250" d="M665.855,458.164a.418.418,0,0,1-.411-.33,12.641,12.641,0,0,0-1.52-4.1c-.28-.52-.593-1.1-.986-1.912a.421.421,0,1,1,.758-.367c.385.794.695,1.369.967,1.876a13.33,13.33,0,0,1,1.6,4.322.421.421,0,0,1-.411.512" transform="translate(-589.265 -401.099)" fill="#4a4a4a"/>
    <path id="패스_5251" data-name="패스 5251" d="M662.345,424.132h0a.143.143,0,0,1-.143-.144,92.472,92.472,0,0,1,.861-10.623.143.143,0,0,1,.283.047,92.017,92.017,0,0,0-.858,10.578.143.143,0,0,1-.143.143" transform="translate(-588.649 -367.345)" fill="#4a4a4a"/>
    <path id="패스_5252" data-name="패스 5252" d="M660.124,422.187h0a.422.422,0,0,1-.42-.423,92.819,92.819,0,0,1,.865-10.666.421.421,0,1,1,.831.138,91.677,91.677,0,0,0-.854,10.533.422.422,0,0,1-.421.419" transform="translate(-586.428 -365.122)" fill="#4a4a4a"/>
    <path id="패스_5253" data-name="패스 5253" d="M439.312,431.237a2.007,2.007,0,1,1,2.007,2.007,2.007,2.007,0,0,1-2.007-2.007" transform="translate(-390.516 -381.554)" fill="#fff"/>
  </g>
</svg>
