<svg xmlns="http://www.w3.org/2000/svg" xmlns:xlink="http://www.w3.org/1999/xlink" width="113.191" height="80.546" viewBox="0 0 113.191 80.546">
  <defs>
    <clipPath id="clip-path">
      <rect id="사각형_5147" data-name="사각형 5147" width="113.191" height="80.546" fill="none"/>
    </clipPath>
  </defs>
  <g id="그룹_12904" data-name="그룹 12904" transform="translate(0 0)">
    <g id="그룹_12903" data-name="그룹 12903" transform="translate(0 0)" clip-path="url(#clip-path)">
      <path id="패스_5183" data-name="패스 5183" d="M103.433,62.545H9.758a9.758,9.758,0,0,0,0,19.516h93.675a9.758,9.758,0,0,0,0-19.516" transform="translate(0 -1.515)" fill="#e6f6f7"/>
      <path id="패스_5184" data-name="패스 5184" d="M76.108,23.529l-5.58,3.73.009,3.882-10.9-7.286a2.927,2.927,0,1,0-3.252,4.868L58.4,30.187H51.989V27.26l-5.2-3.472-.385-.258c1.768-2.645,4.381-6.03,7.942-6.03h1.8l5.111,3.416L66.37,17.5h1.8c3.562,0,6.174,3.384,7.942,6.029m-8.786,13.1-1.764-1.275a2.9,2.9,0,0,1-1.859.683H51.989c-.055,0-.106-.007-.16-.008.093,2.033.152,4.855.158,7.788-.021,0-.011,6.852-.011,6.852l7.523-1.5a32.058,32.058,0,0,0,11.07-4.262l-.015-5.905c-1.094-.8-2.175-1.591-3.234-2.376M56.075,72.428c2.262.038,4.113-1.285,4.192-3.508l-7.843,1.56a4.062,4.062,0,0,0,3.651,1.948m6.177-3.9V68.9c.064,2.211,1.857,3.491,4.068,3.528,2.312.039,4.207-1.337,4.208-3.649V67.026c-2.019.311-4.38.725-7.222,1.29Z" transform="translate(-1.124 -0.424)" fill="#b8e3e6"/>
      <path id="패스_5185" data-name="패스 5185" d="M88.224,57.5a41.719,41.719,0,0,1,.8,8.144v.711H81.214V64.4a123.9,123.9,0,0,0-18.975,2.507L21.19,75.07c1.446-.311,2.659-1.091,2.006-4.376-.669-3.365-2.142-3.554-3.633-3.257,1.491-.3,2.779-1.034,2.11-4.4s-2.137-3.554-3.625-3.259L59.194,51.6c10.169-2.023,13.453-6.358,17.118-7.56l3.728-5.581c2.685,1.714,5.153,3.806,5.839,7.251l.35,1.763-2.353,5.679Z" transform="translate(-0.437 -0.932)" fill="#f5e1e9"/>
      <path id="패스_5186" data-name="패스 5186" d="M23.159,69.775c.669,3.365-.618,4.1-2.109,4.4l-1.436.286L18.092,66.8l-1.523-7.656L18,58.862c1.491-.3,2.963-.108,3.633,3.256s-.619,4.1-2.11,4.4c1.491-.3,2.963-.107,3.632,3.257M95.141,55.765a9.223,9.223,0,0,0,1.805-.171,10.36,10.36,0,0,0,5.087-2.365,5.048,5.048,0,0,0,1.428-4.9c-.738-3.712-3.775-4.491-6.194-4.491a13.374,13.374,0,0,0-2.6.271,9.856,9.856,0,0,0-4.812,2.538,5.188,5.188,0,0,0-1.7,4.727c.6,3.032,3.947,4.39,6.992,4.39M81.184,71.529c0,2.156.446,2.927,3.9,2.927s3.9-.772,3.9-2.927v-6.1H81.179ZM54.85,24.252a2.927,2.927,0,0,0,.807,4.06l2.025,1.464H51.266V26.847l-5.2-3.472a9.64,9.64,0,0,0-.66,3.473v2.927a5.856,5.856,0,0,0,5.855,5.855H62.975a2.9,2.9,0,0,0,1.859-.684L66.6,36.222c3.072,2.278,6.281,4.626,9.678,6.9L80,37.539,58.91,23.444a2.926,2.926,0,0,0-4.06.808M66.391,8.306C66.391,5.96,65.82.5,60.536.5s-5.855,5.46-5.855,7.806c0,3.273,2.035,7.806,5.855,7.806s5.855-4.533,5.855-7.806M45.685,23.119l.385.257Zm24.124,5.26,5.849,3.908V26.848a9.738,9.738,0,0,0-.64-3.485L69.8,26.848Z" transform="translate(-0.401 -0.013)" fill="#fff"/>
      <path id="패스_5187" data-name="패스 5187" d="M60.374,16.588c4.107,0,6.343-4.731,6.343-8.294C66.717,4.118,65.085,0,60.374,0s-6.343,4.118-6.343,8.294c0,3.564,2.236,8.294,6.343,8.294m0-15.613c4.844,0,5.367,5.118,5.367,7.318,0,3.069-1.865,7.318-5.367,7.318s-5.367-4.25-5.367-7.318c0-2.2.523-7.318,5.367-7.318m34.6,55.266a9.808,9.808,0,0,0,1.9-.181c4.1-.815,7.816-3.218,6.9-7.839-.717-3.6-3.527-4.883-6.673-4.883a13.9,13.9,0,0,0-2.7.281c-3.494.695-7.7,3.81-6.9,7.838.665,3.339,4.266,4.783,7.47,4.783M94.6,44.578a12.91,12.91,0,0,1,2.508-.262c3.252,0,5.176,1.379,5.716,4.1.946,4.75-3.972,6.262-6.131,6.691a8.784,8.784,0,0,1-1.712.162c-2.845,0-5.963-1.236-6.512-4-.683-3.435,3.122-6.093,6.131-6.691m8.932,35.21a.488.488,0,0,1-.4.759h-92.7a.488.488,0,0,1-.406-.759l6.157-9.214a.488.488,0,0,1,.811.543l-5.65,8.455h90.874L93.084,65.91H91.27a.488.488,0,0,1,0-.976h2.075a.488.488,0,0,1,.406.217ZM58.895,68.4l.976.028c-.069,2.357-1.971,4-4.624,4A4.566,4.566,0,0,1,51.1,70.253l.855-.471a3.611,3.611,0,0,0,3.285,1.669c1.776,0,3.59-.945,3.652-3.055M17.452,66.887l.095.478,1.523,7.656.957-.19.957-.19c.044-.011,41.153-8.184,41.153-8.184a117,117,0,0,1,16.768-2.338C79.46,64.08,80,64.043,80.53,64l.006,7.519c0,2.68.944,3.414,4.391,3.414s4.391-.735,4.391-3.415V64.711a42.311,42.311,0,0,0-.812-8.239l-.029-.145-4.22-4.221,2.283-5.514-.38-1.909c-.743-3.736-3.478-5.923-6.055-7.568L59.02,23.026a3.416,3.416,0,0,0-3.795,5.68l.543-.811a2.44,2.44,0,0,1,2.711-4.057L79.167,37.661l-3.184,4.765c-3.377-2.273-6.543-4.595-9.254-6.607l-.582.784c2.624,1.947,5.677,4.184,8.936,6.39a25.42,25.42,0,0,0-3.06,1.761A34.8,34.8,0,0,1,58.9,50.189L16.791,58.562l-.957.19,1.619,8.134h0m4.895,5.957a2.169,2.169,0,0,1-1.517.83l-.993.2-1.332-6.7.985-.2c1.2-.234,2.421-.189,3.032,2.88a4.177,4.177,0,0,1-.174,2.986m62.58,1.113c-3.25,0-3.415-.627-3.415-2.439,0-2.022,1.714-2.927,3.415-2.927s3.415.906,3.415,2.927c0,1.812-.166,2.439-3.415,2.439m3.415-4.978a4.957,4.957,0,0,0-6.832,0l0-3.071h6.835Zm-15.794-23.4a17.7,17.7,0,0,1,3.719-2.007.584.584,0,0,0,.254-.192L79.979,38.2c2.28,1.5,4.59,3.481,5.225,6.671l.321,1.618-2.42,5.844,4.472,4.472a41.329,41.329,0,0,1,.765,7.9v.223H81.507l0-2-.529.046c-.705.06-1.407.109-2.14.161a116.635,116.635,0,0,0-16.411,2.261L59.569,51.044a35.694,35.694,0,0,0,12.979-5.466M58.614,51.241,61.468,65.6l-38.219,7.6a5.189,5.189,0,0,0,.228-3.526,5.252,5.252,0,0,0-1.538-3.176L53.27,60.262a.488.488,0,0,0-.191-.956L21.726,65.539a5.19,5.19,0,0,0,.227-3.528,5.253,5.253,0,0,0-1.536-3.176ZM16.981,59.518l.957-.19c1.209-.239,2.443-.218,3.059,2.875a4.179,4.179,0,0,1-.173,2.986,2.2,2.2,0,0,1-1.554.839l-.956.19-1.333-6.7m52.175,8.837V66.577h.976v1.778A3.894,3.894,0,0,1,68.978,71.2a4.843,4.843,0,0,1-3.445,1.29h-.1c-2.651-.044-4.479-1.652-4.548-4l-.04-.665.974-.06.041.68c.055,1.835,1.464,3.035,3.589,3.07a3.944,3.944,0,0,0,2.85-1.009,2.945,2.945,0,0,0,.862-2.153m-18.68-32.28c.09,2.156.141,5.077.141,7.938v6.272h.976V44.5H69.645a.488.488,0,0,0,.488-.488c0-.72,0-1.187.025-1.848.009-.228.019-.51.031-1l-.976-.023c-.012.484-.021.764-.03.99-.014.379-.022.618-.025,1.392H51.592c-.006-2.674-.055-5.381-.139-7.419H62.815a3.415,3.415,0,1,0,0-6.83H51.593V26.836a.512.512,0,0,0-.217-.406L46.2,22.974c1.784-2.6,4.185-5.41,7.262-5.41h1.649l5.259,3.515,5.259-3.515h1.649c3.078,0,5.479,2.807,7.263,5.41l-5.174,3.457a.488.488,0,0,0,.543.811L74.6,24.114a9.238,9.238,0,0,1,.414,2.722v5.835h.976V26.836a10.223,10.223,0,0,0-.548-3.284l.058-.039a.486.486,0,0,0,.135-.676c-1.943-2.91-4.648-6.248-8.347-6.248H65.337l-4.963,3.317-4.963-3.317H53.466c-3.7,0-6.4,3.339-8.347,6.247a.488.488,0,0,0,.135.677l.075.05a10.063,10.063,0,0,0-.566,3.274v2.927a6.351,6.351,0,0,0,5.713,6.311m-4.737-9.239a9.022,9.022,0,0,1,.43-2.712L50.617,27.1v2.179H49.154a.488.488,0,0,0,0,.976H62.815a2.439,2.439,0,1,1,0,4.879H51.105a5.373,5.373,0,0,1-5.367-5.367Z" transform="translate(-0.241 0)" fill="#4a4a4a"/>
    </g>
  </g>
</svg>
