<svg id="그룹_12924" data-name="그룹 12924" xmlns="http://www.w3.org/2000/svg" xmlns:xlink="http://www.w3.org/1999/xlink" width="34.49" height="46.524" viewBox="0 0 34.49 46.524">
  <defs>
    <clipPath id="clip-path">
      <path id="패스_5298" data-name="패스 5298" d="M21.38,35.482a2.455,2.455,0,1,0,2.455-2.454,2.454,2.454,0,0,0-2.455,2.454" transform="translate(-21.38 -33.028)" fill="none"/>
    </clipPath>
    <clipPath id="clip-path-2">
      <path id="패스_5299" data-name="패스 5299" d="M59.3,35.482a2.455,2.455,0,1,0,2.455-2.454A2.455,2.455,0,0,0,59.3,35.482" transform="translate(-59.299 -33.028)" fill="none"/>
    </clipPath>
    <clipPath id="clip-path-3">
      <rect id="사각형_5161" data-name="사각형 5161" width="34.49" height="46.524" fill="none"/>
    </clipPath>
  </defs>
  <g id="그룹_12919" data-name="그룹 12919" transform="translate(7.839 12.11)">
    <g id="그룹_12918" data-name="그룹 12918" clip-path="url(#clip-path)">
      <rect id="사각형_5159" data-name="사각형 5159" width="4.909" height="4.909" transform="translate(0 0)" fill="#dd488e"/>
    </g>
  </g>
  <g id="그룹_12921" data-name="그룹 12921" transform="translate(21.742 12.11)">
    <g id="그룹_12920" data-name="그룹 12920" clip-path="url(#clip-path-2)">
      <rect id="사각형_5160" data-name="사각형 5160" width="4.909" height="4.909" transform="translate(0 0)" fill="#dd488e"/>
    </g>
  </g>
  <g id="그룹_12923" data-name="그룹 12923" transform="translate(0 0)">
    <g id="그룹_12922" data-name="그룹 12922" clip-path="url(#clip-path-3)">
      <path id="패스_5300" data-name="패스 5300" d="M34.475,40.927,32.047,11.05a3.457,3.457,0,0,0-3.427-3.16H25.065C24.05,3.518,21.659,0,17.245,0c-5.331,0-7.284,4.064-8,7.89H5.87a3.457,3.457,0,0,0-3.427,3.16L.015,40.933a5.193,5.193,0,0,0,5.177,5.591H29.3a5.192,5.192,0,0,0,5.176-5.6M4.356,23.729H30.134l.855,10.523H3.5Zm12.889-20.8c2.7,0,4.07,2.424,4.767,4.957H12.229c.729-3.425,2.337-4.957,5.016-4.957M5.87,10.823H8.892c-.065,1.058-.066,1.983-.066,2.641a1.467,1.467,0,0,0,2.933,0c0-.95.028-1.829.083-2.641H22.565a24.143,24.143,0,0,1,.165,2.641,1.467,1.467,0,0,0,2.933,0c0-.878-.042-1.765-.127-2.641h3.083a.508.508,0,0,1,.5.464L29.9,20.8H4.594l.773-9.508a.508.508,0,0,1,.5-.464M30.956,42.866a2.235,2.235,0,0,1-1.658.725H5.191a2.259,2.259,0,0,1-2.253-2.427l.323-3.98H31.227l.323,3.974a2.234,2.234,0,0,1-.594,1.708" transform="translate(0 0)" fill="#6a6a6a"/>
    </g>
  </g>
</svg>
