<svg id="그룹_12929" data-name="그룹 12929" xmlns="http://www.w3.org/2000/svg" xmlns:xlink="http://www.w3.org/1999/xlink" width="43.461" height="52.519" viewBox="0 0 43.461 52.519">
  <defs>
    <clipPath id="clip-path">
      <path id="패스_5301" data-name="패스 5301" d="M25.657,83.17a4.2,4.2,0,0,0-1.3,4.748A8.989,8.989,0,0,0,26.291,90.8l.407.452c1.049,1.16,2.634,2.913,2.463,3.858-.09.5-.843.957-1.284,1.185-5.249,2.716-15.563,1.579-19.707-2.171A1.581,1.581,0,1,0,6.05,96.472c3.181,2.879,8.93,4.481,14.367,4.481a19.856,19.856,0,0,0,8.914-1.846,4.977,4.977,0,0,0,2.942-3.43c.448-2.475-1.591-4.73-3.229-6.542l-.407-.451c-1.689-1.868-1.636-2.465-.856-3.171,3.557-3.222,11.105-2.233,15.615-1.642.595.078,1.148.151,1.649.209a1.581,1.581,0,0,0,1.764-1.558v-.031a1.581,1.581,0,0,0-1.4-1.551c-.486-.057-1.025-.127-1.6-.2a60.5,60.5,0,0,0-7.841-.662c-3.8,0-7.631.673-10.306,3.095" transform="translate(-5.53 -80.075)" fill="none"/>
    </clipPath>
    <clipPath id="clip-path-2">
      <rect id="사각형_5163" data-name="사각형 5163" width="43.461" height="52.519" fill="none"/>
    </clipPath>
  </defs>
  <g id="그룹_12926" data-name="그룹 12926" transform="translate(2.185 31.641)">
    <g id="그룹_12925" data-name="그룹 12925" clip-path="url(#clip-path)">
      <rect id="사각형_5162" data-name="사각형 5162" width="41.453" height="20.878" transform="translate(-0.177)" fill="#dd488e"/>
    </g>
  </g>
  <g id="그룹_12928" data-name="그룹 12928" transform="translate(0 0)">
    <g id="그룹_12927" data-name="그룹 12927" clip-path="url(#clip-path-2)">
      <path id="패스_5302" data-name="패스 5302" d="M3.766,70.368A1.58,1.58,0,0,1,2.2,69L.014,52.78a1.582,1.582,0,0,1,.259-1.1L10.284,36.934a1.58,1.58,0,0,1,1.976-.545l10.874,5.073a1.58,1.58,0,0,1,.853,1.864L19.118,60.473a1.58,1.58,0,0,1-.676.9L4.611,70.123a1.58,1.58,0,0,1-.845.245M3.228,52.957,5,66.135l11.239-7.105,4.335-15.271-8.435-3.934Z" transform="translate(0 -21.921)" fill="#6a6a6a"/>
      <path id="패스_5303" data-name="패스 5303" d="M37.277,23a1.578,1.578,0,0,1-.667-.149l-12.8-5.971a1.581,1.581,0,0,1-.764-2.1L29.517.912a1.58,1.58,0,0,1,2.1-.764l12.8,5.972a1.581,1.581,0,0,1,.764,2.1L38.711,22.09A1.582,1.582,0,0,1,37.277,23m-10.7-8.317,9.935,4.635L41.649,8.316,31.713,3.681Z" transform="translate(-13.85 0)" fill="#6a6a6a"/>
      <path id="패스_5304" data-name="패스 5304" d="M7.109,97.029A1.581,1.581,0,0,1,5.677,94.78L12,81.233a1.581,1.581,0,1,1,2.865,1.336L8.542,96.116a1.581,1.581,0,0,1-1.433.913" transform="translate(-3.344 -48.582)" fill="#6a6a6a"/>
      <path id="패스_5305" data-name="패스 5305" d="M22.046,77a3.877,3.877,0,0,1-3.511-5.515,3.894,3.894,0,0,1,3.515-2.238,3.876,3.876,0,0,1,3.51,5.515A3.891,3.891,0,0,1,22.046,77m0-4.592a.715.715,0,1,0,.645,1.017.715.715,0,0,0-.645-1.017" transform="translate(-10.991 -41.884)" fill="#6a6a6a"/>
    </g>
  </g>
</svg>
