<svg id="그룹_12934" data-name="그룹 12934" xmlns="http://www.w3.org/2000/svg" xmlns:xlink="http://www.w3.org/1999/xlink" width="37.882" height="47.388" viewBox="0 0 37.882 47.388">
  <defs>
    <clipPath id="clip-path">
      <rect id="사각형_5164" data-name="사각형 5164" width="37.882" height="47.388" fill="#6a6a6a"/>
    </clipPath>
    <clipPath id="clip-path-2">
      <path id="패스_5309" data-name="패스 5309" d="M24.818,38.162a6.793,6.793,0,0,0,1.687,4.623,10.186,10.186,0,0,0-5.333,9.326,1.408,1.408,0,1,0,2.817,0c0-3.822,2.294-6.823,5.709-7.47A1.408,1.408,0,0,0,30.068,42a4.035,4.035,0,1,1,5.486-3.837c0,1.582-.767,2.752-2.564,3.913a1.408,1.408,0,0,0,.5,2.567c3.413.646,5.707,3.648,5.707,7.47a1.408,1.408,0,1,0,2.816,0A10.174,10.174,0,0,0,36.6,42.74a6.548,6.548,0,0,0,1.775-4.579,6.776,6.776,0,1,0-13.552,0" transform="translate(-21.172 -31.384)" fill="none"/>
    </clipPath>
  </defs>
  <g id="그룹_12931" data-name="그룹 12931" transform="translate(0 0)">
    <g id="그룹_12930" data-name="그룹 12930" clip-path="url(#clip-path)">
      <path id="패스_5306" data-name="패스 5306" d="M34.452,48.607H3.43A3.434,3.434,0,0,1,0,45.177V5.469a3.434,3.434,0,0,1,3.43-3.43h8.436a1.61,1.61,0,1,1,0,3.219H3.43a.216.216,0,0,0-.211.211V45.177a.216.216,0,0,0,.211.211H34.452a.217.217,0,0,0,.211-.211V5.469a.217.217,0,0,0-.211-.211h-8.44a1.61,1.61,0,0,1,0-3.219h8.44a3.434,3.434,0,0,1,3.43,3.43V45.177a3.434,3.434,0,0,1-3.43,3.43" transform="translate(0 -1.219)" fill="#6a6a6a"/>
      <path id="패스_5307" data-name="패스 5307" d="M36.571,101.931H1.908a1.408,1.408,0,0,1,0-2.817H36.571a1.408,1.408,0,0,1,0,2.817" transform="translate(-0.299 -59.231)" fill="#6a6a6a"/>
      <path id="패스_5308" data-name="패스 5308" d="M40.5,8.7H27.862A2.367,2.367,0,0,1,25.5,6.334V2.364A2.367,2.367,0,0,1,27.862,0H40.5A2.367,2.367,0,0,1,42.86,2.364v3.97A2.367,2.367,0,0,1,40.5,8.7M28.717,5.479H39.64V3.22H28.717Z" transform="translate(-15.238 0)" fill="#6a6a6a"/>
    </g>
  </g>
  <g id="그룹_12933" data-name="그룹 12933" transform="translate(8.52 12.629)">
    <g id="그룹_12932" data-name="그룹 12932" clip-path="url(#clip-path-2)">
      <rect id="사각형_5165" data-name="사각형 5165" width="20.843" height="22.136" transform="translate(0 0)" fill="#dd488e"/>
    </g>
  </g>
</svg>
