<svg xmlns="http://www.w3.org/2000/svg" xmlns:xlink="http://www.w3.org/1999/xlink" width="197" height="162" viewBox="0 0 197 162">
  <defs>
    <clipPath id="clip-path">
      <rect id="사각형_5494" data-name="사각형 5494" width="197" height="162" rx="10" transform="translate(0 -0.036)" fill="#2d2d2d"/>
    </clipPath>
    <clipPath id="clip-path-2">
      <rect id="사각형_5493" data-name="사각형 5493" width="193.355" height="124.061" fill="none"/>
    </clipPath>
  </defs>
  <g id="마스크_그룹_12924" data-name="마스크 그룹 12924" transform="translate(0 0.036)" clip-path="url(#clip-path)">
    <g id="그룹_13210" data-name="그룹 13210" transform="translate(22.681 33.068)">
      <g id="그룹_13209" data-name="그룹 13209" transform="translate(0)" clip-path="url(#clip-path-2)">
        <path id="패스_8775" data-name="패스 8775" d="M435.2,366.129q.323,1.943.645,3.887A20.245,20.245,0,0,0,437.112,375c.337.754.771,1.611.417,2.357a1.935,1.935,0,0,1-1.479.938c-2.249.382-4.434-1.351-5.312-3.457a14.009,14.009,0,0,1-.528-6.752,2.929,2.929,0,0,1,.991-2.323" transform="translate(-366.441 -261.885)" fill="#403936"/>
        <path id="패스_8776" data-name="패스 8776" d="M434.586,377.852a4.09,4.09,0,0,0,.69-.059,2.229,2.229,0,0,0,1.719-1.12,2.947,2.947,0,0,0-.346-2.479l-.068-.151a20.018,20.018,0,0,1-1.245-4.9l-.645-3.887a.327.327,0,1,0-.644.107l.644,3.887a20.522,20.522,0,0,0,1.293,5.063l.069.153c.3.674.618,1.371.352,1.931a1.681,1.681,0,0,1-1.238.757c-2.183.372-4.182-1.4-4.956-3.261a13.713,13.713,0,0,1-.5-6.595,2.651,2.651,0,0,1,.84-2.077.327.327,0,1,0-.346-.553,3.163,3.163,0,0,0-1.143,2.568,14.251,14.251,0,0,0,.552,6.909,5.842,5.842,0,0,0,4.978,3.711" transform="translate(-365.612 -261.062)" fill="#545454"/>
        <path id="패스_8777" data-name="패스 8777" d="M441.535,353.271l-1.08,4.152a.473.473,0,0,1-.1.217.431.431,0,0,1-.2.1,4.478,4.478,0,0,1-2.346-.174,1.264,1.264,0,0,1-.458-.191c-.386-.3-.313-.888-.216-1.366a25.265,25.265,0,0,0,.5-4.473" transform="translate(-372.306 -251.7)" fill="#ffe2d1"/>
        <path id="패스_8778" data-name="패스 8778" d="M438.6,357.34a3.026,3.026,0,0,0,.826-.109.732.732,0,0,0,.346-.188.768.768,0,0,0,.179-.361l1.08-4.152a.327.327,0,0,0-.633-.164l-1.08,4.152c0,.018-.014.053-.021.073a.3.3,0,0,0-.049.013,4.231,4.231,0,0,1-2.173-.175,1.039,1.039,0,0,1-.342-.134c-.236-.182-.175-.653-.1-1.043a25.624,25.624,0,0,0,.509-4.53.326.326,0,0,0-.319-.334.331.331,0,0,0-.334.319,24.962,24.962,0,0,1-.5,4.415c-.076.37-.252,1.237.337,1.69a1.571,1.571,0,0,0,.573.248,6.644,6.644,0,0,0,1.693.282" transform="translate(-371.482 -250.876)" fill="#545454"/>
        <path id="패스_8779" data-name="패스 8779" d="M419.83,203.862c4.894,1.647,10.365,3.673,15.259,5.32,2.611.879,5.432,1.919,6.866,4.271,1.635,2.68.916,6.1.306,9.18-1.726,8.716-2.249,17.975-6.79,25.612a1.089,1.089,0,0,1-.256.326,1.123,1.123,0,0,1-.8.12l-3.642-.369c-.69-.07.481-15.092.623-16.495s.3-2.778.489-4.162c.218-1.631.523-1.932-1.039-2.556-2.532-1.011-4.952-5.695-7.324-7.038,0,0-13.064-4.733-14.105-8.141a7.814,7.814,0,0,1,.095-5.585Z" transform="translate(-365.752 -145.965)" fill="#fff"/>
        <path id="패스_8780" data-name="패스 8780" d="M433.892,248.213a1.143,1.143,0,0,0,.707-.205,1.4,1.4,0,0,0,.339-.418c3.52-5.92,4.659-12.877,5.76-19.6.329-2.014.67-4.1,1.069-6.111l.034-.172c.6-3.048,1.289-6.5-.382-9.242-1.447-2.372-4.156-3.44-7.041-4.41-2.443-.822-5.075-1.755-7.619-2.657s-5.189-1.839-7.64-2.664a.352.352,0,0,0-.12-.017l-10.32.481a.326.326,0,0,0-.274.175,8.084,8.084,0,0,0-.117,5.832c1.063,3.478,13.445,8.039,14.28,8.343a14.808,14.808,0,0,1,3.218,3.229c1.32,1.594,2.686,3.241,4.123,3.815,1.11.444,1.1.532.925,1.613-.028.177-.059.375-.089.6-.184,1.375-.349,2.78-.491,4.173-.074.731-.4,4.878-.625,8.761-.456,8.015-.125,8.049.294,8.091l3.642.369a3.222,3.222,0,0,0,.326.02m-14.923-44.845c2.43.818,5.044,1.745,7.572,2.641,2.547.9,5.181,1.836,7.629,2.66,2.766.93,5.359,1.947,6.692,4.131,1.538,2.522.88,5.844.3,8.775l-.034.172c-.4,2.026-.743,4.113-1.073,6.132-1.091,6.668-2.22,13.562-5.676,19.376a.878.878,0,0,1-.173.233.9.9,0,0,1-.572.055l-3.483-.353c-.365-1.5.516-13.78.756-16.153.14-1.386.3-2.783.488-4.152.029-.216.059-.408.087-.581.2-1.252.189-1.716-1.328-2.322-1.282-.513-2.594-2.1-3.862-3.626a14.724,14.724,0,0,0-3.423-3.394.316.316,0,0,0-.05-.023c-3.591-1.3-13.089-5.263-13.9-7.93a7.918,7.918,0,0,1,0-5.173Z" transform="translate(-364.937 -145.142)" fill="#545454"/>
        <path id="패스_8781" data-name="패스 8781" d="M482.881,3.588A9.373,9.373,0,0,1,485.207,8.3c.381,1.738.489,3.525.782,5.28a11.38,11.38,0,0,0,1.848,4.952.954.954,0,0,1,.283.746.826.826,0,0,1-.328.412,10.366,10.366,0,0,1-3.007,1.566c-3.968,1.4-8.3,1.359-12.476.833-3.357-.423-6.793-1.2-9.516-3.234A21.856,21.856,0,0,0,465.3,11a28.165,28.165,0,0,1,.4-3.058,9.226,9.226,0,0,1,6.634-6.633c2.064-.527,3.554.37,5.53.593,1.886.213,3.561.245,5.013,1.686" transform="translate(-426.213 -0.82)" fill="#ab7d66"/>
        <path id="패스_8782" data-name="패스 8782" d="M476.448,21.938a22.614,22.614,0,0,0,7.621-1.19,10.659,10.659,0,0,0,3.1-1.617,1.115,1.115,0,0,0,.442-.588,1.239,1.239,0,0,0-.337-1.02,10.875,10.875,0,0,1-1.788-4.812c-.117-.7-.206-1.423-.293-2.122-.129-1.044-.262-2.123-.493-3.175a9.628,9.628,0,0,0-2.414-4.879C480.9,1.157,479.314.991,477.636.816c-.183-.019-.367-.038-.554-.059A14.03,14.03,0,0,1,475.253.39a7.333,7.333,0,0,0-3.819-.218,9.58,9.58,0,0,0-6.871,6.875,17.4,17.4,0,0,0-.32,2.236c-.029.286-.057.573-.091.858a21.68,21.68,0,0,1-2.469,7.742.327.327,0,0,0,.091.418c2.967,2.216,6.727,2.926,9.671,3.3a40.126,40.126,0,0,0,5,.341M472.809.653a9.389,9.389,0,0,1,2.286.371,14.534,14.534,0,0,0,1.913.382c.189.021.375.041.559.06,1.628.17,3.034.317,4.26,1.534a9,9,0,0,1,2.236,4.555c.224,1.022.355,2.086.483,3.115.087.7.177,1.434.3,2.149a11.5,11.5,0,0,0,1.907,5.092c.11.148.26.351.229.471-.022.084-.151.186-.214.236a9.885,9.885,0,0,1-2.914,1.514c-3.381,1.191-7.3,1.451-12.327.817-2.788-.351-6.324-1.011-9.134-3.006a22.337,22.337,0,0,0,2.408-7.725c.035-.29.064-.58.093-.871A16.962,16.962,0,0,1,465.2,7.2a8.911,8.911,0,0,1,6.4-6.39,4.848,4.848,0,0,1,1.213-.153m9.249,2.115h0Z" transform="translate(-425.39 0)" fill="#545454"/>
        <path id="패스_8783" data-name="패스 8783" d="M469.232,202.366c3.158.583,9.081,5.051,11.862,6.658a9.608,9.608,0,0,1,2.8,2.221,10.542,10.542,0,0,1,1.776,5.721,111.742,111.742,0,0,1,.231,11.669q-.077,5.19-.156,10.38a65.344,65.344,0,0,1-.513,8.643.841.841,0,0,1-.973.867,23.943,23.943,0,0,1-4.054-.01.865.865,0,0,1-.59-.21.886.886,0,0,1-.168-.473c-.746-4.94-2.489-9.664-3.846-14.472s-2.337-9.859-1.509-14.785c0,0-9.384-3.427-15.039-6.357,0,0-7.763-.267-4.544-9.639s14.718-.214,14.718-.214" transform="translate(-421.454 -142.025)" fill="#fff"/>
        <path id="패스_8784" data-name="패스 8784" d="M481.472,248.106q1,0,2-.082a1.426,1.426,0,0,0,.968-.369,1.41,1.41,0,0,0,.3-.776,65.963,65.963,0,0,0,.516-8.686l.156-10.38a112.412,112.412,0,0,0-.233-11.7,10.823,10.823,0,0,0-1.846-5.894,9.964,9.964,0,0,0-2.895-2.3c-.765-.442-1.756-1.093-2.9-1.848-2.958-1.945-6.632-4.36-8.982-4.833-.726-.566-6.749-5.107-11.254-3.792a6,6,0,0,0-3.914,4.206c-1.121,3.265-1.064,5.829.169,7.62a6.294,6.294,0,0,0,4.6,2.447c5.1,2.63,13.227,5.679,14.761,6.248-.808,5.224.4,10.569,1.56,14.661.379,1.344.8,2.7,1.2,4.016a73.521,73.521,0,0,1,2.64,10.415.967.967,0,0,0,1.052.96c.7.061,1.407.092,2.113.092m-22.434-50.248c4.168,0,9.113,3.891,9.169,3.936a.327.327,0,0,0,.144.066c2.216.409,5.879,2.817,8.822,4.752,1.156.76,2.155,1.417,2.936,1.868a9.381,9.381,0,0,1,2.71,2.142,10.269,10.269,0,0,1,1.707,5.547,112.116,112.116,0,0,1,.231,11.635l-.156,10.38a65.493,65.493,0,0,1-.509,8.6.874.874,0,0,1-.137.432.883.883,0,0,1-.54.158,23.7,23.7,0,0,1-4-.01c-.108-.01-.308-.027-.375-.1a.7.7,0,0,1-.088-.3,74.014,74.014,0,0,0-2.661-10.509c-.4-1.31-.816-2.665-1.194-4-1.156-4.1-2.372-9.463-1.5-14.643a.327.327,0,0,0-.21-.361c-.094-.034-9.429-3.454-15-6.34a.327.327,0,0,0-.139-.036,5.773,5.773,0,0,1-4.161-2.173c-1.106-1.612-1.135-3.978-.086-7.033a5.39,5.39,0,0,1,3.478-3.791,5.56,5.56,0,0,1,1.559-.21m9.372,3.68h0Z" transform="translate(-420.632 -141.197)" fill="#545454"/>
        <path id="패스_8785" data-name="패스 8785" d="M437.115,113.388a11.231,11.231,0,0,1-3.444-5.16,33.5,33.5,0,0,1-1.327-6.135c-.385-2.542-.77-5.085-1.011-7.645a25.883,25.883,0,0,1-.144-3.04,31.93,31.93,0,0,1,.637-4.952,8.747,8.747,0,0,1,.905-2.943,7.091,7.091,0,0,1,3.584-2.69,18.173,18.173,0,0,1,5.649-1.3l11.865.781a9.4,9.4,0,0,1,5.925,3.609c2.477,3.334,2.5,7.8,2.905,11.842a52.376,52.376,0,0,0,1.154,6.9,22.308,22.308,0,0,0,1.432,4.38,23.458,23.458,0,0,0,3.016,4.58q1.93,2.415,4.074,4.649l-3.174,2.984a.928.928,0,0,1-.574.321.889.889,0,0,1-.527-.235,22.019,22.019,0,0,1-2.478-2.321l-3.073-3.191a34.667,34.667,0,0,1-5.566-6.865,34.637,34.637,0,0,1-2.4-5.867" transform="translate(-401.44 -56.942)" fill="#ffcdcd"/>
        <path id="패스_8786" data-name="패스 8786" d="M467.758,119.077h.015a1.231,1.231,0,0,0,.792-.41l3.174-2.984a.327.327,0,0,0,.012-.464c-1.415-1.473-2.779-3.03-4.054-4.626a23.454,23.454,0,0,1-2.976-4.515,22.371,22.371,0,0,1-1.41-4.317,52.269,52.269,0,0,1-1.147-6.854c-.055-.558-.1-1.124-.152-1.694-.308-3.62-.627-7.364-2.816-10.311a9.705,9.705,0,0,0-6.134-3.736l-.033,0-11.866-.781a.263.263,0,0,0-.042,0,18.407,18.407,0,0,0-5.75,1.318,7.206,7.206,0,0,0-3.742,2.826,9.108,9.108,0,0,0-.946,3.052,32.349,32.349,0,0,0-.642,5,26.507,26.507,0,0,0,.145,3.078c.242,2.568.634,5.157,1.013,7.661a33.843,33.843,0,0,0,1.342,6.2,11.409,11.409,0,0,0,3.549,5.308.327.327,0,1,0,.4-.512,10.77,10.77,0,0,1-3.338-5.012,33.365,33.365,0,0,1-1.312-6.076c-.378-2.5-.769-5.077-1.009-7.626a25.846,25.846,0,0,1-.142-3,31.809,31.809,0,0,1,.632-4.9,8.459,8.459,0,0,1,.865-2.835,6.6,6.6,0,0,1,3.426-2.554,17.767,17.767,0,0,1,5.526-1.271l11.828.778a9.047,9.047,0,0,1,5.7,3.479c2.078,2.8,2.389,6.447,2.689,9.977.049.573.1,1.142.153,1.7a52.869,52.869,0,0,0,1.161,6.94,22.97,22.97,0,0,0,1.455,4.444A24.042,24.042,0,0,0,467.185,111c1.219,1.526,2.519,3.016,3.866,4.432l-2.934,2.759c-.124.117-.254.231-.356.233a.7.7,0,0,1-.323-.168,21.922,21.922,0,0,1-2.44-2.287l-3.073-3.191a34.43,34.43,0,0,1-5.516-6.8,34.5,34.5,0,0,1-2.374-5.813.327.327,0,0,0-.619.21,34.954,34.954,0,0,0,2.423,5.922,34.915,34.915,0,0,0,5.616,6.932l3.073,3.19a22.394,22.394,0,0,0,2.515,2.354,1.219,1.219,0,0,0,.716.3" transform="translate(-400.617 -56.119)" fill="#545454"/>
        <path id="패스_8787" data-name="패스 8787" d="M496.108,74.762a4.744,4.744,0,0,0-1.684-.016,1.61,1.61,0,0,0-1.227,1.046c-.232.853.5,1.632,1.13,2.251a21.852,21.852,0,0,1,3.883,5.148,11.162,11.162,0,0,0,3.342-3.984c.043.341.186.253.442.483l3.55,3.176a7.252,7.252,0,0,0-.036-5.292,2.191,2.191,0,0,0-1.533-1.128c-1.113-.21-7.867-1.684-7.867-1.684" transform="translate(-452.728 -53.467)" fill="#fff"/>
        <path id="패스_8788" data-name="패스 8788" d="M497.384,82.7a.328.328,0,0,0,.212-.078,12.389,12.389,0,0,0,3.2-3.615.767.767,0,0,1,.158.108l3.551,3.176a.327.327,0,0,0,.522-.125,7.572,7.572,0,0,0-.037-5.533A2.512,2.512,0,0,0,503.21,75.3c-1.1-.207-7.79-1.667-7.858-1.682l-.027,0a5.043,5.043,0,0,0-1.8-.011,1.929,1.929,0,0,0-1.469,1.279c-.3,1.085.65,2.015,1.216,2.57a21.475,21.475,0,0,1,3.825,5.071.327.327,0,0,0,.227.165.331.331,0,0,0,.06.005m3.342-4.637a.327.327,0,0,0-.3.2,10.28,10.28,0,0,1-2.951,3.606,22.121,22.121,0,0,0-3.746-4.873c-.6-.588-1.223-1.271-1.043-1.932a1.283,1.283,0,0,1,.986-.814,4.426,4.426,0,0,1,1.554.021c.428.093,6.771,1.477,7.862,1.682a1.855,1.855,0,0,1,1.3.943,6.91,6.91,0,0,1,.186,4.586l-3.186-2.85a1.443,1.443,0,0,0-.285-.2c-.014-.008-.028-.014-.04-.022a.417.417,0,0,1-.011-.061.326.326,0,0,0-.278-.282.321.321,0,0,0-.047,0" transform="translate(-451.903 -52.644)" fill="#545454"/>
        <path id="패스_8789" data-name="패스 8789" d="M507.975,57.355a16.6,16.6,0,0,0,.089,5.6.5.5,0,0,1-.014.336c-.052.093-1.37,1.791-2.547,1.57s-5.549-2.645-5.664-3.079a1.494,1.494,0,0,1,.294-1.073,29.593,29.593,0,0,0,2.618-6.07" transform="translate(-456.679 -39.124)" fill="#ffe5dd"/>
        <path id="패스_8790" data-name="패스 8790" d="M504.9,64.387c1.352,0,2.6-1.739,2.613-1.758a.8.8,0,0,0,.049-.555,16.178,16.178,0,0,1-.087-5.493.327.327,0,0,0-.645-.1,16.826,16.826,0,0,0,.091,5.714.839.839,0,0,1,.016.123c-.183.256-1.316,1.57-2.2,1.4a22.44,22.44,0,0,1-5.417-2.876,1.338,1.338,0,0,1,.27-.792,29.936,29.936,0,0,0,2.647-6.137.327.327,0,1,0-.625-.19,29.3,29.3,0,0,1-2.589,6,1.789,1.789,0,0,0-.326,1.318c.186.7,4.88,3.12,5.919,3.316a1.492,1.492,0,0,0,.28.026" transform="translate(-455.855 -38.301)" fill="#545454"/>
        <path id="패스_8791" data-name="패스 8791" d="M495.947,28.854a12.1,12.1,0,0,1-.712,3.977,4.1,4.1,0,0,1-2.921,2.567,5.414,5.414,0,0,1-2.543-.374,25.165,25.165,0,0,1-3.231-1.342,5.117,5.117,0,0,1-2.281-2.833c-.979.037-2.555.225-3.42-.236a3.2,3.2,0,0,1-1.712-2.259,1.459,1.459,0,0,1,.12-.917,1.676,1.676,0,0,1,1.562-.666,4.456,4.456,0,0,1,2.245.68,4.992,4.992,0,0,0,1.078.625.979.979,0,0,0,1.123-.294,1.364,1.364,0,0,0-.04-1.16c-.671-1.918-.448-3.782,1.547-6.632.664-.949,6.522-1.034,7.133-.641a4.611,4.611,0,0,1,2.05,2.9c.588,2.13.145,4.412,0,6.609" transform="translate(-438.953 -13.695)" fill="#ffe5dd"/>
        <path id="패스_8792" data-name="패스 8792" d="M490.976,34.97a3.588,3.588,0,0,0,.569-.044,4.41,4.41,0,0,0,3.17-2.762,12.485,12.485,0,0,0,.737-4.083c.032-.485.079-.986.125-1.471a14.492,14.492,0,0,0-.139-5.246,4.976,4.976,0,0,0-2.188-3.086c-.666-.428-6.773-.421-7.578.729-1.9,2.714-2.359,4.72-1.587,6.927a1.116,1.116,0,0,1,.073.878.678.678,0,0,1-.747.158,2.922,2.922,0,0,1-.719-.4c-.095-.064-.189-.129-.285-.189a4.759,4.759,0,0,0-2.411-.73,1.939,1.939,0,0,0-1.857.835,1.753,1.753,0,0,0-.157,1.123,3.5,3.5,0,0,0,1.882,2.5,6.383,6.383,0,0,0,3.077.3l.287-.016a5.208,5.208,0,0,0,2.346,2.789,25.566,25.566,0,0,0,3.273,1.359,6.786,6.786,0,0,0,2.13.431m3.824-6.931a11.8,11.8,0,0,1-.687,3.87,3.806,3.806,0,0,1-2.672,2.372,5.147,5.147,0,0,1-2.387-.361,24.876,24.876,0,0,1-3.19-1.324,4.844,4.844,0,0,1-2.127-2.669.322.322,0,0,0-.313-.2c-.16.006-.336.016-.522.027a6.15,6.15,0,0,1-2.733-.225,2.885,2.885,0,0,1-1.542-2.019,1.169,1.169,0,0,1,.083-.711c.268-.485,1.039-.5,1.268-.5a4.109,4.109,0,0,1,2.08.63c.089.057.178.116.265.177a3.47,3.47,0,0,0,.887.483,1.3,1.3,0,0,0,1.5-.431,1.689,1.689,0,0,0-.008-1.442c-.586-1.675-.554-3.394,1.506-6.337.529-.756,6.063-.9,6.692-.552a4.306,4.306,0,0,1,1.909,2.709,14.012,14.012,0,0,1,.118,5.011c-.046.489-.094,1-.126,1.49" transform="translate(-438.132 -12.901)" fill="#545454"/>
        <path id="패스_8793" data-name="패스 8793" d="M490.758,47.9a.326.326,0,0,0,.272-.146l.585-.881a.327.327,0,0,0-.164-.489,3.076,3.076,0,0,1-1.1-.673.327.327,0,1,0-.451.473,3.734,3.734,0,0,0,.95.657l-.366.552a.327.327,0,0,0,.272.507" transform="translate(-437.42 -32.668)" fill="#545454"/>
        <path id="패스_8794" data-name="패스 8794" d="M505.66,37.162a.327.327,0,0,0,.053-.649,5.208,5.208,0,0,0-1.4-.043.327.327,0,1,0,.068.65,4.566,4.566,0,0,1,1.222.037.319.319,0,0,0,.054,0" transform="translate(-455.776 -26.092)" fill="#545454"/>
        <path id="패스_8795" data-name="패스 8795" d="M503.428,119.14a17.044,17.044,0,0,1-.2,3.3c-.509,3.083-1.98,5.96-2.353,9.063a26.161,26.161,0,0,0-.067,4.028q.114,3.251.227,6.5a1.508,1.508,0,0,1-.1.746,1.4,1.4,0,0,1-.387.424,12.026,12.026,0,0,1-6.3,2.444,25.692,25.692,0,0,1-6.822-.342,60.184,60.184,0,0,1-7.2-1.606" transform="translate(-446.466 -85.304)" fill="#ffcdcd"/>
        <path id="패스_8796" data-name="패스 8796" d="M491.444,145.252a18.477,18.477,0,0,0,2.011-.1,12.316,12.316,0,0,0,6.47-2.515,1.7,1.7,0,0,0,.472-.529,1.794,1.794,0,0,0,.136-.906l-.227-6.5a26,26,0,0,1,.065-3.978,26.005,26.005,0,0,1,1.2-4.768,30.292,30.292,0,0,0,1.146-4.28,17.209,17.209,0,0,0,.209-3.361.318.318,0,0,0-.336-.317.326.326,0,0,0-.316.336,16.59,16.59,0,0,1-.2,3.235,29.839,29.839,0,0,1-1.123,4.188,26.456,26.456,0,0,0-1.232,4.889,26.492,26.492,0,0,0-.069,4.078l.227,6.5a1.284,1.284,0,0,1-.065.586,1.138,1.138,0,0,1-.3.319,11.67,11.67,0,0,1-6.129,2.373,25.738,25.738,0,0,1-6.735-.34,59.984,59.984,0,0,1-7.16-1.6.327.327,0,0,0-.181.628,60.644,60.644,0,0,0,7.238,1.615,31.23,31.23,0,0,0,4.9.449" transform="translate(-445.641 -84.48)" fill="#545454"/>
        <path id="패스_8797" data-name="패스 8797" d="M482.147,35.234a.329.329,0,0,0,.078-.009,3.63,3.63,0,0,1,1.6-.086.327.327,0,0,0,.086-.648,4.268,4.268,0,0,0-1.842.1.327.327,0,0,0,.077.644" transform="translate(-427.679 -24.655)" fill="#545454"/>
        <path id="패스_8798" data-name="패스 8798" d="M525.948,50.273a.326.326,0,0,0,.263-.133,1.874,1.874,0,0,1,2.679-.353.327.327,0,0,0,.408-.51,2.528,2.528,0,0,0-3.613.476.327.327,0,0,0,.263.52" transform="translate(-485.344 -34.886)" fill="#545454"/>
        <path id="패스_8799" data-name="패스 8799" d="M527.649,52.171a1.585,1.585,0,0,0,.753-.185.327.327,0,1,0-.31-.575,1,1,0,0,1-1.1-.137,2.29,2.29,0,0,1-.531-1.129.327.327,0,1,0-.63.172,2.868,2.868,0,0,0,.72,1.44,1.642,1.642,0,0,0,1.1.414" transform="translate(-484.552 -35.731)" fill="#545454"/>
        <path id="패스_8800" data-name="패스 8800" d="M493.141,13.943a7.427,7.427,0,0,1,1.045,5.046,4.733,4.733,0,0,0-1.209.1,5.093,5.093,0,0,0-.916-2.2,11.122,11.122,0,0,1-.308,1.819.235.235,0,0,1-.254.229l-1.493.141a.2.2,0,0,1-.158-.029.2.2,0,0,1-.049-.118,10.086,10.086,0,0,1,.4-4.952" transform="translate(-439.98 -9.983)" fill="#ab7d66"/>
        <path id="패스_8801" data-name="패스 8801" d="M492.157,18.593a.312.312,0,0,0,.069-.007,4.4,4.4,0,0,1,1.125-.093.331.331,0,0,0,.338-.276,7.784,7.784,0,0,0-1.092-5.27.327.327,0,1,0-.552.348,7.133,7.133,0,0,1,1.036,4.54,5.049,5.049,0,0,0-.664.053,5.42,5.42,0,0,0-.912-2.01.327.327,0,0,0-.589.166,10.811,10.811,0,0,1-.3,1.753l-1.341.126a9.752,9.752,0,0,1,.41-4.656.327.327,0,0,0-.618-.212,10.4,10.4,0,0,0-.414,5.113.468.468,0,0,0,.559.417l1.493-.14a.612.612,0,0,0,.314-.1.618.618,0,0,0,.227-.372c.078-.3.143-.61.2-.919a4.751,4.751,0,0,1,.39,1.266.327.327,0,0,0,.323.275" transform="translate(-439.159 -9.16)" fill="#545454"/>
        <path id="패스_8802" data-name="패스 8802" d="M407.777,207s-11.809-5.021-12.092-5.657,21.78-3.748,21.78-3.748l13.332,7.614Z" transform="translate(-349.817 -141.478)" fill="#a8a8a8"/>
        <path id="패스_8803" data-name="패스 8803" d="M406.953,206.5h.025L430,204.711a.327.327,0,0,0,.137-.609L416.8,196.488a.33.33,0,0,0-.207-.04c-.054.008-5.411.764-10.748,1.6-10.949,1.708-11.134,2.042-11.269,2.285a.358.358,0,0,0-.016.322c.277.623,6.821,3.512,12.263,5.825a.323.323,0,0,0,.128.026m21.935-2.361-21.881,1.7c-3.933-1.674-10.02-4.362-11.545-5.27,2.305-.676,13.774-2.428,21.113-3.465Z" transform="translate(-348.992 -140.654)" fill="#545454"/>
        <path id="패스_8804" data-name="패스 8804" d="M485.254,199.609c.105.31.179.709-.073.919a.771.771,0,0,1-.424.14,8,8,0,0,1-4.555-1.37,10.383,10.383,0,0,0-4.476-1.7,1.287,1.287,0,0,1-.773-.174c-.389-.31-.211-.938.064-1.352a5.826,5.826,0,0,1,5.711-2.253c2.426.678,3.793,3.628,4.526,5.789" transform="translate(-426.821 -138.679)" fill="#ffe2d1"/>
        <path id="패스_8805" data-name="패스 8805" d="M483.486,200.207a4.7,4.7,0,0,0,.484-.025,1.07,1.07,0,0,0,.6-.215c.312-.261.37-.689.172-1.274-1.162-3.425-2.759-5.443-4.747-6a6.178,6.178,0,0,0-6.071,2.387,1.324,1.324,0,0,0,.005,1.788,1.449,1.449,0,0,0,.9.242l.064,0a9.58,9.58,0,0,1,4.118,1.54l.211.117a9.1,9.1,0,0,0,4.263,1.435m.638-1.3c.1.286.107.5.027.563a.569.569,0,0,1-.248.066,7.782,7.782,0,0,1-4.363-1.331l-.21-.117a10.06,10.06,0,0,0-4.411-1.622l-.067,0a.948.948,0,0,1-.515-.1c-.214-.171-.052-.639.133-.917a5.537,5.537,0,0,1,5.351-2.118c1.768.494,3.216,2.371,4.3,5.579" transform="translate(-426 -137.869)" fill="#545454"/>
        <path id="패스_8806" data-name="패스 8806" d="M526.759,148.214a.327.327,0,0,0,.228-.561l-7.92-7.69-.383-11.664a.32.32,0,0,0-.337-.316.326.326,0,0,0-.315.337l.387,11.8a.328.328,0,0,0,.1.224l8.015,7.781a.325.325,0,0,0,.227.092" transform="translate(-480.853 -91.636)" fill="#545454"/>
        <path id="패스_8807" data-name="패스 8807" d="M379.177,183.016c-.39-.022-.279-.663-.116-1.014a96.136,96.136,0,0,0,5.436-15.647.755.755,0,0,1,.809-.758l20.306-1.669a1.22,1.22,0,0,1,1.1.276c-1.968,5.5-1.839,11.724-4.763,16.788-7.4,1.861-12.029,2.624-22.77,2.024" transform="translate(-320.967 -117.362)" fill="#a8a8a8"/>
        <path id="패스_8808" data-name="패스 8808" d="M384.776,182.715a59.4,59.4,0,0,0,16.427-2.235.326.326,0,0,0,.2-.153c1.765-3.057,2.442-6.568,3.1-9.963a46.716,46.716,0,0,1,1.691-6.878.326.326,0,0,0-.049-.309,1.52,1.52,0,0,0-1.383-.4l-20.306,1.669a1.064,1.064,0,0,0-1.1,1,95.867,95.867,0,0,1-5.416,15.591,1.444,1.444,0,0,0-.075,1.2.566.566,0,0,0,.469.279c2.423.135,4.538.2,6.441.2m-6.422-.527.017-.326h0l-.018.326.018-.326Zm22.555-2.307c-7.172,1.8-11.781,2.579-22.492,1.983a1.179,1.179,0,0,1,.116-.552,97.377,97.377,0,0,0,5.456-15.7c.05-.194.108-.388.217-.454a.8.8,0,0,1,.3-.061l20.306-1.669a1.485,1.485,0,0,1,.688.054,48.753,48.753,0,0,0-1.642,6.761c-.636,3.3-1.293,6.706-2.953,9.641" transform="translate(-320.143 -116.534)" fill="#545454"/>
        <path id="패스_8809" data-name="패스 8809" d="M484.677,45.073h0a.284.284,0,0,0,.262-.177,2.518,2.518,0,0,0,.152-1.365.35.35,0,0,0-.609-.022,1.63,1.63,0,0,0-.068,1.39.284.284,0,0,0,.262.174" transform="translate(-429.311 -30.998)" fill="#545454"/>
        <path id="패스_8810" data-name="패스 8810" d="M505.068,44.478h0a.284.284,0,0,0,.262-.177,2.52,2.52,0,0,0,.152-1.365.35.35,0,0,0-.608-.022,1.627,1.627,0,0,0-.068,1.39.284.284,0,0,0,.262.174" transform="translate(-455.493 -30.572)" fill="#545454"/>
        <path id="패스_8811" data-name="패스 8811" d="M490.935,60.834a7.991,7.991,0,0,0,2.126-.285.327.327,0,1,0-.175-.63,7.406,7.406,0,0,1-4.085-.052.327.327,0,0,0-.19.625,8,8,0,0,0,2.324.342" transform="translate(-438.647 -42.855)" fill="#545454"/>
        <path id="패스_8812" data-name="패스 8812" d="M545.126,171.2a.321.321,0,0,0,.118-.022,7.408,7.408,0,0,1,1.643-.5,2.246,2.246,0,0,1,1.511.263.327.327,0,0,0,.353-.55,2.9,2.9,0,0,0-1.952-.361,7.878,7.878,0,0,0-1.791.535.327.327,0,0,0,.118.631" transform="translate(-510.271 -121.717)" fill="#545454"/>
        <path id="패스_8813" data-name="패스 8813" d="M459.833,163.266a.324.324,0,0,0,.163-.044,3.015,3.015,0,0,1,2.076-.34.327.327,0,0,0,.129-.64,3.674,3.674,0,0,0-2.532.415.327.327,0,0,0,.164.609" transform="translate(-399.609 -116.115)" fill="#545454"/>
        <path id="패스_8814" data-name="패스 8814" d="M380.124,193.42a2.82,2.82,0,0,0-1.273.691.971.971,0,0,0-.039,1.319c.153.135.375.218.441.411a.646.646,0,0,1-.01.336l-.37,1.779a1.277,1.277,0,0,0-.038.467.858.858,0,0,0,.731.639,2.225,2.225,0,0,0,1.018-.14,12.594,12.594,0,0,0,2.8-1.28,3.652,3.652,0,0,0,.855-.671c.775-.885,1.066-3.792.176-4.71-.487-.5-1.058-.048-1.585.193a27.2,27.2,0,0,1-2.7.966" transform="translate(-299.121 -137.496)" fill="#ffe2d1"/>
        <path id="패스_8815" data-name="패스 8815" d="M378.97,198.586a2.987,2.987,0,0,0,.9-.172,12.911,12.911,0,0,0,2.87-1.313,3.948,3.948,0,0,0,.929-.734c.83-.948,1.217-4.068.165-5.153-.571-.59-1.247-.239-1.694-.007-.088.045-.175.091-.261.13a18.929,18.929,0,0,1-2.041.747c-.211.068-.421.136-.63.206a3.109,3.109,0,0,0-1.414.784,1.479,1.479,0,0,0-.36.871,1.09,1.09,0,0,0,.349.908,1.869,1.869,0,0,0,.191.143.6.6,0,0,1,.157.129.589.589,0,0,1-.02.165l-.37,1.778a1.577,1.577,0,0,0-.041.587,1.18,1.18,0,0,0,1,.908,1.686,1.686,0,0,0,.27.021m4.124-7.044a.359.359,0,0,1,.27.127c.732.755.5,3.481-.187,4.268a3.374,3.374,0,0,1-.78.609,12.255,12.255,0,0,1-2.725,1.246,1.965,1.965,0,0,1-.866.129.547.547,0,0,1-.462-.37,1.063,1.063,0,0,1,.036-.347l.37-1.779a.945.945,0,0,0,0-.507.934.934,0,0,0-.409-.46,1.179,1.179,0,0,1-.126-.092.467.467,0,0,1-.13-.378.822.822,0,0,1,.2-.479,2.58,2.58,0,0,1,1.132-.6c.207-.069.415-.137.624-.2a19.444,19.444,0,0,0,2.112-.775c.1-.044.193-.094.29-.145a1.655,1.655,0,0,1,.654-.245" transform="translate(-298.307 -136.677)" fill="#545454"/>
        <path id="패스_8816" data-name="패스 8816" d="M438.592,276.86a.326.326,0,0,0,.2-.07l2.2-1.744a.327.327,0,0,0-.406-.512l-2.2,1.744a.327.327,0,0,0,.2.582" transform="translate(-372.233 -196.514)" fill="#545454"/>
        <rect id="사각형_5491" data-name="사각형 5491" width="27.794" height="9.064" transform="translate(94.383 68.319)" fill="#545454"/>
        <path id="패스_8817" data-name="패스 8817" d="M249.8,249.127H277.6a.327.327,0,0,0,.327-.327v-9.064a.327.327,0,0,0-.327-.327H249.8a.327.327,0,0,0-.327.327V248.8a.327.327,0,0,0,.327.327m27.467-.653H250.13v-8.411h27.14Z" transform="translate(-155.421 -171.417)" fill="#545454"/>
        <path id="패스_8818" data-name="패스 8818" d="M273.061,211.1c-2.536,1.363-5.621.523-8.494.339-3.421-.218-6.867.556-10.27.148-1.949-.233-4.128-1.13-4.642-3.024a5.761,5.761,0,0,1,.227-2.946A10.334,10.334,0,0,1,251,202.7c1.468-2.33,4.378-3.224,7.055-3.874,3.464-.841,7.062-1.573,10.573-.956s6.951,2.873,7.975,6.288" transform="translate(-154.119 -141.512)" fill="#bdbdbd"/>
        <path id="패스_8819" data-name="패스 8819" d="M268.736,211.367a7.558,7.558,0,0,0,3.658-.8.327.327,0,1,0-.31-.575c-1.867,1-4.126.746-6.31.5-.661-.075-1.344-.153-2.008-.2a35.988,35.988,0,0,0-4.739.115,29.675,29.675,0,0,1-5.514.035c-.875-.1-3.777-.615-4.366-2.785a5.459,5.459,0,0,1,.228-2.777,10.009,10.009,0,0,1,1.081-2.828c1.419-2.25,4.282-3.105,6.855-3.73,3.367-.818,6.948-1.565,10.44-.952,3.785.665,6.814,3.043,7.719,6.06a.327.327,0,0,0,.626-.187c-.974-3.251-4.205-5.809-8.231-6.516-3.617-.635-7.272.126-10.707.96-2.7.655-5.7,1.56-7.254,4.017a10.7,10.7,0,0,0-1.16,3.01,5.982,5.982,0,0,0-.227,3.114c.7,2.565,3.941,3.146,4.919,3.263a30.215,30.215,0,0,0,5.636-.032,35.556,35.556,0,0,1,4.652-.115c.648.041,1.323.118,1.976.193a27.033,27.033,0,0,0,3.036.232" transform="translate(-153.297 -140.686)" fill="#545454"/>
        <path id="패스_8820" data-name="패스 8820" d="M313.646,346.475c-.209,1.593-.118,5.105-.9,6.508-.059.105-.119.239-.051.339a.329.329,0,0,0,.221.108,12.62,12.62,0,0,0,3.476.291,5.625,5.625,0,0,0,3.211-1.241,1.344,1.344,0,0,0,.383-.469,1.532,1.532,0,0,0,.038-.816,19.008,19.008,0,0,0-2.155-6.448" transform="translate(-215.499 -246.838)" fill="#ffe2d1"/>
        <path id="패스_8821" data-name="패스 8821" d="M314.859,353.254c.244,0,.489-.009.735-.03a5.978,5.978,0,0,0,3.4-1.319,1.645,1.645,0,0,0,.469-.588,1.806,1.806,0,0,0,.061-.991,19.217,19.217,0,0,0-2.192-6.559.327.327,0,1,0-.573.315,18.563,18.563,0,0,1,2.118,6.337,1.267,1.267,0,0,1-.015.642,1.071,1.071,0,0,1-.3.35,5.333,5.333,0,0,1-3.025,1.163,12.2,12.2,0,0,1-3.322-.274c.582-1.064.7-3.073.8-4.847.038-.671.074-1.305.133-1.757a.327.327,0,0,0-.648-.085c-.062.476-.1,1.122-.138,1.805-.092,1.63-.206,3.657-.725,4.586a.645.645,0,0,0-.037.682.629.629,0,0,0,.429.246,14.789,14.789,0,0,0,2.832.326m-2.694-.847h0Z" transform="translate(-214.675 -246.015)" fill="#545454"/>
        <path id="패스_8822" data-name="패스 8822" d="M309.8,368.422a1.27,1.27,0,0,0-.5.794,4.267,4.267,0,0,0,1.091,2.165c1.645,1.049,3.734.812,5.646.539a16.82,16.82,0,0,0,3.188-.667,13.606,13.606,0,0,1,4.725-1.029,3.749,3.749,0,0,0,.79.043,1.935,1.935,0,0,0,1.26-.947c.771-1.165-.143-3.932-.6-5.266a34.719,34.719,0,0,1-3.784.987,3.153,3.153,0,0,1-2.562-.2c-.851-.467-.269-2.007-1.393-1.57-1.01.393-2.143,2.157-3.055,2.779-1.009.687-3.872,1.566-4.806,2.377" transform="translate(-220.776 -260.043)" fill="#fff"/>
        <path id="패스_8823" data-name="패스 8823" d="M312.609,371.655a18.921,18.921,0,0,0,2.631-.234,17.12,17.12,0,0,0,3.249-.682,13.619,13.619,0,0,1,4.591-1.011c.068.006.136.014.2.022a2.62,2.62,0,0,0,.655.02,2.21,2.21,0,0,0,1.49-1.091c.772-1.167.151-3.461-.558-5.551a.326.326,0,0,0-.409-.206,34.4,34.4,0,0,1-3.748.977,2.838,2.838,0,0,1-2.341-.171c-.228-.125-.3-.383-.4-.762a1.151,1.151,0,0,0-.48-.847.934.934,0,0,0-.793.021,6.241,6.241,0,0,0-1.933,1.657,8.127,8.127,0,0,1-1.188,1.156,14.186,14.186,0,0,1-2.041.97,12.281,12.281,0,0,0-2.794,1.43,1.58,1.58,0,0,0-.616,1.011,4.376,4.376,0,0,0,1.241,2.47,5.852,5.852,0,0,0,3.237.822m10.181-2.592a15.707,15.707,0,0,0-4.516,1.059,16.636,16.636,0,0,1-3.127.652c-2,.285-3.927.462-5.424-.491a4.281,4.281,0,0,1-.941-1.86.948.948,0,0,1,.392-.576h0a12.36,12.36,0,0,1,2.62-1.321,14.376,14.376,0,0,0,2.155-1.033,8.479,8.479,0,0,0,1.3-1.256,5.942,5.942,0,0,1,1.687-1.488c.194-.075.253-.052.253-.051a1.228,1.228,0,0,1,.147.421,1.646,1.646,0,0,0,.717,1.182,3.449,3.449,0,0,0,2.784.239,35.193,35.193,0,0,0,3.513-.9c.411,1.233,1.171,3.708.53,4.678a1.653,1.653,0,0,1-1.03.8,2.059,2.059,0,0,1-.495-.021c-.076-.008-.151-.017-.226-.024-.111-.009-.226-.014-.344-.014" transform="translate(-219.94 -259.22)" fill="#545454"/>
        <path id="패스_8824" data-name="패스 8824" d="M261.855,346.288c-.067,1.605-.758,5.05-.226,6.566.04.114.076.256-.007.343a.327.327,0,0,1-.236.068,12.607,12.607,0,0,1-3.475-.308,5.627,5.627,0,0,1-2.951-1.772,1.349,1.349,0,0,1-.3-.528,1.528,1.528,0,0,1,.1-.81,19,19,0,0,1,3.227-5.984" transform="translate(-140.819 -246.205)" fill="#ffe2d1"/>
        <path id="패스_8825" data-name="패스 8825" d="M259.989,352.777c.2,0,.392,0,.581-.007a.63.63,0,0,0,.465-.169.643.643,0,0,0,.08-.678c-.352-1-.118-3.02.07-4.641.079-.68.154-1.323.173-1.8a.327.327,0,0,0-.653-.027c-.019.456-.092,1.087-.169,1.755-.205,1.765-.437,3.763-.045,4.912a12.219,12.219,0,0,1-3.32-.3,5.336,5.336,0,0,1-2.781-1.664,1.066,1.066,0,0,1-.231-.4,1.267,1.267,0,0,1,.1-.635,18.561,18.561,0,0,1,3.171-5.881.327.327,0,1,0-.51-.408,19.212,19.212,0,0,0-3.283,6.088,1.811,1.811,0,0,0-.11.986,1.642,1.642,0,0,0,.362.661,5.979,5.979,0,0,0,3.12,1.881,11.791,11.791,0,0,0,2.984.326" transform="translate(-139.995 -245.382)" fill="#545454"/>
        <path id="패스_8826" data-name="패스 8826" d="M243.216,370.65a1.269,1.269,0,0,1,.361.869,4.266,4.266,0,0,1-1.445,1.946c-1.8.751-3.818.161-5.655-.435a16.834,16.834,0,0,1-3.027-1.2,13.612,13.612,0,0,0-4.48-1.822,3.733,3.733,0,0,1-.785-.093,1.934,1.934,0,0,1-1.079-1.149c-.56-1.28.814-3.85,1.488-5.086a34.7,34.7,0,0,0,3.559,1.62,3.152,3.152,0,0,0,2.56.237c.918-.315.608-1.931,1.641-1.308.928.559,1.742,2.492,2.534,3.26.876.85,3.547,2.206,4.328,3.165" transform="translate(-114.686 -260.391)" fill="#fff"/>
        <path id="패스_8827" data-name="패스 8827" d="M239.444,373.322a5.1,5.1,0,0,0,1.992-.38,4.376,4.376,0,0,0,1.645-2.221,1.581,1.581,0,0,0-.434-1.1,12.288,12.288,0,0,0-2.508-1.887,14.156,14.156,0,0,1-1.845-1.305,8.1,8.1,0,0,1-.972-1.342,6.24,6.24,0,0,0-1.621-1.964.935.935,0,0,0-.778-.157c-.339.108-.48.436-.617.753-.155.358-.274.6-.521.683a2.838,2.838,0,0,1-2.335-.233,34.494,34.494,0,0,1-3.525-1.6.326.326,0,0,0-.439.133c-1.057,1.938-2.061,4.092-1.5,5.373a2.209,2.209,0,0,0,1.281,1.33,2.6,2.6,0,0,0,.649.093c.068,0,.137.008.2.014a13.625,13.625,0,0,1,4.35,1.782,17.092,17.092,0,0,0,3.085,1.228,12.986,12.986,0,0,0,3.889.806m-4.312-9.736a.511.511,0,0,1,.233.094,5.939,5.939,0,0,1,1.408,1.755,8.481,8.481,0,0,0,1.068,1.46,14.4,14.4,0,0,0,1.947,1.386,12.339,12.339,0,0,1,2.356,1.751h0a.95.95,0,0,1,.288.635,4.279,4.279,0,0,1-1.246,1.672c-1.638.684-3.5.18-5.428-.444a16.63,16.63,0,0,1-2.969-1.178,14.054,14.054,0,0,0-4.609-1.862c-.075-.007-.151-.011-.226-.015a2.1,2.1,0,0,1-.491-.064,1.653,1.653,0,0,1-.877-.968c-.466-1.064.706-3.374,1.323-4.518a35.131,35.131,0,0,0,3.307,1.486,3.448,3.448,0,0,0,2.784.242,1.647,1.647,0,0,0,.908-1.041c.052-.121.161-.372.217-.39h.008m7.263,6.24h0Z" transform="translate(-113.865 -259.568)" fill="#545454"/>
        <path id="패스_8828" data-name="패스 8828" d="M313.811,212.625a15.11,15.11,0,0,0,.649,3.994q2.344,9.235,4.064,18.623a40.866,40.866,0,0,0,3.769,11.532,1.945,1.945,0,0,0,.567.828,1.853,1.853,0,0,0,1.21.213,35.79,35.79,0,0,0,4.387-.535.928.928,0,0,0,.639-.312,1,1,0,0,0,.125-.459c1.21-11.5-1.5-36.453-2.334-37.348a15.135,15.135,0,0,0-2.959-2.669c-4.273-2.658-10.014,1.152-10.117,6.134" transform="translate(-225.295 -147.222)" fill="#bdbdbd"/>
        <path id="패스_8829" data-name="패스 8829" d="M322.983,247.314c.116,0,.231-.005.342-.012a36.235,36.235,0,0,0,4.426-.54,1.236,1.236,0,0,0,.851-.451,1.286,1.286,0,0,0,.178-.607c1.137-10.806-1.347-36.45-2.42-37.6a15.374,15.374,0,0,0-3.026-2.724,6.363,6.363,0,0,0-6.542-.047,7.711,7.711,0,0,0-4.074,6.451,15.1,15.1,0,0,0,.64,4.006l.019.075c1.555,6.125,2.92,12.384,4.06,18.6a41.306,41.306,0,0,0,3.792,11.606,2.229,2.229,0,0,0,.675.96,1.8,1.8,0,0,0,1.078.285M320.107,205.1a5.416,5.416,0,0,1,2.883.827,14.866,14.866,0,0,1,2.892,2.615c.763,1.168,3.438,25.794,2.249,37.092a.8.8,0,0,1-.071.311c-.066.1-.256.141-.428.174a35.6,35.6,0,0,1-4.346.53,1.578,1.578,0,0,1-1-.153,1.682,1.682,0,0,1-.459-.7,40.788,40.788,0,0,1-3.746-11.457c-1.141-6.233-2.511-12.506-4.069-18.645l-.019-.075a14.611,14.611,0,0,1-.621-3.831h0A7.048,7.048,0,0,1,317.1,205.9a6.3,6.3,0,0,1,3-.8" transform="translate(-224.53 -146.384)" fill="#545454"/>
        <path id="패스_8830" data-name="패스 8830" d="M311.3,207.508c.726,1.131,1.895,1.907,2.705,2.978a8.748,8.748,0,0,1,1.478,3.74,17.236,17.236,0,0,1,.144,5.292c-.057.444-.194.965-.618,1.11-.455.156-.9-.231-1.224-.587q-1.424-1.567-2.774-3.2a9.466,9.466,0,0,1-1.331-1.927,8.2,8.2,0,0,0-1.069-2.153c-.367-.4-.867-.657-1.269-1.024a1.415,1.415,0,0,1-.523-1.446" transform="translate(-209.53 -148.575)" fill="#ffe2d1"/>
        <path id="패스_8831" data-name="패스 8831" d="M313.972,220.168a.975.975,0,0,0,.317-.053c.691-.237.8-1.1.836-1.378a17.513,17.513,0,0,0-.147-5.392,9,9,0,0,0-1.539-3.879,12.042,12.042,0,0,0-1.274-1.365,9.19,9.19,0,0,1-1.418-1.592.327.327,0,0,0-.55.353,9.8,9.8,0,0,0,1.513,1.709,11.4,11.4,0,0,1,1.207,1.29,8.379,8.379,0,0,1,1.417,3.6,16.841,16.841,0,0,1,.141,5.191c-.062.49-.2.773-.4.843-.218.074-.51-.094-.877-.5-.945-1.04-1.875-2.112-2.764-3.187a9.106,9.106,0,0,1-1.287-1.859c-.1-.215-.189-.438-.28-.675a3.665,3.665,0,0,0-1.61-2.2,5.687,5.687,0,0,1-.523-.407,1.119,1.119,0,0,1-.437-1.091.327.327,0,1,0-.612-.227,1.722,1.722,0,0,0,.609,1.8,6.262,6.262,0,0,0,.583.455,3.057,3.057,0,0,1,1.382,1.9c.092.237.187.483.3.719a9.645,9.645,0,0,0,1.374,2c.9,1.082,1.832,2.162,2.784,3.21a1.9,1.9,0,0,0,1.255.73" transform="translate(-208.706 -147.752)" fill="#545454"/>
        <path id="패스_8832" data-name="패스 8832" d="M262.01,119.109a5.16,5.16,0,0,0,3.277-1.6,6.858,6.858,0,0,0,1.168-3.381c1.053-6.713,2.7-13.476,2.749-20.27a11.042,11.042,0,0,0-1.149-5.9c-1.368-2.237-4.018-3.314-6.552-3.986a43.6,43.6,0,0,0-9.834-1.264l-6.791.105c-1.852,1.3-5.479,1.38-7.568,2.252a11.158,11.158,0,0,0-5.337,4.711,22.152,22.152,0,0,0-1.82,4.739c-.511,1.713-2.264,15.04-.815,22.1.233,1.134,4.821,2.117,7.859,3.981a1.347,1.347,0,0,0,.515.222,1.511,1.511,0,0,0,.957-.366,12.083,12.083,0,0,1,5-1.662c-.221.005-6.006-5.978-7.533-6.967a3.481,3.481,0,0,1-1.065-2.131c-.142-.73.584-2.032.828-2.706a44.688,44.688,0,0,1,2.662-5.96" transform="translate(-140.823 -59.213)" fill="#fff"/>
        <path id="패스_8833" data-name="패스 8833" d="M236.984,120.313a1.882,1.882,0,0,0,1-.4l.041-.026a11.864,11.864,0,0,1,4.829-1.609h0a.327.327,0,0,0,.117-.629c-.212-.152-1.217-1.134-2.189-2.083a61.573,61.573,0,0,0-5.29-4.856,3.091,3.091,0,0,1-.922-1.92,4.446,4.446,0,0,1,.552-1.9c.1-.231.2-.449.262-.628a44.546,44.546,0,0,1,2.643-5.916.326.326,0,1,0-.575-.309,45.128,45.128,0,0,0-2.682,6c-.058.159-.149.368-.246.588a4.6,4.6,0,0,0-.6,2.292,3.777,3.777,0,0,0,1.208,2.343,63.672,63.672,0,0,1,5.188,4.774c.839.819,1.374,1.34,1.726,1.671a13.3,13.3,0,0,0-4.385,1.635l-.041.027a1.2,1.2,0,0,1-.7.289,1.121,1.121,0,0,1-.386-.177,29.523,29.523,0,0,0-4.493-2.076c-1.464-.579-3.122-1.234-3.216-1.692-1.4-6.815.266-20.121.808-21.936a21.955,21.955,0,0,1,1.791-4.67,10.8,10.8,0,0,1,5.179-4.572,17.323,17.323,0,0,1,3.065-.794,13.1,13.1,0,0,0,4.481-1.434l6.692-.1a43.362,43.362,0,0,1,9.746,1.253c2.054.545,4.948,1.536,6.357,3.841a10.8,10.8,0,0,1,1.1,5.73,88.454,88.454,0,0,1-1.816,14.827c-.319,1.77-.648,3.6-.93,5.4a6.6,6.6,0,0,1-1.1,3.224,4.939,4.939,0,0,1-3.073,1.489.326.326,0,0,0,.1.646,5.37,5.37,0,0,0,3.48-1.72,7.2,7.2,0,0,0,1.239-3.538c.281-1.789.609-3.615.927-5.381a88.935,88.935,0,0,0,1.826-14.937,11.341,11.341,0,0,0-1.2-6.076c-1.532-2.505-4.584-3.557-6.747-4.131a44.067,44.067,0,0,0-9.913-1.275l-6.8.105a.329.329,0,0,0-.183.059,12.259,12.259,0,0,1-4.319,1.386,17.733,17.733,0,0,0-3.188.832,11.449,11.449,0,0,0-5.494,4.85,22.414,22.414,0,0,0-1.849,4.807c-.483,1.618-2.31,15.01-.822,22.254.165.8,1.613,1.376,3.616,2.168a29.032,29.032,0,0,1,4.392,2.025,1.626,1.626,0,0,0,.644.268,1.018,1.018,0,0,0,.133.009" transform="translate(-140.003 -58.389)" fill="#545454"/>
        <path id="패스_8834" data-name="패스 8834" d="M280.593,177.769c-3.4-1.2-16.407-3.962-18.607-3.561" transform="translate(-161.643 -124.704)" fill="#fff"/>
        <path id="패스_8835" data-name="패스 8835" d="M279.77,177.275a.327.327,0,0,0,.109-.635c-3.319-1.171-16.433-4-18.775-3.575a.327.327,0,0,0,.117.643c2.1-.38,14.963,2.321,18.44,3.548a.325.325,0,0,0,.109.019" transform="translate(-160.82 -123.883)"/>
        <path id="패스_8836" data-name="패스 8836" d="M285.344,22.979a9.918,9.918,0,0,0,3.544-1.129A6.626,6.626,0,0,0,291.56,19.1a8.591,8.591,0,0,0,.668-1.979,11.9,11.9,0,0,0,.011-5.45,7.913,7.913,0,0,0-2.793-4.43c-1.951-1.45-5.68-1.372-7.986-.863a3.982,3.982,0,0,0-3.729-.448,16.6,16.6,0,0,1-2.15.985,1.574,1.574,0,0,1-1.938-.946A15.61,15.61,0,0,1,272.62,7.9a11.4,11.4,0,0,0-.889,4.117,6.921,6.921,0,0,0,.025,2.084,4.959,4.959,0,0,0,.613,1.451,9.159,9.159,0,0,0,2.362,2.657" transform="translate(-176.348 -4.052)" fill="#ab7d66"/>
        <path id="패스_8837" data-name="패스 8837" d="M284.522,22.488a.312.312,0,0,0,.046,0,10.142,10.142,0,0,0,3.66-1.168,6.911,6.911,0,0,0,2.8-2.885,8.846,8.846,0,0,0,.694-2.054,12.21,12.21,0,0,0,.009-5.6,8.171,8.171,0,0,0-2.915-4.613C286.9,4.736,283.3,4.67,280.7,5.214a4.328,4.328,0,0,0-3.917-.4,8.486,8.486,0,0,0-.894.44,5.126,5.126,0,0,1-1.212.532,1.254,1.254,0,0,1-1.547-.713.326.326,0,0,0-.3-.242.315.315,0,0,0-.32.222,6.08,6.08,0,0,1-.591,1.16c-.141.234-.286.476-.414.73a11.717,11.717,0,0,0-.923,4.235,7.225,7.225,0,0,0,.031,2.183,5.225,5.225,0,0,0,.651,1.548,9.536,9.536,0,0,0,2.447,2.752.327.327,0,1,0,.392-.522,8.881,8.881,0,0,1-2.277-2.562,4.609,4.609,0,0,1-.575-1.354,6.652,6.652,0,0,1-.019-1.985,11.231,11.231,0,0,1,.856-4c.117-.232.25-.453.39-.687.129-.215.261-.434.379-.663a2.093,2.093,0,0,0,1.975.534,5.7,5.7,0,0,0,1.371-.593,7.993,7.993,0,0,1,.825-.407,3.667,3.667,0,0,1,3.421.413.325.325,0,0,0,.257.051c2.056-.454,5.81-.615,7.721.806a7.626,7.626,0,0,1,2.672,4.248,11.566,11.566,0,0,1-.013,5.3,8.228,8.228,0,0,1-.641,1.9,6.256,6.256,0,0,1-2.542,2.61,9.5,9.5,0,0,1-3.428,1.089.327.327,0,0,0,.045.65" transform="translate(-175.527 -3.234)" fill="#545454"/>
        <path id="패스_8838" data-name="패스 8838" d="M292.785,61.477c.206,2.22.465,4.582,1.861,6.32a.949.949,0,0,1,.261.485.787.787,0,0,1-.1.384c-.66,1.443-3.313,4.82-4.877,5.09s-4.691-4.147-4.438-4.776a2.177,2.177,0,0,1,.425-.559c.847-.987.729-2.45.562-3.741" transform="translate(-182.632 -44.017)" fill="#ffe5dd"/>
        <path id="패스_8839" data-name="패스 8839" d="M288.965,73.273a1.169,1.169,0,0,0,.2-.016c1.768-.305,4.49-3.9,5.119-5.276a1.081,1.081,0,0,0,.124-.545,1.18,1.18,0,0,0-.316-.644c-1.4-1.741-1.624-4.195-1.807-6.166a.327.327,0,0,0-.651.06c.191,2.058.428,4.62,1.932,6.495a.775.775,0,0,1,.191.307.546.546,0,0,1-.067.221c-.654,1.43-3.266,4.668-4.635,4.9-.328.057-.874-.227-1.494-.778a9.757,9.757,0,0,1-2.576-3.575,1.369,1.369,0,0,1,.24-.312c.041-.045.082-.089.122-.135.926-1.079.815-2.628.638-4a.327.327,0,1,0-.648.083c.166,1.284.265,2.611-.487,3.486-.034.04-.07.079-.106.118a1.76,1.76,0,0,0-.374.531c-.285.707,1.325,2.73,1.51,2.958.705.873,2.009,2.278,3.089,2.278" transform="translate(-181.803 -43.195)" fill="#545454"/>
        <path id="패스_8840" data-name="패스 8840" d="M277.285,38.345a11.867,11.867,0,0,0,1.035,3.825,4.019,4.019,0,0,0,3.073,2.259,5.309,5.309,0,0,0,2.453-.583,24.616,24.616,0,0,0,3.043-1.587,5.017,5.017,0,0,0,1.987-2.963c.96-.047,2.516,0,3.322-.522a3.142,3.142,0,0,0,1.48-2.354,1.432,1.432,0,0,0-.2-.886,1.644,1.644,0,0,0-1.583-.517,4.373,4.373,0,0,0-2.136.856,4.906,4.906,0,0,1-1,.7.96.96,0,0,1-1.122-.192,15.74,15.74,0,0,1-.693-4.26c.046-1,1.064-1.845.465-2.641-.684-.908-9.632-.819-10.2-.383-.544.42-.466,2.17-.492,2.788a33.288,33.288,0,0,0,.561,6.458" transform="translate(-178.912 -20.607)" fill="#ffe5dd"/>
        <path id="패스_8841" data-name="패스 8841" d="M280.788,43.945a6.022,6.022,0,0,0,2.365-.618,24.992,24.992,0,0,0,3.083-1.608,5.107,5.107,0,0,0,2.055-2.925l.277-.009a6.279,6.279,0,0,0,2.985-.557,3.439,3.439,0,0,0,1.628-2.608,1.724,1.724,0,0,0-.25-1.087,1.916,1.916,0,0,0-1.891-.66,4.679,4.679,0,0,0-2.3.92c-.089.068-.176.139-.264.21a2.865,2.865,0,0,1-.665.451.657.657,0,0,1-.736-.089,17.13,17.13,0,0,1-.627-4.047,2.843,2.843,0,0,1,.322-1,1.683,1.683,0,0,0,.078-1.853c-.15-.2-.48-.426-1.793-.6-2.54-.341-8.266-.3-8.865.158-.538.416-.6,1.5-.612,2.677,0,.139,0,.261-.007.356a33.552,33.552,0,0,0,.565,6.521,12.248,12.248,0,0,0,1.069,3.929,4.333,4.333,0,0,0,3.339,2.431q.121.009.242.009m10.6-9.437a1.188,1.188,0,0,1,1,.39,1.144,1.144,0,0,1,.141.684,2.825,2.825,0,0,1-1.332,2.1,6.028,6.028,0,0,1-2.648.452c-.182.005-.355.011-.512.018a.326.326,0,0,0-.294.225,4.743,4.743,0,0,1-1.848,2.786,24.41,24.41,0,0,1-3,1.566,5.057,5.057,0,0,1-2.3.556,3.728,3.728,0,0,1-2.808-2.086,11.568,11.568,0,0,1-1-3.721,33.052,33.052,0,0,1-.558-6.394c0-.1.006-.228.008-.375.007-.523.024-1.91.358-2.168.833-.422,9.132-.342,9.738.323.232.308.1.635-.152,1.186a3.375,3.375,0,0,0-.38,1.242,15.041,15.041,0,0,0,.76,4.473,1.276,1.276,0,0,0,1.508.295,3.392,3.392,0,0,0,.826-.548c.081-.066.162-.133.245-.2a4.026,4.026,0,0,1,1.975-.792,2.5,2.5,0,0,1,.275-.015m-14.927,3.019h0Z" transform="translate(-178.089 -19.789)" fill="#545454"/>
        <path id="패스_8842" data-name="패스 8842" d="M328.185,50.831a.285.285,0,0,0,.25-.149,1.6,1.6,0,0,0,.065-1.368.318.318,0,0,0-.606-.035,2.468,2.468,0,0,0,.019,1.35.284.284,0,0,0,.243.2h.029" transform="translate(-228.367 -35.132)" fill="#545454"/>
        <path id="패스_8843" data-name="패스 8843" d="M308.978,51.222a.284.284,0,0,0,.25-.149,1.6,1.6,0,0,0,.065-1.368.645.645,0,0,0-.258-.236.284.284,0,0,0-.348.2,2.473,2.473,0,0,0,.019,1.35.283.283,0,0,0,.243.2h.029" transform="translate(-203.705 -35.412)" fill="#545454"/>
        <path id="패스_8844" data-name="패스 8844" d="M320.192,55.93a.284.284,0,0,0,.222-.461l-.431-.54a3.635,3.635,0,0,0,.9-.737.284.284,0,1,0-.426-.375,3.061,3.061,0,0,1-1.028.76.284.284,0,0,0-.105.436l.647.811a.284.284,0,0,0,.222.107" transform="translate(-218.268 -38.464)" fill="#545454"/>
        <path id="패스_8845" data-name="패스 8845" d="M305.991,44.248a.327.327,0,0,0,.082-.011,4.448,4.448,0,0,1,1.19-.141.327.327,0,0,0,.011-.653,5.2,5.2,0,0,0-1.364.161.327.327,0,0,0,.081.643" transform="translate(-201.049 -31.105)" fill="#545454"/>
        <path id="패스_8846" data-name="패스 8846" d="M326.4,44.207a.323.323,0,0,0,.071-.008,3.546,3.546,0,0,1,1.569-.053.327.327,0,1,0,.1-.646,4.185,4.185,0,0,0-1.811.061.327.327,0,0,0,.071.646" transform="translate(-227.674 -31.096)" fill="#545454"/>
        <path id="패스_8847" data-name="패스 8847" d="M308.45,66.255a13.372,13.372,0,0,0,4.924-.212,3.836,3.836,0,0,1-1.485,1.909,3.078,3.078,0,0,1-1.264.6,1.49,1.49,0,0,1-1.31-.36,2.324,2.324,0,0,1-.421-.7c-.106-.233-.354-.89-.46-1.124" transform="translate(-207.615 -47.287)" fill="#fff"/>
        <path id="패스_8848" data-name="패스 8848" d="M309.5,68.083a2.107,2.107,0,0,0,.362-.032,3.334,3.334,0,0,0,1.4-.661,4.093,4.093,0,0,0,1.6-2.079.327.327,0,0,0-.372-.415,13.042,13.042,0,0,1-4.793.214.432.432,0,0,0-.384.572c.052.114.138.331.224.548s.182.456.236.576a2.614,2.614,0,0,0,.485.793,1.722,1.722,0,0,0,1.237.484m2.52-2.44a3.982,3.982,0,0,1-1.143,1.22,2.724,2.724,0,0,1-1.126.544,1.167,1.167,0,0,1-1.022-.267,2.088,2.088,0,0,1-.356-.6c-.051-.114-.137-.331-.224-.548l-.059-.147a13.832,13.832,0,0,0,3.929-.2" transform="translate(-206.793 -46.462)" fill="#545454"/>
        <path id="패스_8849" data-name="패스 8849" d="M280.37,54.848a.327.327,0,0,0,.245-.542,2.485,2.485,0,0,0-3.58-.157.327.327,0,0,0,.451.473,1.832,1.832,0,0,1,2.639.116.326.326,0,0,0,.245.111" transform="translate(-165.991 -38.279)" fill="#545454"/>
        <path id="패스_8850" data-name="패스 8850" d="M281.3,56.774a1.627,1.627,0,0,0,1.19-.508,2.826,2.826,0,0,0,.582-1.471.327.327,0,1,0-.643-.116,2.244,2.244,0,0,1-.421,1.146.975.975,0,0,1-1.06.226.327.327,0,1,0-.26.6,1.538,1.538,0,0,0,.611.124" transform="translate(-169.384 -38.958)" fill="#545454"/>
        <path id="패스_8851" data-name="패스 8851" d="M255.9,130.248c1.145,8.072-1.131,10.264,1.616,17.94a6.411,6.411,0,0,0,1.027,1.634,29.747,29.747,0,0,0,3.029,3.085c5.628,1.482,12.9,1.144,18.634.175" transform="translate(-159.527 -93.257)" fill="#fff"/>
        <path id="패스_8852" data-name="패스 8852" d="M269.654,153.421a60.789,60.789,0,0,0,9.784-.841.327.327,0,1,0-.109-.644c-3.272.553-11.623,1.642-18.5-.168a23.524,23.524,0,0,1-2.243-2.306c-.35-.388-.552-.612-.644-.7a6.246,6.246,0,0,1-.944-1.507,22.342,22.342,0,0,1-1.333-10.041,38.126,38.126,0,0,0-.267-7.834.327.327,0,0,0-.647.092,37.543,37.543,0,0,1,.261,7.712,22.892,22.892,0,0,0,1.371,10.292,6.711,6.711,0,0,0,1.11,1.761c.078.074.324.347.609.663,1.674,1.857,2.249,2.418,2.562,2.5a35.885,35.885,0,0,0,8.988,1.022" transform="translate(-158.704 -92.434)" fill="#545454"/>
        <path id="패스_8853" data-name="패스 8853" d="M258.692,153.633a.327.327,0,0,0,.316-.413c-.2-.742,1.309-7.517,2.309-11.612a.326.326,0,1,0-.634-.155c-.439,1.8-2.612,10.814-2.3,11.939a.326.326,0,0,0,.314.241" transform="translate(-141.343 -101.102)" fill="#545454"/>
        <path id="패스_8854" data-name="패스 8854" d="M338.824,165.518c-2.057-.666-5.7-2.067-7.755-2.733-.617-.2-1.37-.35-1.8.261l1.068,1.29a1.968,1.968,0,0,1-1.782,1.269,4.807,4.807,0,0,1-2.07-.6l-3.083-1.417a.844.844,0,0,0-.754-.093,1.041,1.041,0,0,0-.341,1.052,2.3,2.3,0,0,0,.52,1.02,7.186,7.186,0,0,0,4.16,2.5,17.932,17.932,0,0,0,4.64.2c1.607-.07,4.6,1.3,6.2,1.225" transform="translate(-236.999 -116.428)" fill="#ffe5dd"/>
        <path id="패스_8855" data-name="패스 8855" d="M336.886,169q.069,0,.135,0a.327.327,0,0,0,.312-.341.339.339,0,0,0-.34-.312,11.561,11.561,0,0,1-3-.6,11.9,11.9,0,0,0-3.2-.625,17.763,17.763,0,0,1-4.556-.192,6.874,6.874,0,0,1-3.975-2.387,2.01,2.01,0,0,1-.454-.873.769.769,0,0,1,.177-.709c.1-.055.282.021.46.1l3.083,1.417a5.04,5.04,0,0,0,2.216.63,2.3,2.3,0,0,0,2.077-1.477.327.327,0,0,0-.053-.327l-.883-1.066c.256-.18.646-.165,1.262.035,1.023.331,2.469.856,3.867,1.363s2.854,1.035,3.888,1.37a.327.327,0,1,0,.2-.621c-1.023-.331-2.469-.856-3.867-1.363s-2.854-1.035-3.888-1.37c-.423-.137-1.546-.5-2.167.384a.326.326,0,0,0,.016.4l.939,1.133a1.65,1.65,0,0,1-1.409.891,4.583,4.583,0,0,1-1.924-.571l-3.083-1.417a1.136,1.136,0,0,0-1.048-.082,1.341,1.341,0,0,0-.5,1.4,2.637,2.637,0,0,0,.586,1.166,7.519,7.519,0,0,0,4.346,2.618,18.236,18.236,0,0,0,4.724.207,11.517,11.517,0,0,1,3,.6,12.961,12.961,0,0,0,3.069.627" transform="translate(-236.175 -115.605)" fill="#545454"/>
        <path id="패스_8856" data-name="패스 8856" d="M277.706,180.472c1.814.373-19.058-4.755-21.663-6.228-1.409-.8.331-2.348,1.045-3.8.1-.206.319-.321.43-.522a2.684,2.684,0,0,1,2.39-1.669,130.268,130.268,0,0,1,16.535,2.9" transform="translate(-157.027 -120.464)" fill="#fff"/>
        <path id="패스_8857" data-name="패스 8857" d="M276.942,179.993a.3.3,0,0,0,.33-.246c.074-.318-.02-.343-.92-.58-.442-.116-1.078-.281-1.858-.483-5.165-1.338-17.259-4.471-19.153-5.542a.655.655,0,0,1-.356-.395c-.1-.423.358-1.111.8-1.775a10.931,10.931,0,0,0,.732-1.2.8.8,0,0,1,.156-.182,1.4,1.4,0,0,0,.267-.326c.883-1.6,2.053-1.5,2.063-1.5a130.129,130.129,0,0,1,16.493,2.893.327.327,0,1,0,.164-.632,130.684,130.684,0,0,0-16.576-2.908,2.957,2.957,0,0,0-2.716,1.835.878.878,0,0,1-.153.175,1.316,1.316,0,0,0-.285.361,10.409,10.409,0,0,1-.689,1.129c-.545.817-1.06,1.589-.893,2.289a1.279,1.279,0,0,0,.67.812c1.969,1.113,13.682,4.147,19.311,5.605,1.07.277,1.96.508,2.328.609a.325.325,0,0,0,.118.05.838.838,0,0,0,.165.018" transform="translate(-156.163 -119.647)" fill="#545454"/>
        <path id="패스_8858" data-name="패스 8858" d="M237.8,215.311a15.111,15.111,0,0,1-.649,3.994q-2.345,9.235-4.064,18.623a40.865,40.865,0,0,1-3.769,11.532,1.945,1.945,0,0,1-.567.828,1.854,1.854,0,0,1-1.21.213,35.785,35.785,0,0,1-4.387-.535.927.927,0,0,1-.639-.312,1,1,0,0,1-.125-.459c-1.21-11.5,1.5-36.453,2.334-37.348a15.125,15.125,0,0,1,2.959-2.669c4.273-2.658,10.014,1.152,10.117,6.134" transform="translate(-107.516 -149.146)" fill="#bdbdbd"/>
        <path id="패스_8859" data-name="패스 8859" d="M227.02,250a1.8,1.8,0,0,0,1.078-.285,2.232,2.232,0,0,0,.675-.96,41.289,41.289,0,0,0,3.792-11.606c1.139-6.22,2.505-12.479,4.06-18.6l.019-.075a15.111,15.111,0,0,0,.64-4.006,7.711,7.711,0,0,0-4.074-6.451,6.363,6.363,0,0,0-6.542.046,15.375,15.375,0,0,0-3.025,2.725c-1.073,1.154-3.557,26.8-2.42,37.6a1.291,1.291,0,0,0,.179.607,1.235,1.235,0,0,0,.85.451,36.182,36.182,0,0,0,4.427.54c.111.007.225.012.342.012m2.876-42.211a6.3,6.3,0,0,1,3,.8,7.048,7.048,0,0,1,3.733,5.89,14.63,14.63,0,0,1-.62,3.832l-.019.075c-1.558,6.137-2.927,12.41-4.069,18.645a40.785,40.785,0,0,1-3.746,11.457,1.689,1.689,0,0,1-.459.7,1.574,1.574,0,0,1-1,.152,35.5,35.5,0,0,1-4.347-.53c-.172-.032-.361-.074-.427-.173a.786.786,0,0,1-.071-.311c-1.189-11.3,1.486-35.923,2.26-37.106a14.866,14.866,0,0,1,2.881-2.6,5.417,5.417,0,0,1,2.883-.827m7.061,6.684h0Z" transform="translate(-106.676 -148.306)" fill="#545454"/>
        <path id="패스_8860" data-name="패스 8860" d="M278.573,91.423a1.55,1.55,0,0,0,.4-.052,2.506,2.506,0,0,0,1.491-1.812,26.891,26.891,0,0,0,1.335-6.115,1.274,1.274,0,0,0-.241-1.031.472.472,0,0,0-.466-.145A6.382,6.382,0,0,0,279,82.223c-.291.026-.565.05-.829.057a.327.327,0,0,0,.016.653c.285-.007.583-.034.87-.059a5.727,5.727,0,0,1,1.859.03.613.613,0,0,0,.207.018,1.013,1.013,0,0,1,.025.458,26.255,26.255,0,0,1-1.3,5.966c-.2.572-.493,1.247-1.042,1.394a1.944,1.944,0,0,1-1.3-.324,24.112,24.112,0,0,1-3.375-2.142.327.327,0,0,0-.395.521,24.786,24.786,0,0,0,3.467,2.2,3.044,3.044,0,0,0,1.368.429" transform="translate(-166.167 -58.825)" fill="#545454"/>
        <path id="패스_8861" data-name="패스 8861" d="M305.449,92.852a2.082,2.082,0,0,0,.435-.055,6.912,6.912,0,0,0,3.873-2.354.327.327,0,1,0-.5-.415,6.254,6.254,0,0,1-3.505,2.13.878.878,0,0,1-.448.017c-.171-.064-.294-.289-.406-.514a45.308,45.308,0,0,1-2.15-5.1.779.779,0,0,1-.069-.348c.023-.1.148-.206.254-.287a5.719,5.719,0,0,1,1.983-.794c.178-.047.349-.092.509-.139a.327.327,0,1,0-.184-.627c-.155.045-.32.089-.492.134a6.207,6.207,0,0,0-2.212.906,1.19,1.19,0,0,0-.495.661,1.274,1.274,0,0,0,.09.71,45.876,45.876,0,0,0,2.181,5.175,1.512,1.512,0,0,0,.763.836,1.062,1.062,0,0,0,.377.065" transform="translate(-202.249 -60.396)" fill="#545454"/>
        <path id="패스_8862" data-name="패스 8862" d="M299.582,138.66a.311.311,0,0,0,.043,0,.326.326,0,0,0,.281-.366,75.9,75.9,0,0,1-.844-11.988.331.331,0,0,0-.33-.323.327.327,0,0,0-.324.33,76.425,76.425,0,0,0,.849,12.067.327.327,0,0,0,.324.284" transform="translate(-191.303 -90.201)" fill="#545454"/>
        <path id="패스_8863" data-name="패스 8863" d="M258.19,348.5a28.233,28.233,0,0,1-7.366-.865" transform="translate(-136.07 -248.904)" fill="#fff"/>
        <path id="패스_8864" data-name="패스 8864" d="M256.948,348.006c.248,0,.4,0,.429,0a.327.327,0,0,0-.009-.653h-.01a28.127,28.127,0,0,1-7.267-.853.327.327,0,0,0-.178.628,27.821,27.821,0,0,0,7.036.882" transform="translate(-135.247 -248.081)" fill="#545454"/>
        <path id="패스_8865" data-name="패스 8865" d="M322.582,345.107a44.993,44.993,0,0,1-6.99.952" transform="translate(-218.855 -247.096)" fill="#fff"/>
        <path id="패스_8866" data-name="패스 8866" d="M314.985,345.566a47.5,47.5,0,0,0,6.84-.963.327.327,0,1,0-.133-.64,45.345,45.345,0,0,1-6.912.946.327.327,0,0,0-.022.653c.073,0,.149,0,.227,0" transform="translate(-218.032 -246.272)" fill="#545454"/>
        <path id="패스_8867" data-name="패스 8867" d="M241.512,378.746a.325.325,0,0,0,.258-.126,2.625,2.625,0,0,1,2.005-.99.326.326,0,0,0,0-.653h0a3.244,3.244,0,0,0-2.515,1.242.326.326,0,0,0,.257.527" transform="translate(-119.241 -269.915)" fill="#545454"/>
        <path id="패스_8868" data-name="패스 8868" d="M347.258,375.97a.327.327,0,0,0,.256-.529,3.314,3.314,0,0,0-2.459-1.165.327.327,0,0,0-.347.326v.054a.327.327,0,0,0,.484.287,2.6,2.6,0,0,1,1.809.9.326.326,0,0,0,.257.125" transform="translate(-252.128 -267.98)" fill="#545454"/>
        <path id="패스_8869" data-name="패스 8869" d="M285.329,219.318a.327.327,0,0,0,.249-.538.576.576,0,0,1,.028-.226,13.2,13.2,0,0,1,.724-2.407,4.176,4.176,0,0,1,1.475-1.841.327.327,0,0,0-.353-.549,4.82,4.82,0,0,0-1.718,2.123,13.726,13.726,0,0,0-.765,2.526.9.9,0,0,0,.11.8.327.327,0,0,0,.249.115" transform="translate(-175.519 -153.013)" fill="#545454"/>
        <path id="패스_8870" data-name="패스 8870" d="M155.686,297.079c1.2,7.848-.879,15.82-.734,23.759l-11.373-16.358s-1.823-9.718-1.438-9.82,13.92-.707,13.92-.707Z" transform="translate(-3.06 -210.469)" fill="#fff"/>
        <path id="패스_8871" data-name="패스 8871" d="M154.128,320.341a.327.327,0,0,0,.327-.333,85.892,85.892,0,0,1,.551-9.6c.442-4.649.9-9.455.187-14.154l.37-3.083a.327.327,0,0,0-.085-.261.339.339,0,0,0-.254-.1c-3.183.142-13.6.614-13.989.718-.363.1-.528.14.336,5.318.4,2.417.86,4.854.865,4.878a.327.327,0,0,0,.053.126L153.859,320.2a.326.326,0,0,0,.268.14m.739-26.868-.329,2.744a.339.339,0,0,0,0,.088c.709,4.634.255,9.415-.184,14.038-.268,2.824-.545,5.734-.56,8.62l-10.731-15.436c-.745-3.977-1.476-8.4-1.477-9.395,1.277-.1,8.316-.437,13.281-.66" transform="translate(-2.235 -209.646)" fill="#545454"/>
        <path id="패스_8872" data-name="패스 8872" d="M157.628,364.427a37.147,37.147,0,0,1-2.872,8.493c-.072.119-.146.269-.066.383a.4.4,0,0,0,.265.125,16.105,16.105,0,0,0,4.177.376,7.014,7.014,0,0,0,3.877-1.36,1.542,1.542,0,0,0,.466-.525,1.633,1.633,0,0,0,.056-.922,20.624,20.624,0,0,0-2.51-7.32" transform="translate(-14.136 -260.391)" fill="#ffe2d1"/>
        <path id="패스_8873" data-name="패스 8873" d="M157.588,373.331c.247,0,.494-.008.743-.025a7.388,7.388,0,0,0,4.058-1.43,1.847,1.847,0,0,0,.559-.644,1.907,1.907,0,0,0,.083-1.106,20.82,20.82,0,0,0-2.549-7.437.327.327,0,0,0-.567.323,20.168,20.168,0,0,1,2.47,7.2,1.365,1.365,0,0,1-.028.739,1.275,1.275,0,0,1-.373.408,6.739,6.739,0,0,1-3.7,1.29,15.884,15.884,0,0,1-4.085-.37l.011-.018a37.421,37.421,0,0,0,2.916-8.614.327.327,0,1,0-.646-.1,37.067,37.067,0,0,1-2.828,8.372.668.668,0,0,0-.055.741.707.707,0,0,0,.469.258,18.4,18.4,0,0,0,3.519.406m-3.429-.957h0Z" transform="translate(-13.313 -259.567)" fill="#545454"/>
        <path id="패스_8874" data-name="패스 8874" d="M152.568,391.8a1.378,1.378,0,0,0,.216,2.422c1.963,1.382,4.478,1.1,6.781.776a18.981,18.981,0,0,0,3.843-.821c1.6-.58,4.026-1.438,5.7-1.27a4.193,4.193,0,0,0,.949.066,2.353,2.353,0,0,0,1.529-1.211c.944-1.5.332-3.678-.193-5.413a39.3,39.3,0,0,1-4.564,1.228,3.548,3.548,0,0,1-3.078-.3c-1.017-.618-.371-2.179-1.729-1.627-1.22.495-1.981,2.252-3.086,3.045-1.223.878-5.23,2.067-6.364,3.105" transform="translate(-21.874 -276.041)" fill="#404040"/>
        <path id="패스_8875" data-name="패스 8875" d="M155.76,394.765a21.875,21.875,0,0,0,3.032-.269,19.285,19.285,0,0,0,3.909-.838c1.365-.5,3.9-1.416,5.553-1.252.082.008.164.02.246.031a2.858,2.858,0,0,0,.777.034,2.611,2.611,0,0,0,1.763-1.361c1.055-1.676.326-4.086-.156-5.681a.325.325,0,0,0-.162-.2.329.329,0,0,0-.254-.02,39.056,39.056,0,0,1-4.527,1.218,3.225,3.225,0,0,1-2.843-.259,1.4,1.4,0,0,1-.534-.878,1.2,1.2,0,0,0-.542-.839,1.152,1.152,0,0,0-.946.066,5.258,5.258,0,0,0-1.916,1.758,6.831,6.831,0,0,1-1.238,1.324,17.009,17.009,0,0,1-2.739,1.287,15.066,15.066,0,0,0-3.655,1.843,1.7,1.7,0,0,0,.247,2.931,6.681,6.681,0,0,0,3.983,1.1m12.088-3.031a18.033,18.033,0,0,0-5.37,1.31,18.79,18.79,0,0,1-3.778.805c-2.423.344-4.747.548-6.548-.719-.225-.159-.745-.584-.7-1.1a1.327,1.327,0,0,1,.512-.811h0a15.293,15.293,0,0,1,3.463-1.721,17.183,17.183,0,0,0,2.871-1.36,7.411,7.411,0,0,0,1.37-1.45,4.755,4.755,0,0,1,1.649-1.558c.3-.123.4-.089.42-.081.073.035.142.26.2.44a1.987,1.987,0,0,0,.819,1.245,3.849,3.849,0,0,0,3.314.34,39.782,39.782,0,0,0,4.283-1.133c.439,1.469.966,3.5.132,4.824a2.086,2.086,0,0,1-1.294,1.061,2.381,2.381,0,0,1-.6-.033c-.09-.012-.18-.025-.27-.034a4.687,4.687,0,0,0-.471-.022" transform="translate(-21.054 -275.217)" fill="#545454"/>
        <path id="패스_8876" data-name="패스 8876" d="M132.9,382.606a13.838,13.838,0,0,1-1.87,5.122c-.072.119-.147.269-.066.383a.4.4,0,0,0,.265.125,16.107,16.107,0,0,0,4.177.376,7.016,7.016,0,0,0,3.877-1.36,1.547,1.547,0,0,0,.466-.525,1.634,1.634,0,0,0,.056-.922,20.626,20.626,0,0,0-2.51-7.321" transform="translate(16.331 -270.994)" fill="#ffe2d1"/>
        <path id="패스_8877" data-name="패스 8877" d="M133.86,388.14c.247,0,.494-.008.743-.025a7.385,7.385,0,0,0,4.057-1.43,1.844,1.844,0,0,0,.559-.643,1.907,1.907,0,0,0,.083-1.106,20.815,20.815,0,0,0-2.549-7.437.327.327,0,1,0-.567.323,20.175,20.175,0,0,1,2.47,7.2,1.365,1.365,0,0,1-.028.739,1.273,1.273,0,0,1-.373.407,6.74,6.74,0,0,1-3.7,1.291,15.862,15.862,0,0,1-4.085-.37l.011-.019a14.253,14.253,0,0,0,1.914-5.243.327.327,0,1,0-.646-.1,13.6,13.6,0,0,1-1.826,5,.668.668,0,0,0-.055.741.706.706,0,0,0,.469.258,18.412,18.412,0,0,0,3.519.406m-3.43-.957h0Z" transform="translate(17.154 -270.17)" fill="#545454"/>
        <path id="패스_8878" data-name="패스 8878" d="M128.84,406.609a1.378,1.378,0,0,0,.216,2.422c1.963,1.382,4.478,1.1,6.781.776a18.958,18.958,0,0,0,3.843-.822c1.6-.58,4.026-1.437,5.7-1.27a4.194,4.194,0,0,0,.949.066,2.353,2.353,0,0,0,1.529-1.211c.944-1.5.332-3.678-.193-5.413a39.292,39.292,0,0,1-4.564,1.228,3.548,3.548,0,0,1-3.078-.3c-1.017-.618-.371-2.179-1.729-1.627-1.22.5-1.981,2.252-3.086,3.045-1.223.878-5.23,2.067-6.364,3.105" transform="translate(8.593 -286.645)" fill="#5e5e5e"/>
        <path id="패스_8879" data-name="패스 8879" d="M132.032,409.574a21.838,21.838,0,0,0,3.032-.269,19.242,19.242,0,0,0,3.909-.838c1.365-.5,3.905-1.417,5.553-1.252.082.008.164.02.246.031a2.911,2.911,0,0,0,.777.034,2.611,2.611,0,0,0,1.763-1.361c1.055-1.676.326-4.086-.156-5.681a.326.326,0,0,0-.416-.215,39.1,39.1,0,0,1-4.527,1.218,3.222,3.222,0,0,1-2.843-.259,1.394,1.394,0,0,1-.533-.878,1.2,1.2,0,0,0-.542-.839,1.15,1.15,0,0,0-.946.066,5.256,5.256,0,0,0-1.916,1.758,6.846,6.846,0,0,1-1.238,1.324,17.019,17.019,0,0,1-2.739,1.286,15.06,15.06,0,0,0-3.655,1.843,1.7,1.7,0,0,0,.248,2.931,6.68,6.68,0,0,0,3.983,1.1m12.089-3.03a18.038,18.038,0,0,0-5.37,1.31,18.771,18.771,0,0,1-3.778.805c-2.423.344-4.747.548-6.548-.719-.226-.159-.746-.584-.7-1.1a1.329,1.329,0,0,1,.513-.812h0A15.3,15.3,0,0,1,131.7,404.3a17.2,17.2,0,0,0,2.871-1.359,7.416,7.416,0,0,0,1.369-1.45,4.753,4.753,0,0,1,1.649-1.558c.3-.123.4-.089.42-.081.074.035.143.26.2.44a1.987,1.987,0,0,0,.819,1.245,3.85,3.85,0,0,0,3.314.341,39.862,39.862,0,0,0,4.283-1.133c.438,1.469.966,3.5.132,4.823a2.085,2.085,0,0,1-1.294,1.061,2.341,2.341,0,0,1-.6-.034c-.09-.012-.18-.025-.27-.034a4.682,4.682,0,0,0-.471-.022" transform="translate(9.412 -285.819)" fill="#545454"/>
        <path id="패스_8880" data-name="패스 8880" d="M137.9,64.533c2.974-2.312,5.508-5.462,5.9-9.111a10.531,10.531,0,0,0-.114-2.94,10.286,10.286,0,0,0-3.517-6.24,8.24,8.24,0,0,0-7.057-1.674c-.863-.816-4.236-.888-5.449-.866a8.806,8.806,0,0,0-4.4,1.276,5.887,5.887,0,0,1-2.475,1.178,1.853,1.853,0,0,0-.852.146.979.979,0,0,0-.339.422,4.106,4.106,0,0,0,.584,3.762,13.237,13.237,0,0,0,6.1,5.352" transform="translate(15.603 -31.289)" fill="#ab7d66"/>
        <path id="패스_8881" data-name="패스 8881" d="M137.076,64.035a.327.327,0,0,0,.2-.068c2.5-1.943,5.573-5.139,6.027-9.334a10.854,10.854,0,0,0-.117-3.031,10.555,10.555,0,0,0-3.632-6.437,8.58,8.58,0,0,0-7.182-1.776c-1.218-.87-4.8-.85-5.535-.837a9.073,9.073,0,0,0-4.567,1.324c-.157.1-.312.2-.468.3a4.141,4.141,0,0,1-1.862.832c-.06,0-.121.007-.183.009a1.581,1.581,0,0,0-.817.185,1.3,1.3,0,0,0-.461.557c-.531,1.1-.325,2.505.6,4.07a13.558,13.558,0,0,0,6.251,5.487.327.327,0,0,0,.26-.6,12.894,12.894,0,0,1-5.948-5.219c-.562-.954-1.117-2.327-.572-3.454a.662.662,0,0,1,.218-.287,1.086,1.086,0,0,1,.5-.087c.07,0,.14-.005.208-.011a4.678,4.678,0,0,0,2.169-.937c.151-.1.3-.2.452-.289a8.421,8.421,0,0,1,4.238-1.228c1.733-.034,4.554.148,5.218.776a.328.328,0,0,0,.306.079,7.889,7.889,0,0,1,6.77,1.611,9.9,9.9,0,0,1,3.4,6.043,10.207,10.207,0,0,1,.111,2.849c-.43,3.967-3.38,7.023-5.779,8.888a.326.326,0,0,0,.2.584" transform="translate(16.428 -30.464)" fill="#545454"/>
        <path id="패스_8882" data-name="패스 8882" d="M191.852,224.259a8.786,8.786,0,0,0-2.949,3.212,8.474,8.474,0,0,0-.939,4.843,7.766,7.766,0,0,0,3.875,5.745.956.956,0,0,0,.835.17,1.475,1.475,0,0,0,.609-.883,10.763,10.763,0,0,0,.619-4.053c-.026-.673-.113-1.345-.078-2.018a2.833,2.833,0,0,1,.612-1.785" transform="translate(-54.449 -160.569)" fill="#ffe2d1"/>
        <path id="패스_8883" data-name="패스 8883" d="M191.628,237.778a.873.873,0,0,0,.352-.072,1.754,1.754,0,0,0,.785-1.07,11.065,11.065,0,0,0,.639-4.178c-.009-.23-.024-.46-.04-.689a10.814,10.814,0,0,1-.038-1.3,2.511,2.511,0,0,1,.52-1.574.327.327,0,0,0-.469-.454,3.218,3.218,0,0,0-.7,2,11.408,11.408,0,0,0,.039,1.378c.015.223.031.446.039.669a10.414,10.414,0,0,1-.6,3.929c-.055.149-.22.6-.433.7-.135.059-.34-.039-.542-.154a7.4,7.4,0,0,1-3.713-5.5,8.143,8.143,0,0,1,.9-4.652,8.4,8.4,0,0,1,2.841-3.092.327.327,0,0,0-.36-.545,9.058,9.058,0,0,0-3.058,3.331,8.813,8.813,0,0,0-.974,5.035,8.055,8.055,0,0,0,4.038,5.99,1.611,1.611,0,0,0,.775.258" transform="translate(-53.624 -159.746)" fill="#545454"/>
        <path id="패스_8884" data-name="패스 8884" d="M130.675,109.659a34.949,34.949,0,0,1,1.867,9.349c-.17,1.746,3.674-2.243,9-4.2.324-1.307-2.3-4-3.127-5.063a11.377,11.377,0,0,0-1.755-2.206c-1.248-.963-3-.791-4.562-.572" transform="translate(14.676 -76.466)" fill="#ffe5dd"/>
        <path id="패스_8885" data-name="패스 8885" d="M131.969,118.943a6.783,6.783,0,0,0,2.519-1.3,32.986,32.986,0,0,1,6.34-3.358.327.327,0,0,0,.2-.228c.281-1.135-1.061-2.832-2.583-4.618-.244-.287-.455-.534-.6-.725-.18-.23-.351-.484-.516-.73a6.216,6.216,0,0,0-1.3-1.534c-1.327-1.023-3.1-.876-4.808-.636a.327.327,0,1,0,.091.647c1.567-.22,3.191-.362,4.318.507a5.643,5.643,0,0,1,1.153,1.381c.172.255.349.519.544.768.158.2.372.454.621.746.882,1.035,2.482,2.913,2.466,3.879a34.116,34.116,0,0,0-6.281,3.351,11.4,11.4,0,0,1-2.1,1.187c0-.018,0-.041,0-.069a.3.3,0,0,0,0-.056,36.416,36.416,0,0,0-1.889-9.445.327.327,0,1,0-.607.24,35.687,35.687,0,0,1,1.843,9.227.665.665,0,0,0,.268.676.581.581,0,0,0,.312.085" transform="translate(15.5 -75.642)" fill="#545454"/>
        <path id="패스_8886" data-name="패스 8886" d="M137.8,65.815c-1.732,2.525-.059,6.331-1.784,8.861a2.07,2.07,0,0,0-.358.637,1.757,1.757,0,0,0,.446,1.309,14.273,14.273,0,0,1,2.105,5.133,1.873,1.873,0,0,0,.628,1.315,1.567,1.567,0,0,0,1.045.128c2.44-.324,4.553-1.793,6.56-3.219,1.295-.92,3.324-1.3,4.452-2.415a2.74,2.74,0,0,0,.558-2.986,1.98,1.98,0,0,0-1.018-1.052,2.129,2.129,0,0,0-.886-.129,3.4,3.4,0,0,0-2.058.814" transform="translate(3.164 -47.123)" fill="#ffe5dd"/>
        <path id="패스_8887" data-name="패스 8887" d="M138.645,82.731a3.408,3.408,0,0,0,.448-.034c2.576-.343,4.77-1.9,6.706-3.277a10.2,10.2,0,0,1,1.9-.958,8.161,8.161,0,0,0,2.6-1.491,3.051,3.051,0,0,0,.627-3.351,2.281,2.281,0,0,0-1.194-1.221,2.409,2.409,0,0,0-1.022-.153,3.71,3.71,0,0,0-2.258.893.327.327,0,0,0,.427.495,3.053,3.053,0,0,1,1.858-.735,1.786,1.786,0,0,1,.75.105,1.66,1.66,0,0,1,.842.882,2.418,2.418,0,0,1-.49,2.62,7.7,7.7,0,0,1-2.392,1.354,10.827,10.827,0,0,0-2.019,1.026c-1.874,1.331-4,2.84-6.414,3.162a1.3,1.3,0,0,1-.828-.08c-.3-.191-.394-.653-.481-1.1a14.685,14.685,0,0,0-2.154-5.252c-.225-.34-.481-.726-.4-1.05a1.392,1.392,0,0,1,.235-.423l.076-.108a8.048,8.048,0,0,0,.946-4.608c.014-1.579.027-3.07.837-4.252a.327.327,0,0,0-.539-.369,8.025,8.025,0,0,0-.952,4.615,7.465,7.465,0,0,1-.833,4.246l-.07.1a1.926,1.926,0,0,0-.335.642,2.019,2.019,0,0,0,.49,1.568,14.022,14.022,0,0,1,2.057,5.015,2.139,2.139,0,0,0,.775,1.529,1.5,1.5,0,0,0,.814.209" transform="translate(3.995 -46.3)" fill="#545454"/>
        <path id="패스_8888" data-name="패스 8888" d="M161.666,199.312a42.992,42.992,0,0,0-11.615,7.043,17.752,17.752,0,0,1,2.8,5.558,2.569,2.569,0,0,1,1.76-.5,19.973,19.973,0,0,0,9.028-2.653" transform="translate(-12.903 -142.707)" fill="#90d0de"/>
        <path id="패스_8889" data-name="패스 8889" d="M152.031,211.417a.326.326,0,0,0,.221-.086,2.207,2.207,0,0,1,1.5-.411l.057,0a20.169,20.169,0,0,0,9.176-2.7.327.327,0,0,0-.322-.568,19.521,19.521,0,0,1-8.881,2.611l-.057,0a3.422,3.422,0,0,0-1.514.3,18.174,18.174,0,0,0-2.533-4.984,42.507,42.507,0,0,1,11.289-6.793.326.326,0,1,0-.243-.606,43.254,43.254,0,0,0-11.7,7.1.326.326,0,0,0-.049.448,17.519,17.519,0,0,1,2.751,5.456.327.327,0,0,0,.312.231" transform="translate(-12.08 -141.883)" fill="#545454"/>
        <path id="패스_8890" data-name="패스 8890" d="M178.917,92.268a.284.284,0,0,0,.258-.165,1.739,1.739,0,0,0-.021-1.489.322.322,0,0,0-.615-.005,2.706,2.706,0,0,0,.111,1.473.284.284,0,0,0,.255.186h.011" transform="translate(-36.667 -64.713)" fill="#545454"/>
        <path id="패스_8891" data-name="패스 8891" d="M176.293,84.278a.325.325,0,0,0,.062-.006,5.8,5.8,0,0,1,1.492-.089.327.327,0,0,0,.046-.651,6.4,6.4,0,0,0-1.66.1.327.327,0,0,0,.061.648" transform="translate(-34.816 -59.797)" fill="#545454"/>
        <path id="패스_8892" data-name="패스 8892" d="M0,0H36.081V30.927H0Z" transform="translate(156.947 90.467)" fill="#e9e9e9"/>
        <path id="패스_8893" data-name="패스 8893" d="M.327,348.975H36.408a.327.327,0,0,0,.327-.327V317.721a.327.327,0,0,0-.327-.327H.327a.327.327,0,0,0-.327.327v30.927a.327.327,0,0,0,.327.327m35.755-.653H.653V318.047H36.081Z" transform="translate(156.62 -227.253)" fill="#545454"/>
        <path id="패스_8894" data-name="패스 8894" d="M172.18,114.077a4.614,4.614,0,0,0,2.663-.846.327.327,0,1,0-.379-.532,3.952,3.952,0,0,1-2.866.68.327.327,0,0,0-.1.646,4.531,4.531,0,0,0,.681.051" transform="translate(-30.252 -80.649)" fill="#545454"/>
        <path id="패스_8895" data-name="패스 8895" d="M136.09,97.929a.327.327,0,0,0,.271-.143,1.957,1.957,0,0,1,2.856-.419.327.327,0,1,0,.413-.506,2.61,2.61,0,0,0-3.809.559.326.326,0,0,0,.27.51" transform="translate(15.048 -68.933)" fill="#545454"/>
        <path id="패스_8896" data-name="패스 8896" d="M140.193,100.114a.326.326,0,0,0,.219-.084,2.417,2.417,0,0,0,.68-1.162,6.624,6.624,0,0,0,.19-1.225.327.327,0,1,0-.651-.059,6.11,6.11,0,0,1-.168,1.105,1.805,1.805,0,0,1-.489.855.326.326,0,0,0,.219.569" transform="translate(12.35 -69.657)" fill="#545454"/>
        <path id="패스_8897" data-name="패스 8897" d="M149.852,63.784c.44.189.334,1.317.765,1.87a5.488,5.488,0,0,0,1.722,1.175q1.294.744,2.52,1.6a10.737,10.737,0,0,1,1.3,1.028,6.445,6.445,0,0,1,1.957,4.888,4.1,4.1,0,0,0,1.907-1.743" transform="translate(-9.232 -45.669)" fill="#ab7d66"/>
        <path id="패스_8898" data-name="패스 8898" d="M157.3,73.847a.322.322,0,0,0,.132-.028,4.417,4.417,0,0,0,2.061-1.884.327.327,0,1,0-.571-.317,3.765,3.765,0,0,1-1.294,1.36,6.782,6.782,0,0,0-2.06-4.582,11.049,11.049,0,0,0-1.344-1.06c-.821-.572-1.677-1.114-2.544-1.612-.135-.078-.274-.152-.414-.226a3.643,3.643,0,0,1-1.214-.867,2.332,2.332,0,0,1-.3-.87c-.1-.48-.2-.933-.591-1.1a.327.327,0,0,0-.258.6,1.749,1.749,0,0,1,.211.638,2.8,2.8,0,0,0,.425,1.132,4.18,4.18,0,0,0,1.421,1.042c.133.071.266.142.4.216.851.489,1.691,1.021,2.5,1.582a10.543,10.543,0,0,1,1.266,1,6.108,6.108,0,0,1,1.857,4.637.327.327,0,0,0,.326.342" transform="translate(-8.409 -44.846)" fill="#545454"/>
        <path id="패스_8899" data-name="패스 8899" d="M49.874,169.955l23.744,1.553a14.745,14.745,0,0,0,4.291-.139,17.118,17.118,0,0,0-.588-5.7,79.791,79.791,0,0,0-10.7-25.265c-3.231-5-7.389-9.887-13.1-11.557l-9.484,5.675s-1.483,23.4-1.042,27.644,6.878,7.793,6.878,7.793" transform="translate(103.197 -92.251)" fill="#90d0de"/>
        <path id="패스_8900" data-name="패스 8900" d="M74.833,171.1a10.262,10.262,0,0,0,2.329-.236.326.326,0,0,0,.251-.282,17.536,17.536,0,0,0-.594-5.814A79.7,79.7,0,0,0,66.077,139.4c-2.671-4.134-6.955-9.844-13.285-11.693a.329.329,0,0,0-.259.033l-9.484,5.675a.327.327,0,0,0-.158.26c-.061.957-1.48,23.473-1.041,27.7.454,4.366,6.777,7.9,7.046,8.046a.325.325,0,0,0,.136.04l23.743,1.553c.678.044,1.366.089,2.057.089m1.954-.823a15.381,15.381,0,0,1-3.968.082l-23.669-1.548c-.654-.376-6.254-3.7-6.649-7.506-.414-3.981.9-25.279,1.032-27.418l9.213-5.513c6.047,1.831,10.189,7.364,12.784,11.38a79.044,79.044,0,0,1,10.652,25.161,17.56,17.56,0,0,1,.6,5.361m-27.733-1.145h0Z" transform="translate(104.018 -91.428)" fill="#545454"/>
        <path id="패스_8901" data-name="패스 8901" d="M58.453,274.244c1.93.674,7.8,8.855,9.763,12.172a23.127,23.127,0,0,1,2.929,12.291l-7.983.51c-3.044-5.311-15.465-20.385-16.3-23.457-.567-2.087-2.59-8.889,2.235-11.814a12.82,12.82,0,0,1,4.616-1.9,73.811,73.811,0,0,1,12.737-.9l29.527,1.78" transform="translate(84.326 -186.975)" fill="#fff"/>
        <path id="패스_8902" data-name="패스 8902" d="M62.33,298.721h.021l7.982-.51a.327.327,0,0,0,.305-.3,23.564,23.564,0,0,0-2.973-12.485c-1.957-3.308-7.89-11.6-9.937-12.313a.327.327,0,1,0-.216.617c1.708.6,7.4,8.333,9.59,12.03a23,23,0,0,1,2.905,11.817l-7.5.479c-1.414-2.4-4.589-6.655-7.661-10.768-3.961-5.3-8.055-10.784-8.5-12.435l-.05-.183c-.64-2.338-2.342-8.549,2.139-11.266a12.64,12.64,0,0,1,4.5-1.854,73.592,73.592,0,0,1,12.681-.9l29.512,1.78a.327.327,0,1,0,.039-.652L65.637,260a74.288,74.288,0,0,0-12.808.9,13.233,13.233,0,0,0-4.734,1.94c-4.9,2.972-3.042,9.765-2.43,12l.05.183c.481,1.771,4.43,7.057,8.611,12.654,3.138,4.2,6.382,8.544,7.721,10.879a.326.326,0,0,0,.283.164" transform="translate(85.159 -186.153)" fill="#545454"/>
        <path id="패스_8903" data-name="패스 8903" d="M198.94,244.463a7.059,7.059,0,0,1-3.346-.857,3.1,3.1,0,0,1-1.57-2.9,5.545,5.545,0,0,1,1.252-2.348,6.154,6.154,0,0,1,1.321-1.521,1.687,1.687,0,0,1,1.892-.143c.6.43.7,1.309,1.213,1.841" transform="translate(-61.443 -169.305)" fill="#ffe2d1"/>
        <path id="패스_8904" data-name="패스 8904" d="M198.118,243.958a.327.327,0,0,0,.018-.653,6.855,6.855,0,0,1-3.192-.809,2.786,2.786,0,0,1-1.419-2.58,4.588,4.588,0,0,1,1.012-1.953l.336-.465a4.925,4.925,0,0,1,1.09-1.229,1.372,1.372,0,0,1,1.514-.144,2.133,2.133,0,0,1,.584.862,3.351,3.351,0,0,0,.584.94.327.327,0,1,0,.469-.455,2.821,2.821,0,0,1-.462-.766,2.644,2.644,0,0,0-.8-1.114,2,2,0,0,0-2.27.143,5.481,5.481,0,0,0-1.246,1.384l-.33.457a5.061,5.061,0,0,0-1.132,2.25,3.443,3.443,0,0,0,1.722,3.224,7.443,7.443,0,0,0,3.5.906h.019" transform="translate(-60.621 -168.474)" fill="#545454"/>
        <path id="패스_8905" data-name="패스 8905" d="M83.419,267.442a16.855,16.855,0,0,1-.035,8.015,9.394,9.394,0,0,1-4.945,6.082,12.843,12.843,0,0,1-4.517.893c-10.964.615-21.666-3.093-32.564-4.449" transform="translate(97.723 -191.488)" fill="#fff"/>
        <path id="패스_8906" data-name="패스 8906" d="M70.632,282q1.237,0,2.474-.068a13.283,13.283,0,0,0,4.632-.92,9.725,9.725,0,0,0,5.126-6.29,16.914,16.914,0,0,0,.041-8.171.327.327,0,0,0-.64.133,16.289,16.289,0,0,1-.029,7.859,9.067,9.067,0,0,1-4.763,5.873,12.5,12.5,0,0,1-4.4.865c-7.048.4-14.132-1.035-20.982-2.419-3.766-.761-7.66-1.547-11.523-2.028a.327.327,0,1,0-.081.648c3.838.478,7.72,1.262,11.474,2.02,6.094,1.231,12.371,2.5,18.674,2.5" transform="translate(98.558 -190.665)" fill="#545454"/>
        <path id="패스_8907" data-name="패스 8907" d="M135.1,187.078l-2.339,11.439c-.839,4.1-1.694,8.252-3.523,12.017a3.152,3.152,0,0,1-1.4,1.649,3.3,3.3,0,0,1-1.779.077c-5.986-.861-9.355-1.031-15.124-2.845.021-.909.358-4.245.379-5.154a1.184,1.184,0,0,1,.191-.754,1.162,1.162,0,0,1,.6-.309c4.508-1.246,6.422-.259,11.04.481" transform="translate(26.744 -133.947)" fill="#90d0de"/>
        <path id="패스_8908" data-name="패스 8908" d="M126.139,211.846a2.529,2.529,0,0,0,1.012-.187,3.422,3.422,0,0,0,1.56-1.806c1.858-3.824,2.718-8.028,3.549-12.094l2.339-11.439a.327.327,0,0,0-.64-.131l-2.339,11.439c-.824,4.026-1.675,8.19-3.5,11.94a2.881,2.881,0,0,1-1.233,1.492,3,3,0,0,1-1.6.053c-1.239-.178-2.35-.325-3.425-.467a60.44,60.44,0,0,1-11.409-2.292c.028-.526.1-1.431.178-2.31.093-1.1.18-2.134.191-2.6a.954.954,0,0,1,.114-.55.92.92,0,0,1,.442-.2c3.436-.95,5.316-.577,8.162-.014.8.159,1.711.339,2.739.5a.327.327,0,0,0,.1-.645c-1.017-.163-1.919-.342-2.716-.5-2.832-.56-4.878-.965-8.462.026a1.458,1.458,0,0,0-.767.413,1.481,1.481,0,0,0-.268.957c-.01.445-.1,1.519-.188,2.559-.092,1.1-.179,2.131-.191,2.594a.327.327,0,0,0,.229.319,61.437,61.437,0,0,0,11.758,2.392c1.073.141,2.182.288,3.417.465a6.555,6.555,0,0,0,.943.087" transform="translate(27.568 -133.123)" fill="#545454"/>
        <path id="패스_8909" data-name="패스 8909" d="M135.321,128.156a20.045,20.045,0,0,1-3.2,3.742c-2.348,2.326-4.924,4.771-8.189,5.282-.115-.473-.548-2.262-.031-3.238,1.167-2.2,7.713-6.346,8.626-6.657,1.047-.357,1.86.284,2.8.872" transform="translate(22.918 -91.062)" fill="#fff"/>
        <path id="패스_8910" data-name="패스 8910" d="M123.1,136.683a.344.344,0,0,0,.051,0c3.234-.506,5.7-2.732,8.369-5.372a20.3,20.3,0,0,0,3.253-3.8.326.326,0,0,0-.106-.446c-.1-.06-.192-.122-.286-.182a3.116,3.116,0,0,0-2.79-.722c-.874.3-7.557,4.453-8.809,6.813a5.2,5.2,0,0,0,0,3.468.326.326,0,0,0,.317.249m10.944-9.248a21.285,21.285,0,0,1-2.984,3.408c-2.5,2.474-4.812,4.572-7.711,5.138a4.129,4.129,0,0,1,.01-2.709c1.106-2.085,7.566-6.2,8.443-6.5.789-.268,1.423.138,2.226.653l.017.011" transform="translate(23.742 -90.239)" fill="#545454"/>
        <path id="패스_8911" data-name="패스 8911" d="M478.778,193.939a30.8,30.8,0,0,0,8.678-.38,6.135,6.135,0,0,0,2.369-.83,2.4,2.4,0,0,0,1.131-2.125c-.046-.433-.224-.948.09-1.25a1.091,1.091,0,0,1,.728-.206,11.3,11.3,0,0,0,3-.558c.284-.094.629-.341.5-.611a.538.538,0,0,0-.327-.231,12.451,12.451,0,0,0-10.334.866s-4.174,1.586-5.474,1.824" transform="translate(-437.92 -133.898)" fill="#ffe2d1"/>
        <path id="패스_8912" data-name="패스 8912" d="M480.965,193.581a31.08,31.08,0,0,0,5.729-.533,6.459,6.459,0,0,0,2.493-.881,2.721,2.721,0,0,0,1.272-2.43c-.01-.1-.026-.194-.042-.293-.055-.342-.083-.575.034-.688a.892.892,0,0,1,.517-.114,11.627,11.627,0,0,0,3.086-.575,1.166,1.166,0,0,0,.7-.563.6.6,0,0,0-.01-.5.846.846,0,0,0-.509-.4,12.742,12.742,0,0,0-10.587.876c-.339.128-4.186,1.578-5.392,1.8a.327.327,0,0,0,.118.643,57.216,57.216,0,0,0,5.53-1.84.38.38,0,0,0,.046-.022,12.082,12.082,0,0,1,10.06-.843.847.847,0,0,1,.124.054.715.715,0,0,1-.288.171,10.957,10.957,0,0,1-2.912.542,1.358,1.358,0,0,0-.939.3,1.333,1.333,0,0,0-.225,1.262c.015.087.028.174.037.258a2.066,2.066,0,0,1-.991,1.821,5.894,5.894,0,0,1-2.245.778,30.411,30.411,0,0,1-8.586.376.327.327,0,0,0-.064.65q1.518.149,3.041.149" transform="translate(-437.097 -133.066)" fill="#545454"/>
        <path id="패스_8913" data-name="패스 8913" d="M645.858,302.262l-3.565,34.164h3.565l5.553-33.638Z" transform="translate(-640.468 -216.419)" fill="#fff"/>
        <path id="패스_8914" data-name="패스 8914" d="M641.47,335.929h3.565a.326.326,0,0,0,.322-.273l5.552-33.638a.327.327,0,0,0-.291-.378l-5.553-.526a.326.326,0,0,0-.356.291l-3.564,34.164a.326.326,0,0,0,.325.36m3.287-.653h-2.925l3.493-33.482,4.882.462Z" transform="translate(-639.645 -215.595)" fill="#545454"/>
        <line id="선_291" data-name="선 291" x1="4.38" y2="28.505" transform="translate(4.71 89.784)" fill="#fff"/>
        <path id="패스_8915" data-name="패스 8915" d="M647.992,344.147a.327.327,0,0,0,.323-.277l4.38-28.505a.327.327,0,0,0-.646-.1l-4.38,28.505a.326.326,0,0,0,.273.372.3.3,0,0,0,.05,0" transform="translate(-643.282 -225.531)" fill="#545454"/>
        <path id="패스_8916" data-name="패스 8916" d="M570.089,302.262l3.564,34.164h-3.564l-5.553-33.638Z" transform="translate(-540.628 -216.419)" fill="#fff"/>
        <path id="패스_8917" data-name="패스 8917" d="M569.266,335.93h3.564a.326.326,0,0,0,.325-.36l-3.564-34.164a.328.328,0,0,0-.356-.291l-5.552.526a.327.327,0,0,0-.291.378l5.553,33.638a.327.327,0,0,0,.322.273m3.2-.653h-2.925l-5.45-33.02,4.882-.462Z" transform="translate(-539.805 -215.596)" fill="#545454"/>
        <rect id="사각형_5492" data-name="사각형 5492" width="27.794" height="9.064" transform="translate(3.622 77.305)" fill="#545454"/>
        <path id="패스_8918" data-name="패스 8918" d="M569.382,280.764h27.794a.327.327,0,0,0,.327-.327v-9.064a.327.327,0,0,0-.327-.327H569.382a.327.327,0,0,0-.327.327v9.064a.327.327,0,0,0,.327.327m27.467-.653h-27.14V271.7h27.14Z" transform="translate(-565.76 -194.069)" fill="#545454"/>
        <path id="패스_8919" data-name="패스 8919" d="M580.558,88.291a3.055,3.055,0,0,1-2.273-1.4,22.625,22.625,0,0,1-4.6-15.762,38.765,38.765,0,0,1,5.075-15.891c.937-1.712,1.956-3.38,2.821-5.13,1.753-3.546,2.9-7.467,5.42-10.515a8.75,8.75,0,0,1,2.8-2.343,9.1,9.1,0,0,1,3.338-.81,9.748,9.748,0,0,1,6.157,1.309s1.23,1.034,1.535,1.339,1.364-.057,2.186,1a2.875,2.875,0,0,1,.18,3.582,6.359,6.359,0,0,1-2.522,1.422,14.448,14.448,0,0,0-3.531,2.1,5.726,5.726,0,0,0-2.344,3.531,12.9,12.9,0,0,0-1.445-1.749" transform="translate(-573.299 -26.06)" fill="#ab7d66"/>
        <path id="패스_8920" data-name="패스 8920" d="M579.655,87.8l.085,0a.327.327,0,1,0-.027-.653c-.625.026-1.268-.381-2.006-1.282a22.357,22.357,0,0,1-4.531-15.534,37.909,37.909,0,0,1,5.035-15.754c.328-.6.665-1.192,1-1.785.619-1.088,1.259-2.212,1.825-3.357.539-1.091,1.027-2.231,1.5-3.333a28.632,28.632,0,0,1,3.879-7.119,8.335,8.335,0,0,1,2.695-2.258,8.752,8.752,0,0,1,3.219-.778,9.6,9.6,0,0,1,5.936,1.245c.137.115,1.225,1.034,1.5,1.309a1.207,1.207,0,0,0,.735.256,1.892,1.892,0,0,1,1.424.709,2.581,2.581,0,0,1,.191,3.167,4.96,4.96,0,0,1-2,1.173c-.133.053-.266.106-.4.161a14.736,14.736,0,0,0-3.611,2.145,6.661,6.661,0,0,0-2.3,3.008c-.268-.347-.506-.606-.882-1.016l-.162-.176a.327.327,0,1,0-.481.441l.162.177a11.38,11.38,0,0,1,1.254,1.536.327.327,0,0,0,.593-.145,5.337,5.337,0,0,1,2.225-3.317,14.085,14.085,0,0,1,3.451-2.05c.128-.053.259-.105.389-.157a5.515,5.515,0,0,0,2.254-1.352,3.2,3.2,0,0,0-.169-4,2.509,2.509,0,0,0-1.854-.955,1.39,1.39,0,0,1-.361-.073c-.308-.308-1.5-1.313-1.552-1.356l-.029-.022a10.029,10.029,0,0,0-6.363-1.363,9.374,9.374,0,0,0-3.458.843,8.964,8.964,0,0,0-2.91,2.428,29.127,29.127,0,0,0-3.976,7.278c-.469,1.095-.953,2.226-1.485,3.3-.558,1.128-1.193,2.244-1.807,3.323-.339.6-.678,1.193-1.008,1.795a38.542,38.542,0,0,0-5.114,16.026,23.017,23.017,0,0,0,4.678,15.99,3.452,3.452,0,0,0,2.455,1.522" transform="translate(-572.466 -25.238)" fill="#545454"/>
        <path id="패스_8921" data-name="패스 8921" d="M552.247,145.826c1.883,3.7,8,12.5,9.456,15.937.7,1.666,1.5,3.485.966,5.214a9.641,9.641,0,0,1-3.24,4.45c-2.114,1.61-4.271,2.812-5.985,4.841l-4.472-2.43a.725.725,0,0,1-.375-.342.71.71,0,0,1,.047-.46,22.355,22.355,0,0,1,1.765-3.9,18.911,18.911,0,0,0,1.489-2.8,4.074,4.074,0,0,0,.028-3.1" transform="translate(-525.283 -104.411)" fill="#fff"/>
        <path id="패스_8922" data-name="패스 8922" d="M552.622,175.771a.327.327,0,0,0,.25-.116,20.831,20.831,0,0,1,4.161-3.51c.58-.408,1.18-.831,1.772-1.282a9.972,9.972,0,0,0,3.354-4.614c.555-1.813-.24-3.692-.941-5.35l-.037-.087a86.858,86.858,0,0,0-5.26-8.976c-1.738-2.755-3.379-5.356-4.206-6.981a.327.327,0,0,0-.583.3c.841,1.652,2.489,4.266,4.236,7.034a86.917,86.917,0,0,1,5.211,8.882l.037.087c.69,1.631,1.4,3.318.918,4.9a9.273,9.273,0,0,1-3.125,4.286c-.583.444-1.177.863-1.753,1.268a22.207,22.207,0,0,0-4.11,3.42l-4.24-2.3c-.061-.033-.2-.111-.223-.165a.587.587,0,0,1,.048-.245,22.059,22.059,0,0,1,1.739-3.846c.119-.208.242-.415.365-.621a13.575,13.575,0,0,0,1.147-2.233,4.362,4.362,0,0,0,.017-3.348.327.327,0,0,0-.591.278,3.827,3.827,0,0,1-.039,2.845,13.084,13.084,0,0,1-1.1,2.124c-.125.21-.25.419-.371.63a22.725,22.725,0,0,0-1.79,3.96,1.008,1.008,0,0,0-.045.676,1.018,1.018,0,0,0,.526.519l4.472,2.43a.325.325,0,0,0,.155.04" transform="translate(-524.462 -103.587)" fill="#545454"/>
        <path id="패스_8923" data-name="패스 8923" d="M455.943,376.267a12.749,12.749,0,0,0,2.759,3.917c.087.084.183.195.148.31a.328.328,0,0,1-.181.167,12.614,12.614,0,0,1-3.243,1.285,5.624,5.624,0,0,1-3.433-.259,1.345,1.345,0,0,1-.5-.339,1.528,1.528,0,0,1-.272-.77,19,19,0,0,1,.2-6.8" transform="translate(-393.588 -267.627)" fill="#ffe2d1"/>
        <path id="패스_8924" data-name="패스 8924" d="M453.211,381.6a7.064,7.064,0,0,0,1.458-.158A12.982,12.982,0,0,0,458,380.125a.633.633,0,0,0,.34-.359.644.644,0,0,0-.233-.642,12.509,12.509,0,0,1-2.688-3.817.327.327,0,1,0-.6.269,13.164,13.164,0,0,0,2.813,4,12.229,12.229,0,0,1-3.1,1.223,5.332,5.332,0,0,1-3.232-.238,1.078,1.078,0,0,1-.384-.25,1.27,1.27,0,0,1-.2-.61,18.567,18.567,0,0,1,.194-6.679.327.327,0,1,0-.639-.136,19.226,19.226,0,0,0-.2,6.913,1.807,1.807,0,0,0,.345.93,1.651,1.651,0,0,0,.62.427,5.337,5.337,0,0,0,2.175.438" transform="translate(-392.764 -266.802)" fill="#545454"/>
        <path id="패스_8925" data-name="패스 8925" d="M435.064,388.992a1.029,1.029,0,0,1,.347,1.845c-1.271,1.48-3.339,1.857-5.248,2.15a16.8,16.8,0,0,1-3.245.284,13.615,13.615,0,0,0-4.821.383,3.741,3.741,0,0,1-.743.27,1.935,1.935,0,0,1-1.48-.542c-1.075-.892-1.053-2.648-1.006-4.056a34.688,34.688,0,0,0,3.908-.15,3.152,3.152,0,0,0,2.394-.937c.68-.694.879-1.906,2.081-1.813,1.08.083,2.064,1.209,3.117,1.54,1.164.366,3.569.522,4.7,1.028" transform="translate(-361.432 -276.675)" fill="#fff"/>
        <path id="패스_8926" data-name="패스 8926" d="M420.332,393.442a1.53,1.53,0,0,0,.25-.02,2.613,2.613,0,0,0,.621-.208c.063-.028.126-.055.189-.08a13.616,13.616,0,0,1,4.687-.36,17.147,17.147,0,0,0,3.307-.287c2.127-.326,4.144-.744,5.446-2.26a1.531,1.531,0,0,0,.421-1.566,1.579,1.579,0,0,0-.881-.79,12.914,12.914,0,0,0-2.814-.656,15.8,15.8,0,0,1-1.919-.385,5.4,5.4,0,0,1-1.256-.686,4.3,4.3,0,0,0-1.933-.868c-1.03-.08-1.486.648-1.851,1.234a3.948,3.948,0,0,1-.488.676,2.837,2.837,0,0,1-2.191.84,34.247,34.247,0,0,1-3.871.149.323.323,0,0,0-.332.316c-.044,1.311-.11,3.294,1.124,4.318a2.39,2.39,0,0,0,1.491.634m4.144-1.362a9.554,9.554,0,0,0-3.323.446c-.07.028-.14.058-.21.088a2.084,2.084,0,0,1-.467.163,1.651,1.651,0,0,1-1.218-.471c-.9-.749-.93-2.307-.9-3.474a35.125,35.125,0,0,0,3.622-.156,3.448,3.448,0,0,0,2.6-1.034,4.483,4.483,0,0,0,.576-.787c.39-.624.642-.973,1.247-.928a3.8,3.8,0,0,1,1.624.762,5.957,5.957,0,0,0,1.42.764,16.224,16.224,0,0,0,2.009.407,12.624,12.624,0,0,1,2.652.607h0a.945.945,0,0,1,.542.438c.133.328-.173.736-.31.9-1.157,1.346-3.049,1.733-5.05,2.04a16.6,16.6,0,0,1-3.182.281c-.531-.022-1.083-.041-1.631-.041m9.764-3.912h0Z" transform="translate(-360.608 -275.851)" fill="#545454"/>
        <path id="패스_8927" data-name="패스 8927" d="M522.5,393.215a12.745,12.745,0,0,0,1.508,4.548c.059.105.119.239.051.339a.328.328,0,0,1-.221.108,12.608,12.608,0,0,1-3.476.291,5.625,5.625,0,0,1-3.211-1.241,1.344,1.344,0,0,1-.383-.469,1.528,1.528,0,0,1-.038-.816,19.007,19.007,0,0,1,2.155-6.448" transform="translate(-477.482 -278.9)" fill="#ffe2d1"/>
        <path id="패스_8928" data-name="패스 8928" d="M520.247,398.034a14.775,14.775,0,0,0,2.832-.326.63.63,0,0,0,.429-.246.643.643,0,0,0-.037-.682A12.5,12.5,0,0,1,522,392.35a.327.327,0,0,0-.648.085,13.179,13.179,0,0,0,1.536,4.645,12.261,12.261,0,0,1-3.322.274,5.334,5.334,0,0,1-3.025-1.163,1.067,1.067,0,0,1-.3-.35,1.263,1.263,0,0,1-.015-.641,18.552,18.552,0,0,1,2.118-6.337.327.327,0,0,0-.572-.315,19.212,19.212,0,0,0-2.192,6.559,1.809,1.809,0,0,0,.061.99,1.648,1.648,0,0,0,.469.589,5.979,5.979,0,0,0,3.4,1.319c.246.021.491.03.735.03" transform="translate(-476.656 -278.077)" fill="#545454"/>
        <path id="패스_8929" data-name="패스 8929" d="M460.174,235.246c4.973-1.038,9.956-2.078,15.01-2.623a29.744,29.744,0,0,1,5.675-.179,7.444,7.444,0,0,1,3.2.866,7.576,7.576,0,0,1,1.774,1.581c4.923,5.614,6.718,13.17,8.076,20.446a103.563,103.563,0,0,1,2.138,19,14.892,14.892,0,0,1-5.577,1.447,116.045,116.045,0,0,1-6.922-15.669,42.927,42.927,0,0,1-2.414-16.81" transform="translate(-433.383 -166.38)" fill="#90b3de"/>
        <path id="패스_8930" data-name="패스 8930" d="M489.647,275.288h.019a15.309,15.309,0,0,0,5.7-1.479.327.327,0,0,0,.185-.294,105.232,105.232,0,0,0-2.144-19.059c-1.3-6.949-3.1-14.845-8.152-20.6a7.949,7.949,0,0,0-1.853-1.647,7.785,7.785,0,0,0-3.34-.911,30.334,30.334,0,0,0-5.737.179c-5.074.547-10.141,1.6-15.042,2.628a.327.327,0,1,0,.134.639c4.885-1.02,9.937-2.074,14.978-2.618a29.623,29.623,0,0,1,5.612-.178,6.962,6.962,0,0,1,3.061.821,7.38,7.38,0,0,1,1.7,1.516c4.939,5.632,6.719,13.426,8,20.29a105.339,105.339,0,0,1,2.132,18.733,14.663,14.663,0,0,1-5.056,1.314,114.2,114.2,0,0,1-6.806-15.432,42.61,42.61,0,0,1-2.4-16.681.327.327,0,1,0-.651-.051,43.251,43.251,0,0,0,2.429,16.938,115.945,115.945,0,0,0,6.941,15.713.326.326,0,0,0,.291.179" transform="translate(-432.559 -165.557)" fill="#545454"/>
        <path id="패스_8931" data-name="패스 8931" d="M492.043,238.335a10.766,10.766,0,0,0,2.882,8.151,18.363,18.363,0,0,0,4.348,3.194,27.854,27.854,0,0,0,6.764,2.924,60.961,60.961,0,0,0,7.463,1.087,27.455,27.455,0,0,1,5.1,1.092,37.834,37.834,0,0,1,9.028,4.955c-2.237,3.374-3.052,7.439-3.735,11.4q-1.193,6.927-2.027,13.906a40.278,40.278,0,0,0,6.983.418c.689-6.678,8.023-21.443,8.023-26.384a14.1,14.1,0,0,0-1.383-6.226c-1.457-3.709-5.52-5.877-8.938-8.026a58.516,58.516,0,0,0-11.056-4.969" transform="translate(-483.254 -170.647)" fill="#90b3de"/>
        <path id="패스_8932" data-name="패스 8932" d="M526.942,284.985q.549,0,1.1-.015a.326.326,0,0,0,.316-.293c.338-3.279,2.311-8.565,4.219-13.677,1.957-5.244,3.806-10.2,3.806-12.741a14.411,14.411,0,0,0-1.407-6.346c-1.341-3.412-4.852-5.578-7.95-7.489-.377-.233-.751-.464-1.118-.694a58.914,58.914,0,0,0-11.118-5,.326.326,0,0,0-.226.613,58.394,58.394,0,0,1,11,4.939c.368.231.744.463,1.123.7,3.158,1.948,6.424,3.962,7.685,7.172a13.739,13.739,0,0,1,1.361,6.107c0,2.425-1.828,7.325-3.764,12.513-1.868,5.006-3.8,10.179-4.223,13.552a39.963,39.963,0,0,1-6.329-.377c.546-4.518,1.214-9.082,1.987-13.572.7-4.071,1.51-8,3.685-11.279a.327.327,0,0,0-.09-.451,38.068,38.068,0,0,0-9.107-4.995,27.5,27.5,0,0,0-5.166-1.106c-.7-.091-1.409-.168-2.1-.242a37.3,37.3,0,0,1-5.327-.838,27.354,27.354,0,0,1-6.683-2.891,18.3,18.3,0,0,1-4.273-3.135,10.473,10.473,0,0,1-2.794-7.9.327.327,0,0,0-.651-.053,11.135,11.135,0,0,0,2.97,8.4,18.892,18.892,0,0,0,4.425,3.254,27.941,27.941,0,0,0,6.844,2.956,37.808,37.808,0,0,0,5.421.855c.684.074,1.391.151,2.082.241a26.825,26.825,0,0,1,5.045,1.078,36.451,36.451,0,0,1,8.682,4.736c-2.112,3.328-2.914,7.224-3.608,11.257-.793,4.606-1.475,9.291-2.029,13.923a.326.326,0,0,0,.276.362,40.709,40.709,0,0,0,5.944.437" transform="translate(-482.428 -169.824)" fill="#545454"/>
        <path id="패스_8933" data-name="패스 8933" d="M578.247,114.566c-5.078,2.462-5.314,9.846-6.279,15.405a106.252,106.252,0,0,0-1.739,14.256c-.117,3.214.15,6.754,2.375,9.077a1.1,1.1,0,0,0,.524.354,1.262,1.262,0,0,0,.789-.192c3.229-1.55,6.951-1.548,10.531-1.614s7.342-.283,10.382-2.176c-1.305-5.882-1.838-9.069-2.79-15.019a17.323,17.323,0,0,1-.315-3.372c.034-.9.207-1.788.185-2.686a9.289,9.289,0,0,0-.723-3.122c-1.162-2.971-3.583-8.444-6.322-10.079,0,0-4.453-1.883-6.618-.834" transform="translate(-563.415 -81.801)" fill="#fff"/>
        <path id="패스_8934" data-name="패스 8934" d="M572.442,153.182a1.835,1.835,0,0,0,.784-.235c3.034-1.457,6.547-1.518,9.943-1.578l.461-.008c3.636-.067,7.446-.294,10.548-2.226a.327.327,0,0,0,.146-.348c-1.326-5.976-1.867-9.253-2.787-15a17.072,17.072,0,0,1-.311-3.308c.013-.364.052-.738.089-1.1a12.658,12.658,0,0,0,.1-1.605,9.471,9.471,0,0,0-.745-3.233c-1.486-3.8-3.813-8.661-6.458-10.241a.317.317,0,0,0-.04-.02c-.188-.079-4.615-1.928-6.888-.826-4.463,2.163-5.306,7.93-6.051,13.018-.134.918-.261,1.786-.407,2.626a107.753,107.753,0,0,0-1.744,14.3c-.11,3.023.071,6.814,2.465,9.315a1.387,1.387,0,0,0,.69.448.967.967,0,0,0,.209.022m21.195-4.482c-2.928,1.734-6.551,1.944-10.018,2.007l-.461.008c-3.467.061-7.052.124-10.206,1.638a1.058,1.058,0,0,1-.578.168.844.844,0,0,1-.359-.262c-2.225-2.324-2.389-5.944-2.284-8.839a107.091,107.091,0,0,1,1.735-14.212c.147-.848.275-1.72.41-2.643.721-4.927,1.538-10.512,5.689-12.525,1.937-.939,6,.7,6.328.832,2.611,1.578,4.982,6.88,6.165,9.906a8.853,8.853,0,0,1,.7,3.011,12.065,12.065,0,0,1-.093,1.523c-.038.372-.078.757-.092,1.143a17.574,17.574,0,0,0,.319,3.436c.909,5.686,1.45,8.959,2.743,14.809" transform="translate(-562.591 -80.982)" fill="#545454"/>
        <path id="패스_8935" data-name="패스 8935" d="M502.448,414.245a1.029,1.029,0,0,1-.2,1.866c-1.645,1.049-3.734.812-5.646.54a16.844,16.844,0,0,1-3.188-.667,13.616,13.616,0,0,0-4.725-1.029,3.743,3.743,0,0,1-.79.043,1.934,1.934,0,0,1-1.26-.947c-.771-1.165-.242-2.84.21-4.173a34.723,34.723,0,0,0,3.784.987,3.155,3.155,0,0,0,2.563-.2c.851-.468,1.393-1.57,2.517-1.133,1.01.392,1.626,1.754,2.538,2.375,1.009.688,3.265,1.532,4.2,2.343" transform="translate(-447.695 -293.148)" fill="#fff"/>
        <path id="패스_8936" data-name="패스 8936" d="M498.361,416.387a5.849,5.849,0,0,0,3.237-.822,1.53,1.53,0,0,0,.856-1.378,1.583,1.583,0,0,0-.616-1.011,12.909,12.909,0,0,0-2.5-1.442,15.909,15.909,0,0,1-1.725-.924,5.417,5.417,0,0,1-1-1.02,4.3,4.3,0,0,0-1.6-1.39,1.955,1.955,0,0,0-2.129.646,3.95,3.95,0,0,1-.663.506,2.836,2.836,0,0,1-2.341.17,34.459,34.459,0,0,1-3.748-.977.327.327,0,0,0-.41.206c-.422,1.243-1.059,3.12-.173,4.459a2.21,2.21,0,0,0,1.49,1.091,2.615,2.615,0,0,0,.655-.02c.068-.008.136-.016.2-.022a13.638,13.638,0,0,1,4.591,1.011,17.076,17.076,0,0,0,3.249.682,18.9,18.9,0,0,0,2.631.235m-3.973-7.457a1.039,1.039,0,0,1,.381.079,3.8,3.8,0,0,1,1.335,1.2,5.95,5.95,0,0,0,1.138,1.142,16.206,16.206,0,0,0,1.806.971,12.61,12.61,0,0,1,2.363,1.349h0a.949.949,0,0,1,.392.576c.032.353-.378.654-.556.768-1.5.954-3.42.777-5.424.492a16.609,16.609,0,0,1-3.127-.652,13.457,13.457,0,0,0-4.86-1.045c-.076.006-.151.015-.226.024a2.072,2.072,0,0,1-.494.021,1.653,1.653,0,0,1-1.03-.8c-.648-.978-.224-2.478.145-3.585a35.192,35.192,0,0,0,3.512.9,3.447,3.447,0,0,0,2.784-.239,4.491,4.491,0,0,0,.779-.587c.419-.367.716-.607,1.081-.607m7.236,4.493h0Z" transform="translate(-446.87 -292.326)" fill="#545454"/>
        <path id="패스_8937" data-name="패스 8937" d="M531.341,160.855c1.075,3.412,1.8,7,3.016,10.367a2.376,2.376,0,0,0,.661,1.111,2.479,2.479,0,0,0,1.909.241c6.239-.9,12.431-1.067,18.671-1.97.461,1.975.023,3.028.776,4.911a101.085,101.085,0,0,1-21.657,4.1,8.39,8.39,0,0,1-2.915-.156,7.866,7.866,0,0,1-2.845-1.772,39.719,39.719,0,0,1-6.788-7.635" transform="translate(-511.313 -115.172)" fill="#fff"/>
        <path id="패스_8938" data-name="패스 8938" d="M532.656,179.172c.406,0,.823-.024,1.258-.053A102.7,102.7,0,0,0,555.638,175a.327.327,0,0,0,.214-.435,7.293,7.293,0,0,1-.491-2.647,11.46,11.46,0,0,0-.269-2.217.328.328,0,0,0-.365-.249c-3.11.45-6.265.721-9.315.983s-6.226.534-9.355.987a2.218,2.218,0,0,1-1.659-.174,2.1,2.1,0,0,1-.556-.965c-.7-1.939-1.245-3.99-1.774-5.974-.385-1.445-.783-2.939-1.238-4.38a.327.327,0,1,0-.623.2c.45,1.427.846,2.914,1.229,4.352.533,2,1.083,4.062,1.791,6.027a2.664,2.664,0,0,0,.765,1.256,2.757,2.757,0,0,0,2.158.308c3.11-.45,6.266-.721,9.317-.983,2.961-.254,6.021-.517,9.051-.944a11.723,11.723,0,0,1,.19,1.808,8.245,8.245,0,0,0,.41,2.518,101.247,101.247,0,0,1-21.249,3.994,8.026,8.026,0,0,1-2.8-.144,7.634,7.634,0,0,1-2.722-1.705,39.353,39.353,0,0,1-6.732-7.572.327.327,0,1,0-.54.367,40.014,40.014,0,0,0,6.844,7.7,8.185,8.185,0,0,0,2.968,1.839,6.241,6.241,0,0,0,1.77.222" transform="translate(-510.49 -114.347)" fill="#545454"/>
        <path id="패스_8939" data-name="패스 8939" d="M604.667,93.251a24.67,24.67,0,0,0-1.067,7.361c.269,1.49-3.2-.86-7.917-2.17-.371-1.1,1.7-3.6,2.335-4.574a9.838,9.838,0,0,1,1.354-2.021c1.007-.916,2.526-.891,3.885-.812" transform="translate(-580.474 -65.156)" fill="#ffe5dd"/>
        <path id="패스_8940" data-name="패스 8940" d="M602.413,100.594a.738.738,0,0,0,.483-.148.68.68,0,0,0,.207-.685,24.265,24.265,0,0,1,1.053-7.238.327.327,0,0,0-.625-.19,24.918,24.918,0,0,0-1.081,7.459.337.337,0,0,0,.005.055.5.5,0,0,1,.009.094,9.9,9.9,0,0,1-2.56-.857,44.639,44.639,0,0,0-4.765-1.725c-.049-.819,1.169-2.511,1.844-3.448.194-.27.364-.5.483-.687.151-.229.285-.469.415-.7a4.826,4.826,0,0,1,.886-1.258c.9-.815,2.292-.806,3.646-.727a.327.327,0,1,0,.037-.652c-1.492-.087-3.041-.089-4.123.9a5.383,5.383,0,0,0-1.016,1.422c-.13.232-.253.452-.391.661-.116.176-.281.4-.468.665-1.191,1.653-2.232,3.217-1.9,4.194a.326.326,0,0,0,.222.21,43.017,43.017,0,0,1,4.886,1.755,9.656,9.656,0,0,0,2.756.905m.364-.8h0Z" transform="translate(-579.651 -64.333)" fill="#545454"/>
        <path id="패스_8941" data-name="패스 8941" d="M588,61.084c1.1,2.4-.875,5.394.222,7.8a1.784,1.784,0,0,1,.211.594,1.515,1.515,0,0,1-.57,1.049,12.317,12.317,0,0,0-2.541,4.058c-.153.4-.327.862-.727,1.026a1.353,1.353,0,0,1-.907-.044c-2.028-.633-3.61-2.191-5.109-3.7-.967-.972-2.638-1.589-3.434-2.7a2.365,2.365,0,0,1-.039-2.621,1.708,1.708,0,0,1,1.02-.746,1.83,1.83,0,0,1,.772.02,2.932,2.932,0,0,1,1.632.993" transform="translate(-558.31 -43.736)" fill="#ffe5dd"/>
        <path id="패스_8942" data-name="패스 8942" d="M583.444,75.173a1.2,1.2,0,0,0,.459-.086,1.878,1.878,0,0,0,.907-1.211,12.062,12.062,0,0,1,2.473-3.951,1.8,1.8,0,0,0,.659-1.3,1.7,1.7,0,0,0-.2-.611l-.045-.1a6.412,6.412,0,0,1-.085-3.708,6.957,6.957,0,0,0-.138-4.09.327.327,0,1,0-.594.273,6.392,6.392,0,0,1,.087,3.712,6.979,6.979,0,0,0,.135,4.084l.049.1a1.171,1.171,0,0,1,.133.377c.019.268-.247.551-.482.8a12.719,12.719,0,0,0-2.608,4.166c-.136.36-.277.73-.546.84a1.088,1.088,0,0,1-.686-.054c-2-.623-3.579-2.213-4.974-3.615a9.376,9.376,0,0,0-1.575-1.174,6.621,6.621,0,0,1-1.824-1.49,2.04,2.04,0,0,1-.033-2.25,1.386,1.386,0,0,1,.817-.609,1.507,1.507,0,0,1,.634.02,2.591,2.591,0,0,1,1.448.882.327.327,0,1,0,.5-.415,3.245,3.245,0,0,0-1.815-1.1,2.117,2.117,0,0,0-.91-.02,2.015,2.015,0,0,0-1.222.883,2.678,2.678,0,0,0,.044,2.993,7.071,7.071,0,0,0,2,1.66,8.791,8.791,0,0,1,1.465,1.085c1.449,1.456,3.091,3.107,5.243,3.778a2.288,2.288,0,0,0,.67.12" transform="translate(-557.489 -42.913)" fill="#545454"/>
        <path id="패스_8943" data-name="패스 8943" d="M582.881,82.893a.284.284,0,0,0,.246-.142,2.378,2.378,0,0,0,.316-1.257.284.284,0,0,0-.475-.2.288.288,0,0,0-.12.094,1.541,1.541,0,0,0-.241,1.3.285.285,0,0,0,.238.208l.036,0" transform="translate(-555.537 -58.152)" fill="#545454"/>
        <path id="패스_8944" data-name="패스 8944" d="M581.124,75.9a.327.327,0,0,0,.115-.632,5.589,5.589,0,0,0-1.409-.329.327.327,0,0,0-.065.65,4.944,4.944,0,0,1,1.244.291.326.326,0,0,0,.115.021" transform="translate(-552.666 -53.655)" fill="#545454"/>
        <path id="패스_8945" data-name="패스 8945" d="M586.368,100.7a.327.327,0,0,0,.006-.653,3.363,3.363,0,0,1-2.307-.984.327.327,0,1,0-.463.46,4.021,4.021,0,0,0,2.759,1.177Z" transform="translate(-559.057 -70.862)" fill="#545454"/>
        <path id="패스_8946" data-name="패스 8946" d="M613.019,82.265a.327.327,0,0,0,.3-.461,2.44,2.44,0,0,0-3.422-1.118.327.327,0,1,0,.321.569,1.787,1.787,0,0,1,2.506.818.327.327,0,0,0,.3.192" transform="translate(-593.155 -57.548)" fill="#545454"/>
        <path id="패스_8947" data-name="패스 8947" d="M615.765,84.758a.326.326,0,0,0,.256-.528,1.646,1.646,0,0,1-.307-.844,5.566,5.566,0,0,1,.02-1.03l-.651-.053.326.026-.326-.025a6.152,6.152,0,0,0-.018,1.151,2.257,2.257,0,0,0,.443,1.179.325.325,0,0,0,.257.125" transform="translate(-597.411 -58.929)" fill="#545454"/>
        <path id="패스_8948" data-name="패스 8948" d="M584.888,59.533c-.4.1-.476,1.071-.924,1.479a4.73,4.73,0,0,1-1.637.748q-1.209.444-2.377.99a9.255,9.255,0,0,0-1.26.684,5.562,5.562,0,0,0-2.379,3.872,3.538,3.538,0,0,1-1.368-1.762" transform="translate(-554.819 -42.625)" fill="#ab7d66"/>
        <path id="패스_8949" data-name="패스 8949" d="M575.469,66.809a.331.331,0,0,0,.136-.03.327.327,0,0,0,.188-.257,5.224,5.224,0,0,1,2.237-3.641,9.022,9.022,0,0,1,1.216-.659c.767-.359,1.558-.688,2.352-.98.12-.044.243-.085.366-.125a3.65,3.65,0,0,0,1.378-.688,2.452,2.452,0,0,0,.538-.917,1.658,1.658,0,0,1,.252-.489.322.322,0,0,0,.236-.392.33.33,0,0,0-.4-.24c-.377.09-.538.49-.695.876a2.019,2.019,0,0,1-.373.68,3.114,3.114,0,0,1-1.144.551c-.13.043-.259.086-.385.132-.811.3-1.62.634-2.4,1a9.608,9.608,0,0,0-1.3.709,5.9,5.9,0,0,0-2.423,3.548,3.206,3.206,0,0,1-.833-1.275.327.327,0,1,0-.617.216,3.861,3.861,0,0,0,1.5,1.926.327.327,0,0,0,.181.055" transform="translate(-553.976 -41.801)" fill="#545454"/>
        <path id="패스_8950" data-name="패스 8950" d="M564.9,224.832a30.033,30.033,0,0,1,3.12,2.916c.271.3-.172.757-.439,1.058a9.425,9.425,0,0,0-1.78,2.96,14.2,14.2,0,0,1-1.532,3.83,1.03,1.03,0,0,1-.359.329.867.867,0,0,1-.6.021,2.792,2.792,0,0,1-1.647-2.058,6.873,6.873,0,0,1-.311-1.624c-.13-2.368,2.012-5.585,3.423-7.491" transform="translate(-534.172 -160.936)" fill="#ffe2d1"/>
        <path id="패스_8951" data-name="패스 8951" d="M562.771,235.49a1.021,1.021,0,0,0,.442-.095,1.342,1.342,0,0,0,.479-.426,8.354,8.354,0,0,0,1.2-2.741c.117-.39.238-.793.379-1.173a9.027,9.027,0,0,1,1.717-2.856l.046-.051c.3-.33.845-.945.391-1.444a29.98,29.98,0,0,0-3.159-2.952.323.323,0,0,0-.12-.06l-.008-.007a.327.327,0,0,0-.457.068c-2.415,3.263-3.588,5.855-3.486,7.7a7.168,7.168,0,0,0,.325,1.7,3.022,3.022,0,0,0,1.874,2.278,1.45,1.45,0,0,0,.379.053m1.249-11.1a29.781,29.781,0,0,1,2.921,2.749c.013.114-.283.444-.395.569l-.047.053a9.682,9.682,0,0,0-1.841,3.062c-.148.4-.273.813-.393,1.213a7.744,7.744,0,0,1-1.093,2.534.778.778,0,0,1-.239.231.56.56,0,0,1-.37,0c-.775-.21-1.2-1.116-1.421-1.839a6.52,6.52,0,0,1-.3-1.546c-.091-1.647.977-4.011,3.174-7.027" transform="translate(-533.337 -160.112)" fill="#545454"/>
        <line id="선_292" data-name="선 292" x2="4.38" y2="28.505" transform="translate(25.76 89.784)" fill="#fff"/>
        <path id="패스_8952" data-name="패스 8952" d="M578.25,344.147a.3.3,0,0,0,.05,0,.326.326,0,0,0,.273-.372l-4.38-28.505a.327.327,0,0,0-.646.1l4.38,28.505a.327.327,0,0,0,.323.277" transform="translate(-548.109 -225.531)" fill="#545454"/>
        <path id="패스_8953" data-name="패스 8953" d="M598.982,201.792a4.59,4.59,0,0,0-2.779,2.08" transform="translate(-574.951 -144.483)" fill="#fff"/>
        <path id="패스_8954" data-name="패스 8954" d="M595.38,203.374a.327.327,0,0,0,.281-.16,4.239,4.239,0,0,1,2.579-1.93.327.327,0,1,0-.161-.633,4.9,4.9,0,0,0-2.98,2.229.326.326,0,0,0,.114.447.323.323,0,0,0,.166.046" transform="translate(-574.128 -143.658)" fill="#545454"/>
        <path id="패스_8955" data-name="패스 8955" d="M517.1,312.74a.327.327,0,0,0,.016-.653,10.02,10.02,0,0,1-3.537-.833.327.327,0,1,0-.262.6,10.678,10.678,0,0,0,3.766.887h.017" transform="translate(-469.8 -222.837)" fill="#545454"/>
      </g>
    </g>
  </g>
</svg>
