<svg xmlns="http://www.w3.org/2000/svg" width="290" height="790" viewBox="0 0 290 790">
  <g id="그룹_13214" data-name="그룹 13214" transform="translate(-43 -663)">
    <circle id="타원_26" data-name="타원 26" cx="145" cy="145" r="145" transform="translate(43 663)" fill="#5228c9" opacity="0.8"/>
    <circle id="타원_31" data-name="타원 31" cx="145" cy="145" r="145" transform="translate(43 913)" fill="#2a83db" opacity="0.8"/>
    <circle id="타원_32" data-name="타원 32" cx="145" cy="145" r="145" transform="translate(43 1163)" fill="#e22a99" opacity="0.8"/>
    <text id="법과_제도를_통한_통합적_사회복지_서비스_구축" data-name="법과 제도를 통한
통합적 사회복지
서비스 구축" transform="translate(188 808)" fill="#fff" font-size="20" font-family="SourceHanSansKR-Regular, Source Han Sans KR" letter-spacing="-0.02em"><tspan x="-67" y="0">법과 제도를 통한</tspan><tspan x="-65" y="30">통합적 사회복지</tspan><tspan x="-47" y="60">서비스 구축</tspan></text>
    <text id="장애인의_지역사회_통합실현" data-name="장애인의
지역사회 통합실현" transform="translate(188 1073)" fill="#fff" font-size="20" font-family="SourceHanSansKR-Regular, Source Han Sans KR" letter-spacing="-0.02em"><tspan x="-36" y="0">장애인의</tspan><tspan x="-74" y="30">지역사회 통합실현</tspan></text>
    <text id="VISION" transform="translate(188 772)" fill="#fcfc00" font-size="26" font-family="SourceHanSansKR-Bold, Source Han Sans KR" font-weight="700" letter-spacing="-0.02em"><tspan x="-43" y="0">VISION</tspan></text>
    <text id="MISSION" transform="translate(188 1037)" fill="#fcfc00" font-size="26" font-family="SourceHanSansKR-Bold, Source Han Sans KR" font-weight="700" letter-spacing="-0.02em"><tspan x="-53" y="0">MISSION</tspan></text>
    <text id="운영목표" transform="translate(188 1320)" fill="#fcfc00" font-size="26" font-family="SourceHanSansKR-Bold, Source Han Sans KR" font-weight="700" letter-spacing="-0.02em"><tspan x="-47" y="0">운영목표</tspan></text>
    <path id="navigate_next_FILL0_wght700_GRAD0_opsz48" d="M311.287,336,308,332.714,317.714,323,308,313.287,311.287,310l13,13Z" transform="translate(511 1078.713) rotate(90)" fill="#fff"/>
  </g>
</svg>
