<svg id="그룹_12880" data-name="그룹 12880" xmlns="http://www.w3.org/2000/svg" xmlns:xlink="http://www.w3.org/1999/xlink" width="236.527" height="212.428" viewBox="0 0 236.527 212.428">
  <defs>
    <clipPath id="clip-path">
      <rect id="사각형_5061" data-name="사각형 5061" width="236.527" height="212.428" fill="none"/>
    </clipPath>
  </defs>
  <path id="패스_4981" data-name="패스 4981" d="M12.559,117.808h0Z" transform="translate(-4.268 -40.04)" fill="#fff"/>
  <g id="그룹_12877" data-name="그룹 12877">
    <g id="그룹_12876" data-name="그룹 12876" clip-path="url(#clip-path)">
      <path id="패스_4985" data-name="패스 4985" d="M313.468,70.545q-.312-.234-.642-.446c-5.4-3.452-8.068-1.65-11.071-7.953-1.374-2.888-2.664-11.72-7.8-7.484-4.975,4.1-.063,11.633-.246,16.747-.23,6.4-5.264,10.406-6.3,16.337-1.9,10.905,11.855,18.027,21.017,13.86,9.787-4.453,14.131-24.252,5.043-31.062" transform="translate(-97.622 -18.195)" fill="#f3d4c9"/>
      <path id="패스_4986" data-name="패스 4986" d="M302.058,103.3a18.073,18.073,0,0,1-10.932-3.747c-4.132-3.2-6.028-7.747-5.2-12.49a23.871,23.871,0,0,1,3.157-7.586c1.547-2.753,3.009-5.354,3.126-8.616a20.8,20.8,0,0,0-.923-5.4c-1.068-4.19-2.279-8.937,1.53-12.078,1.426-1.176,2.784-1.592,4.033-1.232,2.442.7,3.577,4.117,4.49,6.859a21.844,21.844,0,0,0,.8,2.194c1.784,3.745,3.275,4.289,5.744,5.191a23.373,23.373,0,0,1,4.967,2.353q.363.232.7.488c4.053,3.039,5.958,8.652,5.226,15.4-.859,7.925-5.061,14.9-10.454,17.352a15.142,15.142,0,0,1-6.269,1.305m-6.1-49.288a3.218,3.218,0,0,0-1.885.9c-2.839,2.341-1.883,6.091-.871,10.06a22.052,22.052,0,0,1,.984,5.958c-.135,3.742-1.784,6.677-3.379,9.515a22.035,22.035,0,0,0-2.932,6.956,10.837,10.837,0,0,0,4.462,10.583c4.365,3.375,10.6,4.282,15.17,2.205,4.7-2.14,8.531-8.622,9.305-15.762.655-6.038-.966-11-4.447-13.605h0q-.282-.212-.581-.4a21.387,21.387,0,0,0-4.579-2.161c-2.637-.963-4.72-1.723-6.853-6.2a22.755,22.755,0,0,1-.9-2.421c-.684-2.058-1.718-5.167-3.157-5.581a1.224,1.224,0,0,0-.341-.046" transform="translate(-97.114 -17.684)" fill="#040505"/>
      <path id="패스_4987" data-name="패스 4987" d="M157.361,174.006c3.489,0,8.691-4.483,4.987-7.978-6.843-6.454-38.088-12.954-41.822-2.563-1.518,4.223.329,7.239,2.428,11.041" transform="translate(-40.774 -53.702)" fill="#ffddba"/>
      <path id="패스_4988" data-name="패스 4988" d="M122.441,175a.988.988,0,0,1-.867-.512l-.273-.493c-2.052-3.7-3.823-6.9-2.219-11.361.952-2.649,3.417-4.466,7.327-5.4,10.6-2.533,30.565,2.355,36.1,7.58a4.391,4.391,0,0,1,1.253,5.045,8.126,8.126,0,0,1-6.919,4.643.99.99,0,0,1,0-1.98,6.235,6.235,0,0,0,5.078-3.394,2.436,2.436,0,0,0-.77-2.874c-5.109-4.818-24.392-9.461-34.286-7.094-3.22.77-5.213,2.165-5.925,4.145-1.3,3.617.121,6.181,2.088,9.731l.275.5a.99.99,0,0,1-.866,1.469" transform="translate(-40.261 -53.204)" fill="#060606"/>
      <path id="패스_4989" data-name="패스 4989" d="M93.451,258.46C90,243.5,92,230.582,87.571,216.177c-2.89,8.916-13.719,49.985-29.809,38.79C38.338,241.453,71.989,190.673,85.738,183c9.666-5.395,23.736-7.267,34.622-7.91,7.448-.443,15.8,1.866,21.5,6.656,18.159-1.453-2.409,64.366-4.027,77.076" transform="translate(-17.629 -59.49)" fill="#f6c5db"/>
      <path id="패스_4990" data-name="패스 4990" d="M137.324,259.3a1.019,1.019,0,0,1-.126-.008.99.99,0,0,1-.858-1.107c.36-2.829,1.609-8.1,3.192-14.783,4.609-19.462,12.324-52.036,5.756-59.691a4.306,4.306,0,0,0-3.859-1.491,1.01,1.01,0,0,1-.716-.228c-5.253-4.415-13.22-6.873-20.8-6.426-15.025.888-26.53,3.507-34.2,7.786-9.807,5.476-32.328,36.465-33.327,56.7-.311,6.295,1.518,10.87,5.435,13.595,2.486,1.73,4.864,2.167,7.267,1.335,9.932-3.432,17.357-27.664,20.152-36.786.347-1.133.641-2.093.881-2.833a.99.99,0,0,1,.941-.685h.007a.991.991,0,0,1,.939.7c2.444,7.941,2.968,15.581,3.474,22.968a120.508,120.508,0,0,0,2.425,19.384.99.99,0,0,1-1.93.445,122.174,122.174,0,0,1-2.47-19.693c-.449-6.545-.876-12.776-2.5-19.3-3.213,10.48-10.532,33.962-21.275,37.675-3,1.039-6.045.505-9.045-1.582-4.515-3.142-6.629-8.3-6.283-15.318,1.048-21.215,23.963-52.535,34.34-58.329,7.929-4.426,19.721-7.129,35.045-8.033,7.928-.474,16.267,2.066,21.891,6.634a6.19,6.19,0,0,1,5.11,2.2c7.222,8.42-.333,40.325-5.333,61.436-1.568,6.622-2.807,11.852-3.154,14.576a.99.99,0,0,1-.981.865" transform="translate(-17.119 -58.979)" fill="#070708"/>
      <path id="패스_4991" data-name="패스 4991" d="M156.186,170.411c-.632,1.007-4.991-9.681-4.892-11.376.176-2.982,4.786-11.568,2.66-13.64-1.388-1.352-10.507.134-12.632-.081-1.992-.2-5.3-1.3-7.2-.467-3.434,1.508-1.5,1.734-.408,4.548,2.429,6.284,2.67,14.187-.549,20.231,3.013,5.445,7.049,8.482,10.859,8.51,2.528.019,10.968-5.83,12.158-7.725" transform="translate(-44.925 -49.125)" fill="#f3d4c9"/>
      <path id="패스_4992" data-name="패스 4992" d="M143.525,178.616h-.016c-4.291-.032-8.563-3.32-11.718-9.021a.992.992,0,0,1-.008-.945c2.859-5.369,3.05-12.805.5-19.408a8.966,8.966,0,0,0-.914-1.7,2.565,2.565,0,0,1-.621-2.151c.253-.84,1.1-1.354,2.468-1.957,1.648-.724,3.889-.294,5.865.084.678.13,1.318.253,1.831.3a32.515,32.515,0,0,0,3.819-.193c4.932-.4,8.25-.574,9.4.55,1.821,1.776.363,5.907-1.046,9.9a23.359,23.359,0,0,0-1.318,4.5c-.044,1.238,2.99,8.817,4.1,10.346a1.013,1.013,0,0,1,.335.133.991.991,0,0,1,.312,1.366l0,0c-1.361,2.163-10.085,8.186-12.987,8.186m-9.743-9.524c2.73,4.709,6.346,7.519,9.741,7.544h.009c1.8,0,8.58-4.417,10.755-6.611-1.906-2.656-4.564-10.342-4.493-11.559a22.634,22.634,0,0,1,1.427-5.047c.915-2.594,2.446-6.934,1.531-7.825-.768-.567-5.56-.181-7.862.005a30.167,30.167,0,0,1-4.177.189c-.6-.06-1.283-.191-2-.33-1.609-.306-3.612-.69-4.7-.216a6.391,6.391,0,0,0-1.3.693c.074.141.209.35.323.527a10.861,10.861,0,0,1,1.1,2.064c2.677,6.928,2.534,14.749-.347,20.564m21.055.281h0Z" transform="translate(-44.414 -48.615)" fill="#040505"/>
      <path id="패스_4993" data-name="패스 4993" d="M114.465,173.3c-.5,5.735,5.993,9.926,10.929,11.968,3.681,1.524,7.634,1.895,11.54,2.475-2.6-1.4-11.125-12.7-9.629-14.942" transform="translate(-38.894 -58.73)" fill="#ffddba"/>
      <path id="패스_4994" data-name="패스 4994" d="M136.426,188.221a.925.925,0,0,1-.147-.011q-.9-.133-1.8-.257a40.28,40.28,0,0,1-9.973-2.283c-2.867-1.186-12.174-5.629-11.536-12.969a.99.99,0,0,1,1.972.172c-.521,6,7.768,9.911,10.321,10.967a33.318,33.318,0,0,0,8.1,1.955c-2.934-3.182-6.823-8.673-7.587-11.73a2.836,2.836,0,0,1,.193-2.326.99.99,0,0,1,1.648,1.1c-.655,1.625,6.445,12,9.274,13.521a.99.99,0,0,1-.468,1.862" transform="translate(-38.385 -58.22)" fill="#060606"/>
      <path id="패스_4995" data-name="패스 4995" d="M181.6,170.655c10.846-6.638,37.424-18.439,43.628-26.646l9.6,25.036c-16.522,15.518-29.055,19.1-44.694,24.2" transform="translate(-61.72 -48.945)" fill="#f6c5db"/>
      <path id="패스_4996" data-name="패스 4996" d="M189.619,193.722a.99.99,0,0,1-.307-1.932l2.106-.684c14.71-4.771,26.359-8.55,41.732-22.841L224.386,145.4c-5.358,5.645-18.194,12.387-29.617,18.387-5.091,2.674-9.9,5.2-13.165,7.2a.99.99,0,0,1-1.034-1.689c3.321-2.033,8.157-4.573,13.277-7.261,11.536-6.059,25.892-13.6,30.079-19.137a.99.99,0,0,1,1.714.242l9.6,25.036a.989.989,0,0,1-.246,1.076c-15.936,14.968-28.461,19.031-42.962,23.735l-2.1.683a.978.978,0,0,1-.307.049" transform="translate(-61.21 -48.434)" fill="#070708"/>
      <path id="패스_4997" data-name="패스 4997" d="M294.573,125.924c2.3-2.285,4.73-4.639,7.331-7.07l-17.393-17.4c-1.928,2.54-4.094,5.119-6.377,7.683Z" transform="translate(-94.53 -34.483)" fill="#f6c5db"/>
      <path id="패스_4998" data-name="패스 4998" d="M294.063,126.4h-.007a.988.988,0,0,1-.7-.3l-16.44-16.783a.991.991,0,0,1-.032-1.352c2.473-2.777,4.544-5.27,6.328-7.622a.991.991,0,0,1,.722-.389.971.971,0,0,1,.767.288l17.394,17.4a.99.99,0,0,1-.024,1.423c-2.418,2.26-4.809,4.566-7.31,7.049a.991.991,0,0,1-.7.288M278.977,108.6l15.1,15.413c2-1.98,3.946-3.853,5.9-5.689L284.1,102.446c-1.5,1.928-3.186,3.953-5.123,6.15" transform="translate(-94.02 -33.972)" fill="#070708"/>
      <path id="패스_4999" data-name="패스 4999" d="M174.093,173.3c.5,5.735-5.992,9.926-10.928,11.968-3.682,1.524-9.133,1.895-13.037,2.475,2.6-1.4,12.622-12.7,11.126-14.942" transform="translate(-51.025 -58.73)" fill="#ffddba"/>
      <path id="패스_5000" data-name="패스 5000" d="M149.617,188.214a.99.99,0,0,1-.468-1.862c2.743-1.475,11.258-11.752,10.75-13.562a.968.968,0,0,1,.286-1.353,1.008,1.008,0,0,1,1.384.3,2.432,2.432,0,0,1,.2,1.989c-.735,2.941-5.52,8.765-8.915,12.078a39.474,39.474,0,0,0,9.421-1.966c2.553-1.056,10.841-4.969,10.32-10.967a.989.989,0,0,1,.9-1.072,1,1,0,0,1,1.072.9c.638,7.341-8.668,11.783-11.536,12.969-2.969,1.229-6.933,1.726-10.431,2.164-1,.125-1.958.245-2.838.376a.925.925,0,0,1-.147.011" transform="translate(-50.515 -58.212)" fill="#060606"/>
      <path id="패스_5001" data-name="패스 5001" d="M235.972,170.7c10.906-6.39,28.949-20.44,37.514-29.913,3.1-3.421,10.815-10.771,4.962-14.966-2.933-2.1-5.991-4.053-8.737-6.4-3.907-3.34-7.655-11.222-12.272-4.976-5.2,7.028-15.089,19.988-23.759,26.457" transform="translate(-79.421 -38.102)" fill="#f6c5db"/>
      <path id="패스_5002" data-name="패스 5002" d="M235.463,171.179a.99.99,0,0,1-.5-1.844c10.446-6.12,28.609-20.132,37.281-29.722.263-.291.559-.61.877-.953,2.342-2.522,6.261-6.744,5.943-9.907a3.655,3.655,0,0,0-1.7-2.638c-.812-.581-1.633-1.151-2.455-1.722a78.547,78.547,0,0,1-6.348-4.732,30,30,0,0,1-2.878-3c-1.78-2.034-3.6-4.121-5.276-4.069-.855.036-1.757.686-2.679,1.934-3.582,4.845-14.484,19.589-23.962,26.661a.991.991,0,1,1-1.185-1.588c9.245-6.9,20.015-21.464,23.555-26.251,1.315-1.779,2.685-2.674,4.19-2.736,2.619-.111,4.762,2.358,6.848,4.744a28.4,28.4,0,0,0,2.674,2.8c1.944,1.662,4.1,3.161,6.191,4.61.83.576,1.66,1.151,2.48,1.739a5.594,5.594,0,0,1,2.518,4.05c.407,4.053-3.726,8.506-6.463,11.453-.312.336-.6.648-.86.933-8.788,9.72-27.177,23.91-37.747,30.1a.986.986,0,0,1-.5.136" transform="translate(-78.912 -37.592)" fill="#070708"/>
      <line id="선_151" data-name="선 151" y1="17.948" x2="14.585" transform="translate(116.686 24.712)" fill="#bababa"/>
      <path id="패스_5003" data-name="패스 5003" d="M176.253,55.863a.99.99,0,0,1-.768-1.615L190.071,36.3a.99.99,0,1,1,1.537,1.25L177.023,55.5a.988.988,0,0,1-.769.366" transform="translate(-59.567 -12.213)" fill="#040505"/>
      <line id="선_152" data-name="선 152" y1="12.34" x2="2.243" transform="translate(108.834 28.077)" fill="#bababa"/>
      <path id="패스_5004" data-name="패스 5004" d="M164.36,55.353a1.035,1.035,0,0,1-.179-.016.991.991,0,0,1-.8-1.152l2.243-12.34a.99.99,0,0,1,1.948.354l-2.242,12.341a.991.991,0,0,1-.973.813" transform="translate(-55.525 -13.946)" fill="#040505"/>
      <line id="선_153" data-name="선 153" x1="7.853" y1="22.436" transform="translate(88.641 19.102)" fill="#bababa"/>
      <path id="패스_5005" data-name="패스 5005" d="M141.622,51.853a.991.991,0,0,1-.935-.663l-7.853-22.436a.991.991,0,0,1,1.87-.654l7.852,22.436a.991.991,0,0,1-.608,1.262.974.974,0,0,1-.327.055" transform="translate(-45.128 -9.325)" fill="#040505"/>
      <line id="선_154" data-name="선 154" x1="7.853" y1="6.73" transform="translate(75.179 35.93)" fill="#bababa"/>
      <path id="패스_5006" data-name="패스 5006" d="M121.227,61.639a.987.987,0,0,1-.644-.238L112.73,54.67a.99.99,0,1,1,1.289-1.5l7.854,6.73a.99.99,0,0,1-.646,1.742" transform="translate(-38.197 -17.989)" fill="#040505"/>
      <rect id="사각형_5056" data-name="사각형 5056" width="12.1" height="13.683" transform="translate(175.371 15.837) rotate(-14.535)" fill="#6d6d6d"/>
      <path id="패스_5007" data-name="패스 5007" d="M268.586,36.152a.991.991,0,0,1-.958-.741l-3.435-13.245a.99.99,0,0,1,.71-1.207l11.713-3.037a.989.989,0,0,1,1.207.71l3.433,13.246a.99.99,0,0,1-.71,1.207l-11.712,3.036a.982.982,0,0,1-.249.032m-2.227-13.526L269.3,33.955l9.8-2.54-2.936-11.329Z" transform="translate(-89.782 -6.08)" fill="#080909"/>
      <rect id="사각형_5057" data-name="사각형 5057" width="9.162" height="96.503" transform="matrix(0.968, -0.251, 0.251, 0.968, 194.623, 15.476)" fill="#6d6d6d"/>
      <path id="패스_5008" data-name="패스 5008" d="M318.528,116.158a.992.992,0,0,1-.958-.742L293.354,22a.989.989,0,0,1,.71-1.207l8.869-2.3a.992.992,0,0,1,1.207.71l24.216,93.415a.989.989,0,0,1-.71,1.207l-8.869,2.3a1.013,1.013,0,0,1-.249.032m-23.009-93.7,23.72,91.5,6.952-1.8-23.72-91.5Z" transform="translate(-99.692 -6.275)" fill="#080909"/>
      <rect id="사각형_5058" data-name="사각형 5058" width="32.841" height="23.484" transform="translate(180.525 9.232) rotate(-14.533)" fill="#6d6d6d"/>
      <path id="패스_5009" data-name="패스 5009" d="M278.854,32.955a.992.992,0,0,1-.959-.742L272,9.481a.989.989,0,0,1,.71-1.207L304.5.033a.989.989,0,0,1,1.207.71L311.6,23.476a.989.989,0,0,1-.71,1.207L279.1,32.923a.982.982,0,0,1-.249.032M274.168,9.942l5.4,20.816,29.873-7.744L304.042,2.2Z" transform="translate(-92.436 0)" fill="#080909"/>
      <path id="패스_5010" data-name="패스 5010" d="M288.139,31.349a.99.99,0,0,1-.26-1.945l21.523-5.87-3.1-10.747a.99.99,0,1,1,1.9-.548l3.375,11.712a.99.99,0,0,1-.691,1.229L288.4,31.314a.992.992,0,0,1-.261.035" transform="translate(-97.595 -3.916)" fill="#080909"/>
      <path id="패스_5011" data-name="패스 5011" d="M318.577,63.587c5.081-.63,8.318,4.92,9.388,11.734.972,6.179,3.83,15.447-.8,20.463-2.592,2.808-8.853,4.524-11.592-.267-2.541-4.45,4.8-8.811,8.32-9.5-2.561,1.018-10.973,4.583-11.732-.094-.7-4.348,7.832-5.911,10.549-6.647-2.768,1.97-13.407,3.793-12.194-2.072.67-3.225,9.021-4.855,11.772-5.032-2.077.134-13.937,3.939-13.78-.924.147-4.418,6.453-7.216,10.072-7.662" transform="translate(-104.852 -21.595)" fill="#f3d4c9"/>
      <path id="패스_5012" data-name="패스 5012" d="M320.274,99.005a7.885,7.885,0,0,1-.879-.049A6.658,6.658,0,0,1,314.2,95.5a4.762,4.762,0,0,1-.166-4.512,8.146,8.146,0,0,1,1.6-2.244,5.78,5.78,0,0,1-3.23-.575,3.5,3.5,0,0,1-1.732-2.594,4.271,4.271,0,0,1,1.823-4.137,5.742,5.742,0,0,1-1.912-.757,3.762,3.762,0,0,1-1.549-4.185,4.189,4.189,0,0,1,1.646-2.369,4.9,4.9,0,0,1-2.628-.961,2.951,2.951,0,0,1-1.046-2.457c.171-5.156,7.209-8.154,10.94-8.613,5.167-.64,9.171,4.176,10.487,12.564.156.986.36,2.056.577,3.188,1.154,6.028,2.59,13.531-1.631,18.1a10.118,10.118,0,0,1-7.106,3.058m.178-11.342c-1.93,1.014-3.875,2.53-4.616,4.148a2.789,2.789,0,0,0,.085,2.705,4.688,4.688,0,0,0,3.7,2.472,8.029,8.029,0,0,0,6.307-2.385c3.543-3.836,2.211-10.794,1.141-16.384-.22-1.149-.428-2.234-.588-3.253-.888-5.659-3.527-11.495-8.287-10.907h0c-3.237.4-9.08,2.984-9.2,6.713a.974.974,0,0,0,.335.872c1,.831,3.672.632,6.181.224a31.838,31.838,0,0,1,6.209-1.193h0a1,1,0,0,1,1.052.924.99.99,0,0,1-.924,1.052c-.349.022-1.228.213-2.157.414-1.215.263-2.433.515-3.61.714-2.567.782-4.845,1.893-5.1,3.118-.27,1.306.228,1.821.692,2.124a7.048,7.048,0,0,0,4.067.617,38.661,38.661,0,0,1,5.17-1.563c.4-.1.751-.185,1.036-.263a.99.99,0,0,1,.834,1.763,15.384,15.384,0,0,1-6.576,2.013c-2.093.875-3.828,2.074-3.569,3.67a1.5,1.5,0,0,0,.752,1.187c1.337.756,4.072.12,6.329-.621a13.937,13.937,0,0,1,3.483-1.285.99.99,0,0,1,.555,1.892l-.312.125c-.98.392-1.985.775-2.983,1.109m-2.384-24.586h0Z" transform="translate(-104.342 -21.085)" fill="#040505"/>
      <path id="패스_5013" data-name="패스 5013" d="M163.518,110.91a6.192,6.192,0,0,1,8.418-2.61,6.339,6.339,0,0,1,2.736,8.468,6.115,6.115,0,0,1-4.372,3.239" transform="translate(-55.575 -36.561)" fill="#f3d4c9"/>
      <path id="패스_5014" data-name="패스 5014" d="M169.789,120.486a.99.99,0,0,1-.175-1.965,5.108,5.108,0,0,0,3.667-2.716,5.351,5.351,0,0,0-2.316-7.139,5.256,5.256,0,0,0-4.054-.368,5.107,5.107,0,0,0-3.022,2.553.99.99,0,1,1-1.762-.9,7.072,7.072,0,0,1,4.185-3.538,7.222,7.222,0,0,1,5.573.5,7.338,7.338,0,0,1,3.158,9.8,7.081,7.081,0,0,1-5.077,3.763,1.081,1.081,0,0,1-.178.015" transform="translate(-55.065 -36.05)" fill="#040505"/>
      <path id="패스_5015" data-name="패스 5015" d="M154.213,111.832c-1.415-11.177-9.45-23.3-19.163-24.044-.063-.005-.128-.009-.189-.016-10.693-1.33-18.435,7.345-17.906,17.546a46.58,46.58,0,0,0,6.478,20.666c3.635,6.064,14.679,9.33,21.2,6.521,7.426-3.2,10.5-13.388,9.58-20.673" transform="translate(-39.742 -29.785)" fill="#f3d4c9"/>
      <path id="패스_5016" data-name="패스 5016" d="M138.62,134.008c-6.418,0-13.657-3.207-16.545-8.026a47.318,47.318,0,0,1-6.619-21.124,18.222,18.222,0,0,1,5.585-14.385,16.388,16.388,0,0,1,13.433-4.194l.1.009c10.591.809,18.672,13.559,20.11,24.911,1.021,8.076-2.5,18.4-10.17,21.707a14.981,14.981,0,0,1-5.9,1.1m-6.4-45.889a14.224,14.224,0,0,0-9.83,3.8,16.241,16.241,0,0,0-4.956,12.834,45.264,45.264,0,0,0,6.339,20.207c3.342,5.576,13.788,8.781,19.958,6.122,6.72-2.9,9.9-12.449,8.99-19.639-1.345-10.625-9-22.475-18.256-23.181l-.227-.021a16.355,16.355,0,0,0-2.017-.126" transform="translate(-39.231 -29.275)" fill="#040505"/>
      <path id="패스_5017" data-name="패스 5017" d="M116.057,114.384c.4,2.777,1.054,4.7,2.046,4.383,8.995-2.906,17.283-14.446,22.051-22.052,5.025,1.229,7.716,7.417,13.242,6.842-.678-11.058-11.319-16.825-21.474-16.037-6.859.531-13.614,5.113-15.91,11.281-.543,1.46-.737,10.15.046,15.584" transform="translate(-39.268 -29.721)" fill="#070708"/>
      <path id="패스_5018" data-name="패스 5018" d="M157.173,125.715c.536-.94.591-2.064,1.21-2.958.443-.639-.283-1.353-.931-1.212-.974.209-1.976-.036-2.963.094l.712.409-2.118-4.328c-.467-.957-1.891-.119-1.425.832l2.118,4.329a.793.793,0,0,0,.712.409c1.143-.151,2.266.091,3.4-.154l-.931-1.212c-.63.91-.674,2.018-1.21,2.958a.826.826,0,0,0,1.425.833" transform="translate(-51.513 -39.866)"/>
      <path id="패스_5019" data-name="패스 5019" d="M159.83,118.163a.919.919,0,0,0,.871.938.883.883,0,0,0,.918-.86.911.911,0,0,0-.869-.933.877.877,0,0,0-.919.855" transform="translate(-54.322 -39.87)"/>
      <path id="패스_5020" data-name="패스 5020" d="M160.4,119.422h-.061a1.587,1.587,0,0,1-1.506-1.613,1.537,1.537,0,0,1,1.605-1.5,1.579,1.579,0,0,1,1.5,1.607,1.544,1.544,0,0,1-1.542,1.506m-.026-1.794a.227.227,0,0,0-.154.06.208.208,0,0,0-.066.15h0a.257.257,0,0,0,.242.263.213.213,0,0,0,.155-.06.22.22,0,0,0,.071-.159.251.251,0,0,0-.238-.255Z" transform="translate(-53.982 -39.53)" fill="#272525"/>
      <path id="패스_5021" data-name="패스 5021" d="M144.423,124.642a.916.916,0,0,0,.87.937.882.882,0,0,0,.918-.86.91.91,0,0,0-.869-.932.877.877,0,0,0-.918.855" transform="translate(-49.085 -42.072)"/>
      <path id="패스_5022" data-name="패스 5022" d="M144.99,125.9h-.063a1.584,1.584,0,0,1-1.5-1.614,1.528,1.528,0,0,1,.484-1.083,1.494,1.494,0,0,1,1.122-.415,1.576,1.576,0,0,1,1.5,1.609,1.542,1.542,0,0,1-1.541,1.5m-.027-1.794a.221.221,0,0,0-.152.059.207.207,0,0,0-.067.151v0a.255.255,0,0,0,.241.261.193.193,0,0,0,.156-.059.222.222,0,0,0,.071-.16.249.249,0,0,0-.237-.254Z" transform="translate(-48.745 -41.73)" fill="#272525"/>
      <path id="패스_5023" data-name="패스 5023" d="M121.829,127.669a6.147,6.147,0,0,0-6.433,5.987,6.383,6.383,0,0,0,6.08,6.535,6.149,6.149,0,0,0,4.991-2.183" transform="translate(-39.219 -43.389)" fill="#f3d4c9"/>
      <path id="패스_5024" data-name="패스 5024" d="M121.242,140.677c-.106,0-.213,0-.32-.007a7.385,7.385,0,0,1-7.027-7.552,7.138,7.138,0,0,1,7.467-6.949.991.991,0,0,1,.945,1.034.974.974,0,0,1-1.032.945,5.157,5.157,0,0,0-5.4,5.026,5.4,5.4,0,0,0,5.134,5.517,5.116,5.116,0,0,0,4.19-1.831.99.99,0,0,1,1.515,1.276,7.108,7.108,0,0,1-5.472,2.541" transform="translate(-38.709 -42.879)" fill="#040505"/>
      <line id="선_155" data-name="선 155" x1="2.711" y2="0.953" transform="translate(82.269 89.13)" fill="#eeb6a2"/>
      <path id="패스_5025" data-name="패스 5025" d="M124.115,136.454a.99.99,0,0,1-.329-1.924l2.711-.953a.99.99,0,0,1,.657,1.868l-2.711.953a.989.989,0,0,1-.329.056" transform="translate(-41.847 -45.38)" fill="#040505"/>
      <path id="패스_5026" data-name="패스 5026" d="M155.662,132.556l-13.538.8s2.778,10.012,8.15,9.336,5.388-10.132,5.388-10.132" transform="translate(-48.304 -45.052)" fill="#fff"/>
      <path id="패스_5027" data-name="패스 5027" d="M149.238,143.2c-5.708,0-8.458-9.669-8.577-10.095a.991.991,0,0,1,.9-1.254l13.538-.8a.99.99,0,0,1,1.048.99c0,.422-.092,10.336-6.254,11.113a5.227,5.227,0,0,1-.651.042m-6.293-9.446c1.048,2.962,3.494,7.86,6.7,7.44,3.487-.44,4.286-5.783,4.468-8.1Z" transform="translate(-47.795 -44.542)" fill="#040505"/>
      <path id="패스_5028" data-name="패스 5028" d="M108.965,223.787c1.751-2.279,7.406-4.474,8.329-7.5,1.277-4.184-5.519-3.693-7.735-1.1" transform="translate(-37.034 -72.457)" fill="#f3d4c9"/>
      <path id="패스_5029" data-name="패스 5029" d="M108.455,224.265a.99.99,0,0,1-.784-1.594,16.206,16.206,0,0,1,3.687-2.993c1.89-1.277,4.031-2.722,4.48-4.193.341-1.118-.153-1.389-.39-1.52-1.263-.693-4.4-.112-5.646,1.349a.99.99,0,0,1-1.5-1.287c1.8-2.105,5.892-3.011,8.1-1.8a3.02,3.02,0,0,1,1.331,3.833c-.654,2.141-3,3.725-5.266,5.257a15.243,15.243,0,0,0-3.225,2.559.987.987,0,0,1-.786.387" transform="translate(-36.525 -71.946)" fill="#040505"/>
      <path id="패스_5030" data-name="패스 5030" d="M80.482,206.247c.487-5.544-.583-10.478-1-15.861-.361-4.612,1.937-8.355,4.765-11.77,1.03-1.242,2.72-4.021,4.132-4.741,1.462-.745,3.44-.677,2.624,1.442.733-1.9,2.965-2.47,4.7-3.015,1.187-.375,5.281-1.117,2.785,1.485,1.708-1.781,8.657-2.072,8.291,1.687-.257,2.652-4.433,3.262-6.175,4.566-4.215,3.177-5.805,5.055-5.447,9.569a25.786,25.786,0,0,0,1.628,7.817c.924,2.308,2.6,4.579,2.416,7.223a36.477,36.477,0,0,1-4.441,13.947" transform="translate(-27 -58.428)" fill="#f3d4c9"/>
      <path id="패스_5031" data-name="패스 5031" d="M94.241,219.074a.99.99,0,0,1-.869-1.463,35.545,35.545,0,0,0,4.323-13.543c.116-1.654-.641-3.192-1.442-4.821-.314-.638-.638-1.3-.906-1.966a26.767,26.767,0,0,1-1.7-8.106c-.388-4.905,1.4-7.094,5.838-10.439a12.081,12.081,0,0,1,2.4-1.241c1.6-.69,3.264-1.4,3.382-2.629a1.335,1.335,0,0,0-.949-1.469c-1.792-.824-4.872-.242-5.644.563a.99.99,0,1,1-1.429-1.37l0,0c.069-.072.129-.138.182-.2a8.493,8.493,0,0,0-1.956.347l-.376.117c-1.493.463-3.185.988-3.694,2.31a.99.99,0,1,1-1.848-.712,1.572,1.572,0,0,0,.124-.51,2.315,2.315,0,0,0-1.374.3,12.535,12.535,0,0,0-2.808,3.154c-.365.5-.71.974-1.011,1.337-2.443,2.949-4.894,6.571-4.541,11.06.126,1.6.312,3.189.492,4.726a54.187,54.187,0,0,1,.511,11.3.99.99,0,0,1-1.972-.173,51.937,51.937,0,0,0-.5-10.9c-.182-1.555-.372-3.164-.5-4.8-.408-5.194,2.293-9.223,4.99-12.479.261-.316.588-.764.934-1.239,1.065-1.463,2.273-3.121,3.51-3.752,1.073-.549,2.671-.878,3.641,0l.018.017a11.129,11.129,0,0,1,3.445-1.534l.367-.115c.376-.119,3.72-1.125,4.651.375a1.4,1.4,0,0,1,.075.133,8.807,8.807,0,0,1,5.542.244,3.325,3.325,0,0,1,2.093,3.46c-.232,2.39-2.638,3.426-4.571,4.257a10.874,10.874,0,0,0-2,1.007c-4.132,3.115-5.369,4.721-5.053,8.7a24.942,24.942,0,0,0,1.559,7.526c.239.6.533,1.195.844,1.828.882,1.792,1.794,3.646,1.641,5.833a37.069,37.069,0,0,1-4.558,14.35.99.99,0,0,1-.871.518" transform="translate(-26.49 -57.916)" fill="#040505"/>
      <path id="패스_5032" data-name="패스 5032" d="M92.682,193.641a.991.991,0,0,1-.99-.968c-.192-8.357,2.223-12.845,10.336-19.208a.99.99,0,1,1,1.223,1.559c-7.7,6.038-9.757,9.822-9.578,17.6a.991.991,0,0,1-.968,1.013Z" transform="translate(-31.16 -58.884)" fill="#040505"/>
      <path id="패스_5033" data-name="패스 5033" d="M85.432,192.945a.99.99,0,0,1-.983-.885c-.3-2.784-.234-6.754,1.759-9.866a18.436,18.436,0,0,1,4.016-4.736c.483-.435,1.047-.943,1.749-1.612a.991.991,0,0,1,1.367,1.434c-.719.685-1.3,1.2-1.79,1.65a16.541,16.541,0,0,0-3.674,4.331c-1.682,2.628-1.721,6.121-1.458,8.588a.99.99,0,0,1-.879,1.089.958.958,0,0,1-.106.006" transform="translate(-28.657 -59.672)" fill="#040505"/>
      <path id="패스_5034" data-name="패스 5034" d="M95.121,240a53.579,53.579,0,0,1,3.452-9.7c.183-.373-20.193-9.349-20.193-9.349a88.528,88.528,0,0,1-3.74,9.349" transform="translate(-25.368 -75.096)" fill="#f6c5db"/>
      <path id="패스_5035" data-name="패스 5035" d="M94.612,240.478a.991.991,0,0,1-.958-1.243A55.572,55.572,0,0,1,96.8,230.16c-2.545-1.326-11.861-5.514-18.339-8.375a86.129,86.129,0,0,1-3.436,8.438.99.99,0,0,1-1.784-.86,88.176,88.176,0,0,0,3.691-9.229.992.992,0,0,1,.537-.6.982.982,0,0,1,.8,0c20.387,8.982,20.544,9.409,20.725,9.9a1.019,1.019,0,0,1-.04.787,52,52,0,0,0-3.385,9.514.99.99,0,0,1-.957.737m2.561-11.117,0,.008Z" transform="translate(-24.858 -74.586)" fill="#070708"/>
      <path id="패스_5036" data-name="패스 5036" d="M54.812,271.4c1.582,4.239,5.539,10.654,10.325,11.578,5.683,1.094,11.728-3.524,14.421-8.093,2.593-4.4,3.7-9.268,6.443-13.545,2.569-4,5.034-11.86,1.72-16.493-3.028-4.231-14.1-8.607-19.447-8.6-4.9,0-8.107,6.923-8.794,10.731a48.552,48.552,0,0,1-1.306,5.236" transform="translate(-18.629 -80.295)" fill="#f6c5db"/>
      <path id="패스_5037" data-name="패스 5037" d="M66.354,283.624a10.13,10.13,0,0,1-1.914-.18c-5.55-1.071-9.666-8.452-11.066-12.2a.99.99,0,0,1,1.855-.693c1.472,3.942,5.239,10.113,9.586,10.952,4.995.96,10.726-3.12,13.381-7.624a48.385,48.385,0,0,0,2.939-6.3,44.088,44.088,0,0,1,3.524-7.281c2.5-3.9,4.7-11.252,1.749-15.381-2.776-3.879-13.466-8.186-18.629-8.186h-.011c-4.264,0-7.2,6.461-7.821,9.916a49.767,49.767,0,0,1-1.333,5.343.99.99,0,1,1-1.9-.564A48.113,48.113,0,0,0,58,246.3c.679-3.765,3.959-11.54,9.768-11.546h.013c5.77,0,17.036,4.538,20.239,9.014,3.688,5.156.92,13.534-1.692,17.6a41.932,41.932,0,0,0-3.358,6.961,49.821,49.821,0,0,1-3.066,6.552c-2.651,4.5-8.079,8.743-13.546,8.743" transform="translate(-18.119 -79.785)" fill="#070708"/>
      <path id="패스_5041" data-name="패스 5041" d="M20.059,285.212l.013-3.95.013-3.951L23.5,279.3l3.416,1.986-3.428,1.965Z" transform="translate(-6.817 -94.251)" fill="#fff"/>
      <path id="패스_5042" data-name="패스 5042" d="M19.549,285.692a.99.99,0,0,1-.99-.994l.026-7.9a.99.99,0,0,1,1.489-.853l6.828,3.972a.991.991,0,0,1,0,1.716l-6.855,3.928a1,1,0,0,1-.492.131m1.01-7.172-.014,4.47,3.878-2.223Z" transform="translate(-6.308 -93.741)" fill="#080909"/>
      <line id="선_156" data-name="선 156" x1="135.602" transform="translate(25.041 186.384)" fill="#fff"/>
      <path id="패스_5043" data-name="패스 5043" d="M212.267,282.825H37.709a1.022,1.022,0,1,1,0-1.98H212.267a1.022,1.022,0,1,1,0,1.98" transform="translate(-12.383 -95.452)" fill="#080909"/>
      <path id="패스_5044" data-name="패스 5044" d="M185.6,279.745a5.051,5.051,0,1,1-5.051-5.051,5.051,5.051,0,0,1,5.051,5.051" transform="translate(-59.648 -93.361)" fill="#d75589"/>
      <path id="패스_5045" data-name="패스 5045" d="M180.043,285.276a6.041,6.041,0,1,1,6.041-6.042,6.048,6.048,0,0,1-6.041,6.042m0-10.1a4.061,4.061,0,1,0,4.06,4.06,4.065,4.065,0,0,0-4.06-4.06" transform="translate(-59.139 -92.851)" fill="#070708"/>
      <path id="패스_5049" data-name="패스 5049" d="M161.123,104.491c2.023,1.857,4.214,3.263,7.02,3.38,2.607.108,4.921-1.652,6.587-3.461,1.44-1.562-.889-3.9-2.334-2.334-2.916,3.166-5.82,2.945-8.94.081-1.564-1.436-3.9.891-2.334,2.334" transform="translate(-54.585 -34.516)" fill="#070708"/>
      <path id="패스_5050" data-name="패스 5050" d="M106.934,89.022c2.446-5.925-5.3-7.74-9.571-7.5-5.716.319-6.64,2.732-10.081,6.69-5.817,6.693-10.749,16.3-21.45,15.352,6.417,7.625,11.991,11.762,22.442,8.964,8.731-2.338,11.478-13.189,19.471-14.58" transform="translate(-22.375 -27.7)" fill="#070708"/>
      <path id="패스_5051" data-name="패스 5051" d="M346.139,110.654a.979.979,0,0,1-.492-.131.991.991,0,0,1-.366-1.352c3.282-5.719,3.529-13.282,3.429-18.472a.99.99,0,1,1,1.98-.039c.1,5.427-.164,13.352-3.691,19.5a.991.991,0,0,1-.859.5" transform="translate(-117.307 -30.482)" fill="#040505"/>
      <path id="패스_5052" data-name="패스 5052" d="M349.1,122.93a.99.99,0,0,1-.426-1.884c3.6-1.718,4.866-4.721,3.862-9.182a.99.99,0,1,1,1.931-.434c1.2,5.346-.505,9.289-4.941,11.4a.989.989,0,0,1-.426.1" transform="translate(-118.312 -37.609)" fill="#040505"/>
      <path id="사각형_5060" data-name="사각형 5060" d="M7.431,0H38.058A7.432,7.432,0,0,1,45.49,7.432V36.043a7.432,7.432,0,0,1-7.432,7.432H7.431A7.431,7.431,0,0,1,0,36.044V7.431A7.431,7.431,0,0,1,7.431,0Z" transform="translate(154.964 115.088)" fill="#d75589"/>
      <path id="패스_5053" data-name="패스 5053" d="M274.823,218.3H239.144a5.9,5.9,0,0,1-5.9-5.895V178.738a5.9,5.9,0,0,1,5.9-5.9h35.679a5.9,5.9,0,0,1,5.895,5.9V212.4a5.9,5.9,0,0,1-5.895,5.895m-35.679-43.474a3.92,3.92,0,0,0-3.916,3.916V212.4a3.92,3.92,0,0,0,3.916,3.915h35.679a3.919,3.919,0,0,0,3.915-3.915V178.738a3.92,3.92,0,0,0-3.915-3.916Z" transform="translate(-79.275 -58.744)" fill="#070708"/>
      <path id="패스_5054" data-name="패스 5054" d="M258.641,212.606l.038-11,.036-11,9.506,5.531,9.506,5.53-9.542,5.468Z" transform="translate(-87.905 -64.783)" fill="#fff"/>
      <path id="패스_5055" data-name="패스 5055" d="M258.13,213.086a.99.99,0,0,1-.99-.993l.074-22a.99.99,0,0,1,1.488-.853l19.012,11.06a.99.99,0,0,1,0,1.716l-19.086,10.936a1,1,0,0,1-.492.131m1.058-21.268-.062,18.566,16.11-9.23Z" transform="translate(-87.395 -64.273)" fill="#080909"/>
    </g>
  </g>
  <g id="그룹_12879" data-name="그룹 12879">
    <g id="그룹_12878" data-name="그룹 12878" clip-path="url(#clip-path)">
      <path id="패스_5056" data-name="패스 5056" d="M17.7,132.169a.58.58,0,0,1,.086-.429.505.505,0,0,1,.279-.237.818.818,0,0,1,.343-.086.911.911,0,0,1,.344.086.715.715,0,0,1,.279.237.907.907,0,0,1,.107.429,18.937,18.937,0,0,0,.3,2.9,21.5,21.5,0,0,0,.687,2.876,24.265,24.265,0,0,0,1.009,2.812c.365.944.773,1.825,1.2,2.683a18.38,18.38,0,0,0,1.18-2.919q.452-1.513.838-3.091c.236-1.03.472-2.06.729-3.113a25.9,25.9,0,0,1,.859-3.048.721.721,0,0,1,.236-.365.862.862,0,0,1,.343-.172,2.3,2.3,0,0,1,.386.022,1.387,1.387,0,0,1,.3.171.808.808,0,0,1,.193.323,1.016,1.016,0,0,1-.043.429c-.257.772-.494,1.524-.687,2.3-.215.795-.408,1.589-.58,2.362-.193.794-.387,1.588-.558,2.361q-.322,1.191-.644,2.318-.387,1.16-.838,2.254a18.3,18.3,0,0,1-1.094,2.146,1.694,1.694,0,0,1-.279.279,2.29,2.29,0,0,1-.365.107.909.909,0,0,1-.343-.085.743.743,0,0,1-.279-.3c-.537-.988-1.031-2.017-1.5-3.112a30.17,30.17,0,0,1-1.244-3.285,23.333,23.333,0,0,1-.88-3.413,16.749,16.749,0,0,1-.365-3.434" transform="translate(-6.013 -44.432)"/>
      <path id="패스_5057" data-name="패스 5057" d="M37.578,131.266a.593.593,0,0,1,.215-.494.748.748,0,0,1,.472-.172.8.8,0,0,1,.473.172.665.665,0,0,1,.215.494c0,1.094-.022,2.211-.065,3.369s-.108,2.318-.15,3.478q-.064,1.771-.129,3.478c-.044,1.159-.065,2.3-.065,3.37a.643.643,0,0,1-.215.515,1.1,1.1,0,0,1-.473.151.88.88,0,0,1-.472-.151.548.548,0,0,1-.236-.515c0-1.073.042-2.211.086-3.37q.063-1.706.129-3.478c.042-1.159.107-2.318.15-3.478s.065-2.275.065-3.369" transform="translate(-12.626 -44.387)"/>
      <path id="패스_5058" data-name="패스 5058" d="M48.432,138.524a.747.747,0,0,1,.515.257.721.721,0,0,1,.386-.022,6.407,6.407,0,0,1,1.288.773,5.3,5.3,0,0,1,.923,1.052,5.991,5.991,0,0,1,.558,1.267,6.162,6.162,0,0,1,.172,1.353,5.445,5.445,0,0,1-.258,1.674,4.37,4.37,0,0,1-.751,1.438,3.934,3.934,0,0,1-1.2,1.03,3.541,3.541,0,0,1-1.653.386,2.776,2.776,0,0,1-.6-.042,3.244,3.244,0,0,1-.622-.129,3.347,3.347,0,0,1-1.331-.644,3.273,3.273,0,0,1-.923-1.03,3.527,3.527,0,0,1-.537-1.267A5.13,5.13,0,0,1,44.2,143.2a5.828,5.828,0,0,1,.258-1.718,4.744,4.744,0,0,1,.772-1.5,3.95,3.95,0,0,1,1.223-1.073,3.369,3.369,0,0,1,1.653-.407h.151c.043,0,.086.021.15.021Zm.536,1.674a.69.69,0,0,1-.365-.215.162.162,0,0,1-.086.021h-.085a2.339,2.339,0,0,0-1.182.236,3.14,3.14,0,0,0-.88.795,3.618,3.618,0,0,0-.557,1.116,4.442,4.442,0,0,0-.193,1.288,2.777,2.777,0,0,0,.107.859,2.549,2.549,0,0,0,.3.772,2.05,2.05,0,0,0,.537.6,1.918,1.918,0,0,0,.751.386,3.039,3.039,0,0,0,.859.108,2.323,2.323,0,0,0,1.159-.279,2.449,2.449,0,0,0,.859-.687,3.33,3.33,0,0,0,.536-.987A3.9,3.9,0,0,0,50.9,143.1a4.335,4.335,0,0,0-.108-.9,4,4,0,0,0-.365-.816,3.643,3.643,0,0,0-.6-.687,3.732,3.732,0,0,0-.859-.494" transform="translate(-15.023 -47.073)"/>
      <path id="패스_5059" data-name="패스 5059" d="M65.543,148.258a8.231,8.231,0,0,0,.537-1.395,8.946,8.946,0,0,0,.236-1.524c0-.515-.021-1.052-.065-1.588a8.073,8.073,0,0,0-.364-1.46,6.088,6.088,0,0,1-1.03.6,5.155,5.155,0,0,1-1.116.43,3.938,3.938,0,0,1-1.1.107,2.175,2.175,0,0,1-1.009-.215,1.918,1.918,0,0,1-.751-.687,2.548,2.548,0,0,1-.408-1.18,4.838,4.838,0,0,1,0-1.117,4.581,4.581,0,0,1,.279-1.159,2.644,2.644,0,0,1,.644-.944,1.794,1.794,0,0,1,1.052-.409,2.561,2.561,0,0,1,1.052.151,4.147,4.147,0,0,1,.966.515,8.727,8.727,0,0,1,.859.687c.257.279.493.537.708.795a.866.866,0,0,0,.172.215,2.092,2.092,0,0,0,.107.215,2.415,2.415,0,0,1,.3.108.958.958,0,0,1,.215.215,1.423,1.423,0,0,1,.108.279.721.721,0,0,1-.085.322,11.979,11.979,0,0,1,.557,1.545,11.2,11.2,0,0,1,.279,1.674,11.079,11.079,0,0,1-.021,1.7,7.832,7.832,0,0,1-.344,1.631,6.751,6.751,0,0,1-.687,1.438,4.806,4.806,0,0,1-1.073,1.116,4.5,4.5,0,0,1-1.374.665,4.308,4.308,0,0,1-1.46.129,3.706,3.706,0,0,1-1.309-.364,2.728,2.728,0,0,1-1.009-.816,2.761,2.761,0,0,1-.494-1.245,3.289,3.289,0,0,1,.15-1.61.688.688,0,0,1,.365-.408.845.845,0,0,1,.515-.042,1.316,1.316,0,0,1,.408.3.609.609,0,0,1,.043.515,1.971,1.971,0,0,0-.086,1.245,1.367,1.367,0,0,0,.494.751,1.867,1.867,0,0,0,.9.3,4.726,4.726,0,0,0,1.073-.129,4.972,4.972,0,0,0,1.009-.515,3.089,3.089,0,0,0,.751-.838M61.808,140.7a1.508,1.508,0,0,0,.193.837.922.922,0,0,0,.45.451,1.332,1.332,0,0,0,.665.086,2.356,2.356,0,0,0,.709-.15,3.914,3.914,0,0,0,.751-.344,3.484,3.484,0,0,0,.644-.473c-.172-.215-.386-.45-.6-.708-.258-.215-.494-.429-.752-.644-.257-.172-.515-.322-.751-.451a1.175,1.175,0,0,0-.687-.107.7.7,0,0,0-.451.408,2.254,2.254,0,0,0-.172,1.094" transform="translate(-20.351 -46.805)"/>
    </g>
  </g>
</svg>
